<svg preserveAspectRatio="none" width="100%" height="100%" overflow="visible" style="display: block;" viewBox="0 0 126.544 40" fill="none" xmlns="http://www.w3.org/2000/svg">
<g id="logo 2" clip-path="url(#clip0_596_2101)">
<path id="Vector" d="M30.0319 19.224L31.7384 12.8068H41.2648L39.7627 19.224H30.0319ZM68.7506 1.1707C67.511 0.746873 66.2329 0.445376 64.9345 0.270521C62.5745 -0.102637 60.1705 -0.102637 57.8104 0.270521C54.4969 0.701281 50.8741 1.69534 47.682 4.56156C45.9335 6.15682 44.5324 8.09522 43.5661 10.2559C42.5998 12.4165 42.089 14.7531 42.0656 17.1199C42.0656 19.6327 43.1259 21.7865 45.2687 23.6421C46.8868 25.0393 48.2011 25.4093 50.2942 25.8511C53.0997 26.442 55.5848 26.3205 58.9205 25.8511C59.8306 25.7305 60.7338 25.5628 61.6265 25.3485C62.4936 25.1497 63.8356 24.7521 63.8356 24.7521L66.7404 12.8123H58.8155L57.3134 19.6327C56.7084 19.873 56.0578 19.9768 55.4081 19.9364C54.8579 19.9641 54.3078 19.8805 53.7907 19.6907C53.2736 19.5009 52.8 19.2088 52.3983 18.8319C51.1944 17.7274 51.3214 14.4856 52.2989 12.0115C52.8619 10.3593 53.9675 8.94617 55.4357 8.00212C57.5343 6.54969 59.3015 6.53312 61.8253 6.59387C63.6674 6.57818 65.4879 6.9903 67.1436 7.79779L68.7506 1.1707ZM79.4479 13.9555H84.4955L84.0924 5.92011L79.4479 13.9555ZM64.4927 25.597L79.1497 0.298133H91.2993L93.304 25.597H83.6616V20.1794H76.2116L73.605 25.597H64.4927ZM119.603 1.07129C119.603 1.07129 118.564 0.80621 117.896 0.668146C116.97 0.480433 116.033 0.347659 115.091 0.270521C112.935 0.00819232 110.757 0.00819232 108.602 0.270521C106.475 0.552172 103.046 1.10443 100.644 3.37973C98.3461 5.58876 97.2361 7.99108 97.2361 10.8021C97.24 11.7457 97.5573 12.6612 98.1381 13.4049C98.7188 14.1486 99.5302 14.6783 100.445 14.9109C101.212 15.0986 103.758 15.8828 105.835 16.4793C107.254 16.8879 107.569 17.1917 107.563 18.136C107.558 19.0804 106.459 19.5222 105.426 19.7928C103.91 20.0452 102.363 20.0583 100.842 19.8315C98.9625 19.6609 97.129 19.152 95.4302 18.3293L93.8231 24.741C95.2877 25.2547 96.7988 25.6246 98.3351 25.8456C101.776 26.3978 104.139 26.5138 107.265 25.8456C109.672 25.439 111.92 24.3787 113.765 22.7805C115.615 21.3111 116.806 19.1682 117.079 16.8217C117.228 15.0324 117.25 13.7456 116.173 12.3042C114.925 10.6474 113.229 10.6806 111.258 10.2001C109.916 9.86875 109.11 9.91293 107.74 9.43799C107.188 9.23918 106.845 8.8526 106.845 7.99108C106.845 7.00806 107.806 6.62148 108.833 6.43924C110.002 6.25671 111.19 6.23998 112.362 6.38953C113.62 6.43167 114.867 6.63395 116.074 6.99149C116.727 7.17242 117.364 7.40701 117.979 7.69286L119.603 1.07129ZM14.9994 13.9555H20.0195L19.6163 5.92011L14.9994 13.9555ZM0.0387839 25.597L14.6957 0.298133H26.8454L28.8501 25.597H19.2132V20.1794H11.7853L9.17312 25.597H0.0387839Z" fill="#EC008C"/>
<path id="Vector_2" d="M123.187 3.47385H123.673L124.49 4.82136H125.076L124.192 3.4352C124.304 3.43776 124.415 3.41693 124.519 3.37403C124.623 3.33112 124.716 3.26709 124.793 3.18602C124.871 3.10494 124.931 3.00862 124.969 2.90318C125.007 2.79774 125.022 2.68552 125.015 2.57367C125.015 1.93306 124.628 1.66245 123.866 1.66245H122.668V4.82136H123.187V3.47385ZM123.187 3.03205V2.10426H123.811C124.126 2.10426 124.496 2.15396 124.496 2.53502C124.496 2.91607 124.153 3.03205 123.767 3.03205H123.187ZM126.545 3.1922C126.545 2.44961 126.25 1.73743 125.724 1.21234C125.199 0.687251 124.487 0.392258 123.745 0.392258C123.002 0.392258 122.29 0.687251 121.765 1.21234C121.24 1.73743 120.945 2.44961 120.945 3.1922C120.945 3.93479 121.24 4.64697 121.765 5.17206C122.29 5.69715 123.002 5.99215 123.745 5.99215C124.487 5.99215 125.199 5.69715 125.724 5.17206C126.25 4.64697 126.545 3.93479 126.545 3.1922ZM125.932 3.1922C125.973 3.50417 125.947 3.82141 125.856 4.12268C125.765 4.42395 125.611 4.7023 125.404 4.93907C125.196 5.17584 124.941 5.36558 124.654 5.49558C124.368 5.62557 124.057 5.69282 123.742 5.69282C123.427 5.69282 123.116 5.62557 122.829 5.49558C122.543 5.36558 122.287 5.17584 122.08 4.93907C121.873 4.7023 121.718 4.42395 121.627 4.12268C121.536 3.82141 121.511 3.50417 121.552 3.1922C121.511 2.88024 121.536 2.56299 121.627 2.26172C121.718 1.96045 121.873 1.68211 122.08 1.44533C122.287 1.20856 122.543 1.01882 122.829 0.888829C123.116 0.758835 123.427 0.691586 123.742 0.691586C124.057 0.691586 124.368 0.758835 124.654 0.888829C124.941 1.01882 125.196 1.20856 125.404 1.44533C125.611 1.68211 125.765 1.96045 125.856 2.26172C125.947 2.56299 125.973 2.88024 125.932 3.1922Z" fill="#EC008C"/>
<path id="Vector_3" d="M79.8021 31.9977C79.8561 31.8774 79.9023 31.7538 79.9402 31.6276C79.9576 31.5944 79.9667 31.5575 79.9667 31.52C79.9667 31.4824 79.9576 31.4455 79.9402 31.4123C79.8809 31.3545 79.8021 31.321 79.7193 31.3184C79.5722 31.3079 79.4246 31.3079 79.2775 31.3184H78.8025C78.7041 31.3262 78.6062 31.3409 78.5098 31.3626C78.4465 31.3797 78.3891 31.4141 78.3442 31.462C78.304 31.5066 78.2739 31.5593 78.2558 31.6166L75.4559 38.1885L75.1079 31.6939C75.1045 31.623 75.0934 31.5526 75.0748 31.4841C75.0646 31.4562 75.0484 31.4309 75.0274 31.4099C75.0065 31.3889 74.9812 31.3728 74.9533 31.3626C74.8666 31.33 74.7752 31.3114 74.6827 31.3073H73.7218C73.6222 31.313 73.5238 31.3315 73.4291 31.3626C73.3606 31.3871 73.2997 31.4289 73.2524 31.4841C73.2026 31.5432 73.1633 31.6104 73.1364 31.6829L70.2591 38.1774L70.0879 31.6773C70.0977 31.6133 70.0977 31.5481 70.0879 31.4841C70.0786 31.4581 70.0639 31.4344 70.0449 31.4145C70.0259 31.3945 70.0029 31.3787 69.9775 31.3681C69.889 31.335 69.7957 31.3164 69.7013 31.3129H68.7404C68.6432 31.3139 68.5479 31.3405 68.4643 31.3902C68.4336 31.4113 68.4081 31.4393 68.3899 31.4718C68.3717 31.5044 68.3613 31.5407 68.3593 31.5779C68.3471 31.6899 68.3471 31.8029 68.3593 31.9148L68.8177 39.4089C68.8189 39.5013 68.8357 39.5928 68.8674 39.6796C68.8838 39.7145 68.9076 39.7455 68.9372 39.7703C68.9667 39.7951 69.0014 39.8131 69.0386 39.8231C69.1562 39.8624 69.2792 39.8829 69.4031 39.8839H70.5905C70.7072 39.8832 70.823 39.8627 70.9329 39.8231C71.0126 39.7972 71.0834 39.7493 71.1372 39.6851C71.1934 39.6063 71.2397 39.521 71.2753 39.431L73.6445 34.0134L73.9537 39.4752C73.9541 39.554 73.973 39.6315 74.0089 39.7016C74.0268 39.7327 74.0506 39.76 74.079 39.7818C74.1075 39.8036 74.14 39.8195 74.1746 39.8287C74.2855 39.8633 74.4008 39.8819 74.517 39.8839H75.6215C75.7454 39.8818 75.8682 39.8614 75.986 39.8231C76.0748 39.7999 76.1552 39.7521 76.218 39.6851C76.2819 39.6086 76.334 39.523 76.3726 39.431L79.8021 31.9977ZM86.6612 31.3349H82.4198C82.2774 31.3356 82.1386 31.3799 82.0222 31.462C81.8936 31.5674 81.8089 31.7171 81.7847 31.8817L80.2992 39.3095C80.2832 39.3916 80.2832 39.476 80.2992 39.5581C80.31 39.6208 80.3366 39.6797 80.3765 39.7293C80.4131 39.7762 80.4632 39.8109 80.5201 39.8287C80.5821 39.8402 80.6458 39.8402 80.7078 39.8287H84.9933C85.0211 39.8295 85.0486 39.8245 85.0743 39.8141C85.1 39.8036 85.1232 39.7879 85.1425 39.7679C85.1911 39.7162 85.2303 39.6564 85.2584 39.5912C85.2926 39.5164 85.3203 39.4388 85.3413 39.3592C85.3413 39.2764 85.3799 39.1936 85.3965 39.1107C85.4036 39.0373 85.4036 38.9633 85.3965 38.8898V38.7462C85.3982 38.6762 85.385 38.6065 85.3578 38.5419C85.3457 38.5207 85.3279 38.5033 85.3064 38.4917C85.285 38.48 85.2607 38.4744 85.2363 38.4756H82.1547L82.6407 36.0678H85.2142C85.2423 36.0676 85.27 36.0616 85.2957 36.0502C85.3214 36.0388 85.3444 36.0222 85.3634 36.0015C85.412 35.953 85.4497 35.8946 85.4738 35.8303C85.5084 35.757 85.538 35.6813 85.5622 35.6039C85.5622 35.5211 85.6008 35.4382 85.6119 35.3554C85.6229 35.2725 85.6119 35.2007 85.6395 35.1345C85.6438 35.0886 85.6438 35.0423 85.6395 34.9964C85.6443 34.9332 85.6309 34.87 85.6008 34.8142C85.5868 34.7921 85.5671 34.7743 85.5438 34.7626C85.5204 34.7509 85.4943 34.7458 85.4683 34.7479H82.8892L83.309 32.6659H86.3519C86.3803 32.6643 86.408 32.6572 86.4336 32.6449C86.4592 32.6326 86.4821 32.6153 86.501 32.5941C86.5484 32.5394 86.5875 32.478 86.617 32.4118C86.652 32.3336 86.6798 32.2522 86.6998 32.1689C86.6998 32.0805 86.7385 31.9977 86.755 31.9148C86.7716 31.832 86.755 31.7602 86.7827 31.6939C86.8103 31.6276 86.7827 31.5835 86.7827 31.5558C86.7827 31.3902 86.7274 31.3073 86.6115 31.3073M98.2089 31.8044C98.0847 31.6849 97.9408 31.5877 97.7836 31.5172C97.5553 31.4043 97.3142 31.319 97.0657 31.2632C96.7791 31.2005 96.4865 31.169 96.1931 31.1693C95.2115 31.1543 94.2552 31.4802 93.4871 32.0915C93.1356 32.3775 92.8269 32.7122 92.5703 33.0856C92.3121 33.4604 92.0954 33.8623 91.9242 34.284C91.7574 34.7035 91.6316 35.1381 91.5486 35.5818C91.4667 36.0003 91.4242 36.4256 91.4216 36.852C91.4108 37.3182 91.4857 37.7824 91.6425 38.2216C91.7803 38.5985 92.0055 38.9373 92.2997 39.2101C92.579 39.4665 92.9134 39.6555 93.2772 39.7624C93.6948 39.8955 94.1312 39.9608 94.5695 39.9557C94.8435 39.9554 95.117 39.9314 95.3868 39.8839C95.6248 39.8583 95.8609 39.8178 96.0937 39.7624C96.2715 39.7074 96.4435 39.6352 96.6073 39.547C96.71 39.4988 96.805 39.4355 96.889 39.3592C96.9381 39.31 96.9774 39.2519 97.0049 39.188C97.0382 39.1211 97.0641 39.0507 97.0823 38.9782C97.0823 38.9009 97.1264 38.818 97.143 38.7297C97.1596 38.6413 97.1761 38.5529 97.1872 38.4812C97.2023 38.4119 97.2134 38.3418 97.2203 38.2713C97.2239 38.2253 97.2239 38.1792 97.2203 38.1332C97.2233 38.0725 97.212 38.012 97.1872 37.9565C97.1762 37.9359 97.1593 37.919 97.1386 37.9082C97.1179 37.8974 97.0944 37.893 97.0712 37.8958C96.9715 37.9013 96.8755 37.9359 96.7951 37.9952C96.6902 38.0614 96.5576 38.1332 96.403 38.2106C96.2265 38.3019 96.0415 38.3759 95.8507 38.4315C95.5899 38.5026 95.3202 38.5361 95.0499 38.5309C94.8075 38.5347 94.5663 38.4954 94.3375 38.4149C94.1287 38.3438 93.9396 38.2246 93.7853 38.067C93.6345 37.8997 93.5215 37.7019 93.4539 37.4871C93.372 37.2244 93.3329 36.9503 93.3379 36.6753C93.3408 36.3993 93.3667 36.1241 93.4153 35.8524C93.4666 35.548 93.5442 35.2487 93.6472 34.9578C93.7482 34.658 93.8796 34.3693 94.0393 34.0962C94.189 33.8273 94.3748 33.5802 94.5916 33.3617C94.7977 33.1483 95.041 32.9743 95.3095 32.8481C95.5862 32.7132 95.8908 32.6451 96.1986 32.6493C96.448 32.6431 96.6966 32.6805 96.9331 32.7598C97.1052 32.8183 97.2701 32.8961 97.4247 32.9917C97.5329 33.0639 97.6362 33.1433 97.7339 33.2292C97.7862 33.2899 97.8589 33.3292 97.9383 33.3396C98.0156 33.3396 98.0874 33.2734 98.1536 33.1519C98.2269 32.9918 98.2789 32.8229 98.3083 32.6493C98.3455 32.488 98.3658 32.3233 98.369 32.1578C98.3712 32.0982 98.3616 32.0387 98.3408 31.9828C98.3199 31.9268 98.2882 31.8756 98.2475 31.832M104.792 31.6553C104.787 31.5878 104.768 31.522 104.737 31.462C104.719 31.4327 104.694 31.4076 104.666 31.3885C104.637 31.3695 104.605 31.3568 104.571 31.3515C104.457 31.3216 104.34 31.3067 104.223 31.3073H103.052C102.94 31.3073 102.829 31.3222 102.721 31.3515C102.65 31.3691 102.585 31.4053 102.533 31.4564C102.481 31.5112 102.437 31.5724 102.4 31.6387L98.3027 39.2101C98.2357 39.3279 98.1803 39.4518 98.1371 39.5801C98.1187 39.6131 98.109 39.6501 98.109 39.6878C98.109 39.7255 98.1187 39.7626 98.1371 39.7955C98.1664 39.8258 98.2016 39.8497 98.2406 39.8659C98.2795 39.882 98.3213 39.89 98.3635 39.8894C98.5199 39.8973 98.6765 39.8973 98.8329 39.8894H99.3023C99.4032 39.8871 99.5034 39.8722 99.6006 39.8452C99.6647 39.8291 99.7237 39.7968 99.7718 39.7513C99.816 39.7067 99.8516 39.6543 99.8767 39.5967L100.76 37.9399H103.963L104.195 39.6519C104.197 39.7022 104.21 39.7514 104.234 39.7955C104.264 39.8352 104.307 39.8627 104.355 39.8728C104.435 39.8956 104.516 39.9086 104.598 39.9115H105.559C105.663 39.9102 105.765 39.8796 105.852 39.8231C105.882 39.7983 105.906 39.767 105.922 39.7317C105.939 39.6963 105.947 39.6577 105.946 39.6188C105.943 39.493 105.932 39.3676 105.913 39.2433L104.792 31.6553ZM103.825 36.5869H101.429L103.328 32.9641L103.825 36.5869ZM116.312 31.5669C116.326 31.5295 116.326 31.4883 116.312 31.4509C116.288 31.4114 116.251 31.3819 116.207 31.3681C116.133 31.3459 116.057 31.3311 115.98 31.3239C115.852 31.3173 115.723 31.3173 115.594 31.3239C115.467 31.3173 115.34 31.3173 115.213 31.3239C115.129 31.333 115.046 31.3478 114.964 31.3681C114.912 31.3837 114.865 31.4122 114.826 31.4509C114.796 31.4831 114.775 31.5233 114.766 31.5669L113.954 35.5818C113.893 35.9021 113.832 36.2279 113.777 36.5593C113.722 36.8907 113.661 37.222 113.611 37.5423C113.534 37.2993 113.468 37.0563 113.396 36.8133C113.324 36.5703 113.252 36.3329 113.17 36.0844L111.899 32.2186C111.859 32.0729 111.808 31.9307 111.745 31.7933C111.695 31.69 111.63 31.595 111.551 31.5117C111.477 31.4392 111.386 31.3861 111.286 31.357C111.166 31.3212 111.041 31.3045 110.916 31.3073H110.016C109.845 31.3045 109.678 31.3589 109.541 31.462C109.393 31.575 109.296 31.7417 109.271 31.9259L107.691 39.6243C107.682 39.6441 107.678 39.6656 107.679 39.6872C107.68 39.7088 107.686 39.7299 107.696 39.7491C107.706 39.7682 107.72 39.7848 107.737 39.7976C107.755 39.8104 107.775 39.8191 107.796 39.8231C107.869 39.8519 107.945 39.8705 108.022 39.8784C108.149 39.8855 108.277 39.8855 108.404 39.8784C108.532 39.8853 108.661 39.8853 108.79 39.8784C108.876 39.8682 108.961 39.8497 109.044 39.8231C109.098 39.8081 109.148 39.7796 109.188 39.7403C109.219 39.7077 109.242 39.6678 109.254 39.6243L110.121 35.267C110.193 34.9301 110.254 34.5933 110.314 34.2564C110.375 33.9195 110.419 33.5771 110.463 33.2292C110.535 33.5274 110.613 33.8201 110.695 34.1238C110.778 34.4276 110.867 34.7148 110.96 35.013L112.22 38.818C112.269 38.9942 112.328 39.1675 112.396 39.3372C112.444 39.4548 112.509 39.5646 112.59 39.663C112.659 39.7397 112.749 39.7952 112.849 39.8231C112.977 39.8595 113.109 39.8763 113.241 39.8728H113.981C114.066 39.8739 114.15 39.8608 114.23 39.8342C114.313 39.8124 114.39 39.7729 114.456 39.7182C114.526 39.6647 114.586 39.5993 114.633 39.5249C114.683 39.4411 114.718 39.3497 114.738 39.2543L116.312 31.5669Z" fill="#EC008C"/>
<path id="Vector_4" d="M6.39539 31.3955C6.38387 31.3753 6.36683 31.3589 6.34628 31.3482C6.32573 31.3374 6.30253 31.3327 6.27941 31.3347H0.348169C0.326835 31.3337 0.305516 31.3371 0.285556 31.3447C0.265595 31.3523 0.247427 31.3639 0.232195 31.3789C0.197204 31.4109 0.167396 31.4482 0.143834 31.4894C0.121744 31.5336 0.0996535 31.5833 0.0775632 31.6385C0.0608391 31.6927 0.0479218 31.7481 0.0389052 31.8042V31.9588C0.0369762 31.9956 0.0369762 32.0325 0.0389052 32.0692C0.0356971 32.1264 0.0471009 32.1834 0.0720406 32.2349C0.0858153 32.2555 0.104876 32.272 0.127224 32.2827C0.149573 32.2934 0.174385 32.2979 0.19906 32.2957H2.54615L1.0661 39.6849C1.05736 39.7156 1.05736 39.7481 1.0661 39.7788C1.08488 39.8089 1.11454 39.8307 1.14894 39.8395C1.20214 39.861 1.25778 39.8758 1.31462 39.8837C1.40469 39.8906 1.49516 39.8906 1.58523 39.8837C1.67716 39.89 1.76942 39.89 1.86135 39.8837C1.92325 39.8742 1.98421 39.8594 2.0436 39.8395C2.08757 39.8259 2.12619 39.7988 2.15405 39.7622C2.17878 39.7416 2.1978 39.715 2.20928 39.6849L3.6838 32.2957H6.07508C6.11929 32.2945 6.16193 32.279 6.19658 32.2515C6.23609 32.2248 6.26836 32.1888 6.29046 32.1466C6.31914 32.0981 6.34141 32.0461 6.35673 31.9919C6.37601 31.9361 6.39078 31.8789 6.40091 31.8207C6.40359 31.7711 6.40359 31.7213 6.40091 31.6716V31.5667C6.40345 31.5078 6.3921 31.4492 6.36777 31.3955M14.1546 32.9087C14.042 32.5605 13.8533 32.2417 13.6023 31.9754C13.3357 31.722 13.0145 31.5331 12.6635 31.4231C12.2406 31.2879 11.7986 31.2226 11.3547 31.2298C10.79 31.2181 10.2282 31.3118 9.69789 31.5059C9.24339 31.6751 8.82264 31.9238 8.45531 32.2404C8.10464 32.5482 7.80296 32.9076 7.56065 33.3063C7.31951 33.7 7.1214 34.1184 6.96974 34.5544C6.81914 34.9773 6.71002 35.4138 6.6439 35.8577C6.58009 36.2596 6.54686 36.6658 6.5445 37.0727C6.53584 37.5018 6.59931 37.9293 6.73226 38.3374C6.85408 38.6876 7.05884 39.0031 7.32908 39.257C7.59931 39.5109 7.92699 39.6956 8.28411 39.7953C8.70922 39.9285 9.15309 39.9919 9.59848 39.9831C10.164 39.9943 10.7265 39.8968 11.2553 39.6959C11.7141 39.5164 12.1383 39.2586 12.5089 38.9338C12.8596 38.6143 13.1578 38.2416 13.3925 37.8293C13.6198 37.4318 13.8049 37.0117 13.9447 36.5757C14.0866 36.1623 14.1919 35.7372 14.2595 35.3055C14.3147 34.9398 14.3442 34.5707 14.3479 34.201C14.356 33.7647 14.2926 33.33 14.1601 32.9142M13.0556 35.1232C13.0127 35.4688 12.9426 35.8104 12.8458 36.1449C12.7389 36.4993 12.6041 36.8446 12.4426 37.1776C12.2953 37.5146 12.098 37.8274 11.8572 38.1054C11.6027 38.3747 11.3015 38.5955 10.9681 38.7571C10.5911 38.9243 10.1821 39.0073 9.76968 39.0001C9.45249 39.0085 9.13637 38.9598 8.83637 38.8565C8.59917 38.7689 8.38688 38.6248 8.21784 38.4368C8.05826 38.2475 7.94315 38.0248 7.88096 37.7851C7.80979 37.5091 7.77452 37.2251 7.77603 36.9402C7.78919 36.3052 7.88196 35.6744 8.05216 35.0625C8.15365 34.7035 8.28671 34.3542 8.44979 34.0187C8.60758 33.6785 8.8182 33.3653 9.07384 33.0909C9.33023 32.8185 9.6332 32.5941 9.96849 32.4282C10.346 32.256 10.7575 32.171 11.1724 32.1797C11.487 32.1709 11.8002 32.2234 12.0947 32.3343C12.3328 32.4225 12.544 32.5709 12.7077 32.7651C12.8672 32.9586 12.9822 33.1849 13.0446 33.4278C13.1157 33.7038 13.151 33.9878 13.1495 34.2728C13.1465 34.5629 13.1244 34.8526 13.0832 35.1398M23.6976 32.0969C23.6722 32.0443 23.6365 31.9973 23.5927 31.9588C23.4978 31.8826 23.3982 31.8125 23.2945 31.7489C23.1211 31.6426 22.9357 31.5573 22.7422 31.4949C22.5099 31.4113 22.2718 31.3448 22.0298 31.2961C21.7443 31.2393 21.4538 31.2116 21.1627 31.2132C20.6556 31.2109 20.151 31.2854 19.6661 31.4341C19.2288 31.5764 18.8127 31.777 18.4291 32.0306C18.0478 32.2788 17.7038 32.58 17.4074 32.9252C17.1112 33.271 16.8606 33.6533 16.6619 34.0629C16.2406 34.8912 16.0193 35.8066 16.0157 36.7358C16.0127 37.2038 16.097 37.6683 16.2642 38.1054C16.4096 38.4921 16.6398 38.8412 16.938 39.1271C17.2539 39.4202 17.6312 39.6391 18.0425 39.7677C18.5293 39.9244 19.0388 39.9991 19.5502 39.9886C19.8708 39.9906 20.1908 39.961 20.5056 39.9003C20.7859 39.848 21.0626 39.7779 21.334 39.6904C21.5394 39.6262 21.7405 39.5487 21.9359 39.4584C22.0435 39.4112 22.1454 39.3519 22.2397 39.2817C22.2753 39.2408 22.3068 39.1964 22.3335 39.1492C22.3663 39.085 22.3887 39.016 22.3998 38.9448L23.0625 35.6644C23.0784 35.6094 23.0832 35.5518 23.0766 35.4949C23.0699 35.438 23.052 35.383 23.0239 35.3331C22.9952 35.29 22.9555 35.2554 22.9088 35.2331C22.8621 35.2107 22.8103 35.2014 22.7588 35.2061H20.0361C19.9986 35.206 19.9619 35.2176 19.9312 35.2392C19.8962 35.2669 19.8663 35.3005 19.8429 35.3386C19.8156 35.3848 19.7916 35.4327 19.7711 35.4822C19.7512 35.534 19.7364 35.5877 19.7269 35.6423C19.7242 35.6939 19.7242 35.7455 19.7269 35.797V35.9185C19.7248 35.9751 19.7402 36.031 19.7711 36.0786C19.7853 36.097 19.8038 36.1116 19.825 36.1212C19.8462 36.1308 19.8693 36.1352 19.8926 36.1339H21.8641L21.3671 38.6024C21.1068 38.7369 20.8302 38.8372 20.5442 38.9007C20.2627 38.9604 19.976 38.9919 19.6882 38.9946C19.3487 39.0001 19.0106 38.9478 18.6886 38.8399C18.4033 38.743 18.1417 38.5867 17.921 38.3815C17.7076 38.1717 17.5435 37.917 17.4405 37.636C17.3202 37.3072 17.2622 36.9589 17.2693 36.6088C17.2681 35.873 17.4323 35.1464 17.7498 34.4826C17.8966 34.1595 18.082 33.8553 18.3021 33.5769C18.5225 33.301 18.7788 33.0559 19.0642 32.8479C19.3537 32.6456 19.6696 32.484 20.003 32.3675C20.3592 32.2498 20.7324 32.1919 21.1075 32.1963C21.4321 32.1886 21.756 32.2295 22.0685 32.3178C22.3047 32.3863 22.534 32.4769 22.7533 32.5884C22.9337 32.6878 23.0828 32.7761 23.2006 32.8534C23.2765 32.917 23.368 32.9589 23.4657 32.9749C23.4987 32.9726 23.5299 32.959 23.554 32.9363C23.5831 32.9072 23.6073 32.8736 23.6258 32.8369C23.6494 32.7912 23.6679 32.743 23.681 32.6933C23.7002 32.6412 23.7149 32.5877 23.7252 32.5331C23.7252 32.4834 23.7252 32.4337 23.7528 32.3896C23.7551 32.3509 23.7551 32.3122 23.7528 32.2736C23.7627 32.2188 23.7627 32.1627 23.7528 32.1079M31.2138 31.3458H27.1271C27.0167 31.3488 26.9094 31.3833 26.8179 31.4452C26.7059 31.5339 26.6326 31.6626 26.6135 31.8042L25.0948 39.3977C25.0791 39.4686 25.0791 39.5422 25.0948 39.6131C25.1086 39.6654 25.133 39.7143 25.1666 39.7567C25.1962 39.794 25.2368 39.821 25.2826 39.834C25.3301 39.842 25.3787 39.842 25.4262 39.834H29.5239C29.5676 39.8348 29.6103 39.8212 29.6454 39.7953C29.6849 39.7687 29.7172 39.7326 29.7393 39.6904C29.767 39.6414 29.7892 39.5896 29.8056 39.5358C29.8056 39.4805 29.8332 39.4308 29.8442 39.3756C29.8553 39.3204 29.8442 39.2707 29.8442 39.221C29.8466 39.1842 29.8466 39.1473 29.8442 39.1105C29.8487 39.0526 29.8352 38.9948 29.8056 38.9448C29.7917 38.9293 29.7747 38.9168 29.7556 38.9083C29.7366 38.8997 29.716 38.8952 29.7366 38.8951H26.3098L26.9338 35.8964H29.789C29.8332 35.8952 29.8759 35.8797 29.9105 35.8522C29.9442 35.821 29.9739 35.7858 29.9989 35.7473C30.0234 35.7014 30.0437 35.6533 30.0596 35.6037C30.0783 35.5519 30.0913 35.4982 30.0983 35.4435V35.2889C30.1026 35.2559 30.1026 35.2225 30.0983 35.1895C30.1027 35.1334 30.0892 35.0773 30.0596 35.0293C30.0453 35.0128 30.0275 34.9997 30.0074 34.9911C29.9873 34.9825 29.9655 34.9785 29.9436 34.9796H27.1106L27.6628 32.3012H30.9764C31.02 32.302 31.0627 32.2884 31.0979 32.2625C31.139 32.233 31.1714 32.193 31.1917 32.1466C31.2216 32.0987 31.2439 32.0466 31.258 31.9919C31.258 31.9367 31.258 31.8815 31.2967 31.8318C31.3353 31.7821 31.2967 31.7268 31.2967 31.6827V31.5777C31.2967 31.4341 31.247 31.3624 31.1476 31.3624M39.2105 31.3955C39.199 31.3753 39.182 31.3589 39.1614 31.3482C39.1409 31.3374 39.1177 31.3327 39.0945 31.3347H33.1357C33.1144 31.3337 33.093 31.3371 33.0731 31.3447C33.0531 31.3523 33.0349 31.3639 33.0197 31.3789C32.9847 31.4109 32.9549 31.4482 32.9314 31.4894C32.9027 31.5359 32.8804 31.586 32.8651 31.6385C32.8464 31.6926 32.8317 31.7479 32.8209 31.8042V31.9588C32.8162 31.9955 32.8162 32.0326 32.8209 32.0692C32.8177 32.1264 32.8291 32.1834 32.854 32.2349C32.8674 32.256 32.8864 32.2728 32.9088 32.2836C32.9313 32.2943 32.9563 32.2985 32.9811 32.2957H35.3447L33.8702 39.6849C33.8614 39.7156 33.8614 39.7481 33.8702 39.7788C33.8787 39.7943 33.8906 39.8078 33.9049 39.8183C33.9192 39.8288 33.9356 39.836 33.953 39.8395C34.0062 39.861 34.0619 39.8758 34.1187 39.8837C34.2069 39.8908 34.2956 39.8908 34.3838 39.8837C34.4757 39.8904 34.568 39.8904 34.6599 39.8837C34.7221 39.8755 34.7832 39.8607 34.8422 39.8395C34.8832 39.8323 34.9204 39.8107 34.9471 39.7788C34.9742 39.7543 34.9918 39.7211 34.9968 39.6849L36.4824 32.2957H38.8792C38.9234 32.2945 38.966 32.279 39.0007 32.2515C39.0388 32.2233 39.0707 32.1876 39.0945 32.1466C39.1232 32.0981 39.1455 32.0461 39.1608 31.9919C39.1608 31.9312 39.1939 31.876 39.205 31.8207C39.2077 31.7711 39.2077 31.7213 39.205 31.6716V31.5667C39.2075 31.5078 39.1962 31.4492 39.1719 31.3955M47.29 31.4783C47.3011 31.4499 47.3011 31.4184 47.29 31.39C47.2818 31.3752 47.2708 31.3622 47.2575 31.3518C47.2442 31.3414 47.229 31.3337 47.2127 31.3292C47.1571 31.3107 47.0997 31.2978 47.0415 31.2906C46.9551 31.2842 46.8684 31.2842 46.782 31.2906C46.6882 31.2837 46.5941 31.2837 46.5003 31.2906C46.4386 31.2985 46.3777 31.3114 46.3181 31.3292C46.2769 31.3403 46.239 31.3611 46.2076 31.39C46.1849 31.4141 46.1713 31.4453 46.169 31.4783L45.4786 34.8968H41.6128L42.2866 31.4783C42.2949 31.4495 42.2949 31.4188 42.2866 31.39C42.2866 31.3624 42.2535 31.3458 42.2093 31.3292C42.1557 31.31 42.1001 31.297 42.0436 31.2906C41.9554 31.284 41.8668 31.284 41.7785 31.2906C41.6866 31.2838 41.5943 31.2838 41.5024 31.2906C41.4407 31.2985 41.3797 31.3114 41.3201 31.3292C41.2795 31.3415 41.2419 31.3622 41.2097 31.39C41.1968 31.401 41.1862 31.4145 41.1787 31.4297C41.1711 31.4449 41.1666 31.4614 41.1655 31.4783L39.5087 39.6738C39.498 39.7004 39.498 39.7301 39.5087 39.7567C39.5169 39.7714 39.528 39.7844 39.5413 39.7948C39.5546 39.8053 39.5698 39.8129 39.5861 39.8174C39.6395 39.8382 39.695 39.853 39.7517 39.8616C39.8437 39.8683 39.9359 39.8683 40.0279 39.8616C40.1179 39.8681 40.2084 39.8681 40.2985 39.8616C40.3623 39.8527 40.4251 39.8379 40.4862 39.8174C40.5267 39.8086 40.5634 39.7873 40.5912 39.7567C40.6121 39.7329 40.6272 39.7045 40.6353 39.6738L41.4195 35.8964H45.2853L44.5343 39.6849C44.5264 39.6973 44.5222 39.7116 44.5222 39.7263C44.5222 39.741 44.5264 39.7553 44.5343 39.7677C44.5421 39.7838 44.5538 39.7977 44.5682 39.8083C44.5826 39.8189 44.5994 39.8258 44.6171 39.8285C44.6703 39.85 44.726 39.8648 44.7828 39.8726C44.871 39.8792 44.9596 39.8792 45.0479 39.8726C45.1398 39.8794 45.2321 39.8794 45.324 39.8726C45.386 39.8638 45.4471 39.849 45.5063 39.8285C45.5462 39.8184 45.5826 39.7974 45.6112 39.7677C45.6317 39.7427 45.6485 39.7148 45.6609 39.6849L47.29 31.4783ZM54.7179 31.3127H50.6809C50.5704 31.3156 50.4632 31.3501 50.3716 31.4121C50.2597 31.5008 50.1864 31.6294 50.1673 31.771L48.6431 39.3977C48.627 39.4686 48.627 39.5422 48.6431 39.6131C48.6544 39.6663 48.6791 39.7157 48.7149 39.7567C48.7436 39.7949 48.7845 39.8222 48.8308 39.834C48.8784 39.842 48.9269 39.842 48.9744 39.834H53.0722C53.1158 39.8348 53.1585 39.8212 53.1937 39.7953C53.2304 39.7657 53.2622 39.7302 53.2876 39.6904C53.3155 39.6422 53.336 39.5901 53.3483 39.5358C53.3664 39.4838 53.3793 39.4301 53.387 39.3756V39.221C53.3893 39.1842 53.3893 39.1473 53.387 39.1105C53.3898 39.052 53.3744 38.9941 53.3428 38.9448C53.3294 38.9287 53.3124 38.9158 53.2933 38.9072C53.2742 38.8986 53.2533 38.8945 53.2323 38.8951H49.8636L50.4821 35.8964H53.3428C53.3855 35.8962 53.4267 35.8805 53.4588 35.8522C53.4957 35.8227 53.5274 35.7872 53.5526 35.7473C53.5772 35.7014 53.5975 35.6533 53.6134 35.6037C53.6295 35.5511 53.6424 35.4977 53.652 35.4435V35.1895C53.6565 35.1334 53.643 35.0773 53.6134 35.0293C53.5983 35.0123 53.5795 34.999 53.5584 34.9904C53.5373 34.9818 53.5146 34.9781 53.4919 34.9796H50.6643L51.2166 32.3012H54.5301C54.5738 32.302 54.6165 32.2884 54.6516 32.2625C54.6898 32.23 54.7216 32.1907 54.7455 32.1466C54.7756 32.0994 54.7962 32.0469 54.8063 31.9919C54.8063 31.9367 54.8339 31.8815 54.8504 31.8318C54.867 31.7821 54.8504 31.7268 54.8504 31.6827V31.5777C54.8504 31.4341 54.7952 31.3624 54.6958 31.3624M62.1016 32.384C61.9956 32.164 61.8361 31.9741 61.6377 31.8318C61.4043 31.6715 61.1444 31.5537 60.8701 31.4838C60.5209 31.4016 60.1629 31.3627 59.8042 31.3679H57.9873C57.8642 31.3669 57.7434 31.4014 57.6393 31.4673C57.5253 31.555 57.45 31.6838 57.4295 31.8263L55.8335 39.6959C55.8218 39.7242 55.8218 39.756 55.8335 39.7843C55.8534 39.8146 55.8824 39.8378 55.9163 39.8506C55.9702 39.8675 56.0257 39.8786 56.082 39.8837C56.1684 39.8899 56.2551 39.8899 56.3415 39.8837C56.4353 39.8902 56.5294 39.8902 56.6232 39.8837C56.6851 39.8742 56.7461 39.8594 56.8054 39.8395C56.8465 39.8323 56.8837 39.8107 56.9104 39.7788C56.9313 39.7549 56.9464 39.7266 56.9545 39.6959L57.689 36.0565H58.4456C58.6667 36.0503 58.8867 36.0898 59.0918 36.1725C59.2641 36.2422 59.4161 36.3543 59.5336 36.4983C59.652 36.6421 59.7419 36.807 59.7987 36.9843C59.8683 37.1909 59.9182 37.4035 59.9478 37.6194L60.2847 39.6186C60.2897 39.6659 60.3009 39.7123 60.3178 39.7567C60.3365 39.792 60.3653 39.8208 60.4006 39.8395C60.45 39.8662 60.5047 39.8813 60.5608 39.8837C60.6527 39.8906 60.745 39.8906 60.8369 39.8837C60.9417 39.8901 61.0469 39.8901 61.1517 39.8837C61.2194 39.8794 61.2862 39.8664 61.3505 39.845C61.3928 39.834 61.4299 39.8086 61.4554 39.7732C61.4777 39.745 61.4894 39.7098 61.4886 39.6738C61.4934 39.6095 61.4934 39.5449 61.4886 39.4805C61.4886 39.4087 61.4886 39.3314 61.4554 39.2431L61.102 37.3599C61.0465 36.9916 61.011 36.6343 60.7706 36.2995C60.66 36.0543 60.4636 35.858 60.2184 35.7473C60.5414 35.6487 60.8484 35.5036 61.1296 35.3165C61.3787 35.149 61.5988 34.9419 61.7813 34.7035C61.9558 34.4786 62.0886 34.2242 62.1734 33.9524C62.2584 33.6732 62.3013 33.3828 62.3004 33.0909C62.3059 32.8286 62.2531 32.5683 62.1458 32.3288M60.9529 33.9469C60.8696 34.1689 60.7397 34.3704 60.5718 34.5378C60.3785 34.7226 60.1491 34.8655 59.8981 34.9575C59.5769 35.069 59.2383 35.1214 58.8985 35.1122H57.8768L58.4291 32.2404H59.644C59.8615 32.2388 60.0784 32.2629 60.2902 32.3122C60.4514 32.351 60.6022 32.4245 60.732 32.5276C60.8403 32.6142 60.9257 32.7261 60.9805 32.8534C61.0326 32.9853 61.0589 33.1259 61.0578 33.2676C61.0588 33.4996 61.0176 33.7297 60.9363 33.9469" fill="#EC008C"/>
</g>
<defs>
<clipPath id="clip0_596_2101">
<rect width="126.544" height="40" fill="white"/>
</clipPath>
</defs>
</svg>
