<svg preserveAspectRatio="none" width="100%" height="100%" overflow="visible" style="display: block;" viewBox="0 0 49.7807 59.6189" fill="none" xmlns="http://www.w3.org/2000/svg">
<g id="Group">
<path id="Vector" d="M42.9222 31.614C42.1443 31.614 41.3053 31.675 40.3977 31.7437L41.107 30.3251C47.5059 17.3977 50.0914 8.73363 49.0618 5.88884C48.6118 4.66093 47.0559 3.82198 45.8967 3.56267L45.6373 3.30336C44.1501 2.13646 41.1757 0.458561 36.325 2.33475C27.9889 5.49987 19.6452 19.0146 21.0714 24.5058C22.1087 28.3879 27.7296 29.8751 31.2227 28.5175C33.4192 27.7396 33.7472 25.0931 32.8396 25.0931C31.871 25.0931 30.5134 27.4193 27.9889 27.3583C26.1127 27.2973 25.2128 26.649 25.2128 24.5745C24.8925 20.1128 32.4506 7.24641 39.4368 4.3406C42.3426 3.1737 43.9594 4.02027 44.7374 4.92024C44.867 5.11091 45.0577 5.3092 45.1874 5.37022C46.2246 10.2209 38.3995 26.3134 35.875 30.8437L34.7768 32.7809C29.3465 34.0088 23.0086 36.274 16.8691 38.8595C8.53298 42.5432 2.06546 46.9439 1.48583 51.5962C0.776533 57.0265 9.18126 61.0382 19.1342 55.9893C27.539 51.7869 33.3582 45.1897 39.4368 33.5589C40.7943 33.2995 41.9612 33.1699 42.9298 33.1699C46.6136 33.0402 46.5526 31.6217 42.9298 31.6217L42.9222 31.614ZM14.7336 55.1427C8.13639 58.6968 4.06368 55.5317 5.48989 52.2369C6.4585 49.5828 8.26605 46.0287 18.8749 40.9263C23.7256 38.5315 28.8965 36.5333 33.3582 35.1757C29.4152 41.5746 22.757 50.8183 14.7412 55.1503L14.7336 55.1427Z" fill="var(--fill-0, white)"/>
<g id="Group_2">
<g id="Vector_2">
</g>
<g id="Group_3">
<path id="Vector_3" d="M16.655 52.5038L16.6169 52.5191L16.5101 52.5877C16.4491 52.7631 16.1898 52.9004 15.8466 53.0911C15.8619 53.1216 15.9152 53.1292 15.8085 53.2207C15.2517 53.4953 15.5415 53.3809 15.1983 53.6707C15.3204 53.6021 15.4653 53.5106 15.5415 53.5029L14.817 53.9682C14.9543 53.9682 15.0763 53.9834 14.9771 54.0978C15.1221 54.1665 14.9543 54.4563 14.9238 54.6317C15.0687 54.5631 15.1907 54.5173 15.2441 54.5021C15.2517 54.5631 15.1373 54.6622 14.9771 54.7614C15 54.7614 15.0153 54.769 15.0458 54.7614C15.0153 54.7614 14.9924 54.7614 14.9771 54.7614C14.8704 54.83 14.756 54.8986 14.6416 54.9597C14.7102 54.9368 14.7788 54.9215 14.7636 54.9597L15.2288 54.6927C15.2288 54.6927 15.2441 54.7156 15.2212 54.7385L15.328 54.6393L15.2212 54.6622C15.1754 54.6622 15.2288 54.6088 15.2822 54.5554C15.4042 54.4792 15.4424 54.4792 15.511 54.4563L15.7246 54.258C15.7627 54.1131 15.0534 54.5783 15.3966 54.2656L15.5339 54.2199C15.7017 54.0902 15.9534 53.9529 16.0296 53.8156C16.2737 53.8004 16.4796 53.4038 16.594 53.5182C17.3262 53.1445 18.0965 52.3971 18.8516 52.0386C18.8973 51.8632 18.76 51.6878 18.9431 51.3598C19.0117 51.3293 19.1032 51.2759 19.088 51.314L19.2405 51.1081C19.1337 51.1997 19.0041 51.314 18.9202 51.3293C19.1871 51.0395 18.7219 51.3674 18.7143 51.2988L19.0804 50.9175L19.0193 50.9403C18.6533 51.2302 18.2643 51.4971 17.8677 51.7411C17.4711 51.9852 17.0898 52.2521 16.6779 52.4733L16.6627 52.4886L16.655 52.5038Z" fill="var(--fill-0, white)"/>
<path id="Vector_4" d="M29.4837 42.3297L29.3769 42.261C30.6124 40.484 32.7098 37.3036 34.6623 34.1614C32.6641 34.7563 30.5438 35.3969 28.3549 36.1672C27.8973 36.3274 27.4473 36.4876 26.9821 36.6554C26.5626 36.8079 26.1431 36.9681 25.716 37.1206C24.8695 37.4333 24.0305 37.7689 23.1839 38.1121C19.8129 39.5078 16.4571 41.0636 13.3454 42.917L13.3149 42.3754C11.0802 44.0305 8.51762 46.0668 7.09141 48.3549C7.33547 48.1108 7.5719 47.8667 7.83121 47.6456C7.51851 48.1718 7.12192 48.8353 6.71007 49.5218C6.26772 50.2844 5.88638 51.1386 5.60419 51.7945L5.54317 51.6191C6.2906 49.7811 5.4364 51.7259 5.45928 50.8412L5.55843 50.4904L5.41352 50.6505C5.38301 50.7649 5.34488 50.887 5.322 51.0014C5.26861 50.9327 5.16946 50.9251 5.29149 50.6048C5.21522 50.7497 5.13895 50.8946 5.07794 51.0395C4.36865 51.8556 4.12459 51.7259 3.80426 51.4742C3.78138 51.6039 3.8729 51.6725 3.91104 51.825C3.92629 51.9089 3.93392 52.0157 3.89578 52.1911C3.88053 52.2827 3.85002 52.3818 3.81189 52.5115C3.78901 52.6487 3.75088 52.8089 3.71274 53.0225L3.61359 52.7937C3.61359 53.0987 3.59834 53.3962 3.67461 53.7089C3.728 54.0139 3.78138 54.3114 3.91867 54.5936C3.94155 54.8681 3.9568 55.158 4.04832 55.4173C4.41441 55.9893 4.74236 56.2486 5.16183 56.7214L5.47453 56.6528C6.48127 57.5604 7.91511 57.9036 9.19641 57.8807C10.493 57.8655 11.6827 57.5604 12.7505 57.3316C12.9335 57.1333 13.3149 57.0113 13.7877 56.8511C14.253 56.6909 14.7792 56.4393 15.2673 56.0961L14.6877 56.0732C14.047 56.1876 13.1013 56.5918 11.9878 56.8816C10.8972 57.1791 9.62351 57.3697 8.58626 57.1638L8.68541 57.0265C9.12014 57.0113 9.41758 56.9197 9.93621 56.9426L10.0506 56.6833C9.593 56.2638 8.79981 56.3782 7.97612 56.2944C7.16005 56.2562 6.29823 55.9664 6.07705 55.6537C5.64995 55.0131 5.96265 55.1198 6.21433 55.2876C6.51178 55.4249 6.84735 55.6003 6.59567 55.4249C6.90837 55.6003 7.07616 55.524 7.0609 55.4478C7.0609 55.402 7.02277 55.341 6.96938 55.2647C6.93125 55.1808 6.87023 55.0817 6.80922 54.9749C6.53466 54.5554 6.46601 53.9834 6.58804 53.7928C6.72533 53.5029 6.77109 53.2818 7.00752 52.8623C7.28971 52.2293 7.56427 51.6344 7.89985 51.0547C8.56338 49.8878 9.55487 48.7362 10.4396 47.9659C11.7209 46.4482 13.7496 45.1058 15.8546 44.0305C17.9596 42.9627 20.179 42.0704 21.9179 41.2543C23.6111 40.545 26.0135 38.5087 27.4168 38.829L28.2405 38.5544L28.6447 38.4248L28.7668 38.4019C28.9574 38.3561 28.9422 38.4019 28.9879 38.4019L28.8888 38.5926C28.8888 38.5926 28.8812 38.5849 29.0337 38.4858C29.1328 38.4248 29.2244 38.4248 29.2244 38.5392C29.2244 38.5926 29.2091 38.6765 29.171 38.7832C29.0337 39.0044 28.8964 39.2256 28.7591 39.4391C28.6066 39.6679 28.4617 39.8891 28.3092 40.1103C27.5389 41.2467 27.5617 41.7882 26.8677 42.0399C25.0068 44.0305 23.3136 46.7914 21.4374 48.6752C21.5366 48.7591 21.3611 49.1175 21.7654 48.8277C22.6424 47.7752 23.9237 46.8295 24.2288 47.0354L23.8475 47.3863C24.1297 47.2337 24.4119 47.0659 24.6864 46.8981L24.9991 46.3795C25.1669 46.3261 25.2584 46.3185 25.3118 46.349C26.0821 45.6626 26.8906 45.1821 27.7219 44.4804C28.1261 43.8322 28.6371 43.1458 29.4837 42.2992V42.3297Z" fill="var(--fill-0, white)"/>
</g>
<g id="Group_4">
<path id="Vector_5" d="M39.8191 35.4274L39.8877 35.313L40.1089 34.9164C40.1089 34.863 40.1089 34.802 40.1394 34.7334C40.1547 34.6952 40.1699 34.6571 40.1852 34.619C40.2157 34.5961 40.2691 34.5961 40.3072 34.5808C40.353 34.5732 40.4063 34.5656 40.4597 34.5579C40.5665 34.5427 40.6733 34.5274 40.7877 34.5122C41.0851 34.474 41.4054 34.4435 41.741 34.4207C41.741 34.3902 41.619 34.3596 42.0919 34.3063C42.3588 34.2986 42.5723 34.291 42.7401 34.2986C42.9232 34.2986 43.0986 34.2986 43.2359 34.2986C43.5104 34.2834 43.6325 34.2681 43.7545 34.2529C43.9909 34.1995 44.0977 34.1995 45.0663 33.9402C44.4562 34.108 43.7621 34.1766 43.4876 34.1613C44.0672 34.108 44.6392 34.0393 45.2875 33.8334C45.4553 33.7724 45.6231 33.7114 45.8214 33.6046C46.012 33.4749 46.2561 33.391 46.523 32.9106C46.6527 32.6817 46.6984 32.2546 46.584 31.9572C46.4773 31.675 46.3095 31.492 46.1951 31.3928C45.9434 31.1793 45.7375 31.0954 45.5621 31.0191C45.8442 31.1564 46.1722 31.4157 46.3095 31.6674C46.3705 31.7742 46.3705 31.8047 46.2942 31.7284C46.2256 31.6521 46.0502 31.4843 45.8519 31.3776C46.0578 31.6064 45.7146 31.4233 45.379 31.3776C45.0358 31.3242 44.6392 31.3318 44.418 31.3699C45.0129 31.4767 45.4858 31.6598 45.7146 31.8809C45.5849 31.8123 45.0282 31.5759 44.3418 31.5072C44.3875 31.5301 44.4485 31.553 44.5477 31.5835C44.4485 31.553 44.3952 31.5301 44.3418 31.5072C43.8918 31.4538 43.3884 31.4233 42.9308 31.4233C43.1901 31.4386 43.4494 31.4691 43.3198 31.492C43.9604 31.5225 44.6163 31.5606 45.2494 31.797C45.3027 31.8352 45.2417 31.8123 45.1273 31.7894C45.2951 31.8352 45.4629 31.8886 45.6231 32.003C45.5163 31.8962 45.3943 31.8199 45.2646 31.7665C45.1426 31.6979 45.4019 31.736 45.6841 31.9343C45.8137 32.0335 45.9358 32.2165 45.9129 32.4072C45.89 32.5902 45.7985 32.6741 45.7451 32.7428C45.6154 32.8648 45.5087 32.9029 45.379 32.9563C45.0434 33.1317 44.7002 33.2309 44.357 33.3148C44.174 33.391 44.8528 33.3377 45.4019 33.1012C45.6765 33.0097 45.9434 32.7504 45.9892 32.6207C46.0578 32.4911 45.9358 32.9334 45.4705 33.1546C45.2799 33.2385 45.0968 33.2843 44.9138 33.33C44.1282 33.5741 43.0376 33.6122 42.5571 33.6809C41.8173 33.5665 40.4521 33.9859 40.353 33.841C40.208 33.8639 40.0631 33.8792 39.9182 33.902C39.8496 33.9173 39.7581 33.9097 39.7047 33.9554L39.5979 34.1537C39.4301 34.4588 39.2623 34.7791 39.0869 35.0994C38.7056 35.824 38.2861 36.5638 37.8742 37.296C37.0429 38.7679 36.1353 40.2094 35.2659 41.3916C35.0828 41.8797 35.2583 41.9941 34.6481 43.1381C34.4879 43.344 34.2515 43.6491 34.3049 43.5271L33.8168 44.2897C34.1219 43.8779 34.4956 43.344 34.671 43.1533C33.9083 44.3507 35.1133 42.6805 35.0905 42.8178C34.7473 43.3669 34.3888 43.9084 34.0151 44.4423L34.1676 44.2745C36.2497 41.4831 38.1183 38.5544 39.8114 35.5418L39.8496 35.4579L39.8191 35.4274Z" fill="var(--fill-0, white)"/>
<path id="Vector_6" d="M5.89531 46.2041L5.78091 46.1278C9.05281 43.283 13.2323 41.0789 17.6482 39.1569C22.1251 37.2807 26.8614 35.496 31.8417 34.1156C32.4671 33.9478 33.0925 33.78 33.7179 33.6275L34.8619 33.3605L35.1593 33.2919L35.3195 33.0097L35.6398 32.4453C36.3186 31.2708 36.9593 30.1192 37.577 28.9218C38.8049 26.5422 39.9795 24.1016 41.1006 21.6077C42.2217 19.1137 43.2895 16.574 44.22 13.9427C44.6852 12.6233 45.1199 11.2886 45.4555 9.90815C45.6309 9.22174 45.7682 8.51245 45.875 7.7879C45.9131 7.42181 45.9665 7.05573 45.9741 6.67439C45.9894 6.48372 45.9894 6.3083 45.9741 6.08712C45.9741 5.84307 45.936 5.60664 45.8979 5.36258L45.7835 5.10327C45.7377 5.027 45.6538 4.97361 45.6004 4.89734L45.4021 4.66091C45.3945 4.59227 45.3869 4.56939 45.3716 4.55414L45.3335 4.50075L45.303 4.45499L45.2801 4.43211C44.7691 3.82197 44.0445 3.38724 43.2971 3.18132C42.5421 2.97539 41.7718 2.97539 41.0548 3.08979C39.621 3.31097 38.3321 3.944 37.1804 4.67617C34.8771 6.16339 32.9781 8.10823 31.2849 10.1598C29.5994 12.2343 28.1198 14.4537 26.869 16.8104C26.2589 18.0002 25.664 19.19 25.2064 20.4713C24.764 21.7526 24.3064 23.0339 24.3674 24.6126V24.5516C24.3674 25.055 24.4055 25.5736 24.5886 26.138C24.7716 26.7024 25.1759 27.2972 25.7402 27.6176C26.297 27.9608 26.8461 28.0599 27.3495 28.1209C27.8376 28.1743 28.3867 28.1972 28.913 28.0904C29.9807 27.9074 30.9036 27.3506 31.6281 26.7862C31.9942 26.5117 32.345 26.2142 32.6272 26.0236C32.7035 25.9702 32.7569 25.9549 32.8026 25.9244C32.8179 25.9244 32.8332 25.9168 32.8484 25.9092C32.856 25.8939 32.8484 25.932 32.8484 25.8939C32.8408 25.8558 32.8332 25.81 32.8255 25.7643V25.6956V25.688V25.5355C32.8255 25.5355 32.8255 25.4973 32.8255 25.4744L32.8408 25.4439C32.8408 25.4439 32.8408 25.4592 32.8332 25.4668C32.8332 25.4821 32.8179 25.4897 32.8103 25.4897C32.8026 25.4897 32.7111 25.5888 32.6577 25.6041C32.6349 25.6041 32.5815 25.6422 32.5281 25.6651L32.4518 25.6956H32.4366L32.4823 25.688C32.5128 25.6727 32.551 25.6575 32.5815 25.6422C32.6501 25.5965 32.673 25.6041 32.7188 25.5736C32.8179 25.4821 32.8179 25.4973 32.8408 25.4516C32.8408 25.4516 32.8255 25.4973 32.8255 25.5126C32.8255 25.5202 32.8255 25.5355 32.8255 25.5355V25.7643C32.8255 25.8253 32.8408 25.8787 32.856 25.932C32.8637 25.9473 32.8789 25.9931 32.8942 26.0617C32.9094 26.1151 32.9247 26.1761 32.9399 26.2295C32.8637 25.9473 32.8255 25.8787 32.8179 25.7566V25.5278C32.8179 25.5278 32.8179 25.5126 32.8179 25.4973C32.8179 25.4897 32.8408 25.4211 32.8332 25.4516C32.8255 25.4744 32.8103 25.4821 32.8026 25.4897C32.7874 25.5049 32.734 25.566 32.6959 25.5812C32.6349 25.6041 32.4594 25.7185 32.3298 25.7261C32.2078 25.7643 31.9256 25.81 32.0095 25.7871C32.0095 25.7948 32.0095 25.8253 32.0095 25.8405C32.0095 25.8939 32.0095 25.9626 31.9866 26.0464C31.9256 26.3668 31.712 26.7252 31.4375 26.9845C31.2925 27.1066 31.1476 27.2286 30.9493 27.3125C30.7815 27.404 30.4841 27.4879 30.2477 27.5871C29.7367 27.7243 29.2104 27.8387 28.6537 27.8616C27.5478 27.9303 26.3885 27.7854 25.3284 27.404C24.2759 27.0303 23.2844 26.443 22.6438 25.6117C22.2929 25.2151 22.0946 24.7346 21.9116 24.2618C21.7743 23.7813 21.7362 23.2245 21.7514 22.6602C21.7972 21.5238 22.0565 20.3569 22.415 19.2281C23.1395 16.9782 24.1996 14.8656 25.3436 12.9512C24.6877 13.897 24.0776 14.8808 23.5285 15.8952C24.1234 14.4232 25.4886 11.9064 27.3953 9.4963C29.2791 7.07098 31.7578 4.79057 33.9467 3.52452L33.5958 3.89823C32.162 4.85158 31.5595 5.43885 31.3154 5.64477C31.079 5.85832 31.2315 5.75155 31.4832 5.5685C31.9866 5.18716 32.9399 4.58465 31.9561 5.56088C31.6739 5.83544 31.3764 6.08712 31.1019 6.36932C31.2849 6.23203 31.4756 6.09475 31.6663 5.9651C31.9484 5.69053 32.2459 5.43122 32.5433 5.17954C32.49 5.32445 32.6044 5.31682 31.7807 6.04136C32.1773 5.70578 32.5891 5.40071 33.0086 5.09564C34.4653 4.27195 35.2661 4.0584 35.6474 4.0584C36.0288 4.0584 36.0135 4.24907 35.9296 4.50838C36.2728 4.31008 36.2195 4.21093 36.4788 4.02026C36.6084 3.92111 36.8067 3.78383 37.2033 3.6313C37.5923 3.47876 38.1567 3.27284 38.9804 3.15844L38.5838 3.36436C39.743 3.02878 40.9252 2.90675 42.0692 3.10505C42.5573 3.27284 43.0149 3.50164 43.442 3.77621C43.7395 3.90586 43.9988 4.03552 44.2505 4.18043C44.3725 4.24907 44.4945 4.32533 44.6089 4.40923C44.6318 4.42448 44.6471 4.42448 44.6547 4.43211L44.8301 4.59227L45.2038 4.93548L45.5699 4.99649C45.9589 5.06513 46.4165 5.23292 46.8436 5.53037C46.9885 5.51511 47.1258 5.51511 47.2631 5.51511C47.5071 5.71341 47.7054 5.93459 47.8046 6.13289C47.8656 6.22441 47.8885 6.31593 47.919 6.46846L47.9723 6.67439L47.9952 6.94133C48.0562 7.65062 47.9876 8.52007 47.8351 9.38953C47.5452 11.1513 47.0342 12.997 46.4394 14.8198C45.2496 18.473 43.7242 22.0729 42.1989 25.1922C41.8709 26.3591 40.6582 28.5785 39.3541 31.2022L38.4541 33.0097L40.4828 32.8953C41.276 32.8495 42.0921 32.7885 42.9234 32.697L41.2836 32.5063C41.0243 32.5063 40.7498 32.4911 40.46 32.4835L39.0871 32.453L39.7202 31.3776C42.0463 27.4345 45.814 19.1442 47.7054 13.0733L47.7664 13.3707C47.4003 14.7435 47.1715 15.7655 46.5004 17.4053L46.5766 17.9315C47.5071 16.6884 48.5825 13.7521 49.0859 10.7395C49.3299 9.24462 49.4596 7.71163 49.2155 6.46084C49.1164 6.15577 49.0554 5.85832 48.9028 5.62189C48.7655 5.37783 48.5901 5.17954 48.4147 5.00412C48.0715 4.66091 47.7283 4.43211 47.4766 4.26432C46.3707 3.57791 45.8902 3.52452 45.9512 3.44825C45.997 3.39487 46.5385 3.44825 47.1334 3.67706C48.3613 4.0584 49.5206 5.46173 48.552 4.42448C49.3604 5.07276 49.6121 5.75155 49.6884 5.91934C49.7799 6.11001 49.8257 5.94984 49.7189 5.49986C49.5892 5.03463 49.1926 4.36347 48.5596 3.82197C47.9266 3.27284 47.1105 2.8076 46.1343 2.52541L46.6377 2.79998L46.3631 2.50253L46.0199 2.21271C45.8216 2.05255 45.6157 1.89239 45.4097 1.7551C44.9979 1.46529 44.5632 1.2136 44.1437 1.00768C43.3047 0.595832 42.5192 0.367028 42.0311 0.237372C41.0625 0.00856854 39.9032 -0.0753262 38.6829 0.0772097C37.4474 0.222119 36.1966 0.580578 34.9 1.12208C32.3298 2.24322 29.9426 4.11941 27.8529 6.27779C25.7631 8.45143 23.9403 10.9301 22.5065 13.4622C21.0726 16.002 19.982 18.5798 19.5091 21.0738C19.4329 21.7068 19.3566 22.3551 19.3795 23.0491C19.3795 23.3923 19.4252 23.7584 19.471 24.1169C19.5473 24.4906 19.6159 24.8796 19.7685 25.238C20.2947 26.7024 21.3548 27.9074 22.5827 28.6777C25.0462 30.2259 27.9596 30.6988 30.8731 30.0124C31.2392 29.8904 31.5519 29.8141 31.9637 29.6387C32.3603 29.4861 32.7645 29.2268 33.1077 28.9446C33.8018 28.3497 34.328 27.5871 34.5721 26.6566C34.6712 26.1761 34.8009 25.6956 34.5339 24.8872C34.4805 24.7118 34.3051 24.4296 34.1145 24.216C33.8551 23.972 33.5272 23.7737 33.1764 23.7279C32.4747 23.6364 32.1925 23.8118 31.8798 23.9262C31.3612 24.1855 31.1019 24.4143 30.8273 24.6202C30.5604 24.8262 30.3316 25.0092 30.1028 25.1694C29.6528 25.4897 29.2257 25.7185 28.8138 25.8253C28.6079 25.8787 28.402 25.9168 28.1961 25.9092C28.0206 25.932 27.7003 25.8863 27.4944 25.8558C27.2656 25.8253 27.0902 25.7643 26.9987 25.7109C26.9148 25.6651 26.8766 25.6193 26.8309 25.5583C26.7622 25.4744 26.6555 25.0321 26.6707 24.5287V24.4219C26.686 23.8423 26.7775 23.1254 27.0292 22.3856C27.2351 21.6534 27.5402 20.9136 27.8529 20.1891C28.4783 18.7324 29.2791 17.3443 30.0799 16.0172C31.7273 13.386 33.5577 11.0445 35.4339 9.16835C36.5932 8.06246 37.9965 6.79642 39.56 5.94984C40.3227 5.48461 41.1998 5.21767 41.9548 5.1414C42.7175 5.08039 43.3353 5.27868 43.7624 5.72104L43.6632 5.59138L43.7852 5.75155L43.8768 5.85832L43.9301 5.90408C43.9759 5.92696 43.9912 5.95747 43.9988 6.00323C43.9988 6.03374 44.014 6.07187 44.0217 6.10238L44.0369 6.24729C44.0522 6.41508 44.0369 6.61337 44.0369 6.79642C44.014 7.17013 43.9759 7.5591 43.9149 7.94044C43.7929 8.70312 43.6251 9.44291 43.4191 10.1293C43.0149 11.5021 42.5268 12.6614 42.0463 13.4851C40.6277 17.3061 38.9041 21.0662 37.0813 24.7575L37.066 24.4601C36.4101 25.81 35.7313 27.1752 35.0297 28.5252C34.6712 29.2116 34.3356 29.8446 33.9467 30.531L33.6645 31.042C33.5958 31.164 33.6187 31.1259 33.6111 31.1335L33.5424 31.1488L33.3899 31.1869L32.3603 31.4538L31.1934 31.7818C30.4155 32.0106 29.6452 32.247 28.8825 32.4911C27.3495 32.9868 25.8318 33.5131 24.3369 34.0698C21.3396 35.1986 18.449 36.3731 15.6118 37.6697C12.7899 38.9891 10.1206 40.4306 7.6571 42.0551C5.51397 43.4966 4.27843 44.7092 3.34796 45.716C2.41749 46.7303 1.79972 47.5464 0.991282 48.5989C0.289617 49.8421 -0.183245 51.4284 0.0684397 53.1216C0.312497 54.8071 1.31923 56.3019 2.55478 57.2934C2.8751 57.5222 3.18017 57.7968 3.52338 57.9798L4.54537 58.5366C5.25466 58.8112 5.96395 59.101 6.70375 59.2459C7.4283 59.4594 8.1681 59.4899 8.9079 59.5891C9.64007 59.5891 10.3799 59.6654 11.0968 59.5738C13.995 59.3679 16.733 58.4756 19.1507 57.2477C21.5607 56.0503 23.7573 54.6393 25.7174 53.1216C25.603 53.0301 26.6097 52.092 25.1225 53.1445C23.1471 54.7156 20.7752 56.0503 18.8304 56.8358C18.3346 57.0265 17.8846 57.2095 17.4652 57.3468C17.0381 57.4612 16.6643 57.5604 16.344 57.629C15.711 57.7892 15.3068 57.7968 15.2381 57.7205C15.8483 57.5833 16.4203 57.3392 17.0152 57.1562C16.4737 57.2934 15.9398 57.4536 15.3983 57.5604L13.7662 57.8349C13.0798 57.9646 12.3933 58.1705 11.6917 58.2468C11.1425 58.1934 10.8985 58.14 10.8604 58.0942C9.06806 58.0942 7.38254 57.751 5.90294 57.0494L5.34618 56.7824L4.83519 56.4469C4.47673 56.2409 4.18691 55.9664 3.88184 55.6918C3.72167 55.5698 3.59202 55.4172 3.46999 55.2571L3.08865 54.7918L2.79883 54.2656C2.75307 54.1817 2.69206 54.0978 2.65392 54.0063L2.5624 53.7241C2.06666 52.7174 2.03615 51.4132 2.60816 50.0632C3.21831 48.7285 4.34707 47.3862 5.91819 46.1431L5.89531 46.2041Z" fill="var(--fill-0, white)"/>
</g>
</g>
</g>
</svg>
