<svg preserveAspectRatio="none" width="100%" height="100%" overflow="visible" style="display: block;" viewBox="0 0 117.62 48.3802" fill="none" xmlns="http://www.w3.org/2000/svg">
<g id="Group">
<path id="Vector" d="M116.132 13.5063C112.25 19.5162 105.591 26.7616 103.464 27.2726C97.8426 28.5692 106.369 14.7342 108.314 9.88354C109.481 6.90909 105.988 4.90324 103.334 5.74982C98.1629 7.3667 86.982 22.6889 86.982 22.6889C86.982 22.6889 93.4495 10.3411 93.7088 8.14463C93.8995 6.59639 90.925 5.42949 90.2844 6.46673C90.0022 7.80142 88.3319 11.4852 86.5015 15.3596C83.7482 19.234 77.4256 27.0133 74.8325 27.3489C72.5063 27.6692 72.636 24.1151 74.3139 20.3704C75.8621 17.2053 76.3197 16.2367 77.2883 14.9401C77.807 14.2918 77.2273 13.1936 76.4494 12.3546C77.4866 12.225 80.0035 10.5471 80.7814 8.86155C81.6204 6.66503 76.518 3.2406 73.1546 3.94989C70.1802 4.59817 66.4278 6.14641 61.6458 11.447C59.4035 13.941 57.6341 16.7858 56.4596 19.3865C54.0037 22.2847 50.9759 25.3202 48.1997 26.632C46.8422 27.2803 45.6143 27.7302 44.516 27.9896C49.7556 23.9779 55.0562 13.1859 54.408 8.91493C54.1486 7.03874 51.5021 3.67533 48.459 4.65156C44.6457 5.6888 38.5671 15.0621 36.8206 18.0366C38.2391 15.1308 42.8305 5.75744 43.7991 3.42364C44.3787 1.74575 40.9543 1.02883 39.7264 2.12709C39.7264 3.26348 37.4231 7.96159 34.7613 13.613C34.6927 13.6512 34.6164 13.6969 34.5554 13.7656C33.0072 16.3511 24.8617 26.9523 21.8187 27.3413C19.4925 27.6616 19.6221 24.1075 21.3 20.3628C22.8483 17.1976 23.3059 16.229 24.2745 14.9325C24.7931 14.2842 24.2135 13.1859 23.4355 12.347C24.4728 12.2173 26.9896 10.5394 27.7676 8.85392C28.6065 6.6574 23.5042 3.23297 20.1408 3.94226C17.1663 4.59054 13.4139 6.13878 8.63192 11.4394C4.04059 16.5494 1.39409 23.1389 1.90509 26.1134C2.29405 28.3785 6.03881 30.5064 7.85399 29.6674C10.6988 28.2489 15.3511 22.8186 17.1663 20.1034C15.9994 22.4983 15.6791 26.182 16.846 27.3413C18.6535 29.1488 21.4983 30.8343 24.6711 28.6378C26.4939 27.3794 28.9039 24.5804 31.07 21.7432C30.5742 22.8949 30.0937 24.0312 29.6514 25.1448C26.2269 33.7402 23.4432 40.5966 22.7339 43.6321C22.1542 46.2176 25.2583 47.5141 26.4863 46.6676C27.7828 40.917 30.109 33.9995 33.2131 27.7226C36.5079 29.6598 42.9067 31.7343 49.6336 28.2412C51.3954 27.326 53.2487 25.7702 54.9876 24.0007C54.8579 24.8168 54.8351 25.5261 54.9342 26.1057C55.3232 28.3709 59.0679 30.4988 60.8831 29.6598C63.7279 28.2412 68.3802 22.811 70.1954 20.0958C69.0285 22.4906 68.7082 26.1744 69.8751 27.3336C71.6826 29.1412 74.5274 30.8267 77.7002 28.6302C79.0806 27.6769 80.8119 25.8312 82.5051 23.7567C81.8492 25.1448 81.3839 26.1667 81.2543 26.5557C80.6746 28.3633 84.6177 29.8505 86.1659 28.3633C86.8752 26.4261 100.451 8.70901 103.685 8.90731C105.561 8.96832 97.9341 18.4103 97.5451 24.8092C97.3544 28.3633 102.655 30.9487 106.079 28.5616C109.573 26.1057 114.416 20.2255 117.39 14.7266C117.581 14.1469 117.131 12.7893 116.162 13.4986L116.132 13.5063ZM6.62608 27.082C5.19987 26.8227 6.75573 21.461 12.247 13.8952C15.6104 9.24289 22.139 5.36085 23.9465 6.32945C25.5634 7.23704 23.1686 10.7911 22.9779 11.9504C22.2 11.4318 21.4221 11.2411 21.0407 11.8894C18.5849 16.3511 9.01326 27.5319 6.62608 27.082ZM39.2688 27.082C37.7815 27.5319 35.8443 26.8913 34.1588 26.1744C38.3612 19.2569 46.9566 6.26081 49.6717 6.64978C53.9351 7.1684 44.2414 25.6558 39.2611 27.0743L39.2688 27.082ZM59.6323 27.082C58.2061 26.8227 59.762 21.461 65.2533 13.8952C68.6167 9.24289 75.1452 5.36085 76.9528 6.32945C78.5696 7.23704 76.1748 10.7911 75.9842 11.9504C75.2062 11.4318 74.4359 11.2411 74.047 11.8894C71.5911 16.3511 62.0195 27.5319 59.6323 27.082Z" fill="var(--fill-0, white)"/>
<g id="Group_2">
<g id="Vector_2">
</g>
<g id="Group_3">
<path id="Vector_3" d="M61.1034 25.099H61.0729L60.989 25.16C60.9661 25.3202 60.7678 25.4193 60.5161 25.5413C60.5314 25.5719 60.5695 25.5871 60.5009 25.6481C60.0967 25.8083 60.3255 25.7473 60.0967 25.9456C60.1729 25.9074 60.2644 25.854 60.3255 25.8617L60.089 25.999L59.8907 26.0905C59.9594 26.1362 60.0433 26.182 59.9746 26.2659C60.0585 26.3803 59.9594 26.5786 59.906 26.7235C59.9975 26.7235 60.0814 26.7235 60.1348 26.7235C60.1348 26.7921 60.0433 26.8379 59.9136 26.8684C59.9289 26.8837 59.9365 26.8913 59.9594 26.8989C59.9365 26.8913 59.9212 26.876 59.9136 26.8684C59.8297 26.8989 59.7458 26.8684 59.6696 26.876C59.7077 26.8913 59.7535 26.9142 59.7306 26.937C59.845 26.9523 59.9746 26.9218 60.1043 26.8913C60.1195 26.8989 60.1043 26.9142 60.089 26.9294C60.1195 26.9142 60.15 26.8913 60.1805 26.8684C60.15 26.8684 60.1272 26.8684 60.0967 26.8608C60.0661 26.8379 60.1119 26.815 60.15 26.7769C60.2416 26.7311 60.2797 26.7464 60.3331 26.7464C60.3941 26.7082 60.4475 26.6549 60.5009 26.6015C60.5238 26.4947 59.9823 26.7464 60.2492 26.5481C60.2797 26.5481 60.3178 26.5481 60.3483 26.5328C60.478 26.4413 60.661 26.3498 60.7221 26.2278C60.9204 26.2506 61.0576 25.9074 61.172 26.0295C61.744 25.7396 62.3161 25.1066 62.9109 24.8092C62.9186 24.649 62.7813 24.4888 62.8957 24.199C62.9491 24.1761 63.0253 24.1304 63.0177 24.1685L63.1245 23.9931C63.0406 24.0694 62.9414 24.1685 62.8728 24.1762C63.0635 23.9321 62.705 24.199 62.6821 24.138L62.9491 23.8101L62.8957 23.8253C62.3237 24.3058 61.6983 24.71 61.1034 25.0761V25.0914V25.099Z" fill="var(--fill-0, white)"/>
<path id="Vector_4" d="M71.4543 17.068L71.3475 16.9917C71.9881 16.0765 72.6746 15.1079 73.3686 14.0706C73.7118 13.552 74.0626 13.0105 74.3906 12.4538C74.5965 12.0877 74.6041 12.0877 74.688 12.0648C74.7109 12.0648 74.7414 12.0572 74.7795 12.0648C74.7795 12.0572 74.8711 12.0953 74.9168 12.1182C74.9702 12.1411 75.0236 12.1563 75.077 12.1868C75.2982 12.286 75.527 12.4004 75.7405 12.5224C75.9007 12.4843 76.0456 12.4766 76.1752 12.4919C76.2515 12.5377 76.2744 12.4233 76.3125 12.347C76.343 12.2707 76.3888 12.1868 76.4346 12.1029C76.61 11.7826 76.8235 11.4089 76.9989 11.0123C77.1515 10.6767 77.304 10.3488 77.4566 10.0056C77.5938 9.69286 77.7311 9.38016 77.8531 9.03696C78.1277 8.24377 78.3794 7.25229 77.998 6.4591C77.815 6.07014 77.4718 5.73456 77.06 5.58965C76.6481 5.43711 76.1905 5.41423 75.7253 5.46762C75.2829 5.50575 74.7262 5.66592 74.4211 5.76506C74.0626 5.87947 73.727 6.01675 73.3915 6.16166C72.7279 6.45147 72.0949 6.78705 71.4848 7.15314C70.2645 7.87769 69.1357 8.71663 68.0908 9.62422L67.9307 9.12085C67.1604 9.96743 66.3672 10.8979 65.6732 11.8741C65.33 12.3622 65.002 12.858 64.7198 13.369C64.4452 13.8647 64.1935 14.3452 63.9724 14.8181L64.4986 14.2156C64.2927 14.963 63.3927 16.5799 62.7521 17.518L62.7063 17.3578C63.4843 16.0002 62.6148 17.4264 62.6606 16.7019L62.7521 16.4349L62.6148 16.5341L62.5233 16.801C62.4775 16.7324 62.386 16.7095 62.5004 16.4731L62.2945 16.7782C61.5852 17.2663 61.3335 17.1214 61.0589 16.8315C60.9903 17.0375 61.425 17.0451 60.8606 17.7468L60.8149 17.579L60.5174 18.5399L60.159 18.845C60.0598 19.1958 60.0293 19.4323 59.8158 19.7297L59.9912 19.9433C59.1675 21.3466 58.5802 23.2686 58.0311 24.9922C58.115 25.2134 58.0311 25.5413 57.9853 26.0371C57.9701 26.2811 57.9625 26.5862 58.0845 26.9981C58.1531 27.204 58.2523 27.448 58.4963 27.6997C58.7175 27.9514 59.0989 28.1268 59.4344 28.165C59.0683 28.0048 58.7633 27.6845 58.6565 27.387C58.4048 26.8608 58.4582 26.4108 58.4963 25.9761C58.5497 25.5413 58.6489 25.1066 58.7709 24.6643C59.015 23.7796 59.3505 22.872 59.7243 22.1779L59.831 22.2923C59.7395 22.6127 59.7624 22.872 59.5488 23.2228L59.7471 23.4135C60.281 23.2533 60.4869 22.6127 60.6395 21.9415C60.792 21.2703 60.8835 20.5687 61.0742 20.3551C61.8445 19.4247 61.1962 21.2856 61.4326 20.7746C61.1505 22.0635 62.4775 20.1111 63.0114 19.8136C63.6368 19.3179 64.3003 18.3416 64.9867 17.2968C65.3223 16.7705 65.6732 16.2367 66.0011 15.7257C66.3367 15.2147 66.657 14.7265 66.9239 14.3757C67.6256 12.9648 68.9908 11.6148 70.4857 10.5547C71.9805 9.48694 73.6203 8.68613 74.8482 8.18276C75.0007 8.12937 75.1533 8.06835 75.3134 7.99209L75.4278 7.9387C75.4278 7.9387 75.4278 7.92345 75.4431 7.91582L75.4888 7.85481C75.5575 7.77091 75.6948 7.64888 75.8702 7.626C76.0456 7.60312 76.1829 7.72515 76.16 7.86243C76.1524 7.99971 76.0227 8.137 75.8092 8.17513L75.771 8.22852C75.771 8.22852 75.7481 8.24377 75.7024 8.35817C75.6337 8.53359 75.5346 8.72426 75.4507 8.91493L75.1533 9.50219L75.0846 9.63948L75.0541 9.67761C75.0541 9.67761 75.016 9.73862 75.0083 9.731L74.8939 9.63948C74.8939 9.63948 74.8939 9.63947 74.8939 9.66236V9.67761V9.68524C74.8939 9.68524 74.8939 9.68524 74.9016 9.68524C74.9016 9.68524 74.9168 9.68524 74.9092 9.68524H74.8406C74.7567 9.68524 74.6575 9.68524 74.5584 9.69286C74.1694 9.72337 73.6965 9.86065 73.3076 10.1352C73.1169 10.2725 72.9491 10.425 72.8195 10.5852C72.7508 10.6615 72.6898 10.7454 72.6288 10.8369C72.5754 10.9132 72.4991 11.0504 72.4991 11.0504C72.2703 11.5385 72.0339 11.9733 71.7822 12.4309C71.2712 13.3385 70.7221 14.2308 70.1653 15.0316C69.5323 15.9163 69.6162 16.4121 68.9832 16.5494C67.4197 18.0747 66.1536 20.3704 64.7122 21.9415C64.8113 22.0254 64.7045 22.3305 65.0249 22.1017C65.6655 21.2093 66.7409 20.4848 67.0307 20.6907L66.7256 20.9729L67.4349 20.6144L67.6637 20.1873C67.8086 20.1568 67.9002 20.1568 67.9459 20.1873C68.5713 19.6535 69.273 19.3179 69.9747 18.7916C70.2874 18.2654 70.6992 17.7239 71.4161 17.0832L71.4543 17.068Z" fill="var(--fill-0, white)"/>
</g>
<g id="Group_4">
<path id="Vector_5" d="M40.4282 24.9541H40.4053L40.3367 25.0151C40.3367 25.16 40.1536 25.2897 39.9248 25.3964C39.9477 25.427 39.9858 25.4422 39.9248 25.5032C39.5511 25.671 39.757 25.6329 39.5511 25.8235C39.6274 25.7778 39.7113 25.732 39.7723 25.732C39.6197 25.8388 39.4748 25.9303 39.3223 26.0218C39.4138 26.0523 39.5053 26.0829 39.4443 26.182C39.5511 26.2812 39.4596 26.4947 39.4367 26.6549C39.5358 26.6396 39.6197 26.6244 39.6731 26.6167C39.6884 26.6777 39.5969 26.7388 39.4748 26.7998C39.3986 26.8379 39.307 26.8684 39.2231 26.8989C39.2765 26.8989 39.3299 26.8989 39.3147 26.9294L39.6731 26.7921C39.6731 26.7921 39.6808 26.815 39.6655 26.8303C39.696 26.8074 39.7189 26.7845 39.7418 26.7616C39.7113 26.7616 39.6884 26.7616 39.6579 26.7616C39.6197 26.7464 39.6579 26.7159 39.7036 26.6777C39.7875 26.6244 39.8257 26.632 39.8791 26.6244L40.0316 26.4718C40.0468 26.3498 39.5435 26.6701 39.7799 26.4337L39.8791 26.4108C40.0011 26.3269 40.1689 26.2125 40.207 26.0981C40.3977 26.1134 40.4968 25.7854 40.6189 25.8922C41.1375 25.5947 41.6103 24.9541 42.1518 24.6338C42.1442 24.4812 41.984 24.3363 42.0527 24.0465C42.0984 24.016 42.1671 23.9702 42.1671 24.0084L42.2434 23.833C42.1747 23.9092 42.0985 24.016 42.0298 24.0236C42.1823 23.7796 41.8773 24.0541 41.8468 23.9931L42.0603 23.6652L42.0146 23.6804C41.5417 24.1838 40.9849 24.5804 40.4663 24.9617V24.977L40.4282 24.9541Z" fill="var(--fill-0, white)"/>
<path id="Vector_6" d="M48.9928 16.2367L48.8708 16.1833C49.4886 14.7571 50.1445 13.2088 50.7089 11.5004C50.8385 11.0657 50.9758 10.631 51.0749 10.1734C51.136 9.94455 51.1665 9.71575 51.2199 9.47169C51.2809 9.1895 51.2809 8.88443 51.319 8.58698C51.3266 7.99972 51.3037 7.38958 51.0139 6.89384C50.8843 6.64978 50.6936 6.41335 50.4419 6.26081C50.3351 6.16166 50.1826 6.13878 50.0453 6.09302C49.908 6.03963 49.7708 6.01675 49.6258 6.0015C49.0386 6.0015 48.4818 6.2303 47.9403 6.58876C47.6581 6.74893 47.4141 6.9701 47.1471 7.1684C46.9488 7.33619 46.7582 7.50398 46.5675 7.67177C45.8201 8.35818 45.1413 9.08273 44.4854 9.83015C43.1736 11.325 41.9762 12.8885 40.8627 14.4596L40.5805 14.0249C39.6119 15.8629 38.4526 17.884 37.6899 19.6687L38.1704 19.0967C38.0179 19.8136 37.2094 21.3466 36.584 22.2161L36.5383 22.0635C37.2704 20.7975 36.4467 22.1245 36.4773 21.4381L36.5611 21.1864L36.4315 21.278L36.3476 21.5297C36.3018 21.4686 36.2103 21.4305 36.3171 21.217L36.1188 21.4991C35.4324 21.9262 35.1807 21.7737 34.9138 21.4915C34.8527 21.6822 35.2798 21.7127 34.7307 22.3381L34.685 22.1779L34.3951 23.055L34.2197 23.177C34.1663 23.2152 34.1053 23.2533 34.0138 23.3525C33.7926 23.8558 33.7164 24.1456 33.3655 24.6109C33.4265 24.6795 33.4875 24.7405 33.5486 24.7939C33.1443 25.4041 32.7401 26.0752 32.3512 26.7464C33.1977 27.1125 34.1206 27.4404 34.9824 27.7455C35.2036 27.8141 35.4248 27.8904 35.6459 27.959C35.8519 28.0201 36.0578 28.0811 36.2637 28.1345C36.5611 28.2107 36.851 28.287 37.1637 28.3709C37.3696 28.2794 37.6899 28.3404 38.1094 28.3709C38.5212 28.4014 39.0704 28.3861 39.589 28.1268C39.4059 28.0811 39.2382 28.0353 39.078 27.9667C38.4984 27.898 37.667 27.8599 36.8205 27.6616C36.5917 27.6158 36.4239 27.5701 36.1493 27.4938C35.8824 27.4252 35.623 27.3336 35.3714 27.2498C34.868 27.0743 34.4028 26.8684 34.0214 26.6777L34.2502 26.6167C34.6392 26.7311 34.9671 26.7311 35.3104 26.9218C35.4095 26.8684 35.501 26.8074 35.5925 26.754C35.5925 26.5176 35.4934 26.3727 35.3027 26.2735C35.2036 26.2201 35.0815 26.182 34.9366 26.1439C34.8604 26.1286 34.7841 26.1057 34.7002 26.0905L34.5706 26.0676L34.5019 26.0523C34.5019 26.0523 34.5019 26.0295 34.5019 26.0142C34.5629 25.6329 34.6468 25.0609 34.8604 24.8244C35.2951 24.3668 35.3104 24.5956 35.2951 24.8092C35.2798 25.0227 35.2341 25.2287 35.318 25.0532C35.2646 25.4575 35.6002 25.221 35.8824 25.0532C36.0273 24.9617 36.1951 24.8321 36.3323 24.7634L36.4315 24.71L36.5688 24.5956C36.6603 24.527 36.7366 24.466 36.8052 24.4355C38.0636 23.5431 39.5051 20.7593 40.5576 19.1882C41.7931 16.229 44.7752 13.1783 46.6056 11.0581C47.0709 10.5699 47.4903 9.77676 47.9708 9.13611C48.0929 8.97595 48.2149 8.83104 48.3369 8.69376C48.4361 8.58698 48.4513 8.57173 48.5123 8.5336C48.6191 8.48021 48.7335 8.51834 48.7717 8.73952C48.8098 8.73952 48.8479 8.73952 48.8784 8.7624C48.9623 8.80816 48.9699 8.93019 48.9394 8.99883L48.7945 9.10561C48.7945 9.10561 48.7945 9.10561 48.8098 9.10561C48.8098 9.10561 48.8098 9.1056 48.8098 9.14374L48.7869 9.34204C48.7106 9.89117 48.5886 10.4784 48.4361 11.0809C48.1386 12.2784 47.7497 13.4758 47.3073 14.5435C46.9031 15.4664 47.0861 15.9163 46.5141 16.1375C45.3548 17.7849 44.5845 20.1034 43.4481 21.7203C43.5549 21.789 43.5092 22.094 43.7761 21.8424C44.249 20.9348 45.1489 20.1263 45.4692 20.2865L45.2328 20.5916L45.8506 20.1645L45.9879 19.7297C46.1175 19.6763 46.209 19.6687 46.2548 19.6916C46.7658 19.1043 47.3683 18.6849 47.9403 18.09C48.131 17.5485 48.4208 16.9688 48.9699 16.2443L48.9928 16.2367Z" fill="var(--fill-0, white)"/>
</g>
<g id="Group_5">
<path id="Vector_7" d="M8.09151 25.099H8.061L7.97711 25.16C7.95423 25.3202 7.75594 25.4193 7.50425 25.5413C7.5195 25.5718 7.55764 25.5871 7.48899 25.6481C7.08477 25.8083 7.31358 25.7473 7.08477 25.9456C7.16104 25.9074 7.25257 25.854 7.31358 25.8617L7.07715 25.9989L6.87885 26.0905C6.9475 26.1362 7.03138 26.182 6.96274 26.2659C7.04664 26.3803 6.94749 26.5786 6.8941 26.7235C6.98563 26.7235 7.06952 26.7235 7.12291 26.7235C7.12291 26.7921 7.03139 26.8379 6.90173 26.8684C6.91699 26.8837 6.92461 26.8913 6.94749 26.8989C6.92461 26.8913 6.90936 26.876 6.90173 26.8684C6.81784 26.8989 6.73394 26.8684 6.65768 26.876C6.69581 26.8913 6.74157 26.9142 6.71869 26.937C6.83309 26.9523 6.96275 26.9218 7.0924 26.8913C7.10766 26.8989 7.0924 26.9142 7.07715 26.9294C7.10765 26.9142 7.13816 26.8913 7.16867 26.8684C7.13816 26.8684 7.11528 26.8684 7.08477 26.8608C7.05427 26.8379 7.10003 26.815 7.13816 26.7769C7.22968 26.7311 7.26782 26.7464 7.3212 26.7464C7.38222 26.7082 7.43561 26.6548 7.48899 26.6015C7.51187 26.4947 6.97037 26.7464 7.23731 26.5481C7.26782 26.5481 7.30595 26.5481 7.33646 26.5328C7.46612 26.4413 7.64916 26.3498 7.71017 26.2277C7.90847 26.2506 8.04575 25.9074 8.16016 26.0295C8.73217 25.7396 9.30417 25.1066 9.89906 24.8092C9.90669 24.649 9.76941 24.4888 9.88381 24.199C9.9372 24.1761 10.0135 24.1304 10.0058 24.1685L10.1126 23.9931C10.0287 24.0694 9.92957 24.1685 9.86093 24.1761C10.0516 23.9321 9.69314 24.199 9.67026 24.138L9.9372 23.8101L9.88381 23.8253C9.3118 24.3058 8.6864 24.71 8.09151 25.0761V25.0914V25.099Z" fill="var(--fill-0, white)"/>
<path id="Vector_8" d="M18.4413 17.068L18.3345 16.9917C18.9752 16.0765 19.6616 15.1079 20.3556 14.0783C20.6988 13.5596 21.0497 13.0181 21.3776 12.4614C21.5835 12.0953 21.5988 12.0953 21.6751 12.0724C21.6979 12.0724 21.7285 12.0648 21.7666 12.0724C21.7666 12.0648 21.8505 12.1029 21.8962 12.1182L22.0564 12.1868C22.2776 12.2783 22.4988 12.4004 22.7199 12.5224C22.8877 12.4843 23.025 12.4766 23.1547 12.4919C23.2309 12.5376 23.2538 12.4309 23.292 12.3546C23.3225 12.2783 23.3682 12.1944 23.4064 12.1105C23.5818 11.7902 23.7953 11.4241 23.9707 11.0275C24.1233 10.692 24.2758 10.3564 24.4283 10.0208C24.5656 9.70811 24.7029 9.39541 24.8249 9.0522C25.0995 8.25902 25.3512 7.26753 24.9775 6.47435C24.7944 6.08538 24.4512 5.7498 24.0394 5.60489C23.6275 5.45236 23.1699 5.42948 22.7047 5.48286C22.2623 5.521 21.7056 5.68116 21.4005 5.78031C21.042 5.89471 20.7065 6.03199 20.3709 6.1769C19.7074 6.46672 19.0743 6.8023 18.4642 7.16838C17.2439 7.89293 16.1151 8.73188 15.0703 9.64709L14.9101 9.14372C14.1398 9.9903 13.3466 10.9208 12.6526 11.897C12.3094 12.3851 11.9814 12.8809 11.6992 13.3919C11.4247 13.8876 11.173 14.3681 10.9518 14.8409L11.478 14.2384C11.2721 14.9859 10.3722 16.6027 9.73151 17.5408L9.68575 17.3807C10.4637 16.0231 9.59423 17.4493 9.63999 16.7248L9.73151 16.4578L9.59423 16.557L9.5027 16.8239C9.45694 16.7553 9.36542 16.7324 9.47982 16.496L9.2739 16.801C8.56461 17.2891 8.31292 17.1442 8.03836 16.8544C7.96972 17.0603 8.40444 17.068 7.84006 17.7696L7.7943 17.6018L7.49686 18.5628L7.1384 18.8679C7.03925 19.2187 7.00874 19.4552 6.79519 19.7526L6.97061 19.9661C6.14691 21.3695 5.55965 23.2914 5.01052 25.0151C5.09442 25.2363 5.01052 25.5642 4.96476 26.06C4.94951 26.304 4.94188 26.6091 5.06391 27.0209C5.13255 27.2269 5.2317 27.4709 5.47576 27.7226C5.69693 27.9743 6.07828 28.1497 6.41385 28.1878C6.04777 28.0277 5.74269 27.7073 5.63592 27.4099C5.38423 26.8836 5.43762 26.4337 5.47576 25.9989C5.52914 25.5642 5.62829 25.1295 5.75032 24.6871C5.99438 23.8024 6.32996 22.8948 6.70367 22.2008L6.81045 22.3152C6.71892 22.6355 6.7418 22.8948 6.52825 23.2457L6.72655 23.4363C7.26043 23.2762 7.46635 22.6355 7.61888 21.9644C7.77142 21.2932 7.86294 20.5915 8.05361 20.378C8.82392 19.4475 8.17564 21.3085 8.41207 20.7975C8.12988 22.0864 9.45694 20.1339 9.99082 19.8365C10.6162 19.3408 11.2797 18.3645 11.9662 17.3196C12.3017 16.7934 12.6526 16.2595 12.9805 15.7485C13.3161 15.2375 13.6364 14.7494 13.9034 14.3986C14.605 12.9876 15.9702 11.6377 17.4651 10.5776C18.9599 9.50981 20.5997 8.709 21.8276 8.20563C21.9801 8.15224 22.1327 8.09123 22.2928 8.01496L22.4072 7.96157C22.4072 7.96157 22.4072 7.94632 22.4225 7.93869L22.4683 7.87768C22.5369 7.79378 22.6742 7.67175 22.8496 7.64887C23.025 7.62599 23.1623 7.74802 23.1394 7.8853C23.1318 8.02259 23.0021 8.15987 22.7886 8.198L22.7504 8.25139C22.7504 8.25139 22.7276 8.26664 22.6818 8.38104C22.6132 8.55646 22.514 8.74713 22.4301 8.9378L22.1327 9.52506L22.064 9.66235L22.0335 9.70048C22.0335 9.70048 21.9954 9.7615 21.9878 9.75387L21.8734 9.66235C21.8734 9.66235 21.8734 9.66235 21.8734 9.68523V9.70048V9.70811C21.9725 9.70811 21.7285 9.69285 21.5302 9.71573C21.1412 9.74624 20.6683 9.89115 20.2794 10.1657C20.0887 10.303 19.9209 10.4555 19.7913 10.6157C19.7226 10.692 19.6616 10.7759 19.6082 10.8674C19.5548 10.9513 19.4862 11.0733 19.4862 11.0733C19.2574 11.5538 19.0209 11.9885 18.7693 12.4538C18.2583 13.3613 17.7091 14.2537 17.16 15.0545C16.527 15.9392 16.6109 16.4349 15.9779 16.5722C14.4144 18.0976 13.1483 20.3932 11.7068 21.9644C11.806 22.0483 11.6992 22.3533 12.0195 22.1245C12.6602 21.2322 13.7356 20.5076 14.0254 20.7136L13.7203 20.9958L14.4296 20.6373L14.6584 20.2102C14.8033 20.1797 14.8949 20.1797 14.9406 20.2102C15.566 19.6763 16.2677 19.3408 16.9693 18.8145C17.282 18.2883 17.6939 17.7467 18.4108 17.1061L18.4413 17.068Z" fill="var(--fill-0, white)"/>
</g>
<g id="Group_6">
<path id="Vector_9" d="M100.963 30.4225L101.322 30.5293C101.741 30.636 102.183 30.6971 102.618 30.7276C103.366 30.7276 104.548 30.6513 105.905 30.0106C106.21 29.8276 106.599 29.6217 106.882 29.4081C107.171 29.1946 107.476 28.9734 107.774 28.7293C108.376 28.2489 108.979 27.6997 109.612 27.1048C109.581 27.0743 109.36 27.2726 110.192 26.3955C112.091 24.4507 112.464 23.8863 112.785 23.505C113.074 23.1084 113.258 22.8567 114.394 21.2932C113.677 22.2618 112.754 23.444 112.335 23.8711C113.929 21.9491 115.393 19.928 116.712 17.8078C116.11 18.6467 115.568 19.295 116.217 18.2272C115.698 18.7916 116.888 16.6332 117.208 15.7562C116.529 16.9002 115.942 17.7773 115.66 18.1815C115.706 18.0061 116.377 16.9307 117.14 15.5807C117.269 15.3443 117.406 15.1079 117.551 14.8409V14.8181L117.567 14.8028C117.689 14.3376 117.597 13.9029 117.338 13.4986C117.208 13.308 116.972 13.1249 116.697 13.1173C116.423 13.1097 116.209 13.2317 116.026 13.3537C116.285 13.1478 116.705 13.0715 116.934 13.1936C117.147 13.308 117.193 13.3842 117.048 13.2927C117.307 13.4605 117.422 13.7274 117.498 13.9791C117.567 14.2384 117.59 14.5054 117.513 14.7876V14.8104C117.033 15.6723 116.545 16.5265 116.018 17.3578C115.935 17.4722 115.996 17.3425 116.133 17.1137L115.546 18.0976C115.721 17.8612 115.881 17.6171 116.049 17.373C116.232 17.129 115.935 17.64 115.629 18.1434C114.989 19.1348 114.783 19.3636 114.44 19.8289C113.997 20.4848 113.547 21.1331 113.082 21.7661C112.853 22.1474 113.822 20.9348 114.516 19.9738C115.202 19.0128 115.683 18.3493 114.623 19.9509L113.906 20.8966C112.884 22.3457 111.358 24.1609 110.596 25.0837C109.955 25.7091 109.086 26.6243 108.292 27.3718C107.515 28.1192 106.782 28.676 106.607 28.6988C105.898 29.2175 105.005 29.6598 104.052 29.8123C103.091 29.9725 102.084 29.8886 101.131 29.5912C100.178 29.2937 99.2624 28.7904 98.5149 28.0582C97.7675 27.3413 97.2336 26.3269 97.1726 25.2363C97.1345 24.1609 97.3633 23.1999 97.615 22.2389C97.8819 21.2856 98.2175 20.3704 98.5912 19.4933C98.9649 18.6162 99.3691 17.7696 99.781 16.9688C100.185 16.1833 100.658 15.3214 100.986 14.7647C101.161 14.33 101.169 14.1393 101.222 13.8647C101.276 13.5902 101.383 13.2317 101.627 12.5987C101.825 12.2631 102.069 11.7216 102.061 11.8284C102.107 11.6606 102.183 11.4775 102.107 11.3021C102.061 11.2106 101.924 11.203 101.817 11.2411C101.703 11.2564 101.596 11.3174 101.489 11.3631C101.573 11.3402 101.65 11.2945 101.741 11.2945C101.825 11.2869 101.932 11.2564 102 11.3403C102.1 11.5004 102 11.6987 101.955 11.8589C101.825 12.1868 101.665 12.4766 101.55 12.6673C101.886 11.8894 101.718 12.1563 101.512 12.5605C101.291 12.9648 100.971 13.4834 100.956 13.4605C101.108 13.1631 101.245 12.8732 101.36 12.5758C101.413 12.4309 101.466 12.2783 101.451 12.1258C101.444 12.0343 101.329 12.0038 101.245 12.0343C101.154 12.0419 101.07 12.08 100.986 12.1182C101.047 12.1182 101.1 12.1106 101.154 12.1334C101.261 12.0953 101.375 12.2021 101.337 12.3165C101.322 12.4233 101.283 12.53 101.238 12.6368C101.154 12.8427 101.047 13.041 100.948 13.2317L100.315 14.3528L100.01 14.8943L99.3539 16.1223C98.8886 17.0146 98.4463 17.9222 98.0344 18.8526C97.6226 19.7831 97.2489 20.7441 96.9438 21.7508C96.6464 22.7728 96.387 23.7719 96.3489 24.9693C96.3184 26.3117 96.9209 27.5853 97.7522 28.4777C98.5836 29.3852 99.6284 30.0106 100.742 30.3844L100.978 30.4454L100.963 30.4225Z" fill="var(--fill-0, white)"/>
<path id="Vector_10" d="M30.4377 31.8106L30.5903 31.7801C29.2327 35.0367 28.0353 38.423 27.0362 41.9313C26.7921 42.8084 26.5481 43.6931 26.3269 44.5854L26.0599 45.6837C26.0142 45.821 26.0294 46.004 25.9227 46.1032C25.793 46.1794 25.6405 46.2252 25.4879 46.2405C25.1829 46.271 24.8702 46.21 24.588 46.0956C24.321 45.9888 23.9473 45.7447 23.7261 45.4854C23.4821 45.2185 23.3219 44.8981 23.2762 44.5549C23.2304 44.1889 23.2533 43.8838 23.3906 43.4185C23.8558 41.6644 24.5117 39.895 25.16 38.1256C25.8159 36.3561 26.5099 34.5791 27.2116 32.7868C28.6302 29.2175 30.0411 25.5718 31.5741 21.9644L33.3588 17.7467L30.5903 21.3847C29.5454 22.7576 28.4548 24.1151 27.2802 25.4041C26.693 26.0447 26.0905 26.6701 25.4498 27.2421C24.8168 27.8217 24.1456 28.3251 23.4135 28.6683C21.9567 29.3852 20.2483 29.1488 18.845 28.2336C18.4865 28.02 18.151 27.7607 17.8306 27.4862C17.6705 27.3489 17.5103 27.204 17.3578 27.0514C17.2739 26.9752 17.2129 26.9142 17.1747 26.8531C17.1213 26.7998 17.0756 26.7311 17.0451 26.6548C16.9612 26.5176 16.9002 26.3345 16.8468 26.1515C16.8239 26.0447 16.7934 25.9989 16.7781 25.8388L16.7171 25.3964C16.7171 25.0761 16.6866 24.7863 16.7324 24.4278C16.7553 24.2448 16.7476 24.0999 16.801 23.8863L16.9612 23.2304C16.5722 22.2237 16.6942 21.4381 16.9154 20.6831C16.9612 20.561 16.9993 20.439 17.0527 20.317L17.1366 20.1416C17.1366 20.1416 17.1747 20.0653 17.1671 20.0729L17.1061 20.1492C16.9383 20.3551 16.7553 20.5458 16.5722 20.7365C16.1756 21.1025 15.7714 21.4686 15.1994 21.7279C14.635 22.4677 14.0859 23.1389 13.5215 23.7872C13.2393 24.1151 12.9571 24.4278 12.6673 24.7405L12.0038 25.4422C11.1191 26.3574 10.2038 27.2421 9.21998 28.0353C8.72424 28.409 8.22087 28.798 7.70225 29.0649C7.30565 29.3013 6.77178 29.2861 6.2074 29.1641C5.10151 28.9048 3.988 28.2336 3.22532 27.3718C2.84398 26.937 2.56179 26.4489 2.50078 25.9456C2.40925 25.3964 2.4779 24.7787 2.55416 24.1685C2.75246 22.9406 3.14905 21.7127 3.63717 20.5229C4.60577 18.1357 5.96334 15.8782 7.52683 13.7884C9.12084 11.7368 10.9665 9.80726 13.0105 8.17512C15.0545 6.54299 17.3654 5.26931 19.8975 4.68967C20.2255 4.59815 20.5076 4.57527 20.7898 4.53714C21.0797 4.53714 21.3771 4.51426 21.6822 4.56765C22.2847 4.62103 22.8872 4.80408 23.4745 5.01763C24.6414 5.46761 25.7549 6.1769 26.5481 7.06924L26.8074 7.41244C26.8836 7.52684 26.937 7.64887 27.0057 7.76327C27.1124 7.97682 27.1506 8.16749 27.1506 8.38867C27.1124 8.60985 27.0591 8.77001 26.8913 8.99882C26.7311 9.24287 26.5404 9.47168 26.3269 9.70048C25.8998 10.1428 25.4117 10.5623 24.8854 10.9055C24.6261 11.0886 24.3515 11.2411 24.0846 11.3784C23.8253 11.5157 23.5202 11.6224 23.3524 11.6453L22.0177 11.8436L22.9177 12.8275C23.0702 12.9953 23.2152 13.1783 23.3448 13.3613C23.4058 13.4529 23.4668 13.552 23.5202 13.6359C23.5584 13.7045 23.5965 13.7808 23.627 13.8571C23.7643 14.1469 23.7719 14.5282 23.5202 14.757L23.2533 15.1308L22.9558 15.5807C22.7652 15.8858 22.5898 16.1985 22.422 16.5036C22.0864 17.1214 21.7813 17.7391 21.4762 18.3569C21.1712 18.9747 20.8661 19.5772 20.5687 20.2331C20.2712 20.8966 20.0348 21.5678 19.8136 22.2542C19.6077 22.9482 19.4475 23.6575 19.3636 24.4049C19.3255 24.7863 19.3026 25.1371 19.3331 25.5871C19.356 25.8159 19.3789 26.0523 19.4475 26.2811C19.4933 26.5176 19.5772 26.7387 19.6839 26.9447C19.9051 27.3489 20.2102 27.7379 20.6602 27.9056C21.0873 28.0811 21.5678 28.1192 22.033 28.0353C22.2694 28.0124 22.4906 27.9056 22.7194 27.8294C22.933 27.7302 23.177 27.6158 23.3219 27.5243C23.6575 27.3336 23.9626 27.1201 24.2524 26.8989C25.4117 26.0142 26.4108 25.0227 27.3794 24.0083C28.348 22.994 29.2708 21.9415 30.1632 20.8737C31.0631 19.806 31.9326 18.7154 32.7792 17.6095C33.6257 16.4883 34.4494 15.3977 35.2274 14.1545L35.1053 14.3071C35.1053 14.3071 35.1206 14.3147 35.113 14.3071L35.4638 13.941L38.0035 8.57934C38.423 7.67938 38.8425 6.77942 39.2467 5.8642C39.445 5.40659 39.6433 4.94136 39.8416 4.47612L40.1161 3.75921L40.2458 3.39312L40.3449 3.07279C40.3678 3.00415 40.3831 2.92788 40.3983 2.85924C40.4136 2.78298 40.3983 2.68383 40.4822 2.65332C40.6881 2.50841 40.9398 2.43977 41.1839 2.41689C41.4584 2.38638 41.9466 2.43214 42.122 2.48553C42.3584 2.55417 42.5948 2.65332 42.7703 2.83636C42.9457 3.02703 42.9609 3.30922 42.8465 3.5304L42.427 4.4685L41.8627 5.67353L40.7186 8.07597C39.1628 11.2716 37.6069 14.4672 36.0587 17.6552L37.523 18.4408C38.9264 16.0994 40.4593 13.8037 42.1144 11.6377C42.938 10.5547 43.7922 9.49456 44.7075 8.5107C45.6151 7.53447 46.5913 6.58875 47.6285 5.94047L48.0175 5.71166C48.1471 5.6354 48.2844 5.60489 48.4141 5.5515C48.6734 5.4371 48.948 5.37609 49.2073 5.33032C49.7259 5.26168 50.2598 5.35321 50.7708 5.58201C51.7928 6.04724 52.6927 7.00822 53.2266 8.05309C53.5164 8.5946 53.5774 9.0522 53.6003 9.66235C53.6003 9.95979 53.5622 10.2725 53.5469 10.5776C53.5088 10.8903 53.4401 11.2106 53.3868 11.5233C53.1198 12.7893 52.7003 14.0478 52.2122 15.2833C52.2961 14.6045 52.3876 13.941 52.4182 13.2774C51.6555 15.8095 50.4428 18.3188 49.0395 20.7059C47.598 23.0626 45.9049 25.3812 43.8228 27.0743L39.9255 30.2471L44.7532 29.0497C45.9125 28.7598 46.9955 28.3404 48.0327 27.8599C48.5361 27.6234 49.0929 27.3641 49.5962 27.0438C50.1072 26.7387 50.5877 26.4032 51.053 26.06C52.8986 24.6566 54.485 23.0397 55.9799 21.3619L56.529 20.7288L57.101 20.05C57.2535 19.9051 57.3298 19.6992 57.4137 19.5162L57.5815 19.1501L57.9323 18.4332C58.4128 17.4798 58.9391 16.5493 59.5111 15.657C60.6551 13.8495 61.9898 12.2021 63.477 10.6767C64.949 9.15135 66.5354 7.76327 68.2819 6.67264C69.1513 6.13114 70.0589 5.6659 70.997 5.29219C71.4699 5.11678 71.9427 4.94136 72.4309 4.8117C72.6749 4.74306 72.919 4.68205 73.163 4.62103C73.4071 4.56002 73.6054 4.55239 73.8266 4.50663C75.6494 4.41511 77.6171 5.24643 79.0433 6.42096C79.7526 7.01585 80.3551 7.7709 80.2788 8.43443C80.2636 8.60985 80.1949 8.77001 80.0958 8.92255C79.989 9.09796 79.8594 9.28863 79.7221 9.46405C79.4399 9.82251 79.1119 10.1505 78.7611 10.4555C79.2492 10.0513 79.7144 9.60133 80.0577 9.09796C80.2407 8.85391 80.3322 8.65561 80.3704 8.3963C80.3704 8.27427 80.3627 8.14461 80.3475 8.02258C80.3093 7.90056 80.2788 7.78615 80.2254 7.66413C79.9966 7.1455 79.5467 6.66502 79.0814 6.25317C78.6086 5.83369 78.0594 5.47523 77.4951 5.17016C78.0518 5.4371 78.6696 5.78031 79.2569 6.28367C79.5467 6.52773 79.8365 6.80992 80.0805 7.13788C80.317 7.47346 80.5305 7.81666 80.5534 8.21325C80.5687 8.3124 80.5763 8.41155 80.5534 8.5107C80.5229 8.60985 80.5381 8.71662 80.4771 8.80815C80.3932 8.99119 80.2788 9.18186 80.1416 9.38778C79.867 9.77675 79.5238 10.1505 79.1424 10.5013C78.7611 10.8521 78.3416 11.1801 77.884 11.4699C77.434 11.7521 76.9307 12.0419 76.4197 12.1411L76.0841 12.2021L76.3053 12.4385C76.6409 12.7893 76.9612 13.2164 77.1518 13.6435C77.251 13.8647 77.3196 14.1011 77.312 14.3528C77.312 14.6045 77.1671 14.8257 77.0146 15.0164C76.4502 15.8019 75.9544 16.7248 75.5121 17.6323C75.0621 18.5476 74.6121 19.478 74.1774 20.4238C73.7656 21.3847 73.43 22.3762 73.2088 23.3982C73.0944 23.9092 73.0334 24.4278 73.0105 24.9464C72.9876 25.4651 73.041 26.0066 73.2393 26.4871C73.43 26.9675 73.8876 27.3641 74.4215 27.3641C74.9477 27.4023 75.4358 27.1658 75.8782 26.937C76.7476 26.426 77.4874 25.7701 78.2043 25.1219C79.6077 23.8024 80.8356 22.4449 81.9415 21.1788L81.2779 22.1322C78.6314 25.1524 77.068 26.365 76.4273 26.7921C75.7943 27.2269 76.168 26.9981 76.8086 26.5938C77.4188 26.1667 78.2272 25.4956 78.5781 25.221C78.9213 24.9388 78.8984 25.1142 77.701 26.2735C77.3273 26.5786 76.9688 26.8989 76.5493 27.1735L76.2366 27.387L75.8477 27.5929C75.718 27.654 75.5884 27.7302 75.4511 27.776L75.0087 27.8904C75.1841 27.8523 75.3596 27.8217 75.5273 27.776L76.0002 27.5701C76.3434 27.4252 76.5417 27.265 76.8086 27.1125C77.6095 26.5252 78.3111 25.8769 78.9747 25.1981C78.8831 25.3354 78.8984 25.3812 78.7001 25.6252C78.4789 25.8617 78.0899 26.3193 76.9612 27.1658C78.0518 26.3955 78.9594 25.5185 79.8594 24.6261C82.8033 21.8118 84.1227 20.2788 84.832 19.6992C85.5108 19.1043 85.4956 19.4018 85.3278 19.9204C85.9684 19.0662 85.8769 19.0204 86.3193 18.2959C86.5404 17.9374 86.8989 17.4035 87.5319 16.496C87.5777 16.4273 87.6234 16.3663 87.6692 16.2977C87.7378 16.1985 87.8217 16.0841 87.8751 15.9621C87.9438 15.8095 88.02 15.6418 88.1039 15.474C88.2412 15.1765 88.4014 14.8409 88.5692 14.4825C88.9124 13.7579 89.309 12.8961 89.7895 11.8817L89.4157 13.0029C90.064 11.4928 90.697 9.9903 91.2767 8.38104C91.475 7.81666 91.414 7.96157 91.4368 7.83954C91.4368 7.75565 91.5131 7.70989 91.5817 7.70226C91.658 7.69463 91.7343 7.70226 91.8106 7.72514L91.8716 7.74802L91.9936 7.81666C91.9936 7.81666 92.0317 7.84717 92.0546 7.86242H92.0699C92.0699 7.86242 92.1004 7.89293 92.1233 7.90818C92.1766 7.99208 92.1919 8.09123 92.1538 8.16749L92.1233 8.23614L92.0165 8.50307C91.9402 8.70137 91.8639 8.90729 91.7648 9.12847C91.5817 9.55557 91.3758 9.99793 91.1623 10.4403C89.8657 13.5749 88.9276 15.6265 87.2955 18.7687L87.0362 19.8441C86.6548 20.5763 86.2735 21.3085 85.8616 22.094L87.9819 23.4135C90.2623 20.3551 92.7944 17.1671 95.5172 14.063C96.89 12.5224 98.3162 10.997 99.8263 9.60133C101.321 8.25139 103.03 6.8328 104.502 6.74891C105.279 6.7184 106.134 6.97771 106.69 7.45058C107.27 7.92344 107.453 8.48019 107.316 9.1361C107.255 9.41066 107.018 9.95217 106.812 10.4021L106.149 11.8055C105.684 12.7436 105.211 13.6817 104.753 14.6121C103.815 16.4807 102.885 18.334 102.053 20.2178C101.641 21.1636 101.253 22.1169 100.917 23.1084C100.749 23.627 100.612 24.0694 100.49 24.71C100.337 25.4651 100.314 26.2888 100.52 26.9752C100.734 27.5701 101.283 28.2717 102.168 28.4243C102.595 28.5082 103.075 28.4929 103.579 28.3861C103.823 28.2946 104.09 28.2794 104.326 28.1268C104.57 27.9972 104.814 27.8599 105.066 27.7302C105.783 27.2345 106.423 26.7159 107.072 26.1286C107.728 25.549 108.376 24.9007 109.055 24.2219C111.709 21.4763 114.607 18.0289 117.063 14.1011C116.262 15.1613 115.438 16.1909 114.577 17.1824C113.021 19.1043 110.931 21.6364 108.239 24.3363C107.568 25.0075 106.843 25.6862 106.057 26.3498C105.859 26.5099 105.653 26.6777 105.447 26.8379C105.218 26.9981 104.997 27.1582 104.768 27.3184C104.189 27.6616 103.563 27.959 102.892 27.9514C102.732 27.9514 102.564 27.9285 102.404 27.9133C102.244 27.8904 102.091 27.8217 101.939 27.776C101.657 27.6158 101.39 27.3946 101.26 27.0819C100.955 26.5023 100.978 25.7701 101.077 25.0761C101.13 24.7024 101.199 24.4354 101.268 24.1609C101.344 23.8863 101.42 23.6118 101.504 23.3372C101.68 22.7957 101.87 22.2618 102.084 21.7432C102.923 19.6382 103.937 17.5942 104.959 15.5502L106.492 12.4919L107.232 10.9665C107.461 10.4708 107.728 9.92928 107.857 9.47168C108.185 8.57171 107.857 7.64887 107.163 7.03873C106.469 6.41333 105.463 6.10826 104.524 6.12351C104.052 6.15402 103.602 6.19978 103.167 6.43621C102.946 6.53536 102.724 6.61163 102.511 6.73366L101.878 7.13025C101.451 7.37431 101.069 7.70989 100.673 7.9997C100.276 8.28952 99.9102 8.6251 99.5441 8.94543L99.9026 8.42681C100.2 8.13699 100.513 7.91581 100.81 7.66413C101.108 7.42007 101.397 7.17601 101.702 6.98534C102.008 6.79467 102.297 6.55061 102.618 6.4057C102.946 6.26842 103.258 6.07012 103.602 5.9786C104.28 5.78793 105.051 5.78031 105.836 5.98623C106.591 6.22266 107.423 6.65739 107.895 7.47346C108.147 7.70226 108.33 7.99208 108.49 8.32766C108.475 7.61836 108.04 6.68789 107.156 6.093C106.301 5.47523 105.074 5.13966 103.777 5.33032C102.496 5.62014 101.306 6.35994 100.246 7.23702C99.1475 8.09123 98.1332 9.10559 97.1112 10.1352C93.1071 14.3452 89.5073 19.295 87.0438 22.727L86.9294 22.6508C87.6768 21.1483 88.2946 19.9204 88.737 19.0814C91.5589 13.6893 90.7886 15.5274 89.6445 18.0671C88.4929 20.6068 86.8913 23.8101 88.2183 21.2169C87.898 21.8881 87.6234 22.4601 87.4175 22.8948L86.6091 22.3915C88.3861 19.8441 87.898 20.3094 86.3574 22.2084L87.6997 23.0397C88.6149 21.461 89.9649 18.9823 91.3301 16.3587C92.0165 15.0469 92.6953 13.6969 93.3207 12.3851C93.6334 11.7368 93.9308 11.0886 94.2054 10.4555C94.335 10.1352 94.4799 9.83776 94.5943 9.50218C94.6554 9.34202 94.7164 9.17423 94.7698 9.02169C94.8308 8.77764 94.8841 8.54121 94.9452 8.3124C95.0977 7.36668 94.6401 6.52011 94.0986 5.97098C93.9766 5.83369 93.7706 5.68116 93.6715 5.58964C93.5418 5.49811 93.4274 5.42185 93.2978 5.33032C93.008 5.15491 92.7029 5.01763 92.4283 4.92611C91.4673 4.57527 90.2852 4.54477 89.4691 5.27694C89.0954 5.59726 88.8819 6.12351 88.7065 6.72603L88.6302 6.95483L88.5844 7.06924L88.4929 7.29804C88.4319 7.45057 88.3632 7.60311 88.3022 7.76327C87.7607 9.0217 87.1201 10.3793 86.4413 11.8055C86.0981 12.5224 85.7396 13.2546 85.3812 14.002L85.1295 14.513L84.8931 14.8333C84.6414 15.1689 84.3897 15.5045 84.1304 15.8401C83.0855 17.1976 81.9644 18.5781 80.767 19.9585C79.5772 21.3313 78.3111 22.7194 76.9612 23.9626C76.6256 24.2524 76.2824 24.5727 75.9392 24.8244C75.7714 24.9617 75.596 25.099 75.4358 25.1905C75.2833 25.2896 75.0545 25.4498 75.0545 25.4346C74.9096 25.5108 74.9401 25.4879 74.8867 25.4879C74.8486 25.4879 74.8257 25.4574 74.8104 25.4193C74.8028 25.3583 74.7875 25.4498 74.7952 24.9693C74.8257 24.588 74.8714 24.1838 74.9706 23.7567C75.1536 22.9177 75.4663 22.0101 75.8172 21.2017C76.2061 20.3627 76.6942 19.3865 77.129 18.5094C77.3501 18.0671 77.5789 17.6323 77.8078 17.2358C77.9222 17.0375 78.0366 16.8468 78.1586 16.6561L78.3416 16.3739L78.6467 15.9468C79.2721 15.146 79.3255 14.0478 78.9594 13.1173C78.8755 12.8809 78.7611 12.6521 78.6391 12.4385C78.5399 12.2631 78.4484 12.1182 78.3416 11.9733C78.1357 11.6834 77.9222 11.4241 77.701 11.1801L76.6637 14.0172C77.312 13.9181 77.6171 13.7579 77.9755 13.5978C78.3187 13.4376 78.6086 13.2698 78.906 13.0868C79.478 12.7283 80.0043 12.3317 80.5 11.8817C80.9958 11.4318 81.4686 10.9284 81.8881 10.2954C81.9796 10.1581 82.1321 9.91403 82.2389 9.6776C82.3762 9.44117 82.4143 9.18186 82.4677 8.92255C82.4906 8.79289 82.5287 8.66324 82.544 8.53358L82.5287 8.13699L82.4906 7.74039C82.4677 7.61074 82.4143 7.48871 82.3762 7.35905C82.0788 6.29893 81.583 5.79556 81.1025 5.25406C80.6144 4.72781 80.0882 4.33884 79.5543 3.96513C78.4789 3.24821 77.3273 2.73721 76.0841 2.43214C75.7714 2.3635 75.4587 2.27961 75.1231 2.25673C74.7952 2.21097 74.4672 2.18046 74.1164 2.19571C73.7808 2.18046 73.4223 2.22622 73.0639 2.27961L72.797 2.31774L72.591 2.3635L72.1792 2.46265C71.0886 2.74484 70.0284 3.11855 69.0369 3.57616C67.054 4.49138 65.3761 5.69641 63.9194 6.9167C62.1271 8.51833 60.472 10.2572 58.9696 12.2555C58.2221 13.2469 57.5281 14.2842 56.8951 15.3672C56.5748 15.9087 56.2697 16.4578 55.9799 17.0222L55.5528 17.8764L55.3468 18.3111L55.2324 18.5704C55.2324 18.5704 55.2096 18.5933 55.2019 18.6086L55.0799 18.7535L54.7901 19.0967L54.2028 19.7755C53.8062 20.2255 53.402 20.6602 52.9825 21.0949C52.1512 21.9567 51.2894 22.7881 50.3742 23.5355C49.459 24.2829 48.5132 24.9464 47.5065 25.4269C46.4235 25.9456 45.3024 26.3879 44.2041 26.6548L45.3405 29.0573C47.0641 27.6997 48.4217 26.0905 49.6573 24.4126C50.8852 22.727 51.9605 20.9424 52.9063 19.0814C53.8444 17.2205 54.6757 15.2909 55.2553 13.2088C55.5451 12.1639 55.7739 11.0886 55.8273 9.89115C55.835 9.59371 55.8045 9.26575 55.7892 8.95305C55.7892 8.67086 55.69 8.22851 55.5833 7.93869C55.3697 7.29804 55.0875 6.74128 54.7443 6.23791C54.0579 5.23118 53.2037 4.33884 52.0368 3.7287C51.4724 3.416 50.8089 3.19482 50.1149 3.11093C49.4132 3.00415 48.6887 3.12618 48.0633 3.29397C46.7286 3.69056 45.8362 4.43799 44.9744 5.1244C44.1278 5.83369 43.3957 6.604 42.694 7.37431C41.2907 8.93017 40.0475 10.5547 38.8653 12.2021C37.6908 13.8571 36.5773 15.5197 35.5401 17.2586L38.1713 18.6696C39.8034 15.3519 41.4127 12.0877 42.9838 8.88441C43.3728 8.07597 43.7541 7.27516 44.1431 6.47434L44.7075 5.26931L45.0583 4.499C45.2185 4.12529 45.2947 3.75921 45.4244 3.38549C45.5388 2.64569 45.2871 1.86776 44.7837 1.31863C44.2956 0.754247 43.5711 0.388162 42.8084 0.174611C41.9466 -0.0160586 41.6339 -0.0313124 40.8102 0.0373287C40.017 0.144104 39.2924 0.449176 38.6899 0.914411C38.5679 1.15847 38.4916 1.34914 38.4001 1.55506C38.3086 1.76861 38.2094 1.98979 38.1179 2.20334C38.0111 2.49316 38.0188 2.51604 37.973 2.63044L37.8586 2.95077L37.5993 3.6143C37.401 4.06428 37.2103 4.52188 37.0197 4.96424C36.6154 5.8642 36.196 6.76416 35.7841 7.6565C34.9375 9.44117 34.1062 11.1953 33.3054 12.9037L34.0376 12.1487C33.8164 12.2783 33.6105 12.4309 33.4274 12.591L33.3054 12.6978L33.1834 12.9037C32.9546 13.2774 32.68 13.6817 32.4054 14.0783C31.1546 15.84 29.6827 17.7544 28.0887 19.684C27.2879 20.6449 26.4565 21.6212 25.5795 22.5593C24.7024 23.4897 23.7795 24.4278 22.8338 25.16C22.5974 25.343 22.3686 25.5032 22.1474 25.6329C22.0483 25.6939 22.0177 25.7168 21.9339 25.7396C21.7966 25.7854 21.6288 25.7168 21.5754 25.5718C21.5449 25.5108 21.5296 25.4269 21.5144 25.3049C21.5067 25.0685 21.5144 24.7863 21.5373 24.5041C21.5983 23.9321 21.7279 23.3219 21.8957 22.727C22.0711 22.1245 22.2923 21.522 22.5211 20.9653C22.8033 20.3551 23.0931 19.7526 23.3753 19.1501C23.6651 18.5476 23.955 17.945 24.2448 17.3883C24.3897 17.1061 24.5422 16.8392 24.6947 16.5875L24.9312 16.2061C25.0151 16.0765 25.0761 15.9926 25.2668 15.7256C25.8388 15.0164 25.8616 14.0401 25.5184 13.2393C25.4422 13.0334 25.343 12.8351 25.2363 12.652C25.1524 12.4995 25.0608 12.3622 24.9617 12.2249C24.771 11.958 24.5727 11.714 24.3668 11.4928L23.6117 13.552C24.3287 13.43 24.7024 13.2088 25.1295 13.0029C25.5337 12.7893 25.8922 12.5529 26.243 12.3012C26.937 11.7978 27.5624 11.2411 28.1192 10.5699C28.3861 10.2191 28.6531 9.89878 28.9124 9.30389C28.9963 9.02932 29.0573 8.73188 29.0954 8.44969C29.0725 8.15987 29.0954 7.86242 28.9963 7.58786C28.8437 6.99297 28.6149 6.58875 28.3632 6.22266C28.2336 6.05487 28.1116 5.87183 27.9743 5.71929L27.5624 5.28456C26.4489 4.20919 25.2515 3.5304 24.0694 3.03466C22.8872 2.55417 21.6822 2.28723 20.4924 2.32537L19.8899 2.40926C19.6992 2.43977 19.5619 2.4779 19.3941 2.51604C19.0738 2.59231 18.7611 2.6762 18.4408 2.76772C17.8078 2.95077 17.1824 3.17957 16.5722 3.42363C15.3519 3.93462 14.2079 4.57527 13.1325 5.29219C10.9818 6.73366 9.14372 8.48019 7.45057 10.3183C5.74979 12.2097 4.27019 14.2689 3.03465 16.4807C1.81436 18.7077 0.761865 21.0263 0.27375 23.7414L0.258496 23.0245C0.0678264 23.9473 -0.0770818 24.9159 0.0449469 26.0828C0.0602005 26.3498 0.144096 26.7159 0.250871 27.0514C0.365273 27.3641 0.494927 27.6845 0.65509 27.9438C0.960162 28.4929 1.33387 28.9276 1.71521 29.3242C2.49315 30.1098 3.37023 30.6665 4.36171 31.1013C4.85745 31.3148 5.39133 31.4826 5.9786 31.5894C6.56586 31.6885 7.24464 31.719 8.01495 31.5284C8.21325 31.4674 8.41917 31.3987 8.60984 31.3224C8.79288 31.2309 8.89203 31.1699 9.00643 31.1089C9.24286 30.9792 9.47166 30.842 9.66233 30.7047C10.0894 30.4301 10.4479 30.1403 10.8216 29.8505C11.5385 29.2632 12.1944 28.6531 12.8351 28.0277C13.1478 27.715 13.4681 27.4023 13.7656 27.0743L14.2232 26.5938L14.4062 26.3955L14.4215 26.3574C14.4215 26.3498 14.4825 26.2506 14.4672 26.2811C14.4672 26.2888 14.4672 26.3116 14.4672 26.3421V26.3803L14.5664 26.7387C14.6045 26.8913 14.6579 27.0514 14.7265 27.2192C14.7875 27.387 14.8486 27.5472 14.9553 27.7302C15.0545 27.9056 15.1536 28.0887 15.2985 28.2565C15.4282 28.4166 15.6036 28.6226 15.6799 28.6836C15.8629 28.859 16.0536 29.0344 16.2519 29.2098C16.6485 29.553 17.0756 29.8734 17.5332 30.1632C18.4484 30.7352 19.5314 31.2157 20.7441 31.353C21.9415 31.5055 23.2152 31.2919 24.2676 30.8038C25.3354 30.3233 26.1896 29.6446 26.9065 28.9963C27.6311 28.3404 28.2793 27.6616 28.9047 26.9752C30.1479 25.5947 31.269 24.1761 32.3521 22.7347L29.5149 21.0797C28.3022 24.0007 27.1811 26.876 26.0676 29.7361C24.9541 32.5961 23.8482 35.4333 22.8186 38.2933C22.3076 39.7272 21.8118 41.1534 21.3923 42.6711L21.2474 43.266C21.2017 43.5253 21.1559 43.8151 21.1407 44.0973C21.133 44.677 21.2246 45.2871 21.4762 45.8286C21.7203 46.3701 22.0711 46.8506 22.4906 47.2091C22.9177 47.5751 23.299 47.8573 23.9626 48.0861C25.1752 48.5743 26.5709 48.4599 27.448 47.7048L28.0887 46.0422L28.3785 44.86C28.7217 43.4948 29.103 42.1449 29.5073 40.8178C30.4606 37.7213 31.3529 35.2808 32.1461 33.2597C32.5427 32.2453 32.9164 31.3453 33.2749 30.514C33.3588 30.3233 33.4351 30.1403 33.519 29.9572C33.5418 29.8962 33.5723 29.8276 33.5952 29.7666C33.6486 29.6522 33.6944 29.4996 33.763 29.4157C33.9308 29.4996 34.091 29.5759 34.2435 29.6598C34.4876 29.7666 34.7392 29.8734 34.9757 29.9801C35.235 30.0869 35.4943 30.1861 35.7536 30.2928C36.7985 30.6818 37.851 31.0097 39.0179 31.2996C42.1601 31.8563 45.5922 31.5665 48.6963 30.2852C49.4666 29.9572 50.2216 29.6293 50.9767 29.1793C51.7165 28.737 52.4029 28.2488 53.0512 27.7379L53.3639 27.4862L53.4478 27.4175L53.6079 27.2726L53.7681 27.1201L53.8062 27.0819V27.1353L53.791 27.2421C53.791 27.3108 53.791 27.387 53.7986 27.4557C53.8062 27.4938 53.8139 27.5243 53.8291 27.5624C53.8596 27.6158 53.8139 27.5624 54.0045 27.8751C54.5613 28.7903 55.2782 29.4463 56.0485 29.9878C56.8264 30.514 57.6806 30.9259 58.6645 31.1623C59.1526 31.2843 59.7017 31.3377 60.3043 31.2843L60.7695 31.2157C60.9297 31.1775 61.0974 31.1165 61.2652 31.0555C61.6389 30.9182 61.761 30.7962 61.9822 30.6818C63.5304 29.7132 64.6897 28.5921 65.8413 27.4404C66.1235 27.1506 66.4057 26.8608 66.6803 26.5633L67.0845 26.121L67.1836 26.0066L67.5573 25.5413C67.6794 25.3812 67.809 25.2058 67.9387 25.0227L68.1293 24.7405C68.1827 24.649 68.1294 24.7634 68.1141 24.7863L68.0607 24.9159C67.9692 25.1753 67.9158 25.4727 67.9082 25.7854C67.9082 25.9227 67.9082 26.06 67.9387 26.2049L67.9692 26.3498L68.0912 26.8074L68.2743 27.2879C68.3505 27.448 68.4497 27.6235 68.5488 27.7836C68.6709 27.9438 68.8005 28.1039 68.9302 28.2488L69.2276 28.531C69.4259 28.7065 69.6242 28.8895 69.8378 29.0573C70.2572 29.4005 70.7148 29.6979 71.1953 29.9801C72.1639 30.514 73.3079 30.903 74.5053 30.8877C75.7028 30.903 76.862 30.5064 77.8001 29.9344C78.2806 29.6446 78.7077 29.3319 79.0891 29.0039C79.2797 28.8437 79.478 28.6683 79.6458 28.5158L79.8289 28.3327C80.0653 28.0887 80.3017 27.8294 80.5381 27.5548L80.8814 27.1353L80.9652 27.0286L80.9881 26.9981L80.9729 27.0286L80.95 27.0819L80.8508 27.3108L80.6449 27.776C80.5839 27.9285 80.4771 28.0887 80.5153 28.2641C80.5305 28.3327 80.5534 28.4014 80.5992 28.4624L80.6297 28.5082C80.6297 28.5082 80.6373 28.5234 80.6983 28.5921L80.9805 28.8742C81.3695 29.2098 81.7889 29.4615 82.2084 29.6369C83.055 29.9878 83.9397 30.1632 84.8931 30.0411C84.8625 30.003 85.0913 29.9649 85.3659 29.8581C85.4956 29.7971 85.6939 29.7361 85.8235 29.6598C85.9456 29.5759 86.0599 29.4996 86.1515 29.4386C86.2964 29.3242 86.2811 29.309 85.8998 29.4768C85.4879 29.6522 84.7405 29.8734 83.5431 29.6751C82.9177 29.5835 82.3152 29.37 81.7432 29.0344C81.461 28.859 81.1788 28.6454 80.9347 28.3785C80.7898 28.2107 80.7364 28.1116 80.6983 27.9514C80.6449 27.7684 80.7288 27.5853 80.8051 27.4252L81.0263 26.9218L81.2474 26.4184L81.3618 26.1667C81.3618 26.1667 81.4229 26.0447 81.4 26.0752L81.3161 26.182C80.8508 26.7387 80.3856 27.265 79.8822 27.7607L79.4933 28.1192L79.2263 28.3556L78.8603 28.6607C78.3721 29.0649 77.8306 29.4234 77.2586 29.7208C76.6866 30.0183 76.0688 30.2013 75.4587 30.3081C74.8409 30.3844 74.2308 30.3767 73.6664 30.2699C72.5376 30.0411 71.6224 29.5378 70.9131 29.0115C70.5547 28.7446 70.242 28.4777 69.9674 28.2107C69.7005 27.9438 69.4564 27.7073 69.22 27.3641C68.8615 26.7082 68.8158 26.0981 68.8158 25.8693C68.8158 25.5795 68.8386 25.3735 68.8768 25.3049C68.892 25.6252 68.9149 25.8998 68.9988 26.243C69.0751 26.6091 69.22 26.9752 69.4488 27.3108C69.9598 27.9209 70.4937 28.348 71.0962 28.7827C70.7453 28.5234 70.4098 28.2412 70.1047 27.9361C69.9445 27.7836 69.7996 27.6387 69.6471 27.4633C69.4945 27.2802 69.3725 27.0819 69.281 26.8684C68.953 25.9761 68.9683 25.2668 69.0217 24.3973C69.0827 23.566 69.2581 22.6965 69.5098 21.8118C69.5784 21.5449 69.6623 21.3008 69.7462 21.0492L69.914 20.6221L70.0055 20.4161L70.0513 20.317L70.0742 20.2636C69.8759 20.561 69.6852 20.8509 69.4793 21.133C69.0827 21.7051 68.6709 22.2466 68.2743 22.7728C68.137 22.9177 68.0073 23.0474 67.9616 23.0779C67.4277 23.6346 67.1531 23.8558 67.0997 23.8482C66.0244 25.0608 65.0024 26.0905 63.9346 27.0667C63.4007 27.5472 62.8516 28.0124 62.2796 28.4319C61.7228 28.8437 61.0974 29.2556 60.5178 29.4615C59.9382 29.6369 59.2441 29.4768 58.6264 29.2556C58.001 29.0192 57.4137 28.6683 56.8951 28.2488C56.3765 27.8294 55.9265 27.3184 55.6367 26.7616C55.568 26.5938 55.4994 26.3269 55.4536 26.0905C55.4536 25.7854 55.4231 25.5185 55.4536 25.1753C55.4918 24.5117 55.5757 23.7643 55.6748 23.0169C55.5223 22.9711 55.4612 22.8491 55.4307 22.7042C55.4307 22.7042 55.4307 22.6813 55.4231 22.6813L55.3774 22.727L55.2782 22.8186L55.0799 23.0092L54.6757 23.3982C54.1266 23.9168 53.5545 24.4583 52.9597 24.977C52.6622 25.2363 52.3571 25.4879 52.0444 25.7396C51.7699 25.9608 51.5792 26.0981 51.3351 26.2735C50.8699 26.6015 50.3894 26.9218 49.9013 27.204C47.8573 28.4243 45.3557 29.3395 42.5338 29.4234C41.1229 29.4768 39.6433 29.3395 38.1255 28.9658C37.3705 28.7675 36.6002 28.5387 35.8451 28.226C35.235 28.0048 33.9537 27.3565 32.8783 26.7159C32.6266 27.1201 32.3978 27.654 32.1461 28.1344C31.925 28.5844 31.7038 29.042 31.4826 29.5073C31.1318 30.2471 30.7733 31.0174 30.4225 31.8029L30.4377 31.8106Z" fill="var(--fill-0, white)"/>
</g>
</g>
</g>
</svg>
