<svg preserveAspectRatio="none" width="100%" height="100%" overflow="visible" style="display: block;" viewBox="0 0 60 60" fill="none" xmlns="http://www.w3.org/2000/svg">
<g id="Icon Container" clip-path="url(#clip0_600_2354)">
<path id="Star 1" d="M-1.31134e-06 30L15 4.01924L45 4.01924L60 30L45 55.9808L15 55.9808L-1.31134e-06 30Z" fill="var(--fill-0, #001A77)"/>
<g id="propane_tank">
<mask id="mask0_600_2354" style="mask-type:alpha" maskUnits="userSpaceOnUse" x="16" y="16" width="28" height="28">
<rect id="Bounding box" x="16" y="16" width="28" height="28" fill="var(--fill-0, #D9D9D9)"/>
</mask>
<g mask="url(#mask0_600_2354)">
<path id="propane_tank_2" d="M25.3333 41.6666C24.0499 41.6666 22.9513 41.2097 22.0374 40.2958C21.1236 39.3819 20.6666 38.2833 20.6666 37V27.6666C20.6666 26.5583 20.9972 25.5958 21.6583 24.7791C22.3194 23.9625 23.1555 23.418 24.1666 23.1458V20.6666C24.1666 20.025 24.3951 19.4757 24.852 19.0187C25.309 18.5618 25.8583 18.3333 26.4999 18.3333H33.4999C34.1416 18.3333 34.6909 18.5618 35.1479 19.0187C35.6048 19.4757 35.8333 20.025 35.8333 20.6666V23.1458C36.8444 23.418 37.6805 23.9625 38.3416 24.7791C39.0027 25.5958 39.3333 26.5583 39.3333 27.6666V37C39.3333 38.2833 38.8763 39.3819 37.9624 40.2958C37.0486 41.2097 35.9499 41.6666 34.6666 41.6666H25.3333ZM22.9999 31.1666H36.9999V27.6666C36.9999 27.025 36.7715 26.4757 36.3145 26.0187C35.8576 25.5618 35.3083 25.3333 34.6666 25.3333H25.3333C24.6916 25.3333 24.1423 25.5618 23.6854 26.0187C23.2284 26.4757 22.9999 27.025 22.9999 27.6666V31.1666ZM25.3333 39.3333H34.6666C35.3083 39.3333 35.8576 39.1048 36.3145 38.6479C36.7715 38.1909 36.9999 37.6416 36.9999 37V33.5H22.9999V37C22.9999 37.6416 23.2284 38.1909 23.6854 38.6479C24.1423 39.1048 24.6916 39.3333 25.3333 39.3333ZM31.1666 23H33.4999V20.6666H26.4999V23H28.8333C28.8333 22.6694 28.9451 22.3923 29.1687 22.1687C29.3923 21.9451 29.6694 21.8333 29.9999 21.8333C30.3305 21.8333 30.6076 21.9451 30.8312 22.1687C31.0548 22.3923 31.1666 22.6694 31.1666 23Z" fill="var(--fill-0, white)"/>
</g>
</g>
</g>
<defs>
<clipPath id="clip0_600_2354">
<rect width="60" height="60" fill="white"/>
</clipPath>
</defs>
</svg>
