<svg preserveAspectRatio="none" width="100%" height="100%" overflow="visible" style="display: block;" viewBox="0 0 978.504 240" fill="none" xmlns="http://www.w3.org/2000/svg">
<g id="Layer_1" clip-path="url(#clip0_595_2074)">
<path id="Vector" d="M197.802 113.118V2.48994H247.728C259.338 2.48994 271.446 3.81594 281.562 13.9319C287.202 19.5719 292.014 28.0319 292.014 41.1359C292.014 50.9219 289.026 57.0599 285.876 60.8759C282.558 65.0219 277.086 68.3399 270.618 69.6659V70.6619C272.772 71.8259 274.932 73.4819 276.426 75.8039L301.308 113.124H255.03L239.106 80.778C238.608 79.62 238.11 79.1219 237.612 77.2979L236.946 77.6279V113.124H197.802V113.118ZM236.946 51.7499H241.59C243.912 51.7499 247.56 51.4199 250.05 49.2599C251.376 48.0959 252.87 45.9419 252.87 42.4619C252.87 39.9719 252.204 37.4879 250.716 35.8259C249.39 34.3319 247.236 32.8379 243.918 32.8379H236.952V51.7439L236.946 51.7499Z" fill="#EC008C"/>
<path id="Vector_2" d="M312.408 113.118V2.48994H387.048V32.8439H352.548V43.1279H383.898V72.1559H352.548V82.7699H388.044V113.124H312.408V113.118Z" fill="#EC008C"/>
<path id="Vector_3" d="M480.591 111.126C470.139 115.104 457.869 115.602 452.727 115.602C438.297 115.602 422.871 110.46 411.927 99.516C401.475 89.232 395.841 74.304 395.841 58.716C395.841 41.634 402.309 27.036 412.425 16.752C420.219 8.958 433.491 0 454.221 0C462.513 0 471.801 1.326 480.591 4.314L481.755 46.44C477.111 41.796 468.483 35.496 458.367 35.496C452.067 35.496 446.259 37.986 442.281 42.294C438.465 46.44 436.473 52.248 436.473 58.05C436.473 63.852 438.627 69.828 442.941 73.974C446.259 77.124 451.401 80.274 459.363 80.274C470.643 80.274 478.437 73.476 481.755 69.822L480.591 111.12V111.126Z" fill="#EC008C"/>
<path id="Vector_4" d="M496.68 113.118V2.48994H536.82V77.4599H570.654V113.118H496.68Z" fill="#EC008C"/>
<path id="Vector_5" d="M621.738 99.3539L618.75 113.118H576.288L614.604 2.48994H659.052L698.526 113.118H655.902L652.254 99.3539H621.738ZM637.992 39.4739H636.498C636.33 44.1179 635.67 47.9339 634.674 51.9119L629.202 73.1399H645.288L640.146 51.9119C639.15 47.5979 638.49 43.4519 637.992 39.4739Z" fill="#EC008C"/>
<path id="Vector_6" d="M706.326 113.118V2.48994H746.466V113.118H706.326Z" fill="#EC008C"/>
<path id="Vector_7" d="M760.89 113.118L778.8 2.48994H820.098L833.034 47.7719C834.69 53.5799 835.356 59.0519 835.524 60.5459H836.52C836.688 55.7339 837.348 52.4159 838.674 47.7719L851.61 2.48994H892.578L910.656 113.118H872.01L867.036 63.5279C866.706 59.7119 866.37 57.2279 866.37 52.5839H865.704C865.206 55.4039 864.21 59.7179 863.55 61.8719L847.128 113.124H823.578L808.818 64.6919C807.654 60.7139 806.826 57.2279 806.664 52.5839H805.5C805.5 54.7379 805.5 59.0519 805.332 61.2059L799.86 113.118H760.884H760.89Z" fill="#EC008C"/>
<path id="Vector_8" d="M197.802 237.51V126.882H247.728C259.338 126.882 271.446 128.208 281.562 138.324C287.202 143.964 292.014 152.424 292.014 165.528C292.014 175.314 289.026 181.452 285.876 185.268C282.558 189.414 277.086 192.732 270.618 194.058V195.054C272.772 196.218 274.932 197.874 276.426 200.196L301.308 237.516H255.03L239.106 205.17C238.608 204.012 238.11 203.514 237.612 201.69L236.946 202.02V237.516H197.802V237.51ZM236.946 176.142H241.59C243.912 176.142 247.56 175.812 250.05 173.652C251.376 172.488 252.87 170.334 252.87 166.854C252.87 164.364 252.204 161.88 250.716 160.218C249.39 158.724 247.236 157.23 243.918 157.23H236.952V176.136L236.946 176.142Z" fill="#EC008C"/>
<path id="Vector_9" d="M312.408 237.51V126.882H387.048V157.236H352.548V167.52H383.898V196.548H352.548V207.162H388.044V237.516H312.408V237.51Z" fill="#EC008C"/>
<path id="Vector_10" d="M390.858 126.882H432.492L444.6 179.292C445.428 183.108 446.424 186.426 446.424 192.894H447.42C447.75 185.928 448.746 180.12 450.24 174.318L462.348 126.882H493.2L505.974 177.306C506.97 181.284 507.966 188.586 508.296 192.894H509.124C509.292 185.76 510.288 180.954 511.614 175.146L523.056 126.882H564.852L525.876 237.51H490.878L480.426 192.396C479.43 187.92 478.602 182.778 478.272 177.3H476.946C476.778 180.948 476.118 188.91 475.29 192.396L463.848 237.51H429.678L390.864 126.882H390.858Z" fill="#EC008C"/>
<path id="Vector_11" d="M587.07 223.746L584.082 237.51H541.62L579.936 126.882H624.384L663.858 237.51H621.234L617.586 223.746H587.07ZM603.324 163.872H601.83C601.662 168.516 601.002 172.332 600.006 176.31L594.534 197.538H610.62L605.478 176.31C604.482 171.996 603.822 167.85 603.324 163.872Z" fill="#EC008C"/>
<path id="Vector_12" d="M671.658 237.51V126.882H721.584C733.194 126.882 745.302 128.208 755.418 138.324C761.058 143.964 765.87 152.424 765.87 165.528C765.87 175.314 762.882 181.452 759.732 185.268C756.414 189.414 750.942 192.732 744.474 194.058V195.054C746.628 196.218 748.788 197.874 750.282 200.196L775.164 237.516H728.886L712.962 205.17C712.464 204.012 711.966 203.514 711.468 201.69L710.802 202.02V237.516H671.658V237.51ZM710.802 176.142H715.446C717.768 176.142 721.416 175.812 723.906 173.652C725.232 172.488 726.726 170.334 726.726 166.854C726.726 164.364 726.06 161.88 724.572 160.218C723.246 158.724 721.092 157.23 717.774 157.23H710.808V176.136L710.802 176.142Z" fill="#EC008C"/>
<path id="Vector_13" d="M779.634 237.51V126.882H822.258C831.546 126.882 855.096 127.71 871.188 143.634C878.322 150.768 886.116 163.206 886.116 183.606C886.116 195.048 883.962 209.814 871.854 221.922C865.218 228.72 852.282 237.51 832.212 237.51H779.634ZM819.444 203.676H822.432C827.076 203.676 833.874 203.508 839.514 198.534C843.33 195.216 845.982 189.576 845.982 182.61C845.982 175.644 843.162 169.506 839.514 166.026C834.702 161.55 828.402 160.716 823.758 160.716H819.444V203.676Z" fill="#EC008C"/>
<path id="Vector_14" d="M964.074 162.21C959.262 158.892 950.472 153.918 941.514 153.918C939.36 153.918 936.042 154.248 933.882 155.91C932.388 157.068 931.89 158.232 931.89 159.888C931.89 162.21 932.22 164.364 938.358 165.696L951.132 168.516C960.918 170.67 966.72 174.654 970.038 177.972C977.004 184.77 978.498 193.23 978.498 199.866C978.498 209.322 976.008 218.112 968.544 225.906C962.244 232.374 950.298 240.006 929.568 240.006C912.648 240.006 901.374 235.194 891.918 231.384L888.27 229.89L900.378 198.708L904.692 202.026C908.838 205.176 917.298 210.156 927.084 210.156C932.556 210.156 934.878 208.83 935.706 208.164C937.53 206.67 937.86 204.846 937.86 203.19C937.86 202.194 937.692 200.538 936.534 199.374C935.208 198.048 933.048 197.55 928.902 196.722L919.116 194.898C912.816 193.734 906.012 191.748 899.874 185.442C894.234 179.634 891.912 173.004 891.912 165.042C891.912 154.758 895.398 145.968 902.694 138.672C911.154 130.05 923.592 124.41 941.172 124.41C949.962 124.41 961.41 125.904 974.844 134.028L964.062 162.222L964.074 162.21Z" fill="#EC008C"/>
<path id="Vector_15" d="M141.744 64.008L123.246 48.486V38.646H123.168V18.012H136.71C138.036 18.012 139.11 16.938 139.11 15.612V2.4C139.11 1.074 138.036 0 136.71 0H21.51C20.184 0 19.11 1.074 19.11 2.4V15.612C19.11 16.938 20.184 18.012 21.51 18.012H35.052V48.426L16.476 64.008C6.858 72.078 0.888 83.898 0.096 96.432L0.042 97.248C-0.048 98.628 1.05 99.798 2.436 99.798H15.66C16.914 99.798 17.952 98.832 18.054 97.584L18.108 96.876C18.684 89.58 22.218 82.698 27.816 78.006L53.064 56.814V56.658H105.15V56.814L130.398 78.006C136.626 83.232 140.202 90.894 140.202 99.024V221.976H18.012V178.41C18.012 150.18 39.822 126.402 67.458 123.462C68.868 123.312 70.098 124.434 70.098 125.856V138.942C70.098 140.76 72.042 141.918 73.644 141.054L119.28 116.268C120.954 115.362 120.954 112.956 119.28 112.05L73.644 87.264C72.042 86.394 70.098 87.552 70.098 89.376V102.966C70.098 104.22 69.132 105.264 67.884 105.354C50.124 106.644 33.594 114.294 20.994 127.134C7.458 140.928 0 159.144 0 178.422V237.6C0 238.926 1.074 240 2.4 240H155.82C157.146 240 158.22 238.926 158.22 237.6V99.342C158.22 85.674 152.214 72.798 141.744 64.014V64.008ZM88.236 38.646V28.326H70.224V38.646H53.064V18.012H105.15V38.646H88.236Z" fill="#EC008C"/>
</g>
<defs>
<clipPath id="clip0_595_2074">
<rect width="978.504" height="240" fill="white"/>
</clipPath>
</defs>
</svg>
