<svg preserveAspectRatio="none" width="100%" height="100%" overflow="visible" style="display: block;" viewBox="0 0 162.555 163.681" fill="none" xmlns="http://www.w3.org/2000/svg">
<g id="Group">
<path id="Vector" d="M30.4838 21.3271C22.0985 28.347 15.1803 37.1569 10.3391 46.9892C5.19109 57.4969 2.30113 69.123 1.93527 80.856C1.68397 89.7102 3.04395 98.6161 5.86 107.039C8.79061 115.431 13.2475 123.226 18.7207 130.15C23.6876 136.605 29.8112 141.957 36.3302 146.788L38.7619 148.505C39.5713 149.08 40.3732 149.667 41.2601 150.121L46.4672 153.026C48.2374 153.923 50.1037 154.631 51.9183 155.436C52.8422 155.801 53.7254 156.27 54.6826 156.547L57.5282 157.436C61.2829 158.776 65.2224 159.404 69.1065 160.186C73.0571 160.574 76.9892 161.098 80.9509 160.924C89.9275 160.843 98.8302 159.234 107.219 156.259C115.564 153.137 123.321 148.641 130.221 143.123C136.474 138.277 141.88 132.265 146.433 125.784C156.312 111.899 161.123 94.6153 160.443 77.6265C159.952 67.1299 157.132 56.8141 152.494 47.4469C151.825 46.1846 151.112 44.8449 150.576 43.6269C150.243 42.8629 149.999 41.8886 150.088 41.6782C150.177 41.4678 150.716 41.8406 151.097 42.4311C152.32 44.354 153.654 46.4024 154.822 48.5947C163.137 65.6573 164.967 86.1154 159.235 104.743L158.307 107.677C158.019 108.662 157.69 109.633 157.258 110.567L154.859 116.236C152.919 119.849 151.082 123.536 148.625 126.832C146.681 129.947 144.19 132.627 141.936 135.48C140.731 136.838 139.404 138.082 138.151 139.392L136.248 141.337C135.601 141.972 134.873 142.518 134.193 143.112L130.036 146.622C128.583 147.704 127.061 148.693 125.575 149.734L123.328 151.28C122.586 151.804 121.75 152.177 120.967 152.635L116.17 155.255C106.432 160.035 95.7739 162.995 84.798 163.615C77.0372 163.892 69.1767 163.327 61.5675 161.433C59.6605 161.005 57.8201 160.311 55.9502 159.75L53.16 158.85L50.4696 157.68C48.6957 156.864 46.859 156.174 45.1516 155.229L40.0923 152.302C19.4894 139.506 4.85849 117.727 1.02615 93.7812L0.627027 91.5482L0.438551 89.2821L0.0763823 84.7498C-0.0973109 83.2402 0.0800779 81.7233 0.0763823 80.2175C0.131816 78.7116 0.183555 77.2095 0.238989 75.7147C1.0668 67.6356 2.95156 59.7188 5.81934 52.16C8.74256 44.6124 12.9075 37.6072 17.7857 31.1815L21.655 26.5164C23.0371 25.0438 24.5117 23.6597 25.9345 22.224C27.3166 20.7403 28.9095 19.4965 30.4875 18.2268L32.8416 16.315L34.0242 15.3628L35.2918 14.5287L40.3621 11.1922C42.0843 10.1366 43.9284 9.28405 45.7096 8.32075L48.4037 6.92194L51.2235 5.79255C53.1193 5.08023 54.956 4.19444 56.8999 3.62975C66.6711 0.385534 76.9559 -0.695871 86.7567 0.433513C97.3298 1.59611 107.659 4.40481 117.452 9.21023C120.612 10.9597 123.886 12.5283 126.787 14.7058L129.023 16.2412C129.781 16.7358 130.509 17.2672 131.181 17.8762L135.317 21.3788C140.539 26.3392 145.402 31.7573 149.094 37.9505C149.486 38.5631 149.981 39.3308 150.169 39.7737C150.454 40.4381 150.628 41.0507 150.602 41.3423C150.587 41.4973 150.029 41.0655 149.756 40.689C148.931 39.5412 148.104 38.386 147.272 37.2271C146.437 36.0719 145.687 34.8576 144.73 33.7909C133.776 19.2418 117.471 9.09582 99.8576 4.99534C88.2349 2.34535 75.9618 2.12759 64.3576 4.86985C51.97 7.98858 40.4323 13.4768 30.4801 21.3271H30.4838Z" fill="var(--fill-0, #EC008C)"/>
<g id="Group_2">
<path id="Vector_2" d="M19.87 52.6325L18.0813 56.3454L16.3185 55.5002L20.8974 45.989L22.6602 46.8342L20.8715 50.5472L30.3286 55.0905L29.3271 57.1721L19.87 52.6288V52.6325Z" fill="var(--fill-0, #EC008C)"/>
<path id="Vector_3" d="M40.1736 41.095L35.75 40.6521C35.6576 40.785 35.5541 40.9068 35.4507 41.0286L33.6213 43.1582L36.3783 45.5166L34.8742 47.2697L25.4208 39.1758L28.7542 35.2931C30.8866 32.8129 33.4735 32.3589 35.5689 34.1526C36.9991 35.378 37.4278 37.0093 36.8291 38.7182L41.7997 39.2053L40.1773 41.095H40.1736ZM30.1697 36.6476L28.4105 38.696L32.1801 41.9218L33.9392 39.8734C35.2585 38.3343 35.24 36.9392 34.05 35.9205C32.86 34.9019 31.489 35.1086 30.1697 36.6476Z" fill="var(--fill-0, #EC008C)"/>
<path id="Vector_4" d="M51.2013 28.8305L45.9942 32.2371L46.5486 35.3152L44.5529 36.6218L42.4169 23.1541L44.3201 21.9066L55.8467 29.2328L53.8215 30.5578L51.2013 28.8305ZM49.5679 27.7343L44.6195 24.4717L45.6542 30.2958L49.5679 27.7343Z" fill="var(--fill-0, #EC008C)"/>
<path id="Vector_5" d="M66.6859 12.3585L65.3407 25.8594L63.1751 26.557L54.1763 16.3888L56.5636 15.6211L63.4559 23.4825L64.487 13.0708L66.6896 12.3622L66.6859 12.3585Z" fill="var(--fill-0, #EC008C)"/>
<path id="Vector_6" d="M84.2437 21.3382L84.3324 23.2722L75.001 23.6929L74.4392 11.2697L83.5193 10.86L83.608 12.794L76.8377 13.1003L76.9855 16.3298L82.9909 16.0567L83.0759 17.9574L77.0705 18.2305L77.2257 21.6556L84.2437 21.3382Z" fill="var(--fill-0, #EC008C)"/>
<path id="Vector_7" d="M92.6253 11.7347L94.8907 12.2035L92.7583 22.4676L99.1332 23.7889L98.7341 25.7007L90.0938 23.9107L92.6216 11.7347H92.6253Z" fill="var(--fill-0, #EC008C)"/>
</g>
<g id="Group_3">
<path id="Vector_8" d="M140.997 115.657L143.133 112.132L144.807 113.143L139.334 122.171L137.66 121.16L139.796 117.635L130.819 112.206L132.017 110.231L140.993 115.66L140.997 115.657Z" fill="var(--fill-0, #EC008C)"/>
<path id="Vector_9" d="M132.142 121.61C134.755 124.204 134.678 128.135 131.954 130.87C129.23 133.605 125.305 133.716 122.682 131.11C120.058 128.504 120.146 124.585 122.87 121.85C125.594 119.115 129.53 119.019 132.142 121.613V121.61ZM124.326 129.456C126.13 131.25 128.746 131.217 130.516 129.442C132.286 127.666 132.305 125.053 130.501 123.26C128.698 121.47 126.082 121.499 124.311 123.274C122.541 125.05 122.523 127.663 124.326 129.456Z" fill="var(--fill-0, #EC008C)"/>
<path id="Vector_10" d="M114.348 135.266L114.991 132.512L113.347 129.789L115.327 128.596L121.761 139.244L119.781 140.437L116.48 134.978L114.511 143.614L112.286 144.954L113.886 137.495L105.578 134.472L107.892 133.077L114.348 135.266Z" fill="var(--fill-0, #EC008C)"/>
<path id="Vector_11" d="M107.042 146.847L104.869 147.637L100.608 135.952L102.781 135.162L107.042 146.847Z" fill="var(--fill-0, #EC008C)"/>
<path id="Vector_12" d="M98.1428 143.533C98.6898 147.169 96.2839 150.28 92.4664 150.856C88.6488 151.431 85.43 149.184 84.8793 145.53C84.3287 141.876 86.7382 138.783 90.5558 138.207C94.3733 137.632 97.5922 139.898 98.1428 143.533ZM87.1817 145.183C87.5623 147.696 89.6799 149.228 92.1596 148.855C94.6394 148.482 96.2137 146.393 95.8368 143.884C95.4561 141.37 93.3385 139.839 90.8588 140.211C88.379 140.584 86.8047 142.673 87.1817 145.183Z" fill="var(--fill-0, #EC008C)"/>
</g>
<path id="Vector_13" d="M95.36 124.872C101.243 123.171 106.765 120.215 111.58 116.395C116.717 112.316 121.074 107.16 124.152 101.277C128.787 92.3897 130.091 81.7455 127.708 72.0461C126.588 67.606 125.121 63.2915 123.003 59.2095C122.763 58.7038 122.537 58.1908 122.279 57.6925L121.403 56.2605C120.801 55.3157 120.25 54.3302 119.592 53.4223C118.199 51.6618 116.861 49.8459 115.198 48.3253C113.675 46.6644 111.835 45.3542 110.098 43.948C108.199 42.7559 106.38 41.4494 104.333 40.5451C99.8021 38.3122 94.9535 36.7288 89.9903 36.1309C85.0382 35.4998 80.0307 35.6548 75.1858 36.5443C70.8286 37.2566 66.6046 38.7588 62.5801 40.5599C58.2636 42.5308 54.3167 45.2619 50.8465 48.484C47.3616 51.6987 44.4199 55.5039 42.1804 59.6893C39.3717 64.8306 37.8195 70.5919 37.2763 76.3643C37.1654 77.1504 37.1802 77.9956 37.0324 78.7264C36.9511 79.1841 36.685 79.7118 36.5039 79.782C36.3265 79.8521 36.0346 79.5089 35.9939 79.1139C35.8424 77.8295 35.7315 76.4455 35.8646 75.0504C36.6998 64.4098 41.5373 53.7471 49.7896 46.2991C53.2265 43.1471 57.0921 40.4196 61.3494 38.4967C62.2622 37.9874 63.2416 37.6404 64.2024 37.2529C65.167 36.8801 66.1131 36.4446 67.0887 36.1014C69.0769 35.5441 71.006 34.7506 73.046 34.4036C77.0631 33.3554 81.2281 33.1118 85.4041 33.1118C91.6127 33.3111 97.8361 34.5771 103.634 37.1496C107.703 39.0245 111.584 41.4161 114.995 44.3983C118.299 47.4653 121.366 50.8867 123.454 54.8839C126.861 60.981 129.153 67.6466 130.058 74.5189C131.004 81.3875 130.416 88.448 128.465 95.1062C127.963 96.767 127.471 98.439 126.728 100.019L125.69 102.403C125.257 103.152 124.825 103.901 124.396 104.643C123.288 106.692 121.802 108.504 120.461 110.386C118.923 112.124 117.482 113.94 115.741 115.472C114.137 117.144 112.242 118.487 110.449 119.938C109.507 120.602 108.516 121.2 107.552 121.835L106.096 122.772L104.558 123.566C96.4428 127.976 87.0265 129.984 77.7727 129.268C71.9004 128.814 66.2276 127.091 61.379 124.219C56.146 121.137 51.3935 117.439 47.2064 112.903C46.4894 112.176 45.8981 111.331 45.244 110.548C44.6194 109.736 43.921 108.984 43.411 108.09C42.3245 106.356 41.1641 104.669 40.2919 102.82C38.4737 99.1623 37.1691 95.2686 36.3635 91.2899C36.2859 90.8876 36.1824 90.3819 36.212 90.1014C36.2637 89.6807 36.382 89.3079 36.5409 89.1418C36.6222 89.0569 36.9215 89.3744 36.988 89.6253C37.4019 91.157 37.9193 92.6665 38.3961 94.1835C39.8743 99.0369 42.2764 103.562 45.2329 107.659C48.2633 111.7 51.9256 115.247 56.0647 118.111C61.5194 121.864 67.7872 124.573 74.3432 125.603C81.3685 126.651 88.4419 126.504 95.3526 124.861L95.36 124.872Z" fill="var(--fill-0, #EC008C)"/>
<path id="Vector_14" d="M79.2101 80.0251H87.6102L86.9356 66.5794L79.2101 80.0251ZM54.1763 99.5051L78.7018 57.1721H99.032L102.386 99.5051H86.261V90.4397H73.8318L69.4609 99.5051H54.1763Z" fill="var(--fill-0, #EC008C)"/>
<path id="Vector_15" d="M61.9925 142.618C63.3598 143.29 64.742 143.961 66.1574 144.548C66.4494 144.677 66.7635 144.829 66.9741 145.05C67.0961 145.179 67.0776 145.474 67.037 145.674C67.0185 145.766 66.7672 145.895 66.6674 145.862C65.9689 145.63 65.252 145.408 64.5979 145.087C61.5749 143.541 58.5149 142.297 55.3515 141.156C51.3602 139.695 47.4503 137.883 43.6401 135.786C39.5823 133.553 35.9939 130.468 33.2555 126.674C32.5016 125.659 31.7588 124.633 31.0529 123.584C30.3101 122.562 29.6486 121.484 28.9945 120.407C27.8784 118.528 26.9397 116.561 25.9604 114.627C24.6041 111.951 23.3291 109.227 22.2537 106.426C20.5094 102.001 19.2085 97.3871 18.3992 92.6702C17.2683 86.2778 17.7081 79.7266 18.6726 73.3637C18.802 72.2823 19.0126 71.2156 19.2233 70.149C19.2602 69.9792 19.5448 69.7504 19.6963 69.7615C19.8626 69.7725 20.1287 70.0198 20.1398 70.1859C20.1804 70.8355 20.2174 71.5035 20.1102 72.1383C19.4672 76.2019 19.1752 80.3171 19.2861 84.4176L19.4265 87.3666L19.7185 90.3008C20.1952 93.8734 20.9935 97.3908 22.0837 100.805C23.1739 104.219 24.5856 107.511 26.2006 110.681C27.0838 112.412 28.004 114.121 28.9538 115.812C31.8216 120.776 35.2252 125.507 39.4308 129.464C41.3451 131.328 43.6734 132.73 45.9499 134.063C51.3011 137.082 56.571 139.761 61.9962 142.622L61.9925 142.618Z" fill="var(--fill-0, #EC008C)"/>
<path id="Vector_16" d="M146.773 95.1652C146.141 95.239 145.982 94.8884 146.001 94.5489C146.09 93.1574 146.082 91.7623 146.237 90.393C146.714 86.4107 146.925 82.3766 146.673 78.3463C146.577 77.1689 146.537 75.9805 146.333 74.8142C145.86 71.6512 145.136 68.525 144.194 65.4728C143.281 62.4832 142.217 59.5343 140.912 56.685C139.212 53.0237 137.22 49.4658 134.759 46.2548C131.577 42.0916 127.726 38.5189 123.657 35.3226C118.336 31.1373 112.419 27.7233 106.092 25.3759C105.508 25.1729 104.895 25.0438 104.329 24.8002C104.13 24.7153 103.893 24.3905 103.904 24.1801C103.926 23.6892 104.359 23.6449 104.695 23.7077C105.383 23.8332 106.07 23.9956 106.739 24.2059C112.389 26.1362 117.815 28.8453 122.781 32.2925C126.115 34.5919 129.337 37.1274 132.176 40.0838C135.406 43.4535 138.251 47.2218 140.546 51.3038C142.239 54.238 143.488 57.4047 144.571 60.5898C144.807 61.2652 144.977 61.9628 145.11 62.6714C145.546 64.7014 146.056 66.6833 146.544 68.6985C147.479 72.4262 147.897 76.2683 148.033 80.092C148.222 84.8568 147.457 89.5368 147.05 94.2499C147.025 94.5784 146.862 94.8958 146.777 95.1726L146.773 95.1652Z" fill="var(--fill-0, #EC008C)"/>
</g>
</svg>
