<svg preserveAspectRatio="none" width="100%" height="100%" overflow="visible" style="display: block;" viewBox="0 0 25.3333 25.3333" fill="none" xmlns="http://www.w3.org/2000/svg">
<g id="featured_seasonal_and_gifts">
<mask id="mask0_600_2185" style="mask-type:alpha" maskUnits="userSpaceOnUse" x="0" y="0" width="26" height="26">
<rect id="Bounding box" width="25.3333" height="25.3333" fill="var(--fill-0, #D9D9D9)"/>
</mask>
<g mask="url(#mask0_600_2185)">
<path id="featured_seasonal_and_gifts_2" d="M4.22236 23.2222V11.6111H2.11125V5.27776H7.60014C7.51217 5.11943 7.455 4.9523 7.42861 4.77638C7.40222 4.60045 7.38902 4.41573 7.38902 4.22221C7.38902 3.34258 7.6969 2.59489 8.31264 1.97915C8.92838 1.36341 9.67606 1.05554 10.5557 1.05554C10.9603 1.05554 11.3386 1.13031 11.6904 1.27985C12.0423 1.42938 12.3677 1.6361 12.6668 1.89999C12.9659 1.6185 13.2913 1.40739 13.6432 1.26665C13.995 1.12591 14.3733 1.05554 14.7779 1.05554C15.6575 1.05554 16.4052 1.36341 17.021 1.97915C17.6367 2.59489 17.9446 3.34258 17.9446 4.22221C17.9446 4.41573 17.927 4.59605 17.8918 4.76318C17.8566 4.93031 17.8038 5.10184 17.7335 5.27776H23.2224V11.6111H21.1112V23.2222H4.22236ZM14.0258 3.47013C13.8235 3.67244 13.7224 3.92313 13.7224 4.22221C13.7224 4.52128 13.8235 4.77198 14.0258 4.97429C14.2281 5.17661 14.4788 5.27776 14.7779 5.27776C15.077 5.27776 15.3277 5.17661 15.53 4.97429C15.7323 4.77198 15.8335 4.52128 15.8335 4.22221C15.8335 3.92313 15.7323 3.67244 15.53 3.47013C15.3277 3.26781 15.077 3.16665 14.7779 3.16665C14.4788 3.16665 14.2281 3.26781 14.0258 3.47013ZM9.50014 4.22221C9.50014 4.52128 9.60129 4.77198 9.80361 4.97429C10.0059 5.17661 10.2566 5.27776 10.5557 5.27776C10.8548 5.27776 11.1055 5.17661 11.3078 4.97429C11.5101 4.77198 11.6112 4.52128 11.6112 4.22221C11.6112 3.92313 11.5101 3.67244 11.3078 3.47013C11.1055 3.26781 10.8548 3.16665 10.5557 3.16665C10.2566 3.16665 10.0059 3.26781 9.80361 3.47013C9.60129 3.67244 9.50014 3.92313 9.50014 4.22221ZM4.22236 7.38888V9.49999H11.6112V7.38888H4.22236ZM11.6112 21.1111V11.6111H6.33347V21.1111H11.6112ZM13.7224 21.1111H19.0001V11.6111H13.7224V21.1111ZM21.1112 9.49999V7.38888H13.7224V9.49999H21.1112Z" fill="var(--fill-0, white)"/>
</g>
</g>
</svg>
