<svg preserveAspectRatio="none" width="100%" height="100%" overflow="visible" style="display: block;" viewBox="0 0 15.2083 16.6667" fill="none" xmlns="http://www.w3.org/2000/svg">
<path id="Vector" d="M4.58333 3.33333C4.125 3.33333 3.73264 3.17014 3.40625 2.84375C3.07986 2.51736 2.91667 2.125 2.91667 1.66667C2.91667 1.20833 3.07986 0.815972 3.40625 0.489583C3.73264 0.163194 4.125 0 4.58333 0C5.04167 0 5.43403 0.163194 5.76042 0.489583C6.08681 0.815972 6.25 1.20833 6.25 1.66667C6.25 2.125 6.08681 2.51736 5.76042 2.84375C5.43403 3.17014 5.04167 3.33333 4.58333 3.33333ZM9.16667 15H3.79167C3.33333 15 2.91319 14.8368 2.53125 14.5104C2.14931 14.184 1.90972 13.7917 1.8125 13.3333L0 4.16667H1.70833L3.54167 13.3333H9.16667V15ZM13.75 16.6667L11.3333 12.5H5.54167C5.13889 12.5 4.78819 12.3785 4.48958 12.1354C4.19097 11.8924 4 11.5694 3.91667 11.1667L3 6.70833C2.84722 6.04167 3.00347 5.45139 3.46875 4.9375C3.93403 4.42361 4.5 4.16667 5.16667 4.16667C5.65278 4.16667 6.09375 4.3125 6.48958 4.60417C6.88542 4.89583 7.13889 5.29167 7.25 5.79167L8.16667 10H10.875C11.1667 10 11.4375 10.0764 11.6875 10.2292C11.9375 10.3819 12.1389 10.5833 12.2917 10.8333L15.2083 15.8333L13.75 16.6667Z" fill="currentColor"/>
</svg>
