<svg preserveAspectRatio="none" width="100%" height="100%" overflow="visible" style="display: block;" viewBox="0 0 171.5 32.5" fill="none" xmlns="http://www.w3.org/2000/svg">
<g id="download 2" clip-path="url(#clip0_596_2126)">
<path id="Vector" d="M16.6603 9.74834L20.31 19.8143H13.0195L16.6603 9.74834ZM12.1931 0.580078L0.0800781 31.9068H8.87222L10.7515 26.8383H22.578L24.4173 31.9068H33.2116L21.1452 0.580078H12.1931Z" fill="var(--fill-0, #D8282F)"/>
<path id="Vector_2" d="M47.9102 32.4422C38.2784 32.4422 31.29 25.6427 31.29 16.2656C31.29 6.88843 38.2784 0.0866699 47.9102 0.0866699C55.1652 0.0866699 59.0504 4.2575 61.0318 7.75504L61.405 8.42166L54.6454 11.7392L54.3255 11.1215C53.0905 8.75274 50.5092 7.15508 47.9102 7.15508C42.8922 7.15508 39.2469 10.9859 39.2469 16.2656C39.2469 21.5452 42.8855 25.3761 47.9102 25.3761C49.2366 25.363 50.5342 24.9871 51.6623 24.2892C52.7904 23.5912 53.706 22.5977 54.31 21.4163L54.6299 20.7941L61.4139 24.0761L61.0296 24.7428C58.1152 29.7758 53.5769 32.4422 47.9102 32.4422Z" fill="var(--fill-0, #D8282F)"/>
<path id="Vector_3" d="M61.6738 0.580078V7.60626H70.4149V31.9068H78.2452V7.60626H86.9373V0.580078H61.6738Z" fill="var(--fill-0, #D8282F)"/>
<path id="Vector_4" d="M97.3841 14.2545H103.351C105.641 14.2545 107.127 12.9479 107.127 10.9214C107.127 8.89485 105.648 7.58827 103.351 7.58827H97.3841V14.2545ZM115.753 31.9044H106.785L100.912 21.2807H97.3841V31.9044H89.6094V0.577637H104.293C110.721 0.577637 115.042 4.73735 115.042 10.928C115.042 16.221 111.892 19.1497 108.864 20.2296L115.753 31.9044Z" fill="var(--fill-0, #D8282F)"/>
<path id="Vector_5" d="M132.437 7.15508C127.524 7.15508 124.094 10.9015 124.094 16.2656C124.094 21.6296 127.524 25.3761 132.437 25.3761C137.351 25.3761 140.834 21.6274 140.834 16.2656C140.834 10.9037 137.389 7.15508 132.449 7.15508M132.449 32.4422C123.001 32.4422 116.142 25.6427 116.142 16.2656C116.142 6.88843 122.99 0.0866699 132.437 0.0866699C141.885 0.0866699 148.791 6.88843 148.791 16.2656C148.791 25.6427 141.905 32.4422 132.437 32.4422" fill="var(--fill-0, #D8282F)"/>
<path id="Vector_6" d="M151.001 0.580078V31.9068H171.424V24.8806H158.787V0.580078H151.001Z" fill="var(--fill-0, #D8282F)"/>
<path id="Vector_7" d="M163.954 0.628906V1.25775H164.931V3.97312H165.647V1.25775H166.618V0.628906H163.954Z" fill="var(--fill-0, #D8282F)"/>
<path id="Vector_8" d="M169.694 0.628906L168.883 2.65099L168.075 0.628906H167.077V3.97312H167.786V1.63106L168.728 3.97312H169.041L169.983 1.63106V3.97312H170.7V0.628906H169.694Z" fill="var(--fill-0, #D8282F)"/>
</g>
<defs>
<clipPath id="clip0_596_2126">
<rect width="171.5" height="32.5" fill="white"/>
</clipPath>
</defs>
</svg>
