<svg preserveAspectRatio="none" width="100%" height="100%" overflow="visible" style="display: block;" viewBox="0 0 123.189 39.0452" fill="none" xmlns="http://www.w3.org/2000/svg">
<g id="Layer 1-2-2">
<path id="Vector" fill-rule="evenodd" clip-rule="evenodd" d="M35.543 22.1819C36.3682 18.9723 37.2389 15.7728 38.0742 12.5631H40.565C39.7246 15.7728 38.8488 18.9723 38.0337 22.1819H35.543Z" fill="var(--fill-0, #001A77)"/>
<path id="Vector_2" fill-rule="evenodd" clip-rule="evenodd" d="M44.3199 16.7147H45.6412C46.5343 16.7494 47.4286 16.69 48.3092 16.5375C48.6989 16.4357 49.0506 16.2229 49.3217 15.925C49.5396 15.6978 49.6673 15.3991 49.6811 15.0846C49.6828 14.918 49.6358 14.7545 49.5459 14.6142C49.456 14.4739 49.327 14.3629 49.1749 14.2948C48.7114 14.153 48.2257 14.0981 47.7422 14.1328H44.9983C44.7857 15.0036 44.5376 15.8592 44.3199 16.7147ZM42.8873 22.1822H40.4016C41.2267 18.9726 42.0975 15.7731 42.9328 12.5635H48.3092C49.0392 12.5431 49.7688 12.6145 50.481 12.7761C50.987 12.9082 51.4329 13.209 51.7449 13.6287C52.0569 14.0484 52.2165 14.562 52.1972 15.0846C52.208 15.47 52.1306 15.8528 51.9709 16.2038C51.8112 16.5547 51.5735 16.8645 51.2758 17.1096C50.4723 17.7366 49.4899 18.0913 48.4712 18.1221C48.8112 18.3837 49.1158 18.6883 49.3774 19.0283C50.0787 20.0414 50.6966 21.1097 51.2252 22.2227H48.5572C48.1792 21.3621 47.7557 20.5184 47.2866 19.6915C47.0477 19.1771 46.6709 18.739 46.1981 18.4259C45.8028 18.2819 45.3832 18.2165 44.9629 18.2335H43.9504C43.596 19.5295 43.2366 20.8508 42.8873 22.1822Z" fill="var(--fill-0, #001A77)"/>
<path id="Vector_3" fill-rule="evenodd" clip-rule="evenodd" d="M52.5779 22.1819C53.3981 18.9723 54.2739 15.7728 55.1092 12.5631H64.1052C63.9584 13.0694 63.8268 13.6364 63.6749 14.1629H57.1696C56.9924 14.8868 56.7899 15.626 56.5925 16.3499H62.87C62.7384 16.8966 62.5916 17.4231 62.4397 17.9648H56.1875C55.9242 18.8204 55.6812 19.6962 55.4129 20.567H62.465C62.3334 21.1137 62.1815 21.6402 62.0347 22.1819H52.5779Z" fill="var(--fill-0, #001A77)"/>
<path id="Vector_4" fill-rule="evenodd" clip-rule="evenodd" d="M63.8262 22.1819C64.6665 18.9723 65.5373 15.7728 66.3574 12.5631H74.8371C74.7055 13.0694 74.5587 13.6364 74.4119 14.1629H68.4381C68.2407 14.9375 68.023 15.6816 67.8256 16.4663H73.693C73.5614 17.0131 73.4095 17.5548 73.2627 18.0813H67.4003C67.051 19.4481 66.6764 20.815 66.327 22.1819H63.8262Z" fill="var(--fill-0, #001A77)"/>
<path id="Vector_5" fill-rule="evenodd" clip-rule="evenodd" d="M78.1726 16.7147H79.4737C80.3667 16.7493 81.261 16.69 82.1416 16.5375C82.5313 16.4356 82.883 16.2228 83.1541 15.9249C83.3792 15.7058 83.5115 15.4086 83.5237 15.0947C83.5209 14.9303 83.472 14.77 83.3825 14.6322C83.293 14.4943 83.1665 14.3844 83.0174 14.3151C82.5572 14.1835 82.0765 14.1389 81.5999 14.1834H78.8662C78.6383 15.0542 78.4055 15.9097 78.1777 16.7653M76.7602 22.2024H74.2289C75.0693 18.9928 75.9451 15.7933 76.7602 12.5837H82.1517C82.8784 12.5633 83.6047 12.6347 84.3134 12.7963C84.7998 12.9358 85.2313 13.2223 85.5487 13.6164C85.8703 14.0371 86.0382 14.5552 86.0245 15.0846C86.0335 15.4712 85.9537 15.8548 85.7914 16.2058C85.629 16.5568 85.3884 16.866 85.088 17.1096C84.286 17.7359 83.3055 18.0905 82.2884 18.1221C82.632 18.3795 82.9371 18.6847 83.1946 19.0282C83.8939 20.0337 84.5118 21.0935 85.0424 22.1974H82.3593C81.9863 21.3326 81.569 20.4878 81.1088 19.6661C80.8656 19.15 80.4835 18.7117 80.0052 18.4005C79.6105 18.2549 79.1899 18.1928 78.77 18.2182H77.7575C77.4487 19.5294 77.0639 20.8507 76.745 22.1822L76.7602 22.2024Z" fill="var(--fill-0, #001A77)"/>
<path id="Vector_6" fill-rule="evenodd" clip-rule="evenodd" d="M86.3244 22.1819C87.1496 18.9723 88.0204 15.7728 88.8557 12.5631H91.3464C90.5212 15.7728 89.6454 18.9723 88.8152 22.1819H86.3244Z" fill="var(--fill-0, #001A77)"/>
<path id="Vector_7" fill-rule="evenodd" clip-rule="evenodd" d="M97.8727 17.0437H103.269C102.905 18.4106 102.525 19.7927 102.166 21.1596C101.425 21.5387 100.639 21.8211 99.8268 21.9999C98.895 22.2347 97.9375 22.352 96.9766 22.3492C95.4579 22.3492 94.3238 22.086 93.5341 21.5392C93.0087 21.1939 92.5821 20.7178 92.2963 20.1578C92.0105 19.5977 91.8753 18.9729 91.904 18.3448C91.9139 17.3991 92.1574 16.4704 92.6127 15.6414C93.169 14.6273 94.0033 13.793 95.0174 13.2367C96.1387 12.6496 97.3921 12.3602 98.6573 12.3964C99.8395 12.3351 101.016 12.6033 102.054 13.1709C102.89 13.6728 103.494 14.4842 103.735 15.4288L101.416 15.6262C101.229 15.1156 100.871 14.6848 100.404 14.4062C99.8829 14.1128 99.2902 13.9707 98.6928 13.9961C97.9275 13.9897 97.1715 14.1631 96.4855 14.5024C95.8072 14.8369 95.2537 15.3798 94.906 16.0515C94.5217 16.747 94.3229 17.5299 94.3289 18.3246C94.302 18.6558 94.35 18.9888 94.4692 19.299C94.5883 19.6092 94.7757 19.8886 95.0174 20.1167C95.602 20.5443 96.3202 20.749 97.0424 20.6938C97.5911 20.6988 98.1385 20.6376 98.6725 20.5116C99.174 20.4155 99.6655 20.2732 100.141 20.0863C100.252 19.5801 100.384 19.1295 100.5 18.6536H97.4626C97.5942 18.1221 97.741 17.5804 97.8727 17.0539" fill="var(--fill-0, #001A77)"/>
<path id="Vector_8" d="M32.7937 26.2675V25.5081H120.719V26.2675H32.7937ZM32.7937 24.7487V23.9894H120.719V24.7487H32.7937Z" fill="var(--fill-0, #D8282F)"/>
<path id="Vector_9" fill-rule="evenodd" clip-rule="evenodd" d="M40.5992 28.0798H43.1305C42.685 29.7099 42.1889 31.3249 41.7484 32.955C41.632 33.365 41.5156 33.7599 41.3991 34.1599C41.374 34.2556 41.3638 34.3546 41.3687 34.4535C41.3719 34.6304 41.42 34.8037 41.5086 34.9569C41.5971 35.1101 41.7232 35.2383 41.875 35.3293C42.3481 35.5892 42.8855 35.7086 43.4241 35.6735C43.9421 35.6977 44.4595 35.6132 44.9429 35.4255C45.3254 35.281 45.6493 35.014 45.8642 34.6661C46.1635 34.1406 46.39 33.5769 46.5376 32.9904C46.9831 31.3552 47.4792 29.7251 47.9399 28.0798H50.4711C50.0104 29.7251 49.5295 31.3552 49.0688 32.9904C48.8607 33.8342 48.5189 34.6392 48.0563 35.3749C47.6017 35.9661 46.9993 36.4271 46.3097 36.7114C45.367 37.0853 44.3565 37.2578 43.3431 37.2176C41.9104 37.2176 40.8119 36.9695 40.0677 36.443C39.7082 36.2415 39.4093 35.9474 39.2018 35.5914C38.9944 35.2353 38.8861 34.8301 38.8881 34.418C38.8975 34.2516 38.9264 34.0867 38.9742 33.927C39.044 33.5472 39.1421 33.1733 39.2678 32.8082C39.7133 31.2236 40.174 29.6593 40.6195 28.0798" fill="var(--fill-0, #001A77)"/>
<path id="Vector_10" fill-rule="evenodd" clip-rule="evenodd" d="M50.7955 34.1599L53.2002 34.0587C53.1883 34.4738 53.3288 34.879 53.5951 35.1977C53.9596 35.5268 54.6531 35.6736 55.6201 35.6736C56.236 35.7246 56.8545 35.6111 57.4122 35.3445C57.5665 35.2774 57.7001 35.1702 57.7989 35.034C57.8977 34.8977 57.9582 34.7375 57.9741 34.57C57.9612 34.4271 57.9121 34.2899 57.8315 34.1712C57.7509 34.0525 57.6415 33.9563 57.5134 33.8916C56.9491 33.6276 56.3651 33.4076 55.7669 33.2335C55.0613 33.0215 54.3683 32.7696 53.6913 32.4792C53.2925 32.3032 52.9444 32.0299 52.6788 31.6844C52.4246 31.3618 52.2904 30.9609 52.2991 30.5504C52.3117 30.1683 52.421 29.7956 52.6166 29.4672C52.8123 29.1388 53.0879 28.8652 53.4179 28.6722C54.4061 28.1191 55.5327 27.8625 56.6629 27.933C58.1159 27.933 59.2347 28.1609 60.0244 28.6722C60.3835 28.8728 60.6882 29.1579 60.9122 29.5028C61.1363 29.8477 61.2729 30.242 61.3103 30.6516C60.5054 30.6516 59.6954 30.6972 58.8904 30.7174C58.8679 30.518 58.7995 30.3264 58.6906 30.1578C58.5817 29.9892 58.4352 29.848 58.2627 29.7454C57.2804 29.3152 56.1691 29.2843 55.1644 29.6594C55.0329 29.7194 54.9204 29.8144 54.8392 29.9341C54.7579 30.0537 54.7111 30.1933 54.7038 30.3377C54.7035 30.4735 54.7426 30.6065 54.8163 30.7206C54.8899 30.8346 54.995 30.925 55.1189 30.9807C55.6986 31.2738 56.3056 31.5095 56.9313 31.6844C57.8694 31.9427 58.7748 32.3079 59.6296 32.7728C59.8919 32.9409 60.1078 33.1723 60.2573 33.4456C60.4068 33.719 60.4851 34.0255 60.4851 34.3371C60.463 34.7542 60.3352 35.1589 60.1138 35.5131C59.8925 35.8673 59.5847 36.1594 59.2195 36.3621C58.1261 36.9794 56.8789 37.271 55.6251 37.2025C54.6982 37.2241 53.7743 37.0907 52.8914 36.8076C52.2409 36.6381 51.6633 36.2614 51.2461 35.7344C50.9316 35.2638 50.7755 34.7051 50.8006 34.1397" fill="var(--fill-0, #001A77)"/>
<path id="Vector_11" fill-rule="evenodd" clip-rule="evenodd" d="M67.2022 37.0708H64.6709C65.3797 34.57 66.1188 32.0843 66.8123 29.5783H63.218C63.3496 29.0721 63.5015 28.5658 63.6483 28.0596H73.3177C73.1708 28.5658 73.019 29.0721 72.8873 29.5783H69.3436C68.6551 32.1096 67.9109 34.57 67.2224 37.0708" fill="var(--fill-0, #001A77)"/>
<path id="Vector_12" fill-rule="evenodd" clip-rule="evenodd" d="M76.3621 31.9981H77.6936C78.5984 32.0326 79.5044 31.9732 80.3969 31.8209C80.7933 31.7351 81.158 31.5405 81.4499 31.259C81.5627 31.1602 81.6534 31.0389 81.7162 30.9029C81.779 30.7668 81.8125 30.619 81.8144 30.4692C81.81 30.3042 81.7552 30.1446 81.6575 30.0116C81.5598 29.8786 81.4238 29.7786 81.2677 29.725C80.7961 29.5982 80.3072 29.5486 79.8198 29.5782H77.0506L76.3621 31.9981ZM74.9092 37.0606H72.3779C73.2386 34.0231 74.1093 31.0666 74.9649 28.0696H80.402C81.1437 28.0492 81.8851 28.1206 82.6092 28.2822C83.0971 28.4025 83.5347 28.6735 83.8597 29.0568C84.1858 29.4376 84.3653 29.9223 84.3659 30.4236C84.3683 30.7909 84.2843 31.1537 84.1208 31.4825C83.9572 31.8114 83.7186 32.0973 83.4243 32.317C82.5858 32.8875 81.6029 33.2087 80.5893 33.2435C80.9354 33.4739 81.2429 33.7575 81.5006 34.0838C82.2046 35.0247 82.8326 36.0201 83.3787 37.0606H80.6602C80.2704 36.2506 79.8401 35.4558 79.3743 34.6913C79.1252 34.2005 78.7427 33.7899 78.2707 33.5067C77.8685 33.371 77.4439 33.3143 77.0202 33.3396H76.0077C75.6281 34.585 75.2686 35.8203 74.9446 37.0707L74.9092 37.0606Z" fill="var(--fill-0, #001A77)"/>
<path id="Vector_13" fill-rule="evenodd" clip-rule="evenodd" d="M92.4546 33.5827C92.2066 32.3778 91.9484 31.178 91.7256 29.9731C90.7536 31.178 89.7512 32.3626 88.7641 33.5827H92.4546ZM92.7482 35.1014H87.8882C87.4124 35.7596 86.8757 36.4177 86.4252 37.091H83.8231C86.1113 34.0535 88.4806 31.1122 90.7536 28.1H93.5734C94.2164 31.097 94.9049 34.094 95.568 37.091H93.1431C93.0115 36.3974 92.8799 35.7393 92.7331 35.066L92.7482 35.1014Z" fill="var(--fill-0, #001A77)"/>
<path id="Vector_14" fill-rule="evenodd" clip-rule="evenodd" d="M97.1631 37.0708C98.0035 34.0333 98.8945 31.0768 99.7348 28.0798H102.266C101.573 30.611 100.828 33.0714 100.14 35.5571H106.372C106.24 36.0634 106.093 36.5696 105.941 37.0759H97.1631" fill="var(--fill-0, #001A77)"/>
<path id="Vector_15" fill-rule="evenodd" clip-rule="evenodd" d="M107.476 37.0708C108.317 34.0333 109.208 31.0768 110.043 28.0798H112.574C111.734 31.0768 110.848 34.0586 110.007 37.0708H107.476Z" fill="var(--fill-0, #001A77)"/>
<path id="Vector_16" fill-rule="evenodd" clip-rule="evenodd" d="M120.075 33.5827C119.842 32.3778 119.599 31.178 119.366 29.9731C118.354 31.178 117.372 32.3626 116.4 33.5827H120.075ZM120.389 35.1014H115.514C115.008 35.7596 114.501 36.4177 114.046 37.091H111.444C113.732 34.0535 116.106 31.1122 118.394 28.1H121.194C121.837 31.097 122.53 34.094 123.189 37.091H120.784C120.652 36.3974 120.521 35.7393 120.389 35.066V35.1014Z" fill="var(--fill-0, #001A77)"/>
<path id="Vector_17" fill-rule="evenodd" clip-rule="evenodd" d="M16.5377 17.7827C16.8972 17.241 17.4743 16.4665 18.1831 15.4286C22.6127 9.05496 25.6452 4.62528 27.0627 1.9219C27.3362 1.29583 27.78 0.759103 28.3435 0.372776C28.9794 0.0904689 29.674 -0.0345549 30.3685 0.00827554C30.8569 -0.0272657 31.3432 0.100993 31.7506 0.372776C32.1274 0.742949 32.3561 1.23804 32.3935 1.76496C32.7226 3.75959 33.0871 6.69078 33.406 10.5433C33.7249 14.3959 34.0641 18.6433 34.2818 23.1591C34.3476 23.9033 34.4134 24.9563 34.4792 26.308C34.702 31.4565 35.2943 34.3219 36.2005 34.9496C36.44 35.1037 36.7011 35.2214 36.9751 35.299C37.9319 35.6432 38.2913 36.1697 38.0787 36.8785C37.8154 37.7036 37.1067 38.2605 36.0182 38.5744C34.9298 38.8883 32.839 39.0351 29.8268 39.0351C26.8146 39.0351 24.9364 38.8883 24.0454 38.5744C23.1544 38.2605 22.8406 37.7036 23.0886 36.8785C23.3063 36.2507 24.1011 35.6938 25.4477 35.2331C25.6452 35.1471 25.792 35.1015 25.8882 35.0661C26.3194 34.939 26.7194 34.7235 27.0627 34.4333C27.3531 34.1596 27.5587 33.8081 27.655 33.4208C27.8377 32.6858 27.948 31.9346 27.9841 31.1781C28.0406 30.2518 28.0237 29.3224 27.9334 28.3988C27.8958 28.1177 27.8297 27.8412 27.736 27.5736C27.7038 27.5207 27.6604 27.4756 27.6087 27.4415C27.5571 27.4073 27.4986 27.385 27.4373 27.3761C26.8093 27.245 26.1702 27.1738 25.5287 27.1635C24.5416 27.1129 23.2557 27.0775 21.7066 27.0775H20.4713C18.7618 27.0419 17.0516 27.0977 15.3481 27.2445C14.7013 27.2857 14.0766 27.4952 13.5357 27.852C12.8377 28.5192 12.2193 29.265 11.6929 30.0745C11.1306 30.8586 10.6665 31.7087 10.3109 32.6057C10.1403 33.0472 10.1172 33.5321 10.2451 33.9878C10.316 34.1881 10.4271 34.3718 10.5716 34.5277C10.7161 34.6835 10.891 34.8082 11.0854 34.894C11.3239 35.0406 11.5766 35.1627 11.8397 35.2585C12.7814 35.6533 13.1256 36.1798 12.913 36.8886C12.7692 37.302 12.5251 37.6733 12.2026 37.9692C11.8802 38.2652 11.4894 38.4766 11.0652 38.5845C10.1134 38.8984 8.35168 39.0452 5.79512 39.0452C3.23856 39.0452 1.57806 38.8984 0.838932 38.5845C0.535238 38.4847 0.282875 38.2696 0.136129 37.9856C-0.0106168 37.7015 -0.0400199 37.3713 0.0542444 37.0658C0.0701322 37.0151 0.0904612 36.966 0.114994 36.919C0.327619 36.2254 1.00093 35.6989 2.13999 35.2737C2.52333 35.1289 2.89703 34.9598 3.25881 34.7674C4.80793 33.9422 6.65068 32.0336 8.71112 28.9708C9.17181 28.3076 9.53631 27.766 9.79956 27.3863C12.022 24.1615 14.3558 21.0126 16.5377 17.7675M27.3917 23.2958C27.3411 20.6785 27.2399 18.2333 27.1285 15.9653C27.0171 13.6973 26.8247 11.652 26.6222 9.71309H25.9388C24.3593 11.9052 22.7444 14.0972 21.1952 16.35C19.6461 18.6028 18.0008 20.9063 16.4213 23.3211C17.3579 23.2553 18.3147 23.2046 19.2209 23.1692C20.1271 23.1338 21.0991 23.1236 22.0711 23.1236C22.9621 23.1236 23.8834 23.1236 24.7694 23.154C25.6553 23.1844 26.5514 23.2198 27.3917 23.2958Z" fill="var(--fill-0, #001A77)"/>
</g>
</svg>
