<svg preserveAspectRatio="none" width="100%" height="100%" overflow="visible" style="display: block;" viewBox="0 0 11.6667 16.6667" fill="none" xmlns="http://www.w3.org/2000/svg">
<path id="Vector" d="M2.22917 15.9688C1.29861 15.5035 0.833333 14.9028 0.833333 14.1667C0.833333 13.8333 0.934028 13.5243 1.13542 13.2396C1.33681 12.9549 1.61806 12.7083 1.97917 12.5L3.29167 13.7292C3.16667 13.7847 3.03125 13.8472 2.88542 13.9167C2.73958 13.9861 2.625 14.0694 2.54167 14.1667C2.72222 14.3889 3.13889 14.5833 3.79167 14.75C4.44444 14.9167 5.125 15 5.83333 15C6.54167 15 7.2257 14.9167 7.88542 14.75C8.54514 14.5833 8.96528 14.3889 9.14583 14.1667C9.04861 14.0556 8.92361 13.9653 8.77083 13.8958C8.61806 13.8264 8.47222 13.7639 8.33333 13.7083L9.625 12.4583C10.0139 12.4542 10.3125 12.934 10.5208 13.2188C10.7292 13.5035 10.8333 13.8194 10.8333 14.1667C10.8333 14.9028 10.3681 15.5035 9.4375 15.9688C8.50694 16.434 7.30556 16.6667 5.83333 16.6667C4.36111 16.6667 3.15972 16.434 2.22917 15.9688ZM5.85417 12.0833C7.22917 11.0694 8.26389 10.0521 8.95833 9.03125C9.65278 8.01042 10 6.98611 10 5.95833C10 4.54167 9.54861 3.47222 8.64583 2.75C7.74306 2.02778 6.80556 1.66667 5.83333 1.66667C4.86111 1.66667 3.92361 2.02778 3.02083 2.75C2.11806 3.47222 1.66667 4.54167 1.66667 5.95833C1.66667 6.88889 2.00694 7.85764 2.6875 8.86458C3.36806 9.87153 4.42361 10.9444 5.85417 12.0833ZM5.83333 14.1667C3.875 12.7222 2.41319 11.3194 1.44792 9.95833C0.482639 8.59722 0 7.26389 0 5.95833C0 4.97222 0.177083 4.10764 0.53125 3.36458C0.885417 2.62153 1.34028 2 1.89583 1.5C2.45139 1 3.07639 0.625 3.77083 0.375C4.46528 0.125 5.15278 0 5.83333 0C6.51389 0 7.20139 0.125 7.89583 0.375C8.59028 0.625 9.21528 1 9.77083 1.5C10.3264 2 10.7813 2.62153 11.1354 3.36458C11.4896 4.10764 11.6667 4.97222 11.6667 5.95833C11.6667 7.26389 11.184 8.59722 10.2188 9.95833C9.25347 11.3194 7.79167 12.7222 5.83333 14.1667ZM5.83333 7.5C6.29167 7.5 6.68403 7.33681 7.01042 7.01042C7.33681 6.68403 7.5 6.29167 7.5 5.83333C7.5 5.375 7.33681 4.98264 7.01042 4.65625C6.68403 4.32986 6.29167 4.16667 5.83333 4.16667C5.375 4.16667 4.98264 4.32986 4.65625 4.65625C4.32986 4.98264 4.16667 5.375 4.16667 5.83333C4.16667 6.29167 4.32986 6.68403 4.65625 7.01042C4.98264 7.33681 5.375 7.5 5.83333 7.5Z" fill="currentColor"/>
</svg>
