<svg preserveAspectRatio="none" width="100%" height="100%" overflow="visible" style="display: block;" viewBox="0 0 20 18.3333" fill="none" xmlns="http://www.w3.org/2000/svg">
<path id="Vector" d="M7.29167 18.3333C6.65278 18.3333 6.07986 18.1667 5.57292 17.8333C5.06597 17.5 4.67361 17.0417 4.39583 16.4583C4.17361 16.75 3.89236 16.9757 3.55208 17.1354C3.21181 17.2951 2.86111 17.375 2.5 17.375C1.79167 17.375 1.19792 17.1319 0.71875 16.6458C0.239583 16.1597 0 15.5694 0 14.875C0 14.2778 0.194444 13.7396 0.583333 13.2604C0.972222 12.7813 1.46528 12.5069 2.0625 12.4375C1.86806 12.1597 1.71875 11.8646 1.61458 11.5521C1.51042 11.2396 1.45833 10.9097 1.45833 10.5625C1.45833 10.0069 1.60069 9.48611 1.88542 9C2.17014 8.51389 2.56944 8.11806 3.08333 7.8125C3.15278 8.0625 3.24653 8.32986 3.36458 8.61458C3.48264 8.89931 3.61806 9.14583 3.77083 9.35417C3.57639 9.50695 3.42361 9.69097 3.3125 9.90625C3.20139 10.1215 3.14583 10.3472 3.14583 10.5833C3.14583 11.3611 3.46528 11.8403 4.10417 12.0208C4.74306 12.2014 5.34722 12.3472 5.91667 12.4583L6.3125 13.125C6.15972 13.5694 6.02778 13.9479 5.91667 14.2604C5.80556 14.5729 5.75 14.8542 5.75 15.1042C5.75 15.5208 5.89931 15.8854 6.19792 16.1979C6.49653 16.5104 6.86111 16.6667 7.29167 16.6667C7.81944 16.6667 8.25694 16.4306 8.60417 15.9583C8.95139 15.4861 9.23611 14.9306 9.45833 14.2917C9.68056 13.6528 9.85069 13.0069 9.96875 12.3542C10.0868 11.7014 10.1806 11.2014 10.25 10.8542L11.875 11.2917C11.75 11.9167 11.5972 12.6319 11.4167 13.4375C11.2361 14.2431 10.9826 15.0104 10.6563 15.7396C10.3299 16.4688 9.89931 17.0833 9.36458 17.5833C8.82986 18.0833 8.13889 18.3333 7.29167 18.3333ZM2.5 15.7083C2.73611 15.7083 2.93403 15.6285 3.09375 15.4688C3.25347 15.309 3.33333 15.1111 3.33333 14.875C3.33333 14.6389 3.25347 14.441 3.09375 14.2813C2.93403 14.1215 2.73611 14.0417 2.5 14.0417C2.26389 14.0417 2.06597 14.1215 1.90625 14.2813C1.74653 14.441 1.66667 14.6389 1.66667 14.875C1.66667 15.1111 1.74653 15.309 1.90625 15.4688C2.06597 15.6285 2.26389 15.7083 2.5 15.7083ZM8.41667 12.4167C7.77778 11.8472 7.19792 11.316 6.67708 10.8229C6.15625 10.3299 5.70833 9.85069 5.33333 9.38542C4.95833 8.92014 4.67014 8.45486 4.46875 7.98958C4.26736 7.52431 4.16667 7.04167 4.16667 6.54167C4.16667 5.63889 4.47569 4.87847 5.09375 4.26042C5.71181 3.64236 6.47222 3.33333 7.375 3.33333C7.43056 3.33333 7.47917 3.33681 7.52083 3.34375C7.5625 3.35069 7.61111 3.35417 7.66667 3.35417C7.61111 3.21528 7.56944 3.07639 7.54167 2.9375C7.51389 2.79861 7.5 2.65278 7.5 2.5C7.5 1.80556 7.74306 1.21528 8.22917 0.729167C8.71528 0.243056 9.30556 0 10 0C10.6944 0 11.2847 0.243056 11.7708 0.729167C12.2569 1.21528 12.5 1.80556 12.5 2.5C12.5 2.65278 12.4861 2.79514 12.4583 2.92708C12.4306 3.05903 12.3889 3.19444 12.3333 3.33333H12.625C13.4583 3.33333 14.1667 3.60069 14.75 4.13542C15.3333 4.67014 15.6806 5.33333 15.7917 6.125C15.5417 6.08333 15.2604 6.0625 14.9479 6.0625C14.6354 6.0625 14.3472 6.07639 14.0833 6.10417C13.9861 5.78472 13.809 5.52083 13.5521 5.3125C13.2951 5.10417 12.9861 5 12.625 5C12.1389 5 11.7604 5.14236 11.4896 5.42708C11.2188 5.71181 10.8472 6.125 10.375 6.66667H9.60417C9.11806 6.09722 8.73958 5.67708 8.46875 5.40625C8.19792 5.13542 7.83333 5 7.375 5C6.93056 5 6.5625 5.14583 6.27083 5.4375C5.97917 5.72917 5.83333 6.09722 5.83333 6.54167C5.83333 6.86111 5.92361 7.19097 6.10417 7.53125C6.28472 7.87153 6.53819 8.23264 6.86458 8.61458C7.19097 8.99653 7.58681 9.40278 8.05208 9.83333C8.51736 10.2639 9.03472 10.7292 9.60417 11.2292L8.41667 12.4167ZM10.5938 3.09375C10.7535 2.93403 10.8333 2.73611 10.8333 2.5C10.8333 2.26389 10.7535 2.06597 10.5938 1.90625C10.434 1.74653 10.2361 1.66667 10 1.66667C9.76389 1.66667 9.56597 1.74653 9.40625 1.90625C9.24653 2.06597 9.16667 2.26389 9.16667 2.5C9.16667 2.73611 9.24653 2.93403 9.40625 3.09375C9.56597 3.25347 9.76389 3.33333 10 3.33333C10.2361 3.33333 10.434 3.25347 10.5938 3.09375ZM12.6875 18.3333C12.3819 18.3333 12.0799 18.2917 11.7812 18.2083C11.4826 18.125 11.1944 17.9931 10.9167 17.8125C11.0694 17.6181 11.2222 17.3889 11.375 17.125C11.5278 16.8611 11.6667 16.6181 11.7917 16.3958C11.9444 16.4931 12.0972 16.5625 12.25 16.6042C12.4028 16.6458 12.5556 16.6667 12.7083 16.6667C13.1528 16.6667 13.5243 16.5104 13.8229 16.1979C14.1215 15.8854 14.2708 15.5139 14.2708 15.0833C14.2708 14.8194 14.2153 14.5347 14.1042 14.2292C13.9931 13.9236 13.8611 13.5486 13.7083 13.1042L14.1042 12.4375C14.6875 12.3264 15.2951 12.1806 15.9271 12C16.559 11.8194 16.875 11.3403 16.875 10.5625C16.875 10.0069 16.6701 9.60417 16.2604 9.35417C15.8507 9.10417 15.4028 8.97917 14.9167 8.97917C14.3333 8.97917 13.6528 9.09028 12.875 9.3125C12.0972 9.53472 11.1875 9.81944 10.1458 10.1667L9.70833 8.54167C10.7917 8.19444 11.7569 7.90278 12.6042 7.66667C13.4514 7.43056 14.2292 7.3125 14.9375 7.3125C15.8958 7.3125 16.7361 7.59722 17.4583 8.16667C18.1806 8.73611 18.5417 9.53472 18.5417 10.5625C18.5417 10.9097 18.4896 11.2396 18.3854 11.5521C18.2812 11.8646 18.1319 12.1597 17.9375 12.4375C18.5347 12.5069 19.0278 12.7813 19.4167 13.2604C19.8056 13.7396 20 14.2778 20 14.875C20 15.5694 19.7604 16.1597 19.2813 16.6458C18.8021 17.1319 18.2083 17.375 17.5 17.375C17.1389 17.375 16.7882 17.2951 16.4479 17.1354C16.1076 16.9757 15.8264 16.75 15.6042 16.4583C15.3264 17.0417 14.934 17.5 14.4271 17.8333C13.9201 18.1667 13.3403 18.3333 12.6875 18.3333ZM18.1042 15.4688C18.2569 15.309 18.3333 15.1111 18.3333 14.875C18.3333 14.6389 18.2535 14.4375 18.0937 14.2708C17.934 14.1042 17.7361 14.0208 17.5 14.0208C17.2639 14.0208 17.066 14.1007 16.9062 14.2604C16.7465 14.4201 16.6667 14.6181 16.6667 14.8542C16.6667 15.0903 16.75 15.2917 16.9167 15.4583C17.0833 15.625 17.2847 15.7083 17.5208 15.7083C17.7569 15.7083 17.9514 15.6285 18.1042 15.4688Z" fill="currentColor"/>
</svg>
