<svg preserveAspectRatio="none" width="100%" height="100%" overflow="visible" style="display: block;" viewBox="0 0 60 60" fill="none" xmlns="http://www.w3.org/2000/svg">
<g id="Icon Container" clip-path="url(#clip0_600_2750)">
<path id="Star 1" d="M-1.31134e-06 30L15 4.01924L45 4.01924L60 30L45 55.9808L15 55.9808L-1.31134e-06 30Z" fill="var(--fill-0, #001A77)"/>
<g id="replay">
<mask id="mask0_600_2750" style="mask-type:alpha" maskUnits="userSpaceOnUse" x="16" y="16" width="28" height="28">
<rect id="Bounding box" x="16" y="16" width="28" height="28" fill="var(--fill-0, #D9D9D9)"/>
</mask>
<g mask="url(#mask0_600_2750)">
<path id="replay_2" d="M25.9021 40.8354C24.6285 40.2813 23.5201 39.5327 22.5771 38.5896C21.634 37.6466 20.8854 36.5382 20.3313 35.2646C19.7771 33.991 19.5 32.625 19.5 31.1667H21.8333C21.8333 33.4417 22.6257 35.3716 24.2104 36.9563C25.7951 38.541 27.725 39.3334 30 39.3334C32.275 39.3334 34.2049 38.541 35.7896 36.9563C37.3743 35.3716 38.1667 33.4417 38.1667 31.1667C38.1667 28.8917 37.3743 26.9618 35.7896 25.3771C34.2049 23.7924 32.275 23 30 23H29.825L31.6333 24.8084L30 26.5L25.3333 21.8334L30 17.1667L31.6333 18.8584L29.825 20.6667H30C31.4583 20.6667 32.8243 20.9438 34.0979 21.4979C35.3715 22.0521 36.4799 22.8007 37.4229 23.7438C38.366 24.6868 39.1146 25.7952 39.6687 27.0688C40.2229 28.3424 40.5 29.7084 40.5 31.1667C40.5 32.625 40.2229 33.991 39.6687 35.2646C39.1146 36.5382 38.366 37.6466 37.4229 38.5896C36.4799 39.5327 35.3715 40.2813 34.0979 40.8354C32.8243 41.3896 31.4583 41.6667 30 41.6667C28.5417 41.6667 27.1757 41.3896 25.9021 40.8354Z" fill="var(--fill-0, white)"/>
</g>
</g>
</g>
<defs>
<clipPath id="clip0_600_2750">
<rect width="60" height="60" fill="white"/>
</clipPath>
</defs>
</svg>
