<svg preserveAspectRatio="none" width="100%" height="100%" overflow="visible" style="display: block;" viewBox="0 0 60 60" fill="none" xmlns="http://www.w3.org/2000/svg">
<g id="Icon Container" clip-path="url(#clip0_600_2552)">
<path id="Star 1" d="M-1.31134e-06 30L15 4.01924L45 4.01924L60 30L45 55.9808L15 55.9808L-1.31134e-06 30Z" fill="var(--fill-0, #001A77)"/>
<g id="calendar_month">
<mask id="mask0_600_2552" style="mask-type:alpha" maskUnits="userSpaceOnUse" x="16" y="16" width="28" height="28">
<rect id="Bounding box" x="16" y="16" width="28" height="28" fill="var(--fill-0, #D9D9D9)"/>
</mask>
<g mask="url(#mask0_600_2552)">
<path id="calendar_month_2" d="M21.8333 41.6666C21.1917 41.6666 20.6424 41.4382 20.1854 40.9812C19.7285 40.5243 19.5 39.975 19.5 39.3333V23C19.5 22.3583 19.7285 21.809 20.1854 21.3521C20.6424 20.8951 21.1917 20.6666 21.8333 20.6666H23V18.3333H25.3333V20.6666H34.6667V18.3333H37V20.6666H38.1667C38.8083 20.6666 39.3576 20.8951 39.8146 21.3521C40.2715 21.809 40.5 22.3583 40.5 23V39.3333C40.5 39.975 40.2715 40.5243 39.8146 40.9812C39.3576 41.4382 38.8083 41.6666 38.1667 41.6666H21.8333ZM21.8333 39.3333H38.1667V27.6666H21.8333V39.3333ZM21.8333 25.3333H38.1667V23H21.8333V25.3333ZM30 32.3333C29.6694 32.3333 29.3924 32.2215 29.1688 31.9979C28.9451 31.7743 28.8333 31.4972 28.8333 31.1666C28.8333 30.8361 28.9451 30.559 29.1688 30.3354C29.3924 30.1118 29.6694 30 30 30C30.3306 30 30.6076 30.1118 30.8313 30.3354C31.0549 30.559 31.1667 30.8361 31.1667 31.1666C31.1667 31.4972 31.0549 31.7743 30.8313 31.9979C30.6076 32.2215 30.3306 32.3333 30 32.3333ZM24.5021 31.9979C24.2785 31.7743 24.1667 31.4972 24.1667 31.1666C24.1667 30.8361 24.2785 30.559 24.5021 30.3354C24.7257 30.1118 25.0028 30 25.3333 30C25.6639 30 25.941 30.1118 26.1646 30.3354C26.3882 30.559 26.5 30.8361 26.5 31.1666C26.5 31.4972 26.3882 31.7743 26.1646 31.9979C25.941 32.2215 25.6639 32.3333 25.3333 32.3333C25.0028 32.3333 24.7257 32.2215 24.5021 31.9979ZM34.6667 32.3333C34.3361 32.3333 34.059 32.2215 33.8354 31.9979C33.6118 31.7743 33.5 31.4972 33.5 31.1666C33.5 30.8361 33.6118 30.559 33.8354 30.3354C34.059 30.1118 34.3361 30 34.6667 30C34.9972 30 35.2743 30.1118 35.4979 30.3354C35.7215 30.559 35.8333 30.8361 35.8333 31.1666C35.8333 31.4972 35.7215 31.7743 35.4979 31.9979C35.2743 32.2215 34.9972 32.3333 34.6667 32.3333ZM30 37C29.6694 37 29.3924 36.8882 29.1688 36.6646C28.9451 36.4409 28.8333 36.1639 28.8333 35.8333C28.8333 35.5027 28.9451 35.2257 29.1688 35.0021C29.3924 34.7784 29.6694 34.6666 30 34.6666C30.3306 34.6666 30.6076 34.7784 30.8313 35.0021C31.0549 35.2257 31.1667 35.5027 31.1667 35.8333C31.1667 36.1639 31.0549 36.4409 30.8313 36.6646C30.6076 36.8882 30.3306 37 30 37ZM24.5021 36.6646C24.2785 36.4409 24.1667 36.1639 24.1667 35.8333C24.1667 35.5027 24.2785 35.2257 24.5021 35.0021C24.7257 34.7784 25.0028 34.6666 25.3333 34.6666C25.6639 34.6666 25.941 34.7784 26.1646 35.0021C26.3882 35.2257 26.5 35.5027 26.5 35.8333C26.5 36.1639 26.3882 36.4409 26.1646 36.6646C25.941 36.8882 25.6639 37 25.3333 37C25.0028 37 24.7257 36.8882 24.5021 36.6646ZM34.6667 37C34.3361 37 34.059 36.8882 33.8354 36.6646C33.6118 36.4409 33.5 36.1639 33.5 35.8333C33.5 35.5027 33.6118 35.2257 33.8354 35.0021C34.059 34.7784 34.3361 34.6666 34.6667 34.6666C34.9972 34.6666 35.2743 34.7784 35.4979 35.0021C35.7215 35.2257 35.8333 35.5027 35.8333 35.8333C35.8333 36.1639 35.7215 36.4409 35.4979 36.6646C35.2743 36.8882 34.9972 37 34.6667 37Z" fill="var(--fill-0, white)"/>
</g>
</g>
</g>
<defs>
<clipPath id="clip0_600_2552">
<rect width="60" height="60" fill="white"/>
</clipPath>
</defs>
</svg>
