<svg preserveAspectRatio="none" width="100%" height="100%" overflow="visible" style="display: block;" viewBox="0 0 60 60" fill="none" xmlns="http://www.w3.org/2000/svg">
<g id="Icon Container" clip-path="url(#clip0_600_2849)">
<path id="Star 1" d="M-1.31134e-06 30L15 4.01924L45 4.01924L60 30L45 55.9808L15 55.9808L-1.31134e-06 30Z" fill="var(--fill-0, #001A77)"/>
<g id="article_shortcut">
<mask id="mask0_600_2849" style="mask-type:alpha" maskUnits="userSpaceOnUse" x="16" y="16" width="28" height="28">
<rect id="Bounding box" x="16" y="16" width="28" height="28" fill="var(--fill-0, #D9D9D9)"/>
</mask>
<g mask="url(#mask0_600_2849)">
<path id="article_shortcut_2" d="M27.6667 35.8333H32.3333V33.5H27.6667V35.8333ZM27.6667 31.1667H35.8333V28.8333H27.6667V31.1667ZM24.1667 26.5H35.8333V24.1667H24.1667V26.5ZM23.7292 41.6667C22.1931 41.6667 20.8854 41.1271 19.8063 40.0479C18.7271 38.9688 18.1875 37.6611 18.1875 36.125C18.1875 35.0167 18.4743 34.025 19.0479 33.15C19.6215 32.275 20.375 31.6139 21.3083 31.1667H18.3333V28.8333H25.3333V35.8333H23V33.0042C22.2806 33.1597 21.6875 33.5292 21.2208 34.1125C20.7542 34.6958 20.5208 35.3667 20.5208 36.125C20.5208 37.0194 20.8368 37.7778 21.4687 38.4C22.1007 39.0222 22.8542 39.3333 23.7292 39.3333V41.6667ZM27.6667 40.5V38.1667H38.1667V21.8333H21.8333V26.5H19.5V21.8333C19.5 21.1917 19.7285 20.6424 20.1854 20.1854C20.6424 19.7285 21.1917 19.5 21.8333 19.5H38.1667C38.8083 19.5 39.3576 19.7285 39.8146 20.1854C40.2715 20.6424 40.5 21.1917 40.5 21.8333V38.1667C40.5 38.8083 40.2715 39.3576 39.8146 39.8146C39.3576 40.2715 38.8083 40.5 38.1667 40.5H27.6667Z" fill="var(--fill-0, white)"/>
</g>
</g>
</g>
<defs>
<clipPath id="clip0_600_2849">
<rect width="60" height="60" fill="white"/>
</clipPath>
</defs>
</svg>
