<svg preserveAspectRatio="none" width="100%" height="100%" overflow="visible" style="display: block;" viewBox="0 0 60 60" fill="none" xmlns="http://www.w3.org/2000/svg">
<g id="Icon Container" clip-path="url(#clip0_600_2651)">
<path id="Star 1" d="M-1.31134e-06 30L15 4.01924L45 4.01924L60 30L45 55.9808L15 55.9808L-1.31134e-06 30Z" fill="var(--fill-0, #001A77)"/>
<g id="assignment_ind">
<mask id="mask0_600_2651" style="mask-type:alpha" maskUnits="userSpaceOnUse" x="16" y="16" width="28" height="28">
<rect id="Bounding box" x="16" y="16" width="28" height="28" fill="var(--fill-0, #D9D9D9)"/>
</mask>
<g mask="url(#mask0_600_2651)">
<path id="assignment_ind_2" d="M21.8333 40.5C21.1917 40.5 20.6424 40.2716 20.1854 39.8146C19.7285 39.3577 19.5 38.8084 19.5 38.1667V21.8334C19.5 21.1917 19.7285 20.6424 20.1854 20.1854C20.6424 19.7285 21.1917 19.5 21.8333 19.5H26.7333C27.0056 18.8 27.4333 18.2361 28.0167 17.8084C28.6 17.3806 29.2611 17.1667 30 17.1667C30.7389 17.1667 31.4 17.3806 31.9833 17.8084C32.5667 18.2361 32.9944 18.8 33.2667 19.5H38.1667C38.8083 19.5 39.3576 19.7285 39.8146 20.1854C40.2715 20.6424 40.5 21.1917 40.5 21.8334V38.1667C40.5 38.8084 40.2715 39.3577 39.8146 39.8146C39.3576 40.2716 38.8083 40.5 38.1667 40.5H21.8333ZM30.6271 20.7104C30.7924 20.5452 30.875 20.3361 30.875 20.0834C30.875 19.8306 30.7924 19.6216 30.6271 19.4563C30.4618 19.291 30.2528 19.2084 30 19.2084C29.7472 19.2084 29.5382 19.291 29.3729 19.4563C29.2076 19.6216 29.125 19.8306 29.125 20.0834C29.125 20.3361 29.2076 20.5452 29.3729 20.7104C29.5382 20.8757 29.7472 20.9584 30 20.9584C30.2528 20.9584 30.4618 20.8757 30.6271 20.7104ZM21.8333 36.825C22.8833 35.7945 24.1035 34.9827 25.4938 34.3896C26.884 33.7966 28.3861 33.5 30 33.5C31.6139 33.5 33.116 33.7966 34.5062 34.3896C35.8965 34.9827 37.1167 35.7945 38.1667 36.825V21.8334H21.8333V36.825ZM32.8875 29.9709C33.6847 29.1736 34.0833 28.2111 34.0833 27.0834C34.0833 25.9556 33.6847 24.9931 32.8875 24.1959C32.0903 23.3986 31.1278 23 30 23C28.8722 23 27.9097 23.3986 27.1125 24.1959C26.3153 24.9931 25.9167 25.9556 25.9167 27.0834C25.9167 28.2111 26.3153 29.1736 27.1125 29.9709C27.9097 30.7681 28.8722 31.1667 30 31.1667C31.1278 31.1667 32.0903 30.7681 32.8875 29.9709ZM24.1667 38.1667H35.8333V37.875C35.0167 37.1945 34.1125 36.6841 33.1208 36.3438C32.1292 36.0035 31.0889 35.8334 30 35.8334C28.9111 35.8334 27.8708 36.0035 26.8792 36.3438C25.8875 36.6841 24.9833 37.1945 24.1667 37.875V38.1667ZM28.7604 28.3229C28.4201 27.9827 28.25 27.5695 28.25 27.0834C28.25 26.5973 28.4201 26.1841 28.7604 25.8438C29.1007 25.5035 29.5139 25.3334 30 25.3334C30.4861 25.3334 30.8993 25.5035 31.2396 25.8438C31.5799 26.1841 31.75 26.5973 31.75 27.0834C31.75 27.5695 31.5799 27.9827 31.2396 28.3229C30.8993 28.6632 30.4861 28.8334 30 28.8334C29.5139 28.8334 29.1007 28.6632 28.7604 28.3229Z" fill="var(--fill-0, white)"/>
</g>
</g>
</g>
<defs>
<clipPath id="clip0_600_2651">
<rect width="60" height="60" fill="white"/>
</clipPath>
</defs>
</svg>
