<svg width="20" height="20" viewBox="0 0 20 20" fill="none" xmlns="http://www.w3.org/2000/svg">
<mask id="mask0_4006_713" style="mask-type:alpha" maskUnits="userSpaceOnUse" x="0" y="0" width="20" height="20">
<rect width="20" height="20" fill="#D9D9D9"/>
</mask>
<g mask="url(#mask0_4006_713)">
<path d="M17.4121 9.52755C17.4121 13.3762 14.5342 16.5499 10.8208 17V11.828H12.8497L13.2706 9.52755H10.8208V8.71397C10.8208 7.49842 11.296 7.03081 12.5257 7.03081C12.9076 7.03081 13.2151 7.04015 13.3921 7.05882V4.97368C13.0567 4.88004 12.2368 4.7867 11.7616 4.7867C9.25541 4.7867 8.10041 5.97425 8.10041 8.53632V9.52755H6.55361V11.828H8.10041V16.8335C4.83371 16.0199 2.41211 13.0577 2.41211 9.52755C2.41211 5.37023 5.77001 2 9.91211 2C14.0542 2 17.4121 5.37023 17.4121 9.52755Z" fill="#001A77"/>
</g>
</svg>
