<svg preserveAspectRatio="none" width="100%" height="100%" overflow="visible" style="display: block;" viewBox="0 0 13.3333 15" fill="none" xmlns="http://www.w3.org/2000/svg">
<path id="Vector" d="M11.6667 10.8125V4C10.6944 4.06944 9.73611 3.98958 8.79167 3.76042C7.84722 3.53125 6.96528 3.17361 6.14583 2.6875C5.57639 2.35417 5.01736 2.10417 4.46875 1.9375C3.92014 1.77083 3.36111 1.6875 2.79167 1.6875C2.59722 1.6875 2.40625 1.69792 2.21875 1.71875C2.03125 1.73958 1.84722 1.76389 1.66667 1.79167V8.625C1.875 8.59722 2.07292 8.57986 2.26042 8.57292C2.44792 8.56597 2.63889 8.5625 2.83333 8.5625C3.69444 8.5625 4.53819 8.67361 5.36458 8.89583C6.19097 9.11806 6.95139 9.4375 7.64583 9.85417C8.28472 10.2292 8.9375 10.5 9.60417 10.6667C10.2708 10.8333 10.9583 10.8819 11.6667 10.8125ZM8.14583 7.77083C8.54861 7.36806 8.75 6.875 8.75 6.29167C8.75 5.70833 8.54861 5.21528 8.14583 4.8125C7.74306 4.40972 7.25 4.20833 6.66667 4.20833C6.08333 4.20833 5.59028 4.40972 5.1875 4.8125C4.78472 5.21528 4.58333 5.70833 4.58333 6.29167C4.58333 6.875 4.78472 7.36806 5.1875 7.77083C5.59028 8.17361 6.08333 8.375 6.66667 8.375C7.25 8.375 7.74306 8.17361 8.14583 7.77083ZM0 15V0.4375C0.472222 0.326389 0.944444 0.225694 1.41667 0.135417C1.88889 0.0451389 2.375 0 2.875 0C3.55556 0 4.23611 0.100694 4.91667 0.302083C5.59722 0.503472 6.25694 0.791667 6.89583 1.16667C7.54861 1.55556 8.22569 1.85069 8.92708 2.05208C9.62847 2.25347 10.3472 2.35417 11.0833 2.35417C11.4583 2.35417 11.8333 2.33333 12.2083 2.29167C12.5833 2.25 12.9583 2.21528 13.3333 2.1875V12.3333C12.9583 12.3611 12.5799 12.3958 12.1979 12.4375C11.816 12.4792 11.4444 12.5 11.0833 12.5C10.3472 12.5 9.63194 12.4028 8.9375 12.2083C8.24306 12.0139 7.58333 11.7292 6.95833 11.3542C6.33333 10.9792 5.67708 10.6944 4.98958 10.5C4.30208 10.3056 3.60417 10.2083 2.89583 10.2083C2.70139 10.2083 2.50694 10.2188 2.3125 10.2396C2.11806 10.2604 1.90278 10.2847 1.66667 10.3125V15H0Z" fill="currentColor"/>
</svg>
