<svg preserveAspectRatio="none" width="100%" height="100%" overflow="visible" style="display: block;" viewBox="0 0 16.6667 16.6667" fill="none" xmlns="http://www.w3.org/2000/svg">
<path id="Vector" d="M8.33333 16.6667C7.18056 16.6667 6.09722 16.4479 5.08333 16.0104C4.06944 15.5729 3.1875 14.9792 2.4375 14.2292C1.6875 13.4792 1.09375 12.5972 0.65625 11.5833C0.21875 10.5694 0 9.48611 0 8.33333C0 7.18056 0.21875 6.09722 0.65625 5.08333C1.09375 4.06944 1.6875 3.1875 2.4375 2.4375C3.1875 1.6875 4.06944 1.09375 5.08333 0.65625C6.09722 0.21875 7.18056 0 8.33333 0C9.48611 0 10.5694 0.21875 11.5833 0.65625C12.5972 1.09375 13.4792 1.6875 14.2292 2.4375C14.9792 3.1875 15.5729 4.06944 16.0104 5.08333C16.4479 6.09722 16.6667 7.18056 16.6667 8.33333C16.6667 9.48611 16.4479 10.5694 16.0104 11.5833C15.5729 12.5972 14.9792 13.4792 14.2292 14.2292C13.4792 14.9792 12.5972 15.5729 11.5833 16.0104C10.5694 16.4479 9.48611 16.6667 8.33333 16.6667ZM8.33333 15C10.1944 15 11.7708 14.3542 13.0625 13.0625C14.3542 11.7708 15 10.1944 15 8.33333C15 8.23611 14.9965 8.13542 14.9896 8.03125C14.9826 7.92708 14.9792 7.84028 14.9792 7.77083C14.9097 8.17361 14.7222 8.50695 14.4167 8.77083C14.1111 9.03472 13.75 9.16667 13.3333 9.16667H11.6667C11.2083 9.16667 10.816 9.00347 10.4896 8.67708C10.1632 8.3507 10 7.95833 10 7.5V6.66667H6.66667V5C6.66667 4.54167 6.82986 4.14931 7.15625 3.82292C7.48264 3.49653 7.875 3.33333 8.33333 3.33333H9.16667C9.16667 3.01389 9.25347 2.73264 9.42708 2.48958C9.60069 2.24653 9.8125 2.04861 10.0625 1.89583C9.78472 1.82639 9.50347 1.77083 9.21875 1.72917C8.93403 1.6875 8.63889 1.66667 8.33333 1.66667C6.47222 1.66667 4.89583 2.3125 3.60417 3.60417C2.3125 4.89583 1.66667 6.47222 1.66667 8.33333H5.83333C6.75 8.33333 7.53472 8.65972 8.1875 9.3125C8.84028 9.96528 9.16667 10.75 9.16667 11.6667V12.5H6.66667V14.7917C6.94444 14.8611 7.21875 14.9132 7.48958 14.9479C7.76042 14.9826 8.04167 15 8.33333 15Z" fill="currentColor"/>
</svg>
