<svg preserveAspectRatio="none" width="100%" height="100%" overflow="visible" style="display: block;" viewBox="0 0 15 15" fill="none" xmlns="http://www.w3.org/2000/svg">
<path id="Vector" d="M15 7.52755C15 11.3762 12.1221 14.5499 8.4087 15V9.82797H10.4376L10.8585 7.52755H8.4087V6.71397C8.4087 5.49842 8.8839 5.03081 10.1136 5.03081C10.4955 5.03081 10.803 5.04015 10.98 5.05881V2.97368C10.6446 2.88004 9.8247 2.7867 9.3495 2.7867C6.8433 2.7867 5.6883 3.97425 5.6883 6.53632V7.52755H4.1415V9.82797H5.6883V14.8335C2.4216 14.0199 0 11.0577 0 7.52755C0 3.37023 3.3579 0 7.5 0C11.6421 0 15 3.37023 15 7.52755Z" fill="var(--fill-0, #001A77)"/>
</svg>
