<svg width="108" height="40" viewBox="0 0 108 40" fill="none" xmlns="http://www.w3.org/2000/svg">
<g clip-path="url(#clip0_755_10534)">
<path d="M28.6313 21.06C28.1127 21.06 27.5534 21.1007 26.9484 21.1465L27.4212 20.2007C31.6871 11.5825 33.4108 5.80644 32.7244 3.90991C32.4244 3.0913 31.3872 2.532 30.6143 2.35913L30.4414 2.18625C29.45 1.40832 27.467 0.289725 24.2332 1.54052C18.6758 3.6506 13.1134 12.6604 14.0642 16.3212C14.7557 18.9093 18.503 19.9008 20.8317 18.9957C22.296 18.4771 22.5147 16.7128 21.9096 16.7128C21.2639 16.7128 20.3588 18.2635 18.6758 18.2229C17.425 18.1822 16.8251 17.75 16.8251 16.367C16.6115 13.3926 21.6503 4.81496 26.3077 2.87775C28.2449 2.09982 29.3228 2.6642 29.8415 3.26418C29.9279 3.39129 30.055 3.52349 30.1414 3.56416C30.8329 6.79792 25.6162 17.5263 23.9332 20.5465L23.2011 21.838C19.5809 22.6566 15.3556 24.1667 11.2626 25.8903C5.7052 28.3462 1.39352 31.2799 1.00709 34.3815C0.53423 38.0017 6.13738 40.6762 12.7727 37.3102C18.3758 34.5086 22.2553 30.1105 26.3077 22.3566C27.2128 22.1837 27.9907 22.0973 28.6364 22.0973C31.0923 22.0108 31.0516 21.0651 28.6364 21.0651L28.6313 21.06ZM9.83892 36.7458C5.4408 39.1152 2.72566 37.0051 3.67647 34.8086C4.32221 33.0392 5.52724 30.6698 12.5998 27.2682C15.8336 25.6717 19.2809 24.3396 22.2553 23.4345C19.6266 27.7004 15.1878 33.8629 9.844 36.7509L9.83892 36.7458Z" fill="white"/>
<path d="M11.121 34.9865L11.0956 34.9967L11.0244 35.0425C10.9837 35.1594 10.8108 35.2509 10.582 35.378C10.5922 35.3984 10.6278 35.4035 10.5566 35.4645C10.1854 35.6475 10.3787 35.5713 10.1499 35.7645C10.2312 35.7187 10.3278 35.6577 10.3787 35.6526L9.89563 35.9628C9.98715 35.9628 10.0685 35.9729 10.0024 36.0492C10.099 36.095 9.98715 36.2882 9.96681 36.4051C10.0634 36.3594 10.1448 36.3289 10.1804 36.3187C10.1854 36.3594 10.1092 36.4255 10.0024 36.4916C10.0177 36.4916 10.0278 36.4966 10.0482 36.4916C10.0278 36.4916 10.0126 36.4916 10.0024 36.4916C9.93122 36.5373 9.85495 36.5831 9.77869 36.6238C9.82445 36.6085 9.87021 36.5983 9.86004 36.6238L10.1702 36.4458C10.1702 36.4458 10.1804 36.461 10.1651 36.4763L10.2363 36.4102L10.1651 36.4255C10.1346 36.4255 10.1702 36.3899 10.2058 36.3543C10.2871 36.3034 10.3126 36.3034 10.3583 36.2882L10.5007 36.156C10.5261 36.0594 10.0533 36.3695 10.2821 36.1611L10.3736 36.1306C10.4854 36.0441 10.6532 35.9526 10.7041 35.8611C10.8668 35.8509 11.0041 35.5865 11.0803 35.6628C11.5684 35.4136 12.082 34.9154 12.5853 34.6764C12.6159 34.5594 12.5243 34.4425 12.6464 34.2239C12.6921 34.2035 12.7531 34.1679 12.743 34.1933L12.8447 34.0561C12.7735 34.1171 12.687 34.1933 12.6311 34.2035C12.8091 34.0103 12.4989 34.2289 12.4938 34.1832L12.7379 33.929L12.6972 33.9442C12.4531 34.1374 12.1938 34.3154 11.9294 34.4781C11.665 34.6408 11.4108 34.8187 11.1363 34.9662L11.1261 34.9764L11.121 34.9865Z" fill="white"/>
<path d="M19.6733 28.2038L19.6022 28.1581C20.4258 26.9734 21.8241 24.8531 23.1257 22.7583C21.7936 23.1549 20.3801 23.582 18.9208 24.0955C18.6158 24.2023 18.3158 24.3091 18.0056 24.4209C17.726 24.5226 17.4463 24.6294 17.1616 24.7311C16.5972 24.9396 16.0379 25.1633 15.4735 25.3921C13.2262 26.3226 10.989 27.3598 8.91447 28.5953L8.89413 28.2343C7.40437 29.3377 5.69596 30.6953 4.74516 32.2206C4.90786 32.0579 5.06548 31.8952 5.23836 31.7478C5.02989 32.0986 4.7655 32.5409 4.49093 32.9985C4.19603 33.507 3.9418 34.0765 3.75367 34.5137L3.713 34.3968C4.21128 33.1714 3.64181 34.468 3.65707 33.8782L3.72317 33.6443L3.62656 33.7511C3.60622 33.8273 3.5808 33.9087 3.56555 33.9849C3.52995 33.9392 3.46386 33.9341 3.54521 33.7205C3.49436 33.8172 3.44352 33.9138 3.40284 34.0104C2.92998 34.5544 2.76727 34.468 2.55372 34.3002C2.53847 34.3866 2.59949 34.4324 2.62491 34.5341C2.63508 34.59 2.64016 34.6612 2.61474 34.7781C2.60457 34.8391 2.58423 34.9052 2.55881 34.9917C2.54356 35.0832 2.51813 35.19 2.49271 35.3323L2.42661 35.1798C2.42661 35.3832 2.41644 35.5815 2.46729 35.79C2.50288 35.9933 2.53847 36.1916 2.62999 36.3798C2.64525 36.5628 2.65542 36.756 2.71643 36.9289C2.96049 37.3102 3.17912 37.4831 3.45877 37.7983L3.66724 37.7526C4.33839 38.3576 5.29429 38.5864 6.14849 38.5712C7.01286 38.561 7.80604 38.3576 8.51788 38.2051C8.63991 38.0729 8.89413 37.9916 9.20938 37.8848C9.51953 37.778 9.87036 37.6102 10.1958 37.3814L9.80935 37.3662C9.38225 37.4424 8.75177 37.7119 8.00943 37.9051C7.28234 38.1034 6.43322 38.2305 5.74173 38.0932L5.80782 38.0017C6.09764 37.9916 6.29594 37.9305 6.64169 37.9458L6.71796 37.7729C6.41288 37.4933 5.88409 37.5695 5.33496 37.5136C4.79092 37.4882 4.21637 37.295 4.06891 37.0865C3.78418 36.6594 3.99265 36.7306 4.16044 36.8425C4.35873 36.934 4.58245 37.0509 4.41466 36.934C4.62313 37.0509 4.73499 37.0001 4.72482 36.9492C4.72482 36.9187 4.6994 36.878 4.66381 36.8272C4.63838 36.7713 4.59771 36.7052 4.55703 36.634C4.37399 36.3543 4.32823 35.973 4.40958 35.8459C4.5011 35.6527 4.53161 35.5052 4.68923 35.2256C4.87736 34.8036 5.0604 34.407 5.28412 34.0205C5.72647 33.2426 6.38746 32.4748 6.97727 31.9613C7.83147 30.9495 9.18395 30.0546 10.5873 29.3377C11.9906 28.6259 13.4702 28.031 14.6295 27.4869C15.7583 27.0141 17.3599 25.6565 18.2954 25.87L18.8446 25.687L19.114 25.6006L19.1954 25.5853C19.3225 25.5548 19.3123 25.5853 19.3428 25.5853L19.2767 25.7124C19.2767 25.7124 19.2717 25.7073 19.3734 25.6412C19.4394 25.6006 19.5005 25.6006 19.5005 25.6768C19.5005 25.7124 19.4903 25.7683 19.4649 25.8395C19.3734 25.987 19.2818 26.1344 19.1903 26.2768C19.0886 26.4293 18.992 26.5768 18.8903 26.7242C18.3768 27.4818 18.392 27.8428 17.9293 28.0106C16.6887 29.3377 15.56 31.1783 14.3092 32.4342C14.3753 32.4901 14.2583 32.7291 14.5278 32.5359C15.1125 31.8342 15.9667 31.2037 16.1701 31.341L15.9159 31.5749C16.104 31.4732 16.2921 31.3613 16.4752 31.2495L16.6836 30.9037C16.7955 30.8681 16.8565 30.863 16.8921 30.8834C17.4056 30.4258 17.9446 30.1054 18.4988 29.6377C18.7683 29.2055 19.109 28.7479 19.6733 28.1835V28.2038Z" fill="white"/>
<path d="M26.5641 23.6022L26.6098 23.5259L26.7573 23.2615C26.7573 23.2259 26.7573 23.1853 26.7776 23.1395C26.7878 23.1141 26.798 23.0887 26.8081 23.0632C26.8285 23.048 26.8641 23.048 26.8895 23.0378C26.92 23.0327 26.9556 23.0276 26.9912 23.0226C27.0624 23.0124 27.1336 23.0022 27.2098 22.992C27.4081 22.9666 27.6217 22.9463 27.8454 22.931C27.8454 22.9107 27.764 22.8904 28.0793 22.8548C28.2572 22.8497 28.3996 22.8446 28.5115 22.8497C28.6335 22.8497 28.7504 22.8497 28.842 22.8497C29.025 22.8395 29.1064 22.8293 29.1877 22.8192C29.3453 22.7836 29.4165 22.7836 30.0622 22.6107C29.6555 22.7226 29.1928 22.7683 29.0097 22.7582C29.3962 22.7226 29.7775 22.6768 30.2097 22.5395C30.3216 22.4988 30.4334 22.4582 30.5656 22.387C30.6927 22.3005 30.8554 22.2446 31.0334 21.9243C31.1198 21.7718 31.1503 21.487 31.0741 21.2887C31.0029 21.1006 30.891 20.9786 30.8148 20.9125C30.647 20.7701 30.5097 20.7142 30.3927 20.6633C30.5809 20.7549 30.7995 20.9277 30.891 21.0955C30.9317 21.1667 30.9317 21.187 30.8809 21.1362C30.8351 21.0853 30.7181 20.9735 30.586 20.9023C30.7232 21.0548 30.4944 20.9328 30.2707 20.9023C30.0419 20.8667 29.7775 20.8718 29.6301 20.8972C30.0267 20.9684 30.3419 21.0904 30.4944 21.2379C30.408 21.1921 30.0368 21.0345 29.5792 20.9887C29.6097 21.004 29.6504 21.0192 29.7165 21.0396C29.6504 21.0192 29.6148 21.004 29.5792 20.9887C29.2792 20.9531 28.9436 20.9328 28.6386 20.9328C28.8114 20.943 28.9843 20.9633 28.8979 20.9786C29.325 20.9989 29.7623 21.0243 30.1843 21.182C30.2199 21.2074 30.1792 21.1921 30.1029 21.1769C30.2148 21.2074 30.3266 21.243 30.4334 21.3192C30.3622 21.2481 30.2809 21.1972 30.1944 21.1616C30.1131 21.1159 30.286 21.1413 30.4741 21.2735C30.5605 21.3396 30.6419 21.4616 30.6266 21.5887C30.6114 21.7107 30.5504 21.7667 30.5148 21.8124C30.4283 21.8938 30.3571 21.9192 30.2707 21.9548C30.047 22.0717 29.8182 22.1378 29.5894 22.1938C29.4674 22.2446 29.9199 22.209 30.286 22.0514C30.469 21.9904 30.647 21.8175 30.6775 21.7311C30.7232 21.6446 30.6419 21.9395 30.3317 22.087C30.2046 22.1429 30.0826 22.1734 29.9606 22.2039C29.4368 22.3666 28.7098 22.3921 28.3894 22.4378C27.8962 22.3616 26.9861 22.6412 26.92 22.5446C26.8234 22.5599 26.7268 22.57 26.6302 22.5853C26.5844 22.5955 26.5234 22.5904 26.4878 22.6209L26.4166 22.7531C26.3048 22.9565 26.1929 23.17 26.076 23.3836C25.8217 23.8666 25.5421 24.3598 25.2675 24.8479C24.7133 25.8292 24.1083 26.7902 23.5286 27.5783C23.4066 27.9037 23.5235 27.98 23.1168 28.7426C23.01 28.8799 22.8524 29.0833 22.888 29.002L22.5626 29.5104C22.7659 29.2358 23.0151 28.8799 23.132 28.7528C22.6236 29.5511 23.4269 28.4376 23.4117 28.5291C23.1829 28.8952 22.9439 29.2562 22.6948 29.6121L22.7965 29.5002C24.1845 27.6393 25.4302 25.6868 26.559 23.6785L26.5844 23.6225L26.5641 23.6022Z" fill="white"/>
<path d="M3.94851 30.7868L3.87224 30.736C6.05351 28.8395 8.83983 27.37 11.7838 26.0887C14.7684 24.8379 17.9259 23.6482 21.2461 22.7279C21.663 22.616 22.0799 22.5041 22.4969 22.4025L23.2596 22.2245L23.4579 22.1787L23.5646 21.9906L23.7782 21.6144C24.2307 20.8313 24.6578 20.0636 25.0697 19.2653C25.8883 17.6789 26.6713 16.0519 27.4187 14.3892C28.1661 12.7266 28.878 11.0334 29.4983 9.27928C29.8084 8.39966 30.0983 7.50986 30.322 6.58956C30.4389 6.13196 30.5304 5.6591 30.6016 5.17606C30.627 4.93201 30.6626 4.68795 30.6677 4.43372C30.6779 4.30661 30.6779 4.18967 30.6677 4.04221C30.6677 3.87951 30.6423 3.72189 30.6169 3.55918L30.5406 3.38631C30.5101 3.33546 30.4542 3.29987 30.4186 3.24903L30.2864 3.09141C30.2813 3.04565 30.2762 3.03039 30.266 3.02022L30.2406 2.98463L30.2203 2.95412L30.205 2.93887C29.8644 2.53211 29.3813 2.24229 28.883 2.10501C28.3797 1.96773 27.8661 1.96773 27.3882 2.04399C26.4323 2.19144 25.573 2.61346 24.8053 3.10158C23.2697 4.09306 22.0037 5.38961 20.8749 6.75735C19.7512 8.14035 18.7648 9.61994 17.931 11.1911C17.5242 11.9843 17.1276 12.7774 16.8225 13.6316C16.5276 14.4858 16.2226 15.34 16.2632 16.3925V16.3519C16.2632 16.6874 16.2887 17.0332 16.4107 17.4094C16.5327 17.7857 16.8022 18.1823 17.1785 18.3958C17.5496 18.6246 17.9157 18.6907 18.2513 18.7314C18.5767 18.767 18.9428 18.7823 19.2936 18.7111C20.0055 18.5891 20.6207 18.2179 21.1037 17.8416C21.3478 17.6586 21.5817 17.4603 21.7698 17.3332C21.8206 17.2976 21.8562 17.2874 21.8867 17.2671C21.8969 17.2671 21.9071 17.262 21.9172 17.2569C21.9223 17.2467 21.9172 17.2722 21.9172 17.2467C21.9122 17.2213 21.9071 17.1908 21.902 17.1603V17.1145V17.1095V17.0078C21.902 17.0078 21.902 16.9823 21.902 16.9671L21.9122 16.9468C21.9122 16.9468 21.9122 16.9569 21.9071 16.962C21.9071 16.9722 21.8969 16.9773 21.8918 16.9773C21.8867 16.9773 21.8257 17.0434 21.7901 17.0535C21.7749 17.0535 21.7393 17.079 21.7037 17.0942L21.6528 17.1145H21.6427L21.6732 17.1095C21.6935 17.0993 21.7189 17.0891 21.7393 17.079C21.785 17.0484 21.8003 17.0535 21.8308 17.0332C21.8969 16.9722 21.8969 16.9823 21.9122 16.9518C21.9122 16.9518 21.902 16.9823 21.902 16.9925C21.902 16.9976 21.902 17.0078 21.902 17.0078V17.1603C21.902 17.201 21.9122 17.2366 21.9223 17.2722C21.9274 17.2823 21.9376 17.3128 21.9478 17.3586C21.9579 17.3942 21.9681 17.4349 21.9783 17.4705C21.9274 17.2823 21.902 17.2366 21.8969 17.1552V17.0027C21.8969 17.0027 21.8969 16.9925 21.8969 16.9823C21.8969 16.9773 21.9122 16.9315 21.9071 16.9518C21.902 16.9671 21.8918 16.9722 21.8867 16.9773C21.8766 16.9874 21.841 17.0281 21.8156 17.0383C21.7749 17.0535 21.6579 17.1298 21.5715 17.1349C21.4901 17.1603 21.302 17.1908 21.3579 17.1756C21.3579 17.1806 21.3579 17.201 21.3579 17.2111C21.3579 17.2467 21.3579 17.2925 21.3427 17.3484C21.302 17.562 21.1596 17.801 20.9766 17.9738C20.88 18.0552 20.7834 18.1365 20.6512 18.1925C20.5393 18.2535 20.341 18.3094 20.1834 18.3755C19.8428 18.467 19.4919 18.5433 19.1208 18.5585C18.3835 18.6043 17.6106 18.5077 16.9039 18.2535C16.2022 18.0043 15.5412 17.6128 15.1141 17.0586C14.8803 16.7942 14.7481 16.4739 14.626 16.1587C14.5345 15.8383 14.5091 15.4672 14.5192 15.0909C14.5498 14.3333 14.7226 13.5554 14.9616 12.8029C15.4446 11.3029 16.1514 9.89451 16.9141 8.61829C16.4768 9.24877 16.07 9.90468 15.7039 10.5809C16.1005 9.59961 17.0107 7.92171 18.2818 6.315C19.5377 4.69812 21.1902 3.17784 22.6494 2.33381L22.4155 2.58295C21.4596 3.21852 21.058 3.61003 20.8953 3.74731C20.7376 3.88968 20.8393 3.81849 21.0071 3.69647C21.3427 3.44224 21.9783 3.04056 21.3224 3.69138C21.1342 3.87442 20.9359 4.04221 20.7529 4.23034C20.8749 4.13882 21.002 4.0473 21.1291 3.96086C21.3173 3.77782 21.5156 3.60494 21.7139 3.43716C21.6783 3.53376 21.7545 3.52868 21.2054 4.01171C21.4698 3.78799 21.7444 3.58461 22.024 3.38123C22.9952 2.8321 23.529 2.68973 23.7833 2.68973C24.0375 2.68973 24.0273 2.81684 23.9714 2.98972C24.2002 2.85752 24.1646 2.79142 24.3375 2.66431C24.4239 2.59821 24.5561 2.50669 24.8205 2.405C25.0798 2.3033 25.4561 2.16602 26.0052 2.08975L25.7408 2.22704C26.5137 2.00332 27.3018 1.92196 28.0644 2.05416C28.3898 2.16602 28.6949 2.31856 28.9797 2.5016C29.178 2.58804 29.3508 2.67448 29.5186 2.77108C29.6 2.81684 29.6813 2.86769 29.7576 2.92362C29.7728 2.93379 29.783 2.93379 29.7881 2.93887L29.905 3.04565L30.1542 3.27445L30.3982 3.31513C30.6575 3.36089 30.9626 3.47275 31.2474 3.67104C31.344 3.66087 31.4355 3.66087 31.527 3.66087C31.6897 3.79307 31.8219 3.94052 31.888 4.07272C31.9287 4.13374 31.9439 4.19475 31.9643 4.29644L31.9999 4.43372L32.0151 4.61168C32.0558 5.08454 32.01 5.66418 31.9083 6.24382C31.7151 7.41834 31.3745 8.6488 30.9779 9.864C30.1847 12.2995 29.1678 14.6994 28.1509 16.779C27.9322 17.5569 27.1238 19.0365 26.2543 20.7856L25.6544 21.9906L27.0069 21.9143C27.5356 21.8838 28.0797 21.8432 28.6339 21.7821L27.5407 21.655C27.3679 21.655 27.1848 21.6449 26.9916 21.6398L26.0764 21.6194L26.4984 20.9025C28.0492 18.2738 30.5609 12.7469 31.8219 8.69965L31.8626 8.89794C31.6185 9.81316 31.466 10.4945 31.0186 11.5877L31.0694 11.9385C31.6897 11.1097 32.4066 9.15217 32.7422 7.14378C32.9049 6.14721 32.9913 5.12522 32.8286 4.29136C32.7625 4.08797 32.7219 3.88968 32.6202 3.73206C32.5287 3.56935 32.4117 3.43716 32.2948 3.32021C32.066 3.09141 31.8372 2.93887 31.6694 2.82701C30.9321 2.3694 30.6118 2.33381 30.6525 2.28297C30.683 2.24737 31.044 2.28297 31.4406 2.4355C32.2592 2.68973 33.032 3.62528 32.3863 2.93379C32.9253 3.36597 33.093 3.81849 33.1439 3.93035C33.2049 4.05747 33.2354 3.95069 33.1642 3.65071C33.0778 3.34055 32.8134 2.89311 32.3914 2.53211C31.9694 2.16602 31.4253 1.85587 30.7745 1.66774L31.1101 1.85078L30.927 1.65248L30.6982 1.45927C30.566 1.3525 30.4287 1.24572 30.2915 1.1542C30.0169 0.960989 29.7271 0.793199 29.4474 0.655917C28.8881 0.381352 28.3644 0.228816 28.039 0.142379C27.3933 -0.0101568 26.6204 -0.0660866 25.8069 0.035604C24.9832 0.13221 24.1494 0.371183 23.285 0.732185C21.5715 1.47961 19.98 2.73041 18.5869 4.16933C17.1937 5.61842 15.9785 7.27089 15.0226 8.95896C14.0667 10.6521 13.3396 12.3707 13.0244 14.0333C12.9736 14.4553 12.9227 14.8875 12.938 15.3502C12.938 15.579 12.9685 15.8231 12.999 16.062C13.0498 16.3112 13.0956 16.5705 13.1973 16.8095C13.5481 17.7857 14.2549 18.5891 15.0735 19.1026C16.7158 20.1348 18.6581 20.45 20.6003 19.9924C20.8444 19.911 21.0529 19.8602 21.3274 19.7432C21.5918 19.6416 21.8613 19.4687 22.0901 19.2806C22.5528 18.884 22.9036 18.3755 23.0663 17.7552C23.1324 17.4349 23.2189 17.1145 23.0409 16.5756C23.0053 16.4586 22.8884 16.2705 22.7613 16.1281C22.5884 15.9654 22.3698 15.8332 22.1359 15.8027C21.6681 15.7417 21.48 15.8587 21.2715 15.9349C20.9258 16.1078 20.7529 16.2603 20.5698 16.3976C20.3919 16.5349 20.2393 16.6569 20.0868 16.7637C19.7868 16.9773 19.5021 17.1298 19.2275 17.201C19.0902 17.2366 18.953 17.262 18.8157 17.2569C18.6987 17.2722 18.4852 17.2417 18.3479 17.2213C18.1954 17.201 18.0784 17.1603 18.0174 17.1247C17.9615 17.0942 17.9361 17.0637 17.9055 17.023C17.8598 16.9671 17.7886 16.6722 17.7988 16.3366V16.2654C17.8089 15.879 17.87 15.4011 18.0377 14.9079C18.175 14.4197 18.3784 13.9265 18.5869 13.4435C19.0038 12.4724 19.5377 11.547 20.0716 10.6623C21.1698 8.90811 22.3901 7.34716 23.6409 6.09636C24.4137 5.35911 25.3493 4.51508 26.3916 3.95069C26.9001 3.64054 27.4848 3.46258 27.9882 3.41173C28.4966 3.37106 28.9085 3.50325 29.1932 3.79816L29.1271 3.71172L29.2085 3.8185L29.2695 3.88968L29.3051 3.92019C29.3356 3.93544 29.3457 3.95578 29.3508 3.98628C29.3508 4.00662 29.361 4.03205 29.3661 4.05238L29.3762 4.14899C29.3864 4.26085 29.3762 4.39305 29.3762 4.51508C29.361 4.76422 29.3356 5.02353 29.2949 5.27776C29.2135 5.78621 29.1017 6.27941 28.9644 6.73702C28.6949 7.65223 28.3695 8.42508 28.0492 8.97421C27.1035 11.5216 25.9544 14.0282 24.7392 16.4891L24.729 16.2908C24.2917 17.1908 23.8392 18.1009 23.3714 19.0009C23.1324 19.4585 22.9087 19.8805 22.6494 20.3381L22.4613 20.6788C22.4155 20.7602 22.4308 20.7347 22.4257 20.7398L22.3799 20.75L22.2782 20.7754L21.5918 20.9534L20.8139 21.172C20.2953 21.3245 19.7817 21.4822 19.2733 21.6449C18.2513 21.9754 17.2395 22.3262 16.2429 22.6974C14.2447 23.4499 12.3176 24.2329 10.4262 25.0973C8.54493 25.9769 6.76534 26.9379 5.12304 28.0209C3.69429 28.9818 2.87059 29.7903 2.25028 30.4614C1.62997 31.1377 1.21812 31.6817 0.67916 32.3834C0.211383 33.2122 -0.103858 34.2698 0.0639314 35.3985C0.226636 36.5222 0.897794 37.5188 1.72149 38.1798C1.93504 38.3323 2.13842 38.5153 2.36722 38.6374L3.04855 39.0085C3.52141 39.1916 3.99427 39.3848 4.48747 39.4814C4.9705 39.6238 5.4637 39.6441 5.9569 39.7102C6.44502 39.7102 6.93822 39.761 7.41616 39.7C9.34828 39.5627 11.1736 38.9679 12.7854 38.1492C14.3921 37.351 15.8565 36.4103 17.1632 35.3985C17.0869 35.3375 17.7581 34.7121 16.7666 35.4138C15.4497 36.4612 13.8684 37.351 12.5719 37.8747C12.2414 38.0018 11.9414 38.1238 11.6617 38.2153C11.377 38.2916 11.1279 38.3577 10.9143 38.4035C10.4923 38.5102 10.2228 38.5153 10.1771 38.4645C10.5838 38.373 10.9652 38.2103 11.3618 38.0882C11.0008 38.1798 10.6448 38.2865 10.2838 38.3577L9.19575 38.5408C8.73814 38.6272 8.28053 38.7645 7.81276 38.8153C7.44667 38.7797 7.28396 38.7441 7.25854 38.7136C6.06368 38.7136 4.94 38.4848 3.9536 38.017L3.58243 37.8391L3.24176 37.6154C3.00279 37.4781 2.80958 37.295 2.6062 37.112C2.49942 37.0306 2.41298 36.929 2.33163 36.8222L2.07741 36.512L1.88419 36.1612C1.85369 36.1053 1.81301 36.0493 1.78759 35.9883L1.72657 35.8002C1.39608 35.129 1.37574 34.2596 1.75708 33.3596C2.16384 32.4698 2.91635 31.5749 3.96377 30.7462L3.94851 30.7868Z" fill="white"/>
<path d="M106.891 16.7484C104.303 20.755 99.8639 25.5853 98.4453 25.9259C94.698 26.7903 100.383 17.567 101.679 14.3332C102.457 12.3502 100.128 11.013 98.3589 11.5774C94.9116 12.6553 87.4577 22.8701 87.4577 22.8701C87.4577 22.8701 91.7693 14.6383 91.9422 13.1739C92.0693 12.1418 90.0864 11.3638 89.6593 12.0553C89.4711 12.9451 88.3576 15.401 87.1373 17.9839C85.3018 20.5668 81.0868 25.7531 79.358 25.9768C77.8072 26.1903 77.8937 23.8209 79.0123 21.3244C80.0444 19.2144 80.3495 18.5686 80.9952 17.7043C81.341 17.2721 80.9545 16.5399 80.4359 15.9806C81.1274 15.8942 82.8053 14.7756 83.3239 13.6519C83.8832 12.1875 80.4817 9.90458 78.2394 10.3774C76.2564 10.8096 73.7549 11.8418 70.5668 15.3755C69.072 17.0382 67.8924 18.9347 67.1094 20.6685C65.4722 22.6007 63.4536 24.6243 61.6028 25.4988C60.6978 25.931 59.8792 26.231 59.147 26.4039C62.6401 23.7294 66.1738 16.5348 65.7416 13.6875C65.5688 12.4367 63.8044 10.1944 61.7757 10.8452C59.2334 11.5367 55.1811 17.7856 54.0167 19.7686C54.9624 17.8314 58.0233 11.5825 58.6691 10.0266C59.0555 8.90801 56.7725 8.43007 55.9539 9.16224C55.9539 9.91984 54.4184 13.0519 52.6439 16.8195C52.5981 16.845 52.5473 16.8755 52.5066 16.9212C51.4744 18.6449 46.0442 25.7124 44.0154 25.9717C42.4647 26.1852 42.5511 23.8159 43.6697 21.3194C44.7018 19.2093 45.0069 18.5635 45.6527 17.6992C45.9984 17.267 45.612 16.5348 45.0934 15.9755C45.7849 15.8891 47.4627 14.7705 47.9814 13.6468C48.5407 12.1825 45.1391 9.8995 42.8968 10.3724C40.9139 10.8045 38.4123 11.8367 35.2243 15.3705C32.1634 18.7771 30.3991 23.1701 30.7397 25.1531C30.999 26.6632 33.4955 28.0818 34.7057 27.5225C36.6022 26.5768 39.7038 22.9566 40.9139 21.1465C40.1359 22.743 39.9224 25.1989 40.7003 25.9717C41.9054 27.1767 43.8019 28.3004 45.917 26.8361C47.1323 25.9971 48.739 24.1311 50.183 22.2397C49.8525 23.0074 49.5321 23.765 49.2372 24.5074C46.9543 30.2376 45.0984 34.8086 44.6256 36.8323C44.2392 38.5559 46.3086 39.4203 47.1272 38.8559C47.9915 35.0222 49.5423 30.4105 51.6117 26.2259C53.8082 27.5174 58.0742 28.9004 62.5587 26.5717C63.7332 25.9615 64.9688 24.9243 66.1281 23.7447C66.0416 24.2887 66.0264 24.7616 66.0925 25.148C66.3518 26.6581 68.8483 28.0767 70.0584 27.5174C71.9549 26.5717 75.0565 22.9515 76.2666 21.1414C75.4887 22.7379 75.2751 25.1938 76.0531 25.9666C77.2581 27.1716 79.1546 28.2953 81.2698 26.831C82.1901 26.1954 83.3443 24.965 84.473 23.582C84.0358 24.5074 83.7256 25.1887 83.6392 25.448C83.2528 26.653 85.8815 27.6445 86.9136 26.653C87.3865 25.3616 96.437 13.5502 98.5928 13.6824C99.8436 13.7231 94.759 20.0177 94.4997 24.2836C94.3726 26.653 97.9064 28.3767 100.189 26.7852C102.518 25.148 105.747 21.2278 107.73 17.5619C107.857 17.1755 107.557 16.2704 106.911 16.7433L106.891 16.7484ZM33.8871 25.7988C32.9362 25.626 33.9735 22.0515 37.6343 17.0077C39.8766 13.9061 44.229 11.3181 45.434 11.9638C46.5119 12.5689 44.9154 14.9383 44.7883 15.7111C44.2697 15.3654 43.751 15.2383 43.4968 15.6704C41.8596 18.6449 35.4785 26.0988 33.8871 25.7988ZM55.6488 25.7988C54.6574 26.0988 53.3659 25.6717 52.2422 25.1938C55.0438 20.5821 60.774 11.9181 62.5841 12.1774C65.4264 12.5231 58.964 24.848 55.6438 25.7937L55.6488 25.7988ZM69.2245 25.7988C68.2737 25.626 69.311 22.0515 72.9718 17.0077C75.2141 13.9061 79.5665 11.3181 80.7715 11.9638C81.8494 12.5689 80.2529 14.9383 80.1258 15.7111C79.6071 15.3654 79.0936 15.2383 78.8343 15.6704C77.1971 18.6449 70.816 26.0988 69.2245 25.7988Z" fill="white"/>
<path d="M70.2059 24.477H70.1856L70.1296 24.5176C70.1144 24.6244 69.9822 24.6905 69.8144 24.7719C69.8246 24.7922 69.85 24.8024 69.8042 24.843C69.5347 24.9498 69.6873 24.9091 69.5347 25.0413C69.5856 25.0159 69.6466 24.9803 69.6873 24.9854L69.5297 25.0769L69.3975 25.1379C69.4432 25.1685 69.4991 25.199 69.4534 25.2549C69.5093 25.3312 69.4432 25.4634 69.4076 25.56C69.4686 25.56 69.5246 25.56 69.5602 25.56C69.5602 25.6057 69.4991 25.6362 69.4127 25.6566C69.4229 25.6667 69.428 25.6718 69.4432 25.6769C69.428 25.6718 69.4178 25.6617 69.4127 25.6566C69.3568 25.6769 69.3008 25.6566 69.25 25.6617C69.2754 25.6718 69.3059 25.6871 69.2907 25.7023C69.3669 25.7125 69.4534 25.6922 69.5398 25.6718C69.55 25.6769 69.5398 25.6871 69.5297 25.6972C69.55 25.6871 69.5703 25.6718 69.5907 25.6566C69.5703 25.6566 69.5551 25.6566 69.5347 25.6515C69.5144 25.6362 69.5449 25.621 69.5703 25.5956C69.6313 25.5651 69.6568 25.5752 69.6924 25.5752C69.733 25.5498 69.7686 25.5142 69.8042 25.4786C69.8195 25.4074 69.4585 25.5752 69.6364 25.443C69.6568 25.443 69.6822 25.443 69.7025 25.4329C69.789 25.3718 69.911 25.3108 69.9517 25.2295C70.0839 25.2447 70.1754 25.0159 70.2517 25.0973C70.633 24.9041 71.0143 24.482 71.4109 24.2837C71.416 24.177 71.3245 24.0702 71.4008 23.877C71.4363 23.8617 71.4872 23.8312 71.4821 23.8566L71.5533 23.7397C71.4974 23.7905 71.4313 23.8566 71.3855 23.8617C71.5126 23.699 71.2736 23.877 71.2584 23.8363L71.4363 23.6177L71.4008 23.6278C71.0194 23.9482 70.6025 24.2177 70.2059 24.4617V24.4719V24.477Z" fill="white"/>
<path d="M77.106 19.123L77.0348 19.0722C77.4619 18.462 77.9195 17.8163 78.3822 17.1248C78.611 16.7791 78.8449 16.4181 79.0635 16.0469C79.2008 15.8028 79.2059 15.8028 79.2618 15.7876C79.2771 15.7876 79.2974 15.7825 79.3228 15.7876C79.3228 15.7825 79.3838 15.8079 79.4143 15.8232C79.4499 15.8384 79.4855 15.8486 79.5211 15.8689C79.6686 15.935 79.8211 16.0113 79.9635 16.0926C80.0702 16.0672 80.1668 16.0621 80.2533 16.0723C80.3041 16.1028 80.3194 16.0265 80.3448 15.9757C80.3651 15.9249 80.3956 15.8689 80.4262 15.813C80.5431 15.5994 80.6855 15.3503 80.8024 15.0859C80.9041 14.8622 81.0058 14.6436 81.1075 14.4148C81.199 14.2063 81.2905 13.9978 81.3719 13.769C81.5549 13.2402 81.7227 12.5792 81.4685 12.0504C81.3465 11.7911 81.1177 11.5674 80.8431 11.4708C80.5685 11.3691 80.2635 11.3539 79.9533 11.3895C79.6584 11.4149 79.2872 11.5217 79.0838 11.5878C78.8449 11.664 78.6211 11.7555 78.3974 11.8521C77.9551 12.0454 77.5331 12.2691 77.1263 12.5131C76.3128 12.9962 75.5603 13.5555 74.8637 14.1605L74.7569 13.8249C74.2434 14.3893 73.7146 15.0096 73.2519 15.6605C73.0231 15.9859 72.8044 16.3164 72.6163 16.657C72.4333 16.9875 72.2655 17.3078 72.118 17.6231L72.4689 17.2214C72.3316 17.7197 71.7316 18.7976 71.3045 19.423L71.274 19.3162C71.7926 18.4112 71.213 19.362 71.2435 18.879L71.3045 18.701L71.213 18.7671L71.152 18.9451C71.1215 18.8993 71.0605 18.8841 71.1367 18.7264L70.9994 18.9298C70.5266 19.2552 70.3588 19.1586 70.1757 18.9654C70.13 19.1027 70.4198 19.1078 70.0435 19.5756L70.013 19.4637L69.8147 20.1043L69.5758 20.3077C69.5097 20.5416 69.4893 20.6992 69.347 20.8975L69.4639 21.0399C68.9148 21.9754 68.5233 23.2568 68.1572 24.4059C68.2131 24.5533 68.1572 24.7719 68.1267 25.1024C68.1165 25.2651 68.1114 25.4685 68.1928 25.7431C68.2385 25.8804 68.3046 26.0431 68.4673 26.2109C68.6148 26.3787 68.869 26.4956 69.0927 26.521C68.8487 26.4142 68.6453 26.2007 68.5741 26.0024C68.4063 25.6516 68.4419 25.3516 68.4673 25.0618C68.5029 24.7719 68.569 24.4821 68.6504 24.1872C68.8131 23.5974 69.0368 22.9924 69.286 22.5297L69.3571 22.6059C69.2961 22.8195 69.3114 22.9924 69.169 23.2262L69.3012 23.3534C69.6571 23.2466 69.7944 22.8195 69.8961 22.372C69.9978 21.9246 70.0588 21.4568 70.1859 21.3145C70.6994 20.6941 70.2673 21.9348 70.4249 21.5941C70.2368 22.4534 71.1215 21.1518 71.4774 20.9535C71.8943 20.623 72.3367 19.9721 72.7943 19.2756C73.018 18.9247 73.2519 18.5688 73.4705 18.2281C73.6942 17.8875 73.9078 17.5621 74.0857 17.3282C74.5535 16.3876 75.4637 15.4876 76.4602 14.7808C77.4568 14.069 78.55 13.5351 79.3686 13.1995C79.4703 13.164 79.572 13.1233 79.6787 13.0724L79.755 13.0368C79.755 13.0368 79.755 13.0267 79.7652 13.0216L79.7957 12.9809C79.8414 12.925 79.933 12.8436 80.0499 12.8284C80.1668 12.8131 80.2584 12.8945 80.2431 12.986C80.238 13.0775 80.1516 13.169 80.0092 13.1945L79.9838 13.2301C79.9838 13.2301 79.9685 13.2402 79.938 13.3165C79.8923 13.4334 79.8262 13.5606 79.7703 13.6877L79.572 14.0792L79.5262 14.1707L79.5059 14.1961C79.5059 14.1961 79.4804 14.2368 79.4753 14.2317L79.3991 14.1707C79.3991 14.1707 79.3991 14.1707 79.3991 14.1859V14.1961V14.2012C79.3991 14.2012 79.3991 14.2012 79.4042 14.2012C79.4042 14.2012 79.4143 14.2012 79.4092 14.2012H79.3635C79.3076 14.2012 79.2415 14.2012 79.1754 14.2063C78.9161 14.2266 78.6008 14.3181 78.3415 14.5012C78.2144 14.5927 78.1025 14.6944 78.0161 14.8012C77.9703 14.852 77.9297 14.908 77.889 14.969C77.8534 15.0198 77.8025 15.1113 77.8025 15.1113C77.65 15.4367 77.4924 15.7266 77.3246 16.0316C76.9839 16.6367 76.6178 17.2316 76.2467 17.7655C75.8247 18.3553 75.8806 18.6858 75.4586 18.7773C74.4162 19.7942 73.5722 21.3246 72.6112 22.372C72.6773 22.428 72.6061 22.6314 72.8197 22.4788C73.2468 21.8839 73.9637 21.4009 74.1569 21.5382L73.9535 21.7263L74.4264 21.4873L74.5789 21.2026C74.6755 21.1823 74.7366 21.1823 74.7671 21.2026C75.184 20.8467 75.6518 20.623 76.1196 20.2721C76.328 19.9213 76.6026 19.5603 77.0805 19.1332L77.106 19.123Z" fill="white"/>
<path d="M56.4226 24.3803H56.4073L56.3615 24.421C56.3615 24.5176 56.2395 24.604 56.087 24.6752C56.1022 24.6955 56.1277 24.7057 56.087 24.7464C55.8378 24.8582 55.9751 24.8328 55.8378 24.9599C55.8887 24.9294 55.9446 24.8989 55.9853 24.8989C55.8836 24.9701 55.787 25.0311 55.6853 25.0921C55.7463 25.1125 55.8073 25.1328 55.7667 25.1989C55.8378 25.265 55.7768 25.4074 55.7616 25.5141C55.8277 25.504 55.8836 25.4938 55.9192 25.4887C55.9294 25.5294 55.8683 25.5701 55.787 25.6107C55.7361 25.6362 55.6751 25.6565 55.6192 25.6768C55.6548 25.6768 55.6904 25.6768 55.6802 25.6972L55.9192 25.6057C55.9192 25.6057 55.9243 25.6209 55.9141 25.6311C55.9344 25.6158 55.9497 25.6006 55.9649 25.5853C55.9446 25.5853 55.9294 25.5853 55.909 25.5853C55.8836 25.5751 55.909 25.5548 55.9395 25.5294C55.9955 25.4938 56.0209 25.4989 56.0565 25.4938L56.1582 25.3921C56.1683 25.3108 55.8328 25.5243 55.9904 25.3667L56.0565 25.3514C56.1378 25.2955 56.2497 25.2192 56.2751 25.143C56.4022 25.1531 56.4683 24.9345 56.5497 25.0057C56.8954 24.8074 57.2107 24.3803 57.5717 24.1667C57.5666 24.065 57.4598 23.9684 57.5056 23.7752C57.5361 23.7549 57.5818 23.7244 57.5818 23.7498L57.6327 23.6329C57.5869 23.6837 57.5361 23.7549 57.4903 23.76C57.592 23.5973 57.3886 23.7803 57.3683 23.7396L57.5106 23.521L57.4801 23.5312C57.1649 23.8667 56.7937 24.1311 56.448 24.3854V24.3955L56.4226 24.3803Z" fill="white"/>
<path d="M62.1327 18.5688L62.0513 18.5332C62.4632 17.5824 62.9004 16.5502 63.2767 15.4113C63.3631 15.1215 63.4546 14.8317 63.5207 14.5266C63.5614 14.3741 63.5817 14.2215 63.6173 14.0588C63.658 13.8707 63.658 13.6673 63.6834 13.469C63.6885 13.0775 63.6733 12.6707 63.4801 12.3403C63.3936 12.1775 63.2665 12.0199 63.0987 11.9182C63.0275 11.8521 62.9258 11.8369 62.8343 11.8064C62.7428 11.7708 62.6513 11.7555 62.5547 11.7454C62.1632 11.7454 61.792 11.8979 61.431 12.1369C61.2429 12.2436 61.0802 12.3911 60.9022 12.5233C60.77 12.6352 60.6429 12.747 60.5158 12.8589C60.0175 13.3165 59.565 13.7995 59.1277 14.2978C58.2532 15.2944 57.4549 16.3367 56.7125 17.3841L56.5244 17.0943C55.8787 18.3197 55.1058 19.6671 54.5974 20.8568L54.9177 20.4755C54.816 20.9534 54.2771 21.9754 53.8601 22.5551L53.8296 22.4534C54.3177 21.6093 53.7686 22.4941 53.7889 22.0365L53.8449 21.8687L53.7584 21.9297L53.7025 22.0975C53.672 22.0568 53.611 22.0314 53.6822 21.889L53.55 22.0771C53.0924 22.3619 52.9246 22.2602 52.7466 22.072C52.7059 22.1992 52.9907 22.2195 52.6246 22.6364L52.5941 22.5296L52.4009 23.1144L52.2839 23.1957C52.2483 23.2211 52.2077 23.2466 52.1466 23.3127C51.9992 23.6482 51.9483 23.8415 51.7145 24.1516C51.7551 24.1974 51.7958 24.2381 51.8365 24.2736C51.567 24.6804 51.2975 25.1278 51.0382 25.5753C51.6026 25.8193 52.2178 26.038 52.7924 26.2414C52.9398 26.2871 53.0873 26.338 53.2347 26.3837C53.372 26.4244 53.5093 26.4651 53.6466 26.5007C53.8449 26.5515 54.0381 26.6024 54.2465 26.6583C54.3838 26.5973 54.5974 26.6379 54.877 26.6583C55.1516 26.6786 55.5177 26.6685 55.8634 26.4956C55.7414 26.4651 55.6295 26.4346 55.5228 26.3888C55.1363 26.343 54.5821 26.3176 54.0177 26.1854C53.8652 26.1549 53.7533 26.1244 53.5703 26.0736C53.3923 26.0278 53.2195 25.9668 53.0517 25.9109C52.7161 25.7939 52.4059 25.6566 52.1517 25.5295L52.3043 25.4888C52.5636 25.5651 52.7822 25.5651 53.011 25.6922C53.0771 25.6566 53.1381 25.616 53.1991 25.5804C53.1991 25.4227 53.133 25.3261 53.0059 25.26C52.9398 25.2245 52.8585 25.199 52.7619 25.1736C52.711 25.1634 52.6602 25.1482 52.6042 25.138L52.5178 25.1228L52.472 25.1126C52.472 25.1126 52.472 25.0973 52.472 25.0872C52.5127 24.8329 52.5687 24.4516 52.711 24.294C53.0008 23.9889 53.011 24.1414 53.0008 24.2838C52.9907 24.4262 52.9602 24.5635 53.0161 24.4465C52.9805 24.716 53.2042 24.5584 53.3923 24.4465C53.489 24.3855 53.6008 24.2991 53.6923 24.2533L53.7584 24.2177L53.85 24.1414C53.911 24.0957 53.9618 24.055 54.0076 24.0347C54.8465 23.4398 55.8075 21.5839 56.5092 20.5365C57.3329 18.5637 59.3209 16.5299 60.5412 15.1164C60.8514 14.791 61.131 14.2622 61.4513 13.8351C61.5327 13.7283 61.614 13.6317 61.6954 13.5402C61.7615 13.469 61.7717 13.4588 61.8123 13.4334C61.8835 13.3978 61.9598 13.4233 61.9852 13.5707C62.0106 13.5707 62.0361 13.5707 62.0564 13.586C62.1123 13.6165 62.1174 13.6978 62.0971 13.7436L62.0005 13.8148C62.0005 13.8148 62.0005 13.8148 62.0106 13.8148C62.0106 13.8148 62.0106 13.8148 62.0106 13.8402L61.9954 13.9724C61.9445 14.3385 61.8632 14.73 61.7615 15.1317C61.5632 15.9299 61.3039 16.7282 61.009 17.44C60.7395 18.0553 60.8615 18.3552 60.4802 18.5027C59.7073 19.601 59.1938 21.1467 58.4362 22.2246C58.5074 22.2703 58.4769 22.4737 58.6548 22.3059C58.9701 21.7009 59.5701 21.1619 59.7836 21.2687L59.626 21.4721L60.0378 21.1873L60.1294 20.8975C60.2158 20.8619 60.2768 20.8568 60.3073 20.8721C60.648 20.4806 61.0497 20.2009 61.431 19.8043C61.5581 19.4433 61.7513 19.0569 62.1174 18.5739L62.1327 18.5688Z" fill="white"/>
<path d="M34.8661 24.477H34.8458L34.7898 24.5176C34.7746 24.6244 34.6424 24.6905 34.4746 24.7719C34.4848 24.7922 34.5102 24.8024 34.4644 24.843C34.1949 24.9498 34.3475 24.9091 34.1949 25.0413C34.2458 25.0159 34.3068 24.9803 34.3475 24.9854L34.1899 25.0769L34.0577 25.1379C34.1034 25.1685 34.1594 25.199 34.1136 25.2549C34.1695 25.3312 34.1034 25.4634 34.0678 25.56C34.1289 25.56 34.1848 25.56 34.2204 25.56C34.2204 25.6057 34.1594 25.6362 34.0729 25.6566C34.0831 25.6667 34.0882 25.6718 34.1034 25.6769C34.0882 25.6718 34.078 25.6617 34.0729 25.6566C34.017 25.6769 33.9611 25.6566 33.9102 25.6617C33.9356 25.6718 33.9661 25.6871 33.9509 25.7023C34.0272 25.7125 34.1136 25.6922 34.2 25.6718C34.2102 25.6769 34.2 25.6871 34.1899 25.6972C34.2102 25.6871 34.2305 25.6718 34.2509 25.6566C34.2305 25.6566 34.2153 25.6566 34.1949 25.6515C34.1746 25.6362 34.2051 25.621 34.2305 25.5956C34.2916 25.5651 34.317 25.5752 34.3526 25.5752C34.3932 25.5498 34.4288 25.5142 34.4644 25.4786C34.4797 25.4074 34.1187 25.5752 34.2966 25.443C34.317 25.443 34.3424 25.443 34.3627 25.4329C34.4492 25.3718 34.5712 25.3108 34.6119 25.2295C34.7441 25.2447 34.8356 25.0159 34.9119 25.0973C35.2932 24.9041 35.6745 24.482 36.0711 24.2837C36.0762 24.177 35.9847 24.0702 36.061 23.877C36.0966 23.8617 36.1474 23.8312 36.1423 23.8566L36.2135 23.7397C36.1576 23.7905 36.0915 23.8566 36.0457 23.8617C36.1728 23.699 35.9339 23.877 35.9186 23.8363L36.0966 23.6177L36.061 23.6278C35.6796 23.9482 35.2627 24.2177 34.8661 24.4617V24.4719V24.477Z" fill="white"/>
<path d="M41.7661 19.1229L41.6949 19.072C42.122 18.4619 42.5796 17.8161 43.0423 17.1297C43.2711 16.784 43.505 16.423 43.7236 16.0518C43.8609 15.8078 43.8711 15.8078 43.9219 15.7925C43.9372 15.7925 43.9575 15.7874 43.9829 15.7925C43.9829 15.7874 44.0389 15.8128 44.0694 15.823L44.1761 15.8688C44.3236 15.9298 44.471 16.0111 44.6185 16.0925C44.7304 16.0671 44.8219 16.062 44.9083 16.0722C44.9592 16.1027 44.9744 16.0315 44.9998 15.9806C45.0202 15.9298 45.0507 15.8739 45.0761 15.8179C45.193 15.6044 45.3354 15.3603 45.4524 15.0959C45.554 14.8722 45.6557 14.6485 45.7574 14.4248C45.8489 14.2163 45.9405 14.0078 46.0218 13.779C46.2049 13.2502 46.3727 12.5892 46.1235 12.0605C46.0015 11.8011 45.7727 11.5774 45.4981 11.4808C45.2236 11.3791 44.9185 11.3639 44.6083 11.3995C44.3134 11.4249 43.9422 11.5317 43.7389 11.5978C43.4999 11.674 43.2762 11.7656 43.0525 11.8622C42.6101 12.0554 42.1881 12.2791 41.7813 12.5231C40.9678 13.0062 40.2153 13.5655 39.5187 14.1756L39.4119 13.84C38.8984 14.4044 38.3696 15.0247 37.9069 15.6756C37.6781 16.001 37.4595 16.3315 37.2713 16.6721C37.0883 17.0026 36.9205 17.3229 36.7731 17.6382L37.1239 17.2365C36.9866 17.7348 36.3866 18.8127 35.9595 19.4381L35.929 19.3313C36.4477 18.4263 35.868 19.3771 35.8985 18.8941L35.9595 18.7161L35.868 18.7822L35.807 18.9602C35.7765 18.9144 35.7155 18.8991 35.7917 18.7415L35.6545 18.9449C35.1816 19.2703 35.0138 19.1737 34.8308 18.9805C34.785 19.1178 35.0748 19.1229 34.6986 19.5906L34.6681 19.4788L34.4698 20.1194L34.2308 20.3228C34.1647 20.5567 34.1444 20.7143 34.002 20.9126L34.1189 21.055C33.5698 21.9905 33.1783 23.2718 32.8122 24.4209C32.8681 24.5684 32.8122 24.787 32.7817 25.1175C32.7715 25.2802 32.7665 25.4836 32.8478 25.7582C32.8936 25.8955 32.9597 26.0582 33.1224 26.226C33.2698 26.3937 33.524 26.5107 33.7478 26.5361C33.5037 26.4293 33.3003 26.2158 33.2291 26.0175C33.0614 25.6667 33.0969 25.3667 33.1224 25.0769C33.158 24.787 33.2241 24.4972 33.3054 24.2023C33.4681 23.6125 33.6918 23.0074 33.941 22.5448L34.0122 22.621C33.9511 22.8346 33.9664 23.0074 33.824 23.2413L33.9562 23.3685C34.3121 23.2617 34.4494 22.8346 34.5511 22.3871C34.6528 21.9397 34.7138 21.4719 34.8409 21.3296C35.3545 20.7092 34.9223 21.9499 35.0799 21.6092C34.8918 22.4685 35.7765 21.1669 36.1324 20.9686C36.5493 20.6381 36.9917 19.9872 37.4493 19.2907C37.673 18.9398 37.9069 18.5839 38.1255 18.2432C38.3493 17.9026 38.5628 17.5772 38.7408 17.3433C39.2086 16.4026 40.1187 15.5027 41.1153 14.7959C42.1118 14.0841 43.205 13.5502 44.0236 13.2146C44.1253 13.1791 44.227 13.1384 44.3338 13.0875L44.41 13.0519C44.41 13.0519 44.41 13.0418 44.4202 13.0367L44.4507 12.996C44.4965 12.9401 44.588 12.8587 44.7049 12.8435C44.8219 12.8282 44.9134 12.9096 44.8981 13.0011C44.8931 13.0926 44.8066 13.1841 44.6643 13.2096L44.6388 13.2452C44.6388 13.2452 44.6236 13.2553 44.5931 13.3316C44.5473 13.4485 44.4812 13.5756 44.4253 13.7028L44.227 14.0943L44.1812 14.1858L44.1609 14.2112C44.1609 14.2112 44.1355 14.2519 44.1304 14.2468L44.0541 14.1858C44.0541 14.1858 44.0541 14.1858 44.0541 14.201V14.2112V14.2163C44.1202 14.2163 43.9575 14.2061 43.8253 14.2214C43.566 14.2417 43.2508 14.3383 42.9914 14.5214C42.8643 14.6129 42.7525 14.7146 42.666 14.8214C42.6203 14.8722 42.5796 14.9281 42.544 14.9891C42.5084 15.0451 42.4627 15.1264 42.4627 15.1264C42.3101 15.4468 42.1525 15.7366 41.9847 16.0467C41.644 16.6518 41.278 17.2467 40.9119 17.7806C40.4899 18.3704 40.5458 18.7009 40.1238 18.7924C39.0814 19.8093 38.2374 21.3397 37.2764 22.3871C37.3425 22.4431 37.2713 22.6464 37.4849 22.4939C37.912 21.899 38.6289 21.416 38.8221 21.5533L38.6187 21.7414L39.0916 21.5024L39.2441 21.2177C39.3408 21.1974 39.4018 21.1974 39.4323 21.2177C39.8492 20.8618 40.317 20.6381 40.7848 20.2872C40.9932 19.9364 41.2678 19.5754 41.7457 19.1483L41.7661 19.1229Z" fill="white"/>
<path d="M96.7801 28.0259L97.019 28.0971C97.2987 28.1682 97.5936 28.2089 97.8834 28.2293C98.3817 28.2293 99.1698 28.1784 100.075 27.7513C100.278 27.6293 100.538 27.492 100.726 27.3496C100.919 27.2073 101.122 27.0598 101.321 26.8971C101.722 26.5768 102.124 26.2107 102.546 25.8141C102.526 25.7938 102.378 25.926 102.932 25.3412C104.198 24.0447 104.448 23.6684 104.661 23.4142C104.854 23.1498 104.976 22.982 105.734 21.9397C105.256 22.5854 104.641 23.3735 104.361 23.6583C105.424 22.377 106.4 21.0296 107.28 19.6161C106.878 20.1754 106.517 20.6076 106.949 19.8957C106.603 20.272 107.397 18.8331 107.61 18.2483C107.158 19.011 106.766 19.5957 106.578 19.8652C106.608 19.7483 107.056 19.0313 107.564 18.1314C107.651 17.9738 107.742 17.8161 107.839 17.6382V17.6229L107.849 17.6128C107.93 17.3026 107.869 17.0128 107.697 16.7433C107.61 16.6162 107.453 16.4942 107.269 16.4891C107.086 16.484 106.944 16.5654 106.822 16.6467C106.995 16.5094 107.275 16.4586 107.427 16.5399C107.569 16.6162 107.6 16.667 107.503 16.606C107.676 16.7179 107.752 16.8958 107.803 17.0636C107.849 17.2365 107.864 17.4145 107.813 17.6026V17.6178C107.493 18.1924 107.168 18.7619 106.817 19.3161C106.761 19.3923 106.802 19.3059 106.893 19.1534L106.502 19.8093C106.619 19.6517 106.725 19.489 106.837 19.3262C106.959 19.1635 106.761 19.5042 106.558 19.8398C106.131 20.5008 105.993 20.6533 105.764 20.9635C105.47 21.4007 105.17 21.8329 104.859 22.2549C104.707 22.5092 105.353 21.7007 105.815 21.0601C106.273 20.4194 106.593 19.9771 105.886 21.0448L105.409 21.6753C104.727 22.6414 103.71 23.8515 103.202 24.4667C102.775 24.8836 102.195 25.4938 101.666 25.9921C101.148 26.4904 100.66 26.8615 100.543 26.8768C100.07 27.2225 99.4749 27.5174 98.8393 27.6191C98.1987 27.7259 97.5275 27.67 96.8919 27.4717C96.2564 27.2734 95.6462 26.9378 95.1479 26.4497C94.6497 25.9717 94.2937 25.2955 94.2531 24.5684C94.2276 23.8515 94.3802 23.2108 94.548 22.5702C94.7259 21.9346 94.9496 21.3245 95.1988 20.7397C95.4479 20.155 95.7174 19.5906 95.992 19.0568C96.2614 18.5331 96.5767 17.9585 96.7953 17.5873C96.9123 17.2975 96.9173 17.1704 96.9529 16.9874C96.9885 16.8043 97.0597 16.5653 97.2224 16.1433C97.3546 15.9196 97.5173 15.5586 97.5122 15.6298C97.5427 15.5179 97.5936 15.3959 97.5427 15.279C97.5122 15.2179 97.4207 15.2129 97.3495 15.2383C97.2733 15.2485 97.2021 15.2891 97.1309 15.3196C97.1868 15.3044 97.2377 15.2739 97.2987 15.2739C97.3546 15.2688 97.4258 15.2485 97.4716 15.3044C97.5377 15.4112 97.4716 15.5434 97.4411 15.6501C97.3546 15.8688 97.2478 16.062 97.1716 16.1891C97.3953 15.6705 97.2834 15.8484 97.1462 16.1179C96.9987 16.3874 96.7852 16.7331 96.775 16.7179C96.8767 16.5196 96.9682 16.3264 97.0445 16.1281C97.0801 16.0315 97.1156 15.9298 97.1055 15.8281C97.1004 15.7671 97.0241 15.7467 96.9682 15.7671C96.9072 15.7722 96.8513 15.7976 96.7953 15.823C96.836 15.823 96.8716 15.8179 96.9072 15.8332C96.9784 15.8078 97.0546 15.8789 97.0292 15.9552C97.019 16.0264 96.9936 16.0976 96.9631 16.1688C96.9072 16.306 96.836 16.4382 96.7699 16.5654L96.3479 17.3128L96.1445 17.6738L95.7072 18.4924C95.3971 19.0873 95.1022 19.6923 94.8276 20.3126C94.553 20.933 94.3039 21.5736 94.1005 22.2448C93.9022 22.9261 93.7293 23.5922 93.7039 24.3904C93.6836 25.2853 94.0853 26.1344 94.6395 26.7293C95.1937 27.3344 95.8903 27.7513 96.6326 28.0005L96.7902 28.0411L96.7801 28.0259Z" fill="white"/>
<path d="M49.7633 28.9514L49.8649 28.9311C48.9599 31.1022 48.1616 33.3597 47.4956 35.6986C47.3328 36.2833 47.1701 36.8731 47.0227 37.468L46.8447 38.2002C46.8142 38.2917 46.8244 38.4137 46.7532 38.4798C46.6668 38.5307 46.5651 38.5612 46.4634 38.5714C46.26 38.5917 46.0515 38.551 45.8634 38.4748C45.6855 38.4036 45.4363 38.2409 45.2889 38.068C45.1262 37.89 45.0194 37.6765 44.9889 37.4477C44.9584 37.2036 44.9736 37.0002 45.0651 36.6901C45.3753 35.5206 45.8126 34.341 46.2448 33.1614C46.682 31.9818 47.1447 30.7971 47.6125 29.6022C48.5582 27.2227 49.4989 24.7923 50.5208 22.3873L51.7106 19.5756L49.8649 22.0009C49.1684 22.9161 48.4413 23.8211 47.6583 24.6804C47.2668 25.1075 46.8651 25.5245 46.438 25.9058C46.016 26.2922 45.5685 26.6278 45.0804 26.8566C44.1093 27.3345 42.9703 27.1769 42.0348 26.5668C41.7958 26.4244 41.5721 26.2515 41.3585 26.0685C41.2517 25.977 41.145 25.8804 41.0433 25.7787C40.9874 25.7278 40.9467 25.6872 40.9213 25.6465C40.8857 25.6109 40.8552 25.5651 40.8348 25.5143C40.7789 25.4228 40.7382 25.3007 40.7026 25.1787C40.6874 25.1075 40.667 25.077 40.6569 24.9702L40.6162 24.6753C40.6162 24.4618 40.5958 24.2686 40.6264 24.0296C40.6416 23.9076 40.6365 23.811 40.6721 23.6686L40.7789 23.2313C40.5196 22.5602 40.6009 22.0365 40.7484 21.5331C40.7789 21.4517 40.8043 21.3704 40.8399 21.289L40.8958 21.1721C40.8958 21.1721 40.9213 21.1212 40.9162 21.1263L40.8755 21.1772C40.7636 21.3145 40.6416 21.4416 40.5196 21.5687C40.2552 21.8127 39.9857 22.0568 39.6044 22.2297C39.2281 22.7229 38.862 23.1703 38.4858 23.6025C38.2976 23.8211 38.1095 24.0296 37.9163 24.2381L37.4739 24.7058C36.8841 25.316 36.274 25.9058 35.6181 26.4346C35.2876 26.6837 34.952 26.943 34.6063 27.121C34.3419 27.2786 33.986 27.2684 33.6097 27.1871C32.8724 27.0142 32.1301 26.5668 31.6216 25.9922C31.3674 25.7024 31.1793 25.377 31.1386 25.0414C31.0776 24.6753 31.1234 24.2635 31.1742 23.8567C31.3064 23.0381 31.5708 22.2195 31.8962 21.4263C32.5419 19.8349 33.447 18.3298 34.4893 16.9367C35.552 15.5689 36.7824 14.2826 38.1451 13.1945C39.5078 12.1064 41.0484 11.2573 42.7364 10.8708C42.9551 10.8098 43.1432 10.7946 43.3313 10.7691C43.5245 10.7691 43.7228 10.7539 43.9262 10.7895C44.3279 10.8251 44.7296 10.9471 45.1211 11.0895C45.899 11.3895 46.6413 11.8623 47.1701 12.4572L47.343 12.686C47.3939 12.7623 47.4295 12.8436 47.4752 12.9199C47.5464 13.0623 47.5718 13.1894 47.5718 13.3368C47.5464 13.4843 47.5108 13.5911 47.3989 13.7436C47.2922 13.9063 47.1651 14.0588 47.0227 14.2114C46.738 14.5063 46.4125 14.7859 46.0617 15.0147C45.8888 15.1368 45.7058 15.2384 45.5278 15.33C45.355 15.4215 45.1516 15.4927 45.0397 15.5079L44.1499 15.6401L44.7499 16.296C44.8516 16.4079 44.9482 16.5299 45.0346 16.6519C45.0753 16.713 45.116 16.7791 45.1516 16.835C45.177 16.8808 45.2024 16.9316 45.2228 16.9824C45.3143 17.1757 45.3194 17.4299 45.1516 17.5824L44.9736 17.8316L44.7753 18.1315C44.6482 18.3349 44.5313 18.5434 44.4194 18.7468C44.1957 19.1586 43.9923 19.5705 43.7889 19.9823C43.5856 20.3942 43.3822 20.7958 43.1839 21.2331C42.9856 21.6755 42.828 22.1229 42.6805 22.5805C42.5432 23.0432 42.4364 23.5161 42.3805 24.0143C42.3551 24.2686 42.3398 24.5025 42.3602 24.8025C42.3754 24.955 42.3907 25.1126 42.4364 25.2651C42.467 25.4228 42.5229 25.5702 42.5941 25.7075C42.7415 25.977 42.9449 26.2363 43.2449 26.3481C43.5296 26.4651 43.8499 26.4905 44.1601 26.4346C44.3177 26.4193 44.4652 26.3481 44.6177 26.2973C44.7601 26.2312 44.9228 26.1549 45.0194 26.0939C45.2431 25.9668 45.4465 25.8244 45.6397 25.677C46.4125 25.0872 47.0786 24.4262 47.7244 23.75C48.3701 23.0737 48.9853 22.372 49.5802 21.6602C50.1802 20.9484 50.7598 20.2213 51.3242 19.484C51.8886 18.7366 52.4377 18.0095 52.9563 17.1807L52.875 17.2824C52.875 17.2824 52.8852 17.2875 52.8801 17.2824L53.114 17.0384L54.8071 13.4639C55.0868 12.864 55.3664 12.264 55.6359 11.6539C55.7681 11.3488 55.9003 11.0386 56.0325 10.7285L56.2155 10.2505L56.302 10.0065L56.3681 9.79291C56.3833 9.74715 56.3935 9.69631 56.4036 9.65055C56.4138 9.5997 56.4037 9.5336 56.4596 9.51326C56.5969 9.41666 56.7647 9.3709 56.9274 9.35564C57.1104 9.33531 57.4358 9.36581 57.5528 9.40141C57.7104 9.44717 57.868 9.51327 57.9849 9.63529C58.1019 9.76241 58.1121 9.95053 58.0358 10.098L57.7561 10.7234L57.3799 11.5267L56.6172 13.1284C55.58 15.2588 54.5427 17.3892 53.5105 19.5145L54.4868 20.0382C55.4223 18.4773 56.4443 16.9468 57.5477 15.5028C58.0968 14.7808 58.6663 14.0741 59.2764 13.4182C59.8815 12.7674 60.5323 12.1369 61.2238 11.7047L61.4831 11.5522C61.5695 11.5013 61.6611 11.481 61.7475 11.4454C61.9204 11.3691 62.1034 11.3284 62.2763 11.2979C62.622 11.2522 62.9779 11.3132 63.3186 11.4657C63.9999 11.7759 64.5999 12.4165 64.9558 13.1131C65.149 13.4741 65.1897 13.7792 65.205 14.1859C65.205 14.3842 65.1795 14.5927 65.1694 14.7961C65.144 15.0046 65.0982 15.2181 65.0626 15.4266C64.8846 16.2706 64.605 17.1096 64.2796 17.9332C64.3355 17.4807 64.3965 17.0384 64.4169 16.596C63.9084 18.2841 63.1 19.9569 62.1644 21.5484C61.2034 23.1195 60.0747 24.6652 58.6866 25.7939L56.0884 27.9091L59.3069 27.1108C60.0798 26.9176 60.8018 26.638 61.4933 26.3176C61.8288 26.16 62.2 25.9871 62.5356 25.7736C62.8763 25.5702 63.1966 25.3465 63.5067 25.1177C64.7372 24.1821 65.7948 23.1042 66.7913 21.9856L67.1574 21.5636L67.5388 21.1111C67.6405 21.0145 67.6913 20.8772 67.7472 20.7552L67.8591 20.5111L68.093 20.0332C68.4133 19.3976 68.7641 18.7773 69.1455 18.1824C69.9082 16.9774 70.798 15.8791 71.7894 14.8622C72.7708 13.8453 73.8283 12.9199 74.9927 12.1928C75.5723 11.8318 76.1774 11.5217 76.8028 11.2725C77.118 11.1556 77.4333 11.0386 77.7587 10.9522C77.9214 10.9064 78.0841 10.8658 78.2468 10.8251C78.4095 10.7844 78.5417 10.7793 78.6891 10.7488C79.9043 10.6878 81.2162 11.242 82.167 12.025C82.6398 12.4216 83.0415 12.925 82.9907 13.3673C82.9805 13.4843 82.9347 13.5911 82.8686 13.6927C82.7974 13.8097 82.711 13.9368 82.6195 14.0538C82.4314 14.2927 82.2127 14.5114 81.9788 14.7147C82.3042 14.4453 82.6144 14.1453 82.8432 13.8097C82.9652 13.647 83.0262 13.5148 83.0517 13.3419C83.0517 13.2606 83.0466 13.1741 83.0364 13.0928C83.011 13.0114 82.9907 12.9352 82.9551 12.8538C82.8025 12.5081 82.5025 12.1877 82.1924 11.9132C81.8771 11.6335 81.5111 11.3945 81.1348 11.1912C81.506 11.3691 81.9178 11.5979 82.3093 11.9335C82.5025 12.0962 82.6958 12.2843 82.8585 12.503C83.0161 12.7267 83.1584 12.9555 83.1737 13.2199C83.1839 13.286 83.189 13.3521 83.1737 13.4182C83.1534 13.4843 83.1635 13.5555 83.1229 13.6165C83.0669 13.7385 82.9907 13.8656 82.8991 14.0029C82.7161 14.2622 82.4873 14.5114 82.2331 14.7452C81.9788 14.9791 81.6992 15.1978 81.3941 15.391C81.0941 15.5791 80.7585 15.7723 80.4179 15.8384L80.1942 15.8791L80.3416 16.0367C80.5653 16.2706 80.7789 16.5553 80.906 16.8401C80.9721 16.9875 81.0179 17.1451 81.0128 17.3129C81.0128 17.4807 80.9162 17.6282 80.8145 17.7553C80.4382 18.279 80.1077 18.8942 79.8128 19.4993C79.5128 20.1094 79.2129 20.7297 78.923 21.3602C78.6485 22.0009 78.4247 22.6619 78.2773 23.3432C78.201 23.6839 78.1604 24.0296 78.1451 24.3753C78.1298 24.7211 78.1654 25.0821 78.2976 25.4024C78.4248 25.7227 78.7298 25.9871 79.0857 25.9871C79.4366 26.0126 79.762 25.8549 80.0569 25.7024C80.6365 25.3617 81.1297 24.9245 81.6077 24.4923C82.5432 23.6127 83.3618 22.7076 84.0991 21.8636L83.6567 22.4992C81.8924 24.5126 80.8501 25.3211 80.423 25.6058C80.001 25.8956 80.2501 25.7431 80.6772 25.4736C81.084 25.1889 81.6229 24.7414 81.8568 24.5584C82.0856 24.3703 82.0704 24.4872 81.2721 25.2601C81.0229 25.4634 80.784 25.677 80.5043 25.86L80.2959 26.0024L80.0365 26.1397C79.9501 26.1804 79.8637 26.2312 79.7721 26.2617L79.4772 26.338C79.5942 26.3126 79.7111 26.2922 79.823 26.2617L80.1382 26.1244C80.367 26.0278 80.4992 25.921 80.6772 25.8194C81.2111 25.4278 81.6788 24.9957 82.1212 24.5431C82.0602 24.6347 82.0704 24.6652 81.9382 24.8279C81.7907 24.9855 81.5314 25.2906 80.7789 25.8549C81.506 25.3414 82.111 24.7567 82.711 24.1618C84.6736 22.2856 85.5533 21.2636 86.0261 20.8772C86.4786 20.4806 86.4685 20.6789 86.3566 21.0246C86.7837 20.4552 86.7227 20.4247 87.0176 19.9416C87.1651 19.7027 87.404 19.3467 87.826 18.7417C87.8565 18.6959 87.8871 18.6553 87.9176 18.6095C87.9633 18.5434 88.0193 18.4671 88.0548 18.3858C88.1006 18.2841 88.1515 18.1722 88.2074 18.0604C88.2989 17.8621 88.4057 17.6383 88.5175 17.3994C88.7463 16.9163 89.0107 16.3418 89.3311 15.6655L89.0819 16.413C89.5141 15.4062 89.9361 14.4046 90.3225 13.3317C90.4547 12.9555 90.4141 13.0521 90.4293 12.9707C90.4293 12.9148 90.4802 12.8843 90.5259 12.8792C90.5768 12.8741 90.6276 12.8792 90.6785 12.8945L90.7191 12.9097L90.8005 12.9555C90.8005 12.9555 90.8259 12.9758 90.8412 12.986H90.8513C90.8513 12.986 90.8717 13.0063 90.8869 13.0165C90.9225 13.0724 90.9327 13.1385 90.9073 13.1894L90.8869 13.2351L90.8158 13.4131C90.7649 13.5453 90.7141 13.6826 90.648 13.83C90.5259 14.1148 90.3887 14.4097 90.2463 14.7046C89.3819 16.7943 88.7565 18.1621 87.6684 20.2569L87.4956 20.9738C87.2413 21.4619 86.9871 21.95 86.7125 22.4737L88.126 23.3534C89.6463 21.3145 91.3344 19.1891 93.1495 17.1197C94.0648 16.0926 95.0156 15.0757 96.0223 14.1453C97.0189 13.2453 98.1578 12.2996 99.1391 12.2437C99.6577 12.2233 100.227 12.3962 100.598 12.7114C100.985 13.0267 101.107 13.3978 101.015 13.8351C100.975 14.0182 100.817 14.3792 100.68 14.6791L100.237 15.6147C99.9272 16.2401 99.612 16.8655 99.3069 17.4858C98.6815 18.7315 98.0612 19.9671 97.507 21.2229C97.2324 21.8534 96.9731 22.489 96.7494 23.15C96.6375 23.4957 96.546 23.7906 96.4647 24.2177C96.363 24.7211 96.3477 25.2702 96.485 25.7278C96.6274 26.1244 96.9934 26.5922 97.5833 26.6939C97.868 26.7498 98.1883 26.7397 98.5239 26.6685C98.6866 26.6075 98.8646 26.5973 99.0222 26.4956C99.1849 26.4092 99.3476 26.3176 99.5154 26.2312C99.9933 25.9007 100.42 25.555 100.853 25.1635C101.29 24.777 101.722 24.3448 102.175 23.8923C103.944 22.0619 105.876 19.7637 107.513 17.1451C106.979 17.8519 106.43 18.5383 105.856 19.1993C104.819 20.4806 103.425 22.1687 101.631 23.9686C101.183 24.416 100.7 24.8685 100.176 25.3109C100.044 25.4177 99.9069 25.5295 99.7696 25.6363C99.6171 25.7431 99.4696 25.8499 99.3171 25.9566C98.9307 26.1854 98.5137 26.3837 98.0663 26.3787C97.9595 26.3787 97.8476 26.3634 97.7409 26.3532C97.6341 26.338 97.5324 26.2922 97.4307 26.2617C97.2426 26.1549 97.0646 26.0075 96.9782 25.799C96.7748 25.4126 96.7901 24.9245 96.8562 24.4618C96.8918 24.2126 96.9375 24.0347 96.9833 23.8516C97.0341 23.6686 97.085 23.4856 97.1409 23.3025C97.2578 22.9415 97.385 22.5856 97.5273 22.2398C98.0866 20.8365 98.7629 19.4739 99.4442 18.1112L100.466 16.0723L100.959 15.0554C101.112 14.7249 101.29 14.3639 101.376 14.0588C101.595 13.4589 101.376 12.8436 100.914 12.4369C100.451 12.0199 99.7798 11.8166 99.1544 11.8267C98.8391 11.8471 98.5391 11.8776 98.2493 12.0352C98.1019 12.1013 97.9544 12.1521 97.8121 12.2335L97.39 12.4979C97.1053 12.6606 96.8511 12.8843 96.5867 13.0775C96.3223 13.2707 96.0782 13.4945 95.8342 13.708L96.0732 13.3623C96.2714 13.169 96.4799 13.0216 96.6782 12.8538C96.8765 12.6911 97.0697 12.5284 97.2731 12.4013C97.4765 12.2742 97.6697 12.1115 97.8832 12.0149C98.1019 11.9233 98.3103 11.7911 98.5391 11.7301C98.9917 11.603 99.5052 11.5979 100.029 11.7352C100.532 11.8928 101.086 12.1826 101.402 12.7267C101.57 12.8792 101.692 13.0724 101.798 13.2962C101.788 12.8233 101.498 12.203 100.909 11.8064C100.339 11.3945 99.5205 11.1708 98.6561 11.2979C97.8019 11.4911 97.0087 11.9843 96.3019 12.5691C95.5698 13.1385 94.8935 13.8148 94.2122 14.5012C91.5428 17.3079 89.1429 20.6077 87.5006 22.8958L87.4244 22.8449C87.9227 21.8433 88.3345 21.0246 88.6294 20.4653C90.5107 16.8706 89.9971 18.096 89.2345 19.7891C88.4667 21.4823 87.3989 23.6178 88.2837 21.889C88.0701 22.3365 87.8871 22.7178 87.7498 23.0076L87.2108 22.672C88.3955 20.9738 88.0701 21.284 87.043 22.55L87.9379 23.1042C88.548 22.0517 89.448 20.3992 90.3581 18.6502C90.8158 17.7756 91.2683 16.8757 91.6852 16.0011C91.8937 15.5689 92.092 15.1368 92.275 14.7147C92.3614 14.5012 92.4581 14.3029 92.5343 14.0792C92.575 13.9724 92.6157 13.8605 92.6513 13.7588C92.6919 13.5961 92.7275 13.4385 92.7682 13.286C92.8699 12.6555 92.5648 12.0911 92.2038 11.725C92.1225 11.6335 91.9852 11.5318 91.9191 11.4708C91.8327 11.4098 91.7564 11.3589 91.6699 11.2979C91.4767 11.181 91.2734 11.0895 91.0903 11.0285C90.4497 10.7946 89.6616 10.7742 89.1175 11.2623C88.8684 11.4759 88.726 11.8267 88.6091 12.2284L88.5582 12.3809L88.5277 12.4572L88.4667 12.6097C88.426 12.7114 88.3803 12.8131 88.3396 12.9199C87.9786 13.7588 87.5515 14.6639 87.099 15.6147C86.8702 16.0926 86.6312 16.5808 86.3922 17.079L86.2244 17.4197L86.0668 17.6333C85.899 17.857 85.7312 18.0807 85.5583 18.3044C84.8618 19.2095 84.1143 20.1298 83.3161 21.0501C82.5229 21.9653 81.6788 22.8907 80.7789 23.7194C80.5552 23.9127 80.3264 24.1262 80.0976 24.294C79.9857 24.3855 79.8688 24.477 79.762 24.5381C79.6603 24.6042 79.5078 24.7109 79.5078 24.7008C79.4111 24.7516 79.4315 24.7364 79.3959 24.7364C79.3705 24.7364 79.3552 24.716 79.3451 24.6906C79.34 24.6499 79.3298 24.7109 79.3349 24.3906C79.3552 24.1364 79.3857 23.8669 79.4518 23.5822C79.5738 23.0229 79.7823 22.4178 80.0162 21.8788C80.2755 21.3195 80.6009 20.6687 80.8907 20.084C81.0382 19.7891 81.1907 19.4993 81.3433 19.2349C81.4195 19.1027 81.4958 18.9756 81.5772 18.8485L81.6992 18.6603L81.9026 18.3756C82.3195 17.8417 82.3551 17.1096 82.111 16.4892C82.0551 16.3316 81.9788 16.1791 81.8975 16.0367C81.8314 15.9198 81.7704 15.8232 81.6992 15.7266C81.5619 15.5334 81.4195 15.3605 81.2721 15.1978L80.5806 17.0892C81.0128 17.0231 81.2162 16.9163 81.4551 16.8096C81.6839 16.7028 81.8771 16.5909 82.0754 16.4689C82.4568 16.2299 82.8076 15.9655 83.1381 15.6655C83.4686 15.3656 83.7838 15.03 84.0635 14.608C84.1245 14.5164 84.2262 14.3537 84.2974 14.1961C84.3889 14.0385 84.4143 13.8656 84.4499 13.6927C84.4652 13.6063 84.4906 13.5199 84.5008 13.4334L84.4906 13.169L84.4652 12.9046C84.4499 12.8182 84.4143 12.7369 84.3889 12.6504C84.1906 11.9437 83.8601 11.6081 83.5398 11.2471C83.2144 10.8963 82.8635 10.6369 82.5076 10.3878C81.7907 9.90986 81.0229 9.56919 80.1942 9.36581C79.9857 9.32005 79.7772 9.26412 79.5535 9.24887C79.3349 9.21836 79.1162 9.19802 78.8824 9.20819C78.6586 9.19802 78.4197 9.22853 78.1807 9.26412L78.0027 9.28955L77.8655 9.32005L77.5909 9.38615C76.8638 9.57428 76.157 9.82342 75.4961 10.1285C74.1741 10.7386 73.0555 11.542 72.0843 12.3555C70.8895 13.4233 69.7861 14.5825 68.7845 15.9147C68.2862 16.5757 67.8235 17.2672 67.4015 17.9892C67.1879 18.3502 66.9846 18.7163 66.7913 19.0925L66.5066 19.662L66.3693 19.9518L66.2931 20.1247C66.2931 20.1247 66.2778 20.1399 66.2727 20.1501L66.1914 20.2467L65.9982 20.4755L65.6066 20.928C65.3423 21.228 65.0728 21.5178 64.7931 21.8077C64.2389 22.3822 63.6644 22.9364 63.0542 23.4347C62.4441 23.933 61.8136 24.3753 61.1424 24.6957C60.4204 25.0414 59.673 25.3363 58.9408 25.5143L59.6984 27.1159C60.8475 26.2109 61.7526 25.138 62.5763 24.0194C63.3949 22.8958 64.1118 21.706 64.7423 20.4653C65.3677 19.2247 65.9219 17.9383 66.3083 16.5503C66.5015 15.8537 66.6541 15.1368 66.6897 14.3385C66.6947 14.1402 66.6744 13.9216 66.6642 13.7131C66.6642 13.525 66.5981 13.2301 66.5269 13.0368C66.3846 12.6097 66.1965 12.2386 65.9677 11.903C65.51 11.2318 64.9406 10.6369 64.1626 10.2302C63.7864 10.0217 63.344 9.87427 62.8813 9.81834C62.4136 9.74715 61.9305 9.82851 61.5136 9.94037C60.6238 10.2048 60.0289 10.703 59.4544 11.1607C58.89 11.6335 58.4019 12.1471 57.9341 12.6606C56.9985 13.6978 56.1698 14.7808 55.3817 15.8791C54.5986 16.9824 53.8563 18.0909 53.1648 19.2501L54.919 20.1908C56.0071 17.979 57.0799 15.8028 58.1273 13.6673C58.3866 13.1284 58.6408 12.5945 58.9002 12.0606L59.2764 11.2573L59.5103 10.7437C59.6171 10.4946 59.6679 10.2505 59.7544 10.0014C59.8306 9.50818 59.6628 8.98956 59.3273 8.62347C59.0018 8.24722 58.5188 8.00316 58.0104 7.86079C57.4358 7.73368 57.2273 7.72351 56.6782 7.76927C56.1494 7.84045 55.6664 8.04384 55.2647 8.35399C55.1834 8.5167 55.1325 8.64381 55.0715 8.78109C55.0105 8.92346 54.9444 9.07091 54.8834 9.21328C54.8122 9.40649 54.8173 9.42174 54.7868 9.49801L54.7105 9.71156L54.5376 10.1539C54.4054 10.4539 54.2783 10.759 54.1512 11.0539C53.8817 11.6539 53.6021 12.2538 53.3275 12.8487C52.7631 14.0385 52.2089 15.2079 51.675 16.3469L52.1631 15.8435C52.0157 15.9299 51.8784 16.0316 51.7564 16.1384L51.675 16.2096L51.5937 16.3469C51.4411 16.596 51.2581 16.8655 51.0751 17.1299C50.2412 18.3044 49.2599 19.5806 48.1972 20.867C47.6633 21.5077 47.1091 22.1585 46.5244 22.7839C45.9397 23.4042 45.3245 24.0296 44.694 24.5177C44.5364 24.6397 44.3838 24.7465 44.2364 24.833C44.1703 24.8736 44.1499 24.8889 44.094 24.9041C44.0025 24.9346 43.8906 24.8889 43.855 24.7923C43.8347 24.7516 43.8245 24.6957 43.8144 24.6143C43.8093 24.4567 43.8144 24.2686 43.8296 24.0804C43.8703 23.6991 43.9567 23.2923 44.0686 22.8958C44.1855 22.4941 44.333 22.0924 44.4855 21.7212C44.6736 21.3145 44.8669 20.9128 45.055 20.5111C45.2482 20.1094 45.4414 19.7077 45.6346 19.3366C45.7312 19.1485 45.8329 18.9705 45.9346 18.8027L46.0922 18.5485C46.1482 18.462 46.1888 18.4061 46.3159 18.2282C46.6973 17.7553 46.7125 17.1045 46.4837 16.5706C46.4329 16.4333 46.3668 16.3011 46.2956 16.1791C46.2397 16.0774 46.1787 15.9859 46.1126 15.8944C45.9854 15.7164 45.8533 15.5537 45.716 15.4062L45.2126 16.7791C45.6905 16.6977 45.9397 16.5503 46.2244 16.413C46.4939 16.2706 46.7329 16.113 46.9668 15.9452C47.4295 15.6096 47.8464 15.2384 48.2176 14.791C48.3955 14.5571 48.5735 14.3436 48.7463 13.947C48.8023 13.7639 48.843 13.5656 48.8684 13.3775C48.8531 13.1843 48.8684 12.986 48.8023 12.803C48.7006 12.4064 48.548 12.1369 48.3803 11.8928C48.2938 11.781 48.2125 11.6589 48.1209 11.5572L47.8464 11.2674C47.104 10.5505 46.3058 10.098 45.5177 9.76749C44.7296 9.44717 43.9262 9.26921 43.133 9.29463L42.7313 9.35056C42.6042 9.3709 42.5127 9.39632 42.4009 9.42174C42.1873 9.47259 41.9788 9.52852 41.7653 9.58953C41.3433 9.71156 40.9263 9.8641 40.5196 10.0268C39.7061 10.3675 38.9434 10.7946 38.2265 11.2725C36.7926 12.2335 35.5672 13.3978 34.4385 14.6232C33.3046 15.8842 32.3182 17.257 31.4945 18.7315C30.681 20.2162 29.9793 21.7619 29.6539 23.572L29.6438 23.094C29.5167 23.7093 29.42 24.355 29.5014 25.1329C29.5116 25.3109 29.5675 25.555 29.6387 25.7787C29.715 25.9871 29.8014 26.2007 29.9082 26.3736C30.1115 26.7397 30.3607 27.0295 30.6149 27.2939C31.1335 27.8176 31.7183 28.1887 32.3792 28.4786C32.7097 28.6209 33.0657 28.7328 33.4572 28.804C33.8487 28.8701 34.3012 28.8904 34.8147 28.7633C34.9469 28.7226 35.0842 28.6769 35.2113 28.626C35.3334 28.565 35.3995 28.5243 35.4757 28.4837C35.6333 28.3972 35.7859 28.3057 35.913 28.2142C36.1977 28.0311 36.4367 27.8379 36.6858 27.6447C37.1638 27.2532 37.6011 26.8464 38.0282 26.4295C38.2366 26.221 38.4502 26.0126 38.6485 25.7939L38.9535 25.4736L39.0756 25.3414L39.0857 25.316C39.0857 25.3109 39.1264 25.2448 39.1162 25.2651C39.1162 25.2702 39.1162 25.2855 39.1162 25.3058V25.3312L39.1823 25.5702C39.2078 25.6719 39.2434 25.7787 39.2891 25.8905C39.3298 26.0024 39.3705 26.1092 39.4417 26.2312C39.5078 26.3481 39.5739 26.4702 39.6705 26.582C39.7569 26.6888 39.8738 26.8261 39.9247 26.8668C40.0467 26.9837 40.1738 27.1007 40.306 27.2176C40.5704 27.4464 40.8552 27.66 41.1602 27.8532C41.7704 28.2345 42.4924 28.5548 43.3008 28.6464C44.0991 28.748 44.9482 28.6057 45.6499 28.2803C46.3617 27.9599 46.9312 27.5074 47.4091 27.0752C47.8921 26.638 48.3243 26.1854 48.7413 25.7278C49.57 24.8075 50.3175 23.8618 51.0395 22.9008L49.148 21.7975C48.3396 23.7449 47.5922 25.6617 46.8498 27.5684C46.1075 29.4751 45.3702 31.3666 44.6838 33.2733C44.3431 34.2292 44.0127 35.18 43.733 36.1918L43.6364 36.5884C43.6059 36.7613 43.5754 36.9545 43.5652 37.1426C43.5601 37.529 43.6211 37.9358 43.7889 38.2968C43.9516 38.6578 44.1855 38.9781 44.4652 39.2171C44.7499 39.4612 45.0041 39.6493 45.4465 39.8018C46.2549 40.1272 47.1854 40.051 47.7701 39.5476L48.1972 38.4392L48.3904 37.6511C48.6192 36.7409 48.8735 35.841 49.1429 34.9563C49.7785 32.8919 50.3734 31.2649 50.9022 29.9175C51.1666 29.2412 51.4157 28.6413 51.6547 28.0871C51.7106 27.9599 51.7615 27.8379 51.8174 27.7159C51.8327 27.6752 51.853 27.6294 51.8682 27.5888C51.9038 27.5125 51.9343 27.4108 51.9801 27.3549C52.092 27.4108 52.1987 27.4617 52.3004 27.5176C52.4631 27.5888 52.6309 27.66 52.7885 27.7311C52.9614 27.8023 53.1343 27.8684 53.3072 27.9396C54.0037 28.1989 54.7054 28.4176 55.4834 28.6108C57.5782 28.9819 59.8662 28.7887 61.9356 27.9345C62.4492 27.7159 62.9525 27.4973 63.4559 27.1973C63.9491 26.9024 64.4067 26.577 64.8389 26.2363L65.0474 26.0685L65.1033 26.0227L65.2101 25.9261L65.3168 25.8244L65.3423 25.799V25.8346L65.3321 25.9058C65.3321 25.9516 65.3321 26.0024 65.3372 26.0482C65.3423 26.0736 65.3473 26.0939 65.3575 26.1193C65.3778 26.1549 65.3473 26.1193 65.4745 26.3278C65.8456 26.938 66.3236 27.3752 66.8371 27.7362C67.3557 28.0871 67.9252 28.3616 68.5811 28.5192C68.9065 28.6006 69.2726 28.6362 69.6743 28.6006L69.9844 28.5548C70.0912 28.5294 70.2031 28.4887 70.3149 28.4481C70.5641 28.3565 70.6454 28.2752 70.7929 28.1989C71.825 27.5532 72.5979 26.8058 73.3656 26.038C73.5538 25.8448 73.7419 25.6516 73.9249 25.4533L74.1944 25.1584L74.2605 25.0821L74.5097 24.7719C74.591 24.6652 74.6774 24.5482 74.7639 24.4262L74.891 24.2381C74.9266 24.1771 74.891 24.2533 74.8808 24.2686L74.8452 24.355C74.7842 24.5279 74.7486 24.7262 74.7435 24.9346C74.7435 25.0262 74.7435 25.1177 74.7639 25.2143L74.7842 25.3109L74.8656 25.616L74.9876 25.9363C75.0384 26.0431 75.1045 26.16 75.1706 26.2668C75.252 26.3736 75.3384 26.4803 75.4249 26.577L75.6232 26.7651C75.7554 26.882 75.8876 27.0041 76.0299 27.1159C76.3096 27.3447 76.6147 27.543 76.935 27.7311C77.5807 28.0871 78.3434 28.3464 79.1417 28.3362C79.9399 28.3464 80.7128 28.082 81.3382 27.7006C81.6585 27.5074 81.9432 27.299 82.1975 27.0803C82.3246 26.9735 82.4568 26.8566 82.5686 26.7549L82.6907 26.6329C82.8483 26.4702 83.0059 26.2973 83.1635 26.1143L83.3923 25.8346L83.4483 25.7634L83.4635 25.7431L83.4534 25.7634L83.4381 25.799L83.372 25.9516L83.2347 26.2617C83.194 26.3634 83.1229 26.4702 83.1483 26.5871C83.1584 26.6329 83.1737 26.6786 83.2042 26.7193L83.2245 26.7498C83.2245 26.7498 83.2296 26.76 83.2703 26.8058L83.4584 26.9939C83.7177 27.2176 83.9974 27.3854 84.277 27.5023C84.8414 27.7362 85.4312 27.8532 86.0668 27.7718C86.0465 27.7464 86.199 27.721 86.382 27.6498C86.4685 27.6091 86.6007 27.5684 86.6871 27.5176C86.7685 27.4617 86.8447 27.4108 86.9057 27.3701C87.0023 27.2939 86.9922 27.2837 86.738 27.3956C86.4634 27.5125 85.9651 27.66 85.1668 27.5278C84.7499 27.4667 84.3482 27.3244 83.9669 27.1007C83.7788 26.9837 83.5906 26.8413 83.4279 26.6634C83.3313 26.5515 83.2957 26.4854 83.2703 26.3787C83.2347 26.2566 83.2906 26.1346 83.3415 26.0278L83.4889 25.6922L83.6364 25.3567L83.7127 25.1889C83.7127 25.1889 83.7533 25.1075 83.7381 25.1279L83.6822 25.199C83.372 25.5702 83.0618 25.921 82.7263 26.2515L82.467 26.4905L82.289 26.6481L82.0449 26.8515C81.7195 27.121 81.3585 27.36 80.9772 27.5583C80.5958 27.7566 80.184 27.8786 79.7772 27.9498C79.3654 28.0006 78.9586 27.9955 78.5824 27.9244C77.8299 27.7718 77.2197 27.4362 76.7469 27.0854C76.5079 26.9074 76.2994 26.7295 76.1164 26.5515C75.9384 26.3736 75.7757 26.216 75.6181 25.9871C75.3791 25.5499 75.3486 25.1431 75.3486 24.9906C75.3486 24.7974 75.3639 24.6601 75.3893 24.6143C75.3995 24.8279 75.4147 25.0109 75.4706 25.2397C75.5215 25.4838 75.6181 25.7278 75.7706 25.9516C76.1113 26.3583 76.4672 26.6431 76.8689 26.9329C76.635 26.76 76.4113 26.5719 76.2079 26.3685C76.1011 26.2668 76.0045 26.1702 75.9028 26.0532C75.8011 25.9312 75.7198 25.799 75.6588 25.6567C75.4401 25.0618 75.4503 24.5889 75.4859 24.0093C75.5266 23.4551 75.6435 22.8754 75.8113 22.2856C75.8571 22.1076 75.913 21.9449 75.9689 21.7772L76.0808 21.4924L76.1418 21.3551L76.1723 21.289L76.1876 21.2534C76.0554 21.4517 75.9282 21.645 75.791 21.8331C75.5266 22.2144 75.252 22.5754 74.9876 22.9263C74.8961 23.0229 74.8097 23.1093 74.7791 23.1296C74.4232 23.5008 74.2402 23.6483 74.2046 23.6432C73.4877 24.4516 72.8063 25.138 72.0945 25.7889C71.7386 26.1092 71.3725 26.4193 70.9912 26.699C70.62 26.9735 70.2031 27.2481 69.8166 27.3854C69.4302 27.5023 68.9675 27.3956 68.5557 27.2481C68.1387 27.0905 67.7472 26.8566 67.4015 26.577C67.0557 26.2973 66.7558 25.9566 66.5625 25.5855C66.5168 25.4736 66.471 25.2956 66.4405 25.138C66.4405 24.9346 66.4202 24.7567 66.4405 24.5279C66.4659 24.0855 66.5219 23.5872 66.588 23.089C66.4863 23.0585 66.4456 22.9771 66.4253 22.8805C66.4253 22.8805 66.4253 22.8652 66.4202 22.8652L66.3897 22.8958L66.3236 22.9568L66.1914 23.0839L65.9219 23.3432C65.5558 23.6889 65.1745 24.0499 64.7779 24.3957C64.5796 24.5686 64.3762 24.7364 64.1677 24.9041C63.9847 25.0516 63.8576 25.1431 63.6949 25.2601C63.3847 25.4787 63.0644 25.6922 62.739 25.8804C61.3763 26.6939 59.7086 27.304 57.8273 27.36C56.8867 27.3956 55.9003 27.304 54.8885 27.0549C54.3851 26.9227 53.8716 26.7702 53.3682 26.5617C52.9614 26.4142 52.1072 25.9821 51.3903 25.555C51.2225 25.8244 51.07 26.1804 50.9022 26.5007C50.7547 26.8007 50.6073 27.1057 50.4598 27.4159C50.2259 27.9091 49.987 28.4226 49.7531 28.9463L49.7633 28.9514Z" fill="white"/>
</g>
<defs>
<clipPath id="clip0_755_10534">
<rect width="107.873" height="40" fill="white"/>
</clipPath>
</defs>
</svg>
