<svg width="20" height="20" viewBox="0 0 20 20" fill="none" xmlns="http://www.w3.org/2000/svg">
<mask id="mask0_4006_69" style="mask-type:alpha" maskUnits="userSpaceOnUse" x="0" y="0" width="20" height="20">
<rect width="20" height="20" fill="#D9D9D9"/>
</mask>
<g mask="url(#mask0_4006_69)">
<path d="M16.3018 2H3.51953C2.90723 2 2.41211 2.4834 2.41211 3.08105V15.916C2.41211 16.5137 2.90723 17 3.51953 17H16.3018C16.9141 17 17.4121 16.5137 17.4121 15.9189V3.08105C17.4121 2.4834 16.9141 2 16.3018 2ZM6.8623 14.7822H4.63574V7.62207H6.8623V14.7822ZM5.74902 6.64648C5.03418 6.64648 4.45703 6.06934 4.45703 5.35742C4.45703 4.64551 5.03418 4.06836 5.74902 4.06836C6.46094 4.06836 7.03809 4.64551 7.03809 5.35742C7.03809 6.06641 6.46094 6.64648 5.74902 6.64648ZM15.1943 14.7822H12.9707V11.3018C12.9707 10.4727 12.9561 9.40332 11.8135 9.40332C10.6562 9.40332 10.4805 10.3086 10.4805 11.2432V14.7822H8.25977V7.62207H10.3926V8.60059H10.4219C10.7178 8.03809 11.4443 7.44336 12.5254 7.44336C14.7783 7.44336 15.1943 8.92578 15.1943 10.8535V14.7822Z" fill="#001A77"/>
</g>
</svg>
