<svg width="57" height="128" viewBox="0 0 57 128" fill="none" xmlns="http://www.w3.org/2000/svg">
<g clip-path="url(#clip0_675_3779)">
<path d="M57 64C34.7401 88.9936 22.2599 103.006 -1.78036e-06 128L3.8147e-06 -2.49155e-06L57 64Z" fill="#8BB8F8"/>
<mask id="mask0_675_3779" style="mask-type:alpha" maskUnits="userSpaceOnUse" x="10" y="52" width="24" height="24">
<rect x="10" y="52" width="24" height="24" fill="#D9D9D9"/>
</mask>
<g mask="url(#mask0_675_3779)">
<path d="M16 60H25V58C25 57.1667 24.7083 56.4583 24.125 55.875C23.5417 55.2917 22.8333 55 22 55C21.1667 55 20.4583 55.2917 19.875 55.875C19.2917 56.4583 19 57.1667 19 58H17C17 56.6167 17.4875 55.4375 18.4625 54.4625C19.4375 53.4875 20.6167 53 22 53C23.3833 53 24.5625 53.4875 25.5375 54.4625C26.5125 55.4375 27 56.6167 27 58V60H28C28.55 60 29.0208 60.1958 29.4125 60.5875C29.8042 60.9792 30 61.45 30 62V72C30 72.55 29.8042 73.0208 29.4125 73.4125C29.0208 73.8042 28.55 74 28 74H16C15.45 74 14.9792 73.8042 14.5875 73.4125C14.1958 73.0208 14 72.55 14 72V62C14 61.45 14.1958 60.9792 14.5875 60.5875C14.9792 60.1958 15.45 60 16 60ZM23.4125 68.4125C23.8042 68.0208 24 67.55 24 67C24 66.45 23.8042 65.9792 23.4125 65.5875C23.0208 65.1958 22.55 65 22 65C21.45 65 20.9792 65.1958 20.5875 65.5875C20.1958 65.9792 20 66.45 20 67C20 67.55 20.1958 68.0208 20.5875 68.4125C20.9792 68.8042 21.45 69 22 69C22.55 69 23.0208 68.8042 23.4125 68.4125Z" fill="white"/>
</g>
</g>
<defs>
<clipPath id="clip0_675_3779">
<rect width="57" height="128" fill="white"/>
</clipPath>
</defs>
</svg>
