<svg width="128" height="57" viewBox="0 0 128 57" fill="none" xmlns="http://www.w3.org/2000/svg">
<g clip-path="url(#clip0_514_13571)">
<path d="M64 57C39.0064 34.7401 24.9936 22.2599 4.9831e-06 -7.37542e-06L128 3.8147e-06L64 57Z" fill="#8BB8F8"/>
<mask id="mask0_514_13571" style="mask-type:alpha" maskUnits="userSpaceOnUse" x="52" y="11" width="24" height="24">
<rect x="52" y="11" width="24" height="24" fill="#D9D9D9"/>
</mask>
<g mask="url(#mask0_514_13571)">
<path d="M58 19H67V17C67 16.1667 66.7083 15.4583 66.125 14.875C65.5417 14.2917 64.8333 14 64 14C63.1667 14 62.4583 14.2917 61.875 14.875C61.2917 15.4583 61 16.1667 61 17H59C59 15.6167 59.4875 14.4375 60.4625 13.4625C61.4375 12.4875 62.6167 12 64 12C65.3833 12 66.5625 12.4875 67.5375 13.4625C68.5125 14.4375 69 15.6167 69 17V19H70C70.55 19 71.0208 19.1958 71.4125 19.5875C71.8042 19.9792 72 20.45 72 21V31C72 31.55 71.8042 32.0208 71.4125 32.4125C71.0208 32.8042 70.55 33 70 33H58C57.45 33 56.9792 32.8042 56.5875 32.4125C56.1958 32.0208 56 31.55 56 31V21C56 20.45 56.1958 19.9792 56.5875 19.5875C56.9792 19.1958 57.45 19 58 19ZM65.4125 27.4125C65.8042 27.0208 66 26.55 66 26C66 25.45 65.8042 24.9792 65.4125 24.5875C65.0208 24.1958 64.55 24 64 24C63.45 24 62.9792 24.1958 62.5875 24.5875C62.1958 24.9792 62 25.45 62 26C62 26.55 62.1958 27.0208 62.5875 27.4125C62.9792 27.8042 63.45 28 64 28C64.55 28 65.0208 27.8042 65.4125 27.4125Z" fill="white"/>
</g>
</g>
<defs>
<clipPath id="clip0_514_13571">
<rect width="128" height="57" fill="white"/>
</clipPath>
</defs>
</svg>
