<svg preserveAspectRatio="none" width="100%" height="100%" overflow="visible" style="display: block;" viewBox="0 0 228.318 56" fill="none" xmlns="http://www.w3.org/2000/svg">
<g id="Layer_1" clip-path="url(#clip0_596_2138)">
<path id="Vector" d="M46.1539 26.3942V0.580969H57.8033C60.5123 0.580969 63.3375 0.890369 65.6979 3.25077C67.0139 4.56677 68.1367 6.54077 68.1367 9.59837C68.1367 11.8818 67.4395 13.314 66.7045 14.2044C65.9303 15.1718 64.6535 15.946 63.1443 16.2554V16.4878C63.6469 16.7594 64.1509 17.1458 64.4995 17.6876L70.3053 26.3956H59.5071L55.7915 18.8482C55.6753 18.578 55.5591 18.4618 55.4429 18.0362L55.2875 18.1132V26.3956H46.1539V26.3942ZM55.2875 12.075H56.3711C56.9129 12.075 57.7641 11.998 58.3451 11.494C58.6545 11.2224 59.0031 10.7198 59.0031 9.90777C59.0031 9.32677 58.8477 8.74717 58.5005 8.35937C58.1911 8.01077 57.6885 7.66217 56.9143 7.66217H55.2889V12.0736L55.2875 12.075Z" fill="white"/>
<path id="Vector_2" d="M72.8952 26.3942V0.580969H90.3112V7.66357H82.2612V10.0632H89.5762V16.8364H82.2612V19.313H90.5436V26.3956H72.8952V26.3942Z" fill="white"/>
<path id="Vector_3" d="M112.409 25.9294C109.97 26.8576 107.107 26.9738 105.907 26.9738C102.54 26.9738 98.9408 25.774 96.3872 23.2204C93.9484 20.8208 92.6338 17.3376 92.6338 13.7004C92.6338 9.7146 94.143 6.3084 96.5034 3.9088C98.322 2.0902 101.419 0 106.256 0C108.191 0 110.358 0.3094 112.409 1.0066L112.68 10.836C111.597 9.7524 109.584 8.2824 107.223 8.2824C105.753 8.2824 104.398 8.8634 103.47 9.8686C102.579 10.836 102.115 12.1912 102.115 13.545C102.115 14.8988 102.617 16.2932 103.624 17.2606C104.398 17.9956 105.598 18.7306 107.456 18.7306C110.088 18.7306 111.906 17.1444 112.68 16.2918L112.409 25.928V25.9294Z" fill="white"/>
<path id="Vector_4" d="M115.892 26.3942V0.580969H125.258V18.074H133.153V26.3942H115.892Z" fill="white"/>
<path id="Vector_5" d="M145.072 23.1826L144.375 26.3942H134.467L143.408 0.580969H153.779L162.99 26.3942H153.044L152.193 23.1826H145.072ZM148.865 9.21057H148.516C148.477 10.2942 148.323 11.1846 148.091 12.1128L146.814 17.066H150.567L149.368 12.1128C149.135 11.1062 148.981 10.1388 148.865 9.21057Z" fill="white"/>
<path id="Vector_6" d="M164.81 26.3942V0.580969H174.176V26.3942H164.81Z" fill="white"/>
<path id="Vector_7" d="M177.541 26.3942L181.72 0.580969H191.356L194.375 11.1468C194.761 12.502 194.917 13.7788 194.956 14.1274H195.188C195.227 13.0046 195.381 12.2304 195.691 11.1468L198.709 0.580969H208.268L212.487 26.3942H203.469L202.309 14.8232C202.232 13.9328 202.153 13.3532 202.153 12.2696H201.998C201.882 12.9276 201.649 13.9342 201.495 14.4368L197.663 26.3956H192.168L188.724 15.0948C188.453 14.1666 188.26 13.3532 188.222 12.2696H187.95C187.95 12.7722 187.95 13.7788 187.911 14.2814L186.634 26.3942H177.54H177.541Z" fill="white"/>
<path id="Vector_8" d="M46.1539 55.419V29.6058H57.8033C60.5123 29.6058 63.3375 29.9152 65.6979 32.2756C67.0139 33.5916 68.1367 35.5656 68.1367 38.6232C68.1367 40.9066 67.4395 42.3388 66.7045 43.2292C65.9303 44.1966 64.6535 44.9708 63.1443 45.2802V45.5126C63.6469 45.7842 64.1509 46.1706 64.4995 46.7124L70.3053 55.4204H59.5071L55.7915 47.873C55.6753 47.6028 55.5591 47.4866 55.4429 47.061L55.2875 47.138V55.4204H46.1539V55.419ZM55.2875 41.0998H56.3711C56.9129 41.0998 57.7641 41.0228 58.3451 40.5188C58.6545 40.2472 59.0031 39.7446 59.0031 38.9326C59.0031 38.3516 58.8477 37.772 58.5005 37.3842C58.1911 37.0356 57.6885 36.687 56.9143 36.687H55.2889V41.0984L55.2875 41.0998Z" fill="white"/>
<path id="Vector_9" d="M72.8952 55.419V29.6058H90.3112V36.6884H82.2612V39.088H89.5762V45.8612H82.2612V48.3378H90.5436V55.4204H72.8952V55.419Z" fill="white"/>
<path id="Vector_10" d="M91.2003 29.6058H100.915L103.74 41.8348C103.933 42.7252 104.166 43.4994 104.166 45.0086H104.398C104.475 43.3832 104.708 42.028 105.056 40.6742L107.881 29.6058H115.08L118.061 41.3714C118.293 42.2996 118.526 44.0034 118.603 45.0086H118.796C118.835 43.344 119.067 42.2226 119.377 40.8674L122.047 29.6058H131.799L122.705 55.419H114.538L112.1 44.8924C111.867 43.848 111.674 42.6482 111.597 41.37H111.288C111.248 42.2212 111.094 44.079 110.901 44.8924L108.231 55.419H100.258L91.2017 29.6058H91.2003Z" fill="white"/>
<path id="Vector_11" d="M136.983 52.2074L136.286 55.419H126.378L135.318 29.6058H145.69L154.9 55.419H144.955L144.103 52.2074H136.983ZM140.776 38.2368H140.427C140.388 39.3204 140.234 40.2108 140.001 41.139L138.725 46.0922H142.478L141.278 41.139C141.046 40.1324 140.892 39.165 140.776 38.2368Z" fill="white"/>
<path id="Vector_12" d="M156.72 55.419V29.6058H168.37C171.079 29.6058 173.904 29.9152 176.264 32.2756C177.58 33.5916 178.703 35.5656 178.703 38.6232C178.703 40.9066 178.006 42.3388 177.271 43.2292C176.497 44.1966 175.22 44.9708 173.711 45.2802V45.5126C174.213 45.7842 174.717 46.1706 175.066 46.7124L180.872 55.4204H170.074L166.358 47.873C166.242 47.6028 166.126 47.4866 166.009 47.061L165.854 47.138V55.4204H156.72V55.419ZM165.854 41.0998H166.938C167.479 41.0998 168.331 41.0228 168.912 40.5188C169.221 40.2472 169.57 39.7446 169.57 38.9326C169.57 38.3516 169.414 37.772 169.067 37.3842C168.758 37.0356 168.255 36.687 167.481 36.687H165.855V41.0984L165.854 41.0998Z" fill="white"/>
<path id="Vector_13" d="M181.915 55.419V29.6058H191.86C194.028 29.6058 199.523 29.799 203.277 33.5146C204.942 35.1792 206.761 38.0814 206.761 42.8414C206.761 45.5112 206.258 48.9566 203.433 51.7818C201.884 53.368 198.866 55.419 194.183 55.419H181.915ZM191.204 47.5244H191.901C192.985 47.5244 194.571 47.4852 195.887 46.3246C196.777 45.5504 197.396 44.2344 197.396 42.609C197.396 40.9836 196.738 39.5514 195.887 38.7394C194.764 37.695 193.294 37.5004 192.21 37.5004H191.204V47.5244Z" fill="white"/>
<path id="Vector_14" d="M224.951 37.849C223.828 37.0748 221.777 35.9142 219.687 35.9142C219.184 35.9142 218.41 35.9912 217.906 36.379C217.557 36.6492 217.441 36.9208 217.441 37.3072C217.441 37.849 217.518 38.3516 218.95 38.6624L221.931 39.3204C224.214 39.823 225.568 40.7526 226.342 41.5268C227.968 43.113 228.316 45.087 228.316 46.6354C228.316 48.8418 227.735 50.8928 225.994 52.7114C224.524 54.2206 221.736 56.0014 216.899 56.0014C212.951 56.0014 210.321 54.8786 208.114 53.9896L207.263 53.641L210.088 46.3652L211.095 47.1394C212.062 47.8744 214.036 49.0364 216.32 49.0364C217.596 49.0364 218.138 48.727 218.331 48.5716C218.757 48.223 218.834 47.7974 218.834 47.411C218.834 47.1786 218.795 46.7922 218.525 46.5206C218.215 46.2112 217.711 46.095 216.744 45.9018L214.46 45.4762C212.99 45.2046 211.403 44.7412 209.971 43.2698C208.655 41.9146 208.113 40.3676 208.113 38.5098C208.113 36.1102 208.926 34.0592 210.629 32.3568C212.603 30.345 215.505 29.029 219.607 29.029C221.658 29.029 224.329 29.3776 227.464 31.2732L224.948 37.8518L224.951 37.849Z" fill="white"/>
<path id="Vector_15" d="M33.0736 14.9352L28.7574 11.3134V9.0174H28.7392V4.2028H31.899C32.2084 4.2028 32.459 3.9522 32.459 3.6428V0.56C32.459 0.2506 32.2084 0 31.899 0H5.019C4.7096 0 4.459 0.2506 4.459 0.56V3.6428C4.459 3.9522 4.7096 4.2028 5.019 4.2028H8.1788V11.2994L3.8444 14.9352C1.6002 16.8182 0.2072 19.5762 0.0224 22.5008L0.0098 22.6912C-0.0112 23.0132 0.245 23.2862 0.5684 23.2862H3.654C3.9466 23.2862 4.1888 23.0608 4.2126 22.7696L4.2252 22.6044C4.3596 20.902 5.1842 19.2962 6.4904 18.2014L12.3816 13.2566V13.2202H24.535V13.2566L30.4262 18.2014C31.8794 19.4208 32.7138 21.2086 32.7138 23.1056V51.7944H4.2028V41.629C4.2028 35.042 9.2918 29.4938 15.7402 28.8078C16.0692 28.7728 16.3562 29.0346 16.3562 29.3664V32.4198C16.3562 32.844 16.8098 33.1142 17.1836 32.9126L27.832 27.1292C28.2226 26.9178 28.2226 26.3564 27.832 26.145L17.1836 20.3616C16.8098 20.1586 16.3562 20.4288 16.3562 20.8544V24.0254C16.3562 24.318 16.1308 24.5616 15.8396 24.5826C11.6956 24.8836 7.8386 26.6686 4.8986 29.6646C1.7402 32.8832 0 37.1336 0 41.6318V55.44C0 55.7494 0.2506 56 0.56 56H36.358C36.6674 56 36.918 55.7494 36.918 55.44V23.1798C36.918 19.9906 35.5166 16.9862 33.0736 14.9366V14.9352ZM20.5884 9.0174V6.6094H16.3856V9.0174H12.3816V4.2028H24.535V9.0174H20.5884Z" fill="white"/>
</g>
<defs>
<clipPath id="clip0_596_2138">
<rect width="228.318" height="56" fill="white"/>
</clipPath>
</defs>
</svg>
