<svg preserveAspectRatio="none" width="100%" height="100%" overflow="visible" style="display: block;" viewBox="0 0 245.126 58.0235" fill="none" xmlns="http://www.w3.org/2000/svg">
<g id="Group">
<path id="Vector" d="M244.959 16.6861C245.528 17.2397 244.552 17.4058 243.477 17.4021C241.307 17.3431 239.105 17.0072 237.002 16.3023C234.888 15.6158 232.926 14.5011 231.174 13.1983C228.617 11.2865 226.444 9.05353 224.097 7.14169C222.925 6.18209 221.71 5.30368 220.416 4.5729C219.123 3.83843 217.755 3.25528 216.329 2.83822C213.483 1.99672 210.412 1.82325 207.422 2.0853C205.929 2.23293 204.455 2.51712 203.032 2.97478C201.609 3.42875 200.245 4.06357 198.956 4.83495C197.444 5.74657 196.033 6.83905 194.665 8.00165C193.298 9.16794 191.956 10.397 190.552 11.578C188.652 13.1651 186.579 14.6414 184.255 15.6416C181.945 16.6787 179.432 17.2065 176.934 17.391C174.432 17.5682 171.904 17.4095 169.435 16.8559C166.967 16.2986 164.613 15.243 162.517 13.8516C160.462 12.4897 158.652 10.8546 156.87 9.26021C155.089 7.6621 153.304 6.10827 151.319 4.87185C150.325 4.26287 149.294 3.71294 148.215 3.28112C147.949 3.1667 147.668 3.08182 147.398 2.97847C147.125 2.87513 146.851 2.77917 146.571 2.70535L145.732 2.46176L144.878 2.27353C142.598 1.78266 140.218 1.70515 137.879 1.87862C134.856 2.0853 131.914 2.9674 129.297 4.47694C126.666 5.9754 124.397 8.0607 122.076 10.1091C120.912 11.1351 119.718 12.1464 118.443 13.0654C117.168 13.9844 115.805 14.8038 114.36 15.4497C112.915 16.0956 111.396 16.5864 109.84 16.878C108.288 17.1733 106.71 17.3135 105.136 17.3394C103.103 17.3541 101.052 17.1733 99.0526 16.6898C97.0569 16.2026 95.1316 15.4054 93.3577 14.372C91.5912 13.3238 89.9725 12.0652 88.4462 10.755C86.9125 9.44844 85.438 8.11237 83.8895 6.91286C82.3448 5.70966 80.7076 4.66517 78.9596 3.88272C77.2042 3.11503 75.3453 2.61678 73.4421 2.37687C71.5388 2.14066 69.5839 2.13328 67.6769 2.32151C65.7663 2.51343 63.8963 2.94157 62.1372 3.64282C59.8386 4.5729 57.7542 5.96802 55.803 7.61043C53.8443 9.24914 51.9743 11.0908 49.8715 12.7739C47.7687 14.4458 45.374 15.9221 42.7427 16.8005C41.4308 17.2323 40.0856 17.583 38.7219 17.7527L38.2119 17.8302L37.7019 17.8782L36.6782 17.9705C35.9982 17.9853 35.3146 18.0332 34.6346 18.0148C33.9546 17.9963 33.2709 17.9926 32.5872 17.9188C31.9035 17.8782 31.2235 17.7712 30.5435 17.6678C29.1873 17.4243 27.8347 17.0958 26.5375 16.5975C25.2404 16.103 23.9912 15.4866 22.816 14.7706C21.6372 14.0582 20.5433 13.2389 19.5011 12.3937C17.4131 10.6996 15.5394 8.87268 13.5549 7.30778C11.574 5.74657 9.47123 4.43265 7.1504 3.65758C5.45412 3.07074 3.66175 2.8087 1.86569 2.65368C1.23744 2.58356 0.261799 2.39164 0.0844099 2.19602C-0.329497 1.77896 0.860488 1.62026 1.87678 1.63133C3.95001 1.66824 6.06019 2.01518 8.04842 2.73488C10.1623 3.50995 12.1284 4.66886 13.9281 6.03815C15.7353 7.40005 17.4057 8.93911 19.1315 10.397C19.9963 11.1241 20.8796 11.829 21.7961 12.4897C22.72 13.1392 23.6771 13.7372 24.6675 14.2649C26.6706 15.2873 28.8288 15.9996 31.0498 16.3023C35.4772 16.8891 40.1336 16.4905 44.1507 14.5713C45.1449 14.0804 46.1094 13.5305 47.0259 12.8993C47.9387 12.2645 48.8183 11.578 49.672 10.8509C51.3756 9.39308 52.9906 7.80973 54.7386 6.32234C55.9101 5.32582 57.1445 4.38098 58.4786 3.56531C59.809 2.74595 61.2392 2.06316 62.7285 1.55752C65.7257 0.561001 68.8965 0.254665 72.0193 0.409679C75.1531 0.561001 78.3313 1.3656 81.1437 2.87513C83.9745 4.3699 86.3545 6.46628 88.6273 8.44824C89.9281 9.58131 91.2142 10.6886 92.5668 11.6518C93.9194 12.6151 95.3385 13.4345 96.8426 14.0509C99.8434 15.2984 103.173 15.6564 106.477 15.4829C108.122 15.3759 109.74 15.1175 111.289 14.6562C112.841 14.1948 114.319 13.5305 115.712 12.689C118.514 10.9986 120.919 8.59956 123.614 6.29281C125.546 4.62457 127.719 3.05598 130.155 1.93767C131.378 1.39143 132.649 0.963298 133.939 0.638508C134.593 0.513021 135.24 0.346935 135.898 0.273119L136.881 0.14025L137.867 0.0627436C138.525 -0.0036908 139.179 0.018454 139.834 0C140.488 0 141.142 0.0405988 141.796 0.0701252L142.775 0.166086L143.267 0.214066L143.755 0.291573L144.73 0.450277L145.698 0.668034C148.278 1.26225 150.736 2.41009 152.89 3.87534C154.73 5.12652 156.327 6.62129 157.861 8.09023C160.085 10.2198 162.295 12.3014 164.916 13.7593C166.216 14.4901 167.61 15.0621 169.055 15.4571C170.503 15.852 172 16.0771 173.515 16.1731C176.328 16.2986 179.169 16.0808 181.841 15.2578C183.172 14.8407 184.458 14.2834 185.681 13.5969C186.904 12.9104 188.057 12.1021 189.173 11.22C191.402 9.45952 193.464 7.42958 195.785 5.64692C196.945 4.75744 198.169 3.93439 199.473 3.2479C200.778 2.56141 202.16 2.01887 203.579 1.62764C205.342 1.14046 207.16 0.904245 208.971 0.848884C210.782 0.789831 212.6 0.900555 214.385 1.23273C216.17 1.55752 217.914 2.10745 219.548 2.8862C221.181 3.66865 222.693 4.67255 224.104 5.78348C226.931 7.99796 229.367 10.6443 232.283 12.6963C233.731 13.7224 235.291 14.6008 236.95 15.2319C238.61 15.8594 240.354 16.2395 242.117 16.4093C242.608 16.4388 243.103 16.5052 243.588 16.568C244.072 16.6086 244.541 16.6492 244.977 16.6824L244.959 16.6861Z" fill="var(--fill-0, #EC008C)"/>
<path id="Vector_2" d="M244.959 30.0209C245.528 30.5746 244.552 30.7407 243.477 30.737C241.307 30.6779 239.105 30.342 237.002 29.6371C234.888 28.9506 232.926 27.836 231.174 26.5331C228.617 24.6213 226.444 22.3884 224.097 20.4765C222.925 19.5169 221.71 18.6385 220.416 17.9078C219.123 17.1733 217.755 16.5901 216.329 16.1731C213.483 15.3316 210.412 15.1581 207.422 15.4202C205.929 15.5678 204.455 15.852 203.032 16.3096C201.609 16.7636 200.245 17.3947 198.956 18.1698C197.444 19.0814 196.033 20.1739 194.665 21.3365C193.298 22.5028 191.956 23.7355 190.552 24.9129C188.652 26.4999 186.579 27.9762 184.255 28.9801C181.945 30.0173 179.432 30.545 176.934 30.7259C174.432 30.903 171.904 30.7443 169.435 30.1907C166.967 29.6334 164.613 28.5778 162.517 27.1864C160.462 25.8245 158.652 24.1895 156.87 22.5951C155.089 20.9969 153.304 19.4431 151.319 18.2067C150.325 17.5977 149.294 17.0478 148.215 16.616C147.949 16.5016 147.668 16.4167 147.398 16.3133C147.125 16.21 146.851 16.114 146.571 16.0402L145.732 15.7966L144.878 15.6084C142.598 15.1175 140.218 15.04 137.879 15.2135C134.856 15.4165 131.914 16.3023 129.297 17.8118C126.666 19.3103 124.397 21.3956 122.076 23.4439C120.912 24.47 119.718 25.4813 118.443 26.4003C117.168 27.3193 115.805 28.1386 114.36 28.7845C112.915 29.4304 111.396 29.9213 109.84 30.2129C108.288 30.5081 106.71 30.6484 105.136 30.6742C103.103 30.689 101.052 30.5081 99.0526 30.0246C97.0569 29.5375 95.1316 28.7402 93.3577 27.7068C91.5912 26.6586 89.9725 25.4001 88.4462 24.0898C86.9125 22.7833 85.438 21.4472 83.8895 20.2477C82.3448 19.0445 80.7076 18 78.9596 17.2176C77.2042 16.4499 75.3453 15.9516 73.4421 15.7117C71.5388 15.4755 69.5839 15.4681 67.6769 15.6564C65.7663 15.8483 63.8963 16.2764 62.1372 16.9777C59.8386 17.9078 57.7542 19.3029 55.803 20.9453C53.8443 22.584 51.9743 24.4257 49.8715 26.1087C47.7687 27.7806 45.374 29.257 42.7427 30.1354C41.4308 30.5672 40.0856 30.9178 38.7219 31.0876L38.2119 31.1651L37.7019 31.2131L36.6782 31.3053C35.9982 31.3201 35.3146 31.3681 34.6346 31.3496C33.9546 31.3349 33.2709 31.3275 32.5872 31.2537C31.9035 31.2131 31.2235 31.106 30.5435 31.0027C29.1873 30.7591 27.8347 30.4306 26.5375 29.9324C25.2404 29.4378 23.9913 28.8214 22.8161 28.1054C21.6372 27.3931 20.5433 26.5737 19.5011 25.7286C17.4131 24.0345 15.5394 22.2075 13.5549 20.6426C11.574 19.0814 9.47123 17.7675 7.1504 16.9924C5.45412 16.4056 3.66176 16.1399 1.86569 15.9885C1.23744 15.9184 0.2618 15.7265 0.0844115 15.5309C-0.329496 15.1138 0.86049 14.9551 1.87678 14.9662C3.95001 15.0031 6.06019 15.35 8.04843 16.0697C10.1623 16.8448 12.1284 18.0037 13.9281 19.373C15.7353 20.7349 17.4057 22.274 19.1315 23.7318C19.9963 24.4589 20.8796 25.1639 21.7961 25.8245C22.72 26.4741 23.6771 27.072 24.6675 27.5998C26.6706 28.6221 28.8288 29.3345 31.0498 29.6371C35.4772 30.2239 40.1336 29.8253 44.1507 27.9061C45.1449 27.4152 46.1094 26.8653 47.0259 26.2342C47.9387 25.5994 48.8183 24.9129 49.672 24.1858C51.3756 22.7279 52.9906 21.1446 54.7386 19.6572C55.9101 18.6607 57.1445 17.7158 58.4786 16.9002C59.809 16.0808 61.2392 15.398 62.7285 14.8924C65.7257 13.8959 68.8965 13.5895 72.0193 13.7445C75.1531 13.8959 78.3314 14.7004 81.1437 16.21C83.9745 17.7048 86.3545 19.8011 88.6273 21.7831C89.9281 22.9162 91.2142 24.0234 92.5668 24.9867C93.9194 25.95 95.3385 26.7694 96.8426 27.3857C99.8434 28.6332 103.173 28.9912 106.477 28.8177C108.122 28.7107 109.74 28.4524 111.289 27.991C112.841 27.5297 114.319 26.8653 115.712 26.0238C118.514 24.3334 120.919 21.9344 123.614 19.6277C125.546 17.9594 127.719 16.3908 130.155 15.2725C131.378 14.7263 132.649 14.2982 133.939 13.9734C134.593 13.8479 135.24 13.6781 135.898 13.608L136.881 13.4751L137.867 13.3976C138.525 13.3312 139.179 13.3533 139.834 13.3312C140.488 13.3312 141.142 13.3718 141.796 13.4013L142.775 13.4972L143.267 13.5452L143.755 13.6227L144.73 13.7814L145.698 13.9992C148.278 14.5934 150.736 15.7413 152.89 17.2065C154.73 18.4577 156.327 19.9525 157.861 21.4214C160.085 23.551 162.295 25.6326 164.916 27.0905C166.216 27.8212 167.61 28.3933 169.055 28.7882C170.503 29.1831 172 29.4083 173.515 29.5042C176.328 29.6297 179.169 29.412 181.841 28.5889C183.172 28.1719 184.458 27.6145 185.681 26.9281C186.904 26.2416 188.057 25.4333 189.173 24.5512C191.402 22.7907 193.464 20.7607 195.785 18.9818C196.945 18.0923 198.169 17.2692 199.473 16.5828C200.778 15.8963 202.16 15.3537 203.579 14.9625C205.342 14.4753 207.16 14.2391 208.971 14.1837C210.782 14.1247 212.6 14.2354 214.385 14.5676C216.17 14.8924 217.914 15.4423 219.548 16.2211C221.181 17.0035 222.693 18.0074 224.104 19.1183C226.931 21.3328 229.367 23.9791 232.283 26.0312C233.731 27.0572 235.291 27.9356 236.95 28.5668C238.61 29.1942 240.354 29.5744 242.117 29.7441C242.608 29.7737 243.103 29.8401 243.588 29.9028C244.072 29.9434 244.541 29.984 244.977 30.0173L244.959 30.0209Z" fill="var(--fill-0, #EC008C)"/>
<path id="Vector_3" d="M244.959 43.3558C245.528 43.9094 244.552 44.0755 243.477 44.0718C241.307 44.0128 239.105 43.6769 237.002 42.972C234.888 42.2855 232.926 41.1708 231.174 39.868C228.617 37.9562 226.444 35.7232 224.097 33.8114C222.925 32.8518 221.71 31.9734 220.416 31.2426C219.123 30.5081 217.755 29.925 216.329 29.5079C213.483 28.6664 210.412 28.493 207.422 28.755C205.929 28.9026 204.455 29.1868 203.032 29.6445C201.609 30.0985 200.245 30.7296 198.956 31.5047C197.444 32.4163 196.033 33.5088 194.665 34.6714C193.298 35.8376 191.956 37.0667 190.552 38.2477C188.652 39.8348 186.579 41.3111 184.255 42.3113C181.945 43.3484 179.432 43.8762 176.934 44.0607C174.432 44.2379 171.904 44.0792 169.435 43.5256C166.967 42.9683 164.613 41.9127 162.517 40.5213C160.462 39.1594 158.652 37.5243 156.87 35.9299C155.089 34.3318 153.304 32.778 151.319 31.5416C150.325 30.9326 149.294 30.3826 148.215 29.9508C147.949 29.8364 147.668 29.7478 147.398 29.6482C147.125 29.5448 146.851 29.4489 146.571 29.3751L145.732 29.1315L144.878 28.9432C142.598 28.4524 140.218 28.3749 137.879 28.5483C134.856 28.755 131.914 29.6371 129.297 31.1466C126.666 32.6451 124.397 34.7304 122.076 36.7788C120.912 37.8048 119.718 38.8161 118.443 39.7351C117.168 40.6541 115.805 41.4735 114.36 42.1194C112.915 42.7653 111.396 43.2561 109.84 43.5477C108.288 43.843 106.71 43.9832 105.136 44.0091C103.103 44.0238 101.052 43.843 99.0526 43.3595C97.0569 42.8723 95.1316 42.0751 93.3577 41.0417C91.5912 39.9935 89.9725 38.7349 88.4462 37.4247C86.9125 36.1181 85.438 34.7821 83.8895 33.5826C82.3448 32.3794 80.7076 31.3349 78.9596 30.5524C77.2042 29.7847 75.3453 29.2865 73.4421 29.0466C71.5388 28.8104 69.5839 28.803 67.6769 28.9912C65.7663 29.1831 63.8963 29.6113 62.1372 30.3125C59.8386 31.2426 57.7542 32.6377 55.803 34.2801C53.8443 35.9188 51.9743 37.7606 49.8715 39.4436C47.7687 41.1155 45.374 42.5918 42.7427 43.4702C41.4308 43.902 40.0856 44.2527 38.7219 44.4224L38.2119 44.4999L37.7019 44.5479L36.6782 44.6402C35.9982 44.655 35.3146 44.7029 34.6346 44.6845C33.9546 44.6697 33.2709 44.6623 32.5872 44.5885C31.9035 44.5479 31.2235 44.4409 30.5435 44.3376C29.1873 44.094 27.8347 43.7655 26.5375 43.2672C25.2404 42.7727 23.9913 42.1563 22.8161 41.4403C21.6372 40.728 20.5433 39.9086 19.5011 39.0634C17.4131 37.3693 15.5394 35.5424 13.5549 33.9775C11.574 32.4163 9.47123 31.1024 7.1504 30.3273C5.45412 29.7404 3.66176 29.4784 1.86569 29.3234C1.23744 29.2533 0.2618 29.0613 0.0844115 28.8657C-0.329496 28.4487 0.86049 28.29 1.87678 28.301C3.95001 28.3379 6.06019 28.6849 8.04843 29.4046C10.1623 30.1797 12.1284 31.3386 13.9281 32.7042C15.7353 34.0661 17.4057 35.6051 19.1315 37.063C19.9963 37.7901 20.8796 38.495 21.7961 39.1557C22.72 39.8053 23.6771 40.4032 24.6675 40.9309C26.6706 41.9533 28.8288 42.6656 31.0498 42.9683C35.4772 43.5551 40.1336 43.1565 44.1507 41.2373C45.1449 40.7464 46.1094 40.1965 47.0259 39.5654C47.9387 38.9305 48.8183 38.244 49.672 37.517C51.3756 36.0591 52.9906 34.4757 54.7386 32.9883C55.9101 31.9918 57.1445 31.047 58.4786 30.2313C59.809 29.412 61.2392 28.7292 62.7285 28.2235C65.7257 27.227 68.8965 26.9207 72.0193 27.0757C75.1531 27.227 78.3314 28.0316 81.1437 29.5411C83.9745 31.0359 86.3545 33.1323 88.6273 35.1143C89.9281 36.2473 91.2142 37.3546 92.5668 38.3179C93.9194 39.2812 95.3385 40.1005 96.8426 40.7169C99.8434 41.9644 103.173 42.3224 106.477 42.1489C108.122 42.0419 109.74 41.7835 111.289 41.3222C112.841 40.8608 114.319 40.1965 115.712 39.355C118.514 37.6646 120.919 35.2656 123.614 32.9588C125.546 31.2906 127.719 29.722 130.155 28.6037C131.378 28.0574 132.649 27.6293 133.939 27.3045C134.593 27.179 135.24 27.0093 135.898 26.9391L136.881 26.8063L137.867 26.7288C138.525 26.6623 139.179 26.6845 139.834 26.666C140.488 26.666 141.142 26.7066 141.796 26.7361L142.775 26.8321L143.267 26.8801L143.755 26.9576L144.73 27.1163L145.698 27.334C148.278 27.9283 150.736 29.0761 152.89 30.5414C154.73 31.7925 156.327 33.2873 157.861 34.7562C160.085 36.8858 162.295 38.9674 164.916 40.4253C166.216 41.1561 167.61 41.7282 169.055 42.1231C170.503 42.518 172 42.7431 173.515 42.8391C176.328 42.9646 179.169 42.7468 181.841 41.9238C183.172 41.5067 184.458 40.9494 185.681 40.2629C186.904 39.5764 188.057 38.7645 189.173 37.886C191.402 36.1255 193.464 34.0956 195.785 32.3129C196.945 31.4235 198.169 30.6004 199.473 29.9139C200.778 29.2274 202.16 28.6849 203.579 28.2937C205.342 27.8065 207.16 27.5703 208.971 27.5149C210.782 27.4558 212.6 27.5666 214.385 27.8987C216.17 28.2235 217.914 28.7735 219.548 29.5522C221.181 30.3347 222.693 31.3386 224.104 32.4495C226.931 34.664 229.367 37.3103 232.283 39.3624C233.731 40.3884 235.291 41.2668 236.95 41.8979C238.61 42.5254 240.354 42.9055 242.117 43.0753C242.608 43.1048 243.103 43.1713 243.588 43.234C244.072 43.2746 244.541 43.3152 244.977 43.3484L244.959 43.3558Z" fill="var(--fill-0, #EC008C)"/>
<path id="Vector_4" d="M244.959 56.6907C245.528 57.2443 244.552 57.4104 243.477 57.4067C241.307 57.3476 239.105 57.0118 237.002 56.3068C234.888 55.6203 232.926 54.5057 231.174 53.2028C228.617 51.291 226.444 49.0581 224.097 47.1463C222.925 46.1866 221.71 45.3082 220.416 44.5775C219.123 43.843 217.755 43.2598 216.329 42.8428C213.483 42.0013 210.412 41.8278 207.422 42.0899C205.929 42.2375 204.455 42.5217 203.032 42.9793C201.609 43.4333 200.245 44.0644 198.956 44.8395C197.444 45.7511 196.033 46.8436 194.665 48.0062C193.298 49.1725 191.956 50.4052 190.552 51.5826C188.652 53.1696 186.579 54.646 184.255 55.6498C181.945 56.687 179.432 57.2147 176.934 57.3956C174.432 57.5728 171.904 57.4141 169.435 56.8604C166.967 56.3031 164.613 55.2476 162.517 53.8561C160.462 52.4942 158.652 50.8592 156.87 49.2648C155.089 47.6667 153.304 46.1128 151.319 44.8764C150.325 44.2674 149.294 43.7175 148.215 43.2857C147.949 43.1713 147.668 43.0864 147.398 42.983C147.125 42.8834 146.851 42.7837 146.571 42.7099L145.732 42.4663L144.878 42.2781C142.598 41.7872 140.218 41.7097 137.879 41.8832C134.856 42.0862 131.914 42.972 129.297 44.4815C126.666 45.98 124.397 48.0653 122.076 50.1137C120.912 51.1397 119.718 52.151 118.443 53.07C117.168 53.989 115.805 54.8083 114.36 55.4542C112.915 56.1001 111.396 56.591 109.84 56.8826C108.288 57.1778 106.71 57.3181 105.136 57.3439C103.103 57.3587 101.052 57.1778 99.0526 56.6943C97.0569 56.2072 95.1316 55.4099 93.3577 54.3765C91.5912 53.3283 89.9725 52.0698 88.4462 50.7595C86.9125 49.453 85.438 48.1169 83.8895 46.9174C82.3448 45.7142 80.7076 44.6697 78.9596 43.8873C77.2042 43.1196 75.3453 42.6213 73.4421 42.3814C71.5388 42.1452 69.5839 42.1378 67.6769 42.3261C65.7663 42.518 63.8963 42.9461 62.1372 43.6474C59.8386 44.5775 57.7542 45.9726 55.803 47.615C53.8443 49.2537 51.9743 51.0954 49.8715 52.7784C47.7687 54.4503 45.374 55.9267 42.7427 56.8051C41.4308 57.2369 40.0856 57.5875 38.7219 57.7573L38.2119 57.8348L37.7019 57.8828L36.6782 57.9751C35.9982 57.9898 35.3146 58.0378 34.6346 58.0193C33.9546 58.0046 33.2709 57.9972 32.5872 57.9234C31.9035 57.8828 31.2235 57.7757 30.5435 57.6724C29.1873 57.4288 27.8347 57.1003 26.5375 56.6021C25.2404 56.1075 23.9913 55.4911 22.8161 54.7751C21.6372 54.0628 20.5433 53.2435 19.5011 52.3983C17.4131 50.7042 15.5394 48.8772 13.5549 47.3123C11.574 45.7511 9.47123 44.4372 7.1504 43.6621C5.45412 43.0753 3.66176 42.8096 1.86569 42.6582C1.23744 42.5881 0.2618 42.3962 0.0844115 42.2006C-0.329496 41.7835 0.86049 41.6248 1.87678 41.6359C3.95001 41.6728 6.06019 42.0197 8.04843 42.7394C10.1623 43.5145 12.1284 44.6734 13.9281 46.0427C15.7353 47.4046 17.4057 48.9437 19.1315 50.4015C19.9963 51.1286 20.8796 51.8336 21.7961 52.4942C22.72 53.1438 23.6771 53.7417 24.6675 54.2695C26.6706 55.2918 28.8288 56.0042 31.0498 56.3068C35.4772 56.8936 40.1336 56.495 44.1507 54.5758C45.1449 54.085 46.1094 53.535 47.0259 52.9039C47.9387 52.2691 48.8183 51.5826 49.672 50.8555C51.3756 49.3976 52.9906 47.8143 54.7386 46.3269C55.9101 45.3304 57.1445 44.3855 58.4786 43.5699C59.809 42.7505 61.2392 42.0677 62.7285 41.5621C65.7257 40.5656 68.8965 40.2592 72.0193 40.4142C75.1531 40.5656 78.3314 41.3702 81.1437 42.8797C83.9745 44.3745 86.3545 46.4708 88.6273 48.4528C89.9281 49.5859 91.2142 50.6931 92.5668 51.6564C93.9194 52.6197 95.3385 53.4391 96.8426 54.0554C99.8434 55.3029 103.173 55.6609 106.477 55.4875C108.122 55.3804 109.74 55.1221 111.289 54.6607C112.841 54.1994 114.319 53.535 115.712 52.6935C118.514 51.0031 120.919 48.6041 123.614 46.2974C125.546 44.6291 127.719 43.0605 130.155 41.9422C131.378 41.396 132.649 40.9679 133.939 40.6431C134.593 40.5176 135.24 40.3478 135.898 40.2777L136.881 40.1448L137.867 40.0673C138.525 40.0009 139.179 40.023 139.834 40.0046C140.488 40.0046 141.142 40.0452 141.796 40.0747L142.775 40.1706L143.267 40.2186L143.755 40.2961L144.73 40.4548L145.698 40.6726C148.278 41.2668 150.736 42.4146 152.89 43.8799C154.73 45.1311 156.327 46.6258 157.861 48.0948C160.085 50.2244 162.295 52.306 164.916 53.7639C166.216 54.4946 167.61 55.0667 169.055 55.4616C170.503 55.8565 172 56.0817 173.515 56.1776C176.328 56.3031 179.169 56.0854 181.841 55.2623C183.172 54.8453 184.458 54.2879 185.681 53.6015C186.904 52.915 188.057 52.1067 189.173 51.2246C191.402 49.4641 193.464 47.4341 195.785 45.6552C196.945 44.7657 198.169 43.9426 199.473 43.2562C200.778 42.5697 202.16 42.0271 203.579 41.6359C205.342 41.1487 207.16 40.9125 208.971 40.8571C210.782 40.7981 212.6 40.9088 214.385 41.241C216.17 41.5658 217.914 42.1157 219.548 42.8945C221.181 43.6769 222.693 44.6808 224.104 45.7917C226.931 48.0062 229.367 50.6525 232.283 52.7046C233.731 53.7306 235.291 54.609 236.95 55.2402C238.61 55.8676 240.354 56.2478 242.117 56.4175C242.608 56.4471 243.103 56.5135 243.588 56.5762C244.072 56.6168 244.541 56.6574 244.977 56.6907H244.959Z" fill="var(--fill-0, #EC008C)"/>
</g>
</svg>
