<svg width="353" height="179" viewBox="0 0 353 179" fill="none" xmlns="http://www.w3.org/2000/svg">
<g clip-path="url(#clip0_675_1999)">
<path d="M352.834 16.6861C353.403 17.2397 352.427 17.4058 351.352 17.4021C349.182 17.3431 346.98 17.0072 344.877 16.3023C342.763 15.6158 340.801 14.5011 339.049 13.1983C336.492 11.2865 334.319 9.05353 331.972 7.14169C330.801 6.18209 329.585 5.30368 328.291 4.5729C326.998 3.83843 325.63 3.25528 324.204 2.83822C321.358 1.99672 318.287 1.82325 315.297 2.0853C313.804 2.23293 312.33 2.51712 310.907 2.97478C309.484 3.42875 308.121 4.06357 306.831 4.83495C305.319 5.74657 303.908 6.83905 302.54 8.00165C301.173 9.16794 299.831 10.397 298.427 11.578C296.528 13.1651 294.454 14.6414 292.13 15.6416C289.82 16.6787 287.307 17.2065 284.809 17.391C282.307 17.5682 279.779 17.4095 277.31 16.8559C274.842 16.2986 272.488 15.243 270.392 13.8516C268.337 12.4897 266.527 10.8546 264.745 9.26021C262.964 7.6621 261.179 6.10827 259.195 4.87185C258.2 4.26287 257.169 3.71294 256.09 3.28112C255.824 3.1667 255.543 3.08182 255.274 2.97847C255 2.87513 254.727 2.77917 254.446 2.70535L253.607 2.46176L252.753 2.27353C250.473 1.78266 248.093 1.70515 245.754 1.87862C242.731 2.0853 239.789 2.9674 237.172 4.47694C234.541 5.9754 232.272 8.0607 229.951 10.1091C228.787 11.1351 227.593 12.1464 226.319 13.0654C225.044 13.9844 223.68 14.8038 222.235 15.4497C220.79 16.0956 219.271 16.5864 217.715 16.878C216.163 17.1733 214.585 17.3135 213.011 17.3394C210.978 17.3541 208.927 17.1733 206.928 16.6898C204.932 16.2026 203.007 15.4054 201.233 14.372C199.466 13.3238 197.848 12.0652 196.321 10.755C194.788 9.44844 193.313 8.11237 191.765 6.91286C190.22 5.70966 188.583 4.66517 186.835 3.88272C185.079 3.11503 183.22 2.61678 181.317 2.37687C179.414 2.14066 177.459 2.13328 175.552 2.32151C173.641 2.51343 171.771 2.94157 170.012 3.64282C167.714 4.5729 165.629 5.96802 163.678 7.61043C161.719 9.24914 159.849 11.0908 157.747 12.7739C155.644 14.4458 153.249 15.9221 150.618 16.8005C149.306 17.2323 147.961 17.583 146.597 17.7527L146.087 17.8302L145.577 17.8782L144.553 17.9705C143.873 17.9853 143.19 18.0332 142.51 18.0148C141.83 17.9963 141.146 17.9926 140.462 17.9188C139.779 17.8782 139.099 17.7712 138.419 17.6679C137.062 17.4243 135.71 17.0958 134.413 16.5975C133.115 16.103 131.866 15.4866 130.691 14.7706C129.512 14.0582 128.418 13.2389 127.376 12.3937C125.288 10.6996 123.415 8.87268 121.43 7.30778C119.449 5.74657 117.346 4.43265 115.026 3.65758C113.329 3.07074 111.537 2.8087 109.741 2.65368C109.113 2.58356 108.137 2.39164 107.96 2.19602C107.546 1.77896 108.736 1.62026 109.752 1.63133C111.825 1.66824 113.935 2.01518 115.924 2.73488C118.037 3.50995 120.003 4.66886 121.803 6.03815C123.61 7.40005 125.281 8.93911 127.007 10.397C127.871 11.1241 128.755 11.829 129.671 12.4897C130.595 13.1392 131.552 13.7372 132.543 14.2649C134.546 15.2873 136.704 15.9996 138.925 16.3023C143.352 16.8891 148.009 16.4905 152.026 14.5713C153.02 14.0804 153.985 13.5305 154.901 12.8993C155.814 12.2645 156.693 11.578 157.547 10.8509C159.251 9.39308 160.866 7.80973 162.614 6.32234C163.785 5.32582 165.02 4.38098 166.354 3.56531C167.684 2.74595 169.114 2.06316 170.604 1.55752C173.601 0.561001 176.772 0.254665 179.894 0.409679C183.028 0.561001 186.206 1.3656 189.019 2.87513C191.85 4.3699 194.23 6.46628 196.502 8.44824C197.803 9.58131 199.089 10.6886 200.442 11.6518C201.795 12.6151 203.214 13.4345 204.718 14.0509C207.719 15.2984 211.048 15.6564 214.352 15.4829C215.997 15.3759 217.615 15.1175 219.164 14.6562C220.716 14.1948 222.194 13.5305 223.587 12.689C226.389 10.9986 228.795 8.59956 231.489 6.29281C233.421 4.62457 235.594 3.05598 238.03 1.93767C239.253 1.39143 240.524 0.963298 241.814 0.638508C242.468 0.513021 243.115 0.346935 243.773 0.273119L244.756 0.14025L245.743 0.0627436C246.4 -0.0036908 247.055 0.018454 247.709 0C248.363 0 249.017 0.0405988 249.671 0.0701252L250.65 0.166086L251.142 0.214066L251.63 0.291573L252.605 0.450277L253.574 0.668034C256.153 1.26225 258.611 2.41009 260.765 3.87534C262.606 5.12652 264.202 6.62129 265.736 8.09023C267.961 10.2198 270.171 12.3014 272.791 13.7593C274.092 14.4901 275.485 15.0621 276.93 15.4571C278.378 15.852 279.875 16.0771 281.39 16.1731C284.203 16.2986 287.045 16.0808 289.717 15.2578C291.047 14.8407 292.333 14.2834 293.556 13.5969C294.78 12.9104 295.933 12.1021 297.049 11.22C299.277 9.45952 301.339 7.42958 303.66 5.64692C304.82 4.75744 306.044 3.93439 307.348 3.2479C308.653 2.56141 310.035 2.01887 311.454 1.62764C313.217 1.14046 315.035 0.904245 316.846 0.848884C318.657 0.789831 320.475 0.900555 322.26 1.23273C324.045 1.55752 325.789 2.10745 327.423 2.8862C329.056 3.66865 330.568 4.67255 331.979 5.78348C334.807 7.99796 337.242 10.6443 340.158 12.6963C341.606 13.7224 343.166 14.6008 344.825 15.2319C346.485 15.8594 348.229 16.2395 349.992 16.4093C350.483 16.4388 350.979 16.5052 351.463 16.568C351.947 16.6086 352.416 16.6492 352.852 16.6824L352.834 16.6861Z" fill="#EC008C"/>
<path d="M352.834 30.0208C353.403 30.5745 352.427 30.7405 351.352 30.7369C349.182 30.6778 346.98 30.3419 344.877 29.637C342.763 28.9505 340.801 27.8359 339.049 26.533C336.492 24.6212 334.319 22.3883 331.972 20.4764C330.801 19.5168 329.585 18.6384 328.291 17.9076C326.998 17.1732 325.63 16.59 324.204 16.173C321.358 15.3315 318.287 15.158 315.297 15.42C313.804 15.5677 312.33 15.8519 310.907 16.3095C309.484 16.7635 308.121 17.3946 306.831 18.1697C305.319 19.0813 303.908 20.1738 302.54 21.3364C301.173 22.5027 299.831 23.7354 298.427 24.9128C296.528 26.4998 294.454 27.9761 292.13 28.98C289.82 30.0172 287.307 30.5449 284.809 30.7258C282.307 30.9029 279.779 30.7442 277.31 30.1906C274.842 29.6333 272.488 28.5777 270.392 27.1863C268.337 25.8244 266.527 24.1894 264.745 22.595C262.964 20.9968 261.179 19.443 259.195 18.2066C258.2 17.5976 257.169 17.0477 256.09 16.6159C255.824 16.5015 255.543 16.4166 255.274 16.3132C255 16.2099 254.727 16.1139 254.446 16.0401L253.607 15.7965L252.753 15.6083C250.473 15.1174 248.093 15.0399 245.754 15.2134C242.731 15.4164 239.789 16.3021 237.172 17.8117C234.541 19.3101 232.272 21.3954 229.951 23.4438C228.787 24.4699 227.593 25.4812 226.319 26.4002C225.044 27.3192 223.68 28.1385 222.235 28.7844C220.79 29.4303 219.271 29.9212 217.715 30.2128C216.163 30.508 214.585 30.6483 213.011 30.6741C210.978 30.6889 208.927 30.508 206.928 30.0245C204.932 29.5373 203.007 28.7401 201.233 27.7067C199.466 26.6585 197.848 25.4 196.321 24.0897C194.788 22.7832 193.313 21.4471 191.765 20.2476C190.22 19.0444 188.583 17.9999 186.835 17.2175C185.079 16.4498 183.22 15.9515 181.317 15.7116C179.414 15.4754 177.459 15.468 175.552 15.6563C173.641 15.8482 171.771 16.2763 170.012 16.9776C167.714 17.9076 165.629 19.3028 163.678 20.9452C161.719 22.5839 159.849 24.4256 157.747 26.1086C155.644 27.7805 153.249 29.2568 150.618 30.1353C149.306 30.5671 147.961 30.9177 146.597 31.0875L146.087 31.165L145.577 31.213L144.553 31.3052C143.873 31.32 143.19 31.368 142.51 31.3495C141.83 31.3348 141.146 31.3274 140.462 31.2536C139.779 31.213 139.099 31.1059 138.419 31.0026C137.062 30.759 135.71 30.4305 134.413 29.9323C133.115 29.4377 131.866 28.8213 130.691 28.1053C129.512 27.393 128.418 26.5736 127.376 25.7284C125.288 24.0344 123.415 22.2074 121.43 20.6425C119.449 19.0813 117.346 17.7674 115.026 16.9923C113.329 16.4055 111.537 16.1398 109.741 15.9884C109.113 15.9183 108.137 15.7264 107.96 15.5308C107.546 15.1137 108.736 14.955 109.752 14.9661C111.825 15.003 113.935 15.3499 115.924 16.0696C118.037 16.8447 120.003 18.0036 121.803 19.3729C123.61 20.7348 125.281 22.2739 127.007 23.7317C127.871 24.4588 128.755 25.1638 129.671 25.8244C130.595 26.474 131.552 27.0719 132.543 27.5997C134.546 28.622 136.704 29.3344 138.925 29.637C143.352 30.2238 148.009 29.8252 152.026 27.906C153.02 27.4151 153.985 26.8652 154.901 26.2341C155.814 25.5993 156.693 24.9128 157.547 24.1857C159.251 22.7278 160.866 21.1445 162.614 19.6571C163.785 18.6606 165.02 17.7157 166.354 16.9001C167.684 16.0807 169.114 15.3979 170.604 14.8923C173.601 13.8957 176.772 13.5894 179.894 13.7444C183.028 13.8957 186.206 14.7003 189.019 16.2099C191.85 17.7046 194.23 19.801 196.502 21.783C197.803 22.9161 199.089 24.0233 200.442 24.9866C201.795 25.9499 203.214 26.7692 204.718 27.3856C207.719 28.6331 211.048 28.9911 214.352 28.8176C215.997 28.7106 217.615 28.4523 219.164 27.9909C220.716 27.5296 222.194 26.8652 223.587 26.0237C226.389 24.3333 228.795 21.9343 231.489 19.6276C233.421 17.9593 235.594 16.3907 238.03 15.2724C239.253 14.7262 240.524 14.298 241.814 13.9733C242.468 13.8478 243.115 13.678 243.773 13.6079L244.756 13.475L245.743 13.3975C246.4 13.3311 247.055 13.3532 247.709 13.3311C248.363 13.3311 249.017 13.3717 249.671 13.4012L250.65 13.4971L251.142 13.5451L251.63 13.6226L252.605 13.7813L253.574 13.9991C256.153 14.5933 258.611 15.7411 260.765 17.2064C262.606 18.4576 264.202 19.9523 265.736 21.4213C267.961 23.5509 270.171 25.6325 272.791 27.0903C274.092 27.8211 275.485 28.3932 276.93 28.7881C278.378 29.183 279.875 29.4082 281.39 29.5041C284.203 29.6296 287.045 29.4119 289.717 28.5888C291.047 28.1718 292.333 27.6144 293.556 26.928C294.78 26.2415 295.933 25.4332 297.049 24.5511C299.277 22.7906 301.339 20.7606 303.66 18.9817C304.82 18.0922 306.044 17.2691 307.348 16.5826C308.653 15.8962 310.035 15.3536 311.454 14.9624C313.217 14.4752 315.035 14.239 316.846 14.1836C318.657 14.1246 320.475 14.2353 322.26 14.5675C324.045 14.8923 325.789 15.4422 327.423 16.2209C329.056 17.0034 330.568 18.0073 331.979 19.1182C334.807 21.3327 337.242 23.979 340.158 26.0311C341.606 27.0571 343.166 27.9355 344.825 28.5667C346.485 29.1941 348.229 29.5743 349.992 29.744C350.483 29.7736 350.979 29.84 351.463 29.9027C351.947 29.9433 352.416 29.9839 352.852 30.0172L352.834 30.0208Z" fill="#EC008C"/>
<path d="M352.834 43.3558C353.403 43.9094 352.427 44.0755 351.352 44.0718C349.182 44.0128 346.98 43.6769 344.877 42.972C342.763 42.2855 340.801 41.1709 339.049 39.868C336.492 37.9562 334.319 35.7232 331.972 33.8114C330.801 32.8518 329.585 31.9734 328.291 31.2426C326.998 30.5081 325.63 29.925 324.204 29.5079C321.358 28.6664 318.287 28.493 315.297 28.755C313.804 28.9026 312.33 29.1868 310.907 29.6445C309.484 30.0985 308.121 30.7296 306.831 31.5047C305.319 32.4163 303.908 33.5088 302.54 34.6714C301.173 35.8376 299.831 37.0667 298.427 38.2477C296.528 39.8348 294.454 41.3111 292.13 42.3113C289.82 43.3484 287.307 43.8762 284.809 44.0607C282.307 44.2379 279.779 44.0792 277.31 43.5256C274.842 42.9683 272.488 41.9127 270.392 40.5213C268.337 39.1594 266.527 37.5243 264.745 35.9299C262.964 34.3318 261.179 32.778 259.195 31.5416C258.2 30.9326 257.169 30.3826 256.09 29.9508C255.824 29.8364 255.543 29.7478 255.274 29.6482C255 29.5448 254.727 29.4489 254.446 29.3751L253.607 29.1315L252.753 28.9432C250.473 28.4524 248.093 28.3749 245.754 28.5483C242.731 28.755 239.789 29.6371 237.172 31.1466C234.541 32.6451 232.272 34.7304 229.951 36.7788C228.787 37.8048 227.593 38.8161 226.319 39.7351C225.044 40.6541 223.68 41.4735 222.235 42.1194C220.79 42.7653 219.271 43.2562 217.715 43.5477C216.163 43.843 214.585 43.9832 213.011 44.0091C210.978 44.0238 208.927 43.843 206.928 43.3595C204.932 42.8723 203.007 42.0751 201.233 41.0417C199.466 39.9935 197.848 38.7349 196.321 37.4247C194.788 36.1181 193.313 34.7821 191.765 33.5826C190.22 32.3794 188.583 31.3349 186.835 30.5524C185.079 29.7847 183.22 29.2865 181.317 29.0466C179.414 28.8104 177.459 28.803 175.552 28.9912C173.641 29.1831 171.771 29.6113 170.012 30.3125C167.714 31.2426 165.629 32.6377 163.678 34.2801C161.719 35.9188 159.849 37.7606 157.747 39.4436C155.644 41.1155 153.249 42.5918 150.618 43.4702C149.306 43.902 147.961 44.2527 146.597 44.4224L146.087 44.5L145.577 44.5479L144.553 44.6402C143.873 44.655 143.19 44.7029 142.51 44.6845C141.83 44.6697 141.146 44.6623 140.462 44.5885C139.779 44.5479 139.099 44.4409 138.419 44.3376C137.062 44.094 135.71 43.7655 134.413 43.2672C133.115 42.7727 131.866 42.1563 130.691 41.4403C129.512 40.728 128.418 39.9086 127.376 39.0634C125.288 37.3693 123.415 35.5424 121.43 33.9775C119.449 32.4163 117.346 31.1024 115.026 30.3273C113.329 29.7404 111.537 29.4784 109.741 29.3234C109.113 29.2533 108.137 29.0613 107.96 28.8657C107.546 28.4487 108.736 28.29 109.752 28.301C111.825 28.3379 113.935 28.6849 115.924 29.4046C118.037 30.1797 120.003 31.3386 121.803 32.7042C123.61 34.0661 125.281 35.6051 127.007 37.063C127.871 37.7901 128.755 38.495 129.671 39.1557C130.595 39.8053 131.552 40.4032 132.543 40.931C134.546 41.9533 136.704 42.6656 138.925 42.9683C143.352 43.5551 148.009 43.1565 152.026 41.2373C153.02 40.7464 153.985 40.1965 154.901 39.5654C155.814 38.9305 156.693 38.244 157.547 37.517C159.251 36.0591 160.866 34.4757 162.614 32.9884C163.785 31.9918 165.02 31.047 166.354 30.2313C167.684 29.412 169.114 28.7292 170.604 28.2235C173.601 27.227 176.772 26.9207 179.894 27.0757C183.028 27.227 186.206 28.0316 189.019 29.5411C191.85 31.0359 194.23 33.1323 196.502 35.1143C197.803 36.2473 199.089 37.3546 200.442 38.3179C201.795 39.2812 203.214 40.1005 204.718 40.7169C207.719 41.9644 211.048 42.3224 214.352 42.1489C215.997 42.0419 217.615 41.7835 219.164 41.3222C220.716 40.8608 222.194 40.1965 223.587 39.355C226.389 37.6646 228.795 35.2656 231.489 32.9588C233.421 31.2906 235.594 29.722 238.03 28.6037C239.253 28.0574 240.524 27.6293 241.814 27.3045C242.468 27.179 243.115 27.0093 243.773 26.9391L244.756 26.8063L245.743 26.7288C246.4 26.6623 247.055 26.6845 247.709 26.666C248.363 26.666 249.017 26.7066 249.671 26.7361L250.65 26.8321L251.142 26.8801L251.63 26.9576L252.605 27.1163L253.574 27.334C256.153 27.9283 258.611 29.0761 260.765 30.5414C262.606 31.7925 264.202 33.2873 265.736 34.7562C267.961 36.8858 270.171 38.9674 272.791 40.4253C274.092 41.1561 275.485 41.7282 276.93 42.1231C278.378 42.518 279.875 42.7431 281.39 42.8391C284.203 42.9646 287.045 42.7468 289.717 41.9238C291.047 41.5067 292.333 40.9494 293.556 40.2629C294.78 39.5764 295.933 38.7645 297.049 37.886C299.277 36.1255 301.339 34.0956 303.66 32.3129C304.82 31.4235 306.044 30.6004 307.348 29.9139C308.653 29.2274 310.035 28.6849 311.454 28.2937C313.217 27.8065 315.035 27.5703 316.846 27.5149C318.657 27.4558 320.475 27.5666 322.26 27.8987C324.045 28.2235 325.789 28.7735 327.423 29.5522C329.056 30.3347 330.568 31.3386 331.979 32.4495C334.807 34.664 337.242 37.3103 340.158 39.3624C341.606 40.3884 343.166 41.2668 344.825 41.8979C346.485 42.5254 348.229 42.9055 349.992 43.0753C350.483 43.1048 350.979 43.1713 351.463 43.234C351.947 43.2746 352.416 43.3152 352.852 43.3484L352.834 43.3558Z" fill="#EC008C"/>
<path d="M352.834 56.6907C353.403 57.2444 352.427 57.4104 351.352 57.4067C349.182 57.3477 346.98 57.0118 344.877 56.3069C342.763 55.6204 340.801 54.5058 339.049 53.2029C336.492 51.2911 334.319 49.0582 331.972 47.1463C330.801 46.1867 329.585 45.3083 328.291 44.5775C326.998 43.8431 325.63 43.2599 324.204 42.8429C321.358 42.0014 318.287 41.8279 315.297 42.0899C313.804 42.2376 312.33 42.5218 310.907 42.9794C309.484 43.4334 308.121 44.0645 306.831 44.8396C305.319 45.7512 303.908 46.8437 302.54 48.0063C301.173 49.1726 299.831 50.4053 298.427 51.5827C296.528 53.1697 294.454 54.646 292.13 55.6499C289.82 56.687 287.307 57.2148 284.809 57.3957C282.307 57.5728 279.779 57.4141 277.31 56.8605C274.842 56.3032 272.488 55.2476 270.392 53.8562C268.337 52.4943 266.527 50.8593 264.745 49.2648C262.964 47.6667 261.179 46.1129 259.195 44.8765C258.2 44.2675 257.169 43.7176 256.09 43.2858C255.824 43.1713 255.543 43.0865 255.274 42.9831C255 42.8835 254.727 42.7838 254.446 42.71L253.607 42.4664L252.753 42.2782C250.473 41.7873 248.093 41.7098 245.754 41.8833C242.731 42.0863 239.789 42.972 237.172 44.4816C234.541 45.98 232.272 48.0653 229.951 50.1137C228.787 51.1398 227.593 52.1511 226.319 53.0701C225.044 53.9891 223.68 54.8084 222.235 55.4543C220.79 56.1002 219.271 56.5911 217.715 56.8827C216.163 57.1779 214.585 57.3182 213.011 57.344C210.978 57.3588 208.927 57.1779 206.928 56.6944C204.932 56.2072 203.007 55.41 201.233 54.3766C199.466 53.3284 197.848 52.0699 196.321 50.7596C194.788 49.4531 193.313 48.117 191.765 46.9175C190.22 45.7143 188.583 44.6698 186.835 43.8874C185.079 43.1197 183.22 42.6214 181.317 42.3815C179.414 42.1453 177.459 42.1379 175.552 42.3262C173.641 42.5181 171.771 42.9462 170.012 43.6475C167.714 44.5775 165.629 45.9727 163.678 47.6151C161.719 49.2538 159.849 51.0955 157.747 52.7785C155.644 54.4504 153.249 55.9267 150.618 56.8052C149.306 57.237 147.961 57.5876 146.597 57.7574L146.087 57.8349L145.577 57.8829L144.553 57.9751C143.873 57.9899 143.19 58.0379 142.51 58.0194C141.83 58.0047 141.146 57.9973 140.462 57.9235C139.779 57.8829 139.099 57.7758 138.419 57.6725C137.062 57.4289 135.71 57.1004 134.413 56.6022C133.115 56.1076 131.866 55.4912 130.691 54.7752C129.512 54.0629 128.418 53.2435 127.376 52.3983C125.288 50.7043 123.415 48.8773 121.43 47.3124C119.449 45.7512 117.346 44.4373 115.026 43.6622C113.329 43.0754 111.537 42.8096 109.741 42.6583C109.113 42.5882 108.137 42.3963 107.96 42.2007C107.546 41.7836 108.736 41.6249 109.752 41.636C111.825 41.6729 113.935 42.0198 115.924 42.7395C118.037 43.5146 120.003 44.6735 121.803 46.0428C123.61 47.4047 125.281 48.9438 127.007 50.4016C127.871 51.1287 128.755 51.8336 129.671 52.4943C130.595 53.1439 131.552 53.7418 132.543 54.2696C134.546 55.2919 136.704 56.0042 138.925 56.3069C143.352 56.8937 148.009 56.4951 152.026 54.5759C153.02 54.085 153.985 53.5351 154.901 52.904C155.814 52.2692 156.693 51.5827 157.547 50.8556C159.251 49.3977 160.866 47.8144 162.614 46.327C163.785 45.3305 165.02 44.3856 166.354 43.57C167.684 42.7506 169.114 42.0678 170.604 41.5622C173.601 40.5656 176.772 40.2593 179.894 40.4143C183.028 40.5656 186.206 41.3702 189.019 42.8798C191.85 44.3745 194.23 46.4709 196.502 48.4529C197.803 49.5859 199.089 50.6932 200.442 51.6565C201.795 52.6198 203.214 53.4391 204.718 54.0555C207.719 55.303 211.048 55.661 214.352 55.4875C215.997 55.3805 217.615 55.1221 219.164 54.6608C220.716 54.1994 222.194 53.5351 223.587 52.6936C226.389 51.0032 228.795 48.6042 231.489 46.2975C233.421 44.6292 235.594 43.0606 238.03 41.9423C239.253 41.3961 240.524 40.9679 241.814 40.6431C242.468 40.5177 243.115 40.3479 243.773 40.2778L244.756 40.1449L245.743 40.0674C246.4 40.0009 247.055 40.0231 247.709 40.0046C248.363 40.0046 249.017 40.0452 249.671 40.0748L250.65 40.1707L251.142 40.2187L251.63 40.2962L252.605 40.4549L253.574 40.6727C256.153 41.2669 258.611 42.4147 260.765 43.88C262.606 45.1312 264.202 46.6259 265.736 48.0949C267.961 50.2245 270.171 52.3061 272.791 53.7639C274.092 54.4947 275.485 55.0668 276.93 55.4617C278.378 55.8566 279.875 56.0818 281.39 56.1777C284.203 56.3032 287.045 56.0854 289.717 55.2624C291.047 54.8453 292.333 54.288 293.556 53.6015C294.78 52.915 295.933 52.1068 297.049 51.2247C299.277 49.4642 301.339 47.4342 303.66 45.6552C304.82 44.7658 306.044 43.9427 307.348 43.2562C308.653 42.5697 310.035 42.0272 311.454 41.636C313.217 41.1488 315.035 40.9126 316.846 40.8572C318.657 40.7982 320.475 40.9089 322.26 41.2411C324.045 41.5658 325.789 42.1158 327.423 42.8945C329.056 43.677 330.568 44.6809 331.979 45.7918C334.807 48.0063 337.242 50.6526 340.158 52.7047C341.606 53.7307 343.166 54.6091 344.825 55.2403C346.485 55.8677 348.229 56.2478 349.992 56.4176C350.483 56.4471 350.979 56.5136 351.463 56.5763C351.947 56.6169 352.416 56.6575 352.852 56.6907H352.834Z" fill="#EC008C"/>
</g>
<defs>
<clipPath id="clip0_675_1999">
<rect width="353" height="179" fill="white"/>
</clipPath>
</defs>
</svg>
