<svg width="163" height="164" viewBox="0 0 163 164" fill="none" xmlns="http://www.w3.org/2000/svg">
<g clip-path="url(#clip0_675_2514)">
<path d="M30.48 21.3299C22.09 28.3499 15.18 37.1599 10.34 46.9899C5.19001 57.4999 2.30001 69.1199 1.94001 80.8599C1.69001 89.7099 3.05001 98.6199 5.86001 107.04C8.79001 115.43 13.25 123.23 18.72 130.15C23.69 136.61 29.81 141.96 36.33 146.79L38.76 148.51C39.57 149.08 40.37 149.67 41.26 150.13L46.47 153.03C48.24 153.93 50.11 154.63 51.92 155.44C52.84 155.8 53.73 156.27 54.68 156.55L57.53 157.44C61.28 158.78 65.22 159.41 69.11 160.19C73.06 160.58 76.99 161.1 80.95 160.93C89.93 160.85 98.83 159.24 107.22 156.27C115.56 153.15 123.32 148.65 130.22 143.13C136.47 138.28 141.88 132.27 146.43 125.79C156.31 111.91 161.12 94.6199 160.44 77.6299C159.95 67.1299 157.13 56.8199 152.49 47.4499C151.82 46.1899 151.11 44.8499 150.57 43.6299C150.24 42.8699 149.99 41.8899 150.08 41.6799C150.17 41.4699 150.71 41.8399 151.09 42.4299C152.31 44.3499 153.65 46.3999 154.82 48.5899C163.13 65.6499 164.96 86.1099 159.23 104.74L158.3 107.67C158.01 108.66 157.68 109.63 157.25 110.56L154.85 116.23C152.91 119.84 151.07 123.53 148.62 126.83C146.68 129.95 144.19 132.62 141.93 135.48C140.72 136.84 139.4 138.08 138.14 139.39L136.24 141.34C135.59 141.97 134.86 142.52 134.18 143.11L130.02 146.62C128.57 147.7 127.05 148.69 125.56 149.73L123.31 151.28C122.57 151.8 121.73 152.18 120.95 152.63L116.15 155.25C106.41 160.03 95.75 162.99 84.78 163.61C77.02 163.89 69.16 163.32 61.55 161.43C59.64 161 57.8 160.31 55.93 159.75L53.14 158.85L50.45 157.68C48.68 156.86 46.84 156.17 45.13 155.23L40.07 152.3C19.49 139.51 4.86001 117.73 1.03001 93.7799L0.630011 91.5499L0.440011 89.2799L0.0800111 84.7499C-0.0899889 83.2399 0.0800111 81.7199 0.0800111 80.2199C0.140011 78.7099 0.190011 77.2099 0.240011 75.7199C1.07001 67.6399 2.95001 59.7199 5.82001 52.1699C8.74001 44.6199 12.91 37.6199 17.79 31.1899L21.66 26.5199C23.04 25.0499 24.52 23.6599 25.94 22.2299C27.32 20.7499 28.91 19.4999 30.49 18.2299L32.84 16.3199L34.02 15.3699L35.29 14.5399L40.36 11.1999C42.08 10.1399 43.93 9.28994 45.71 8.32994L48.4 6.92994L51.22 5.79994C53.12 5.08994 54.95 4.19994 56.9 3.63994C66.67 0.389938 76.96 -0.700062 86.76 0.429938C97.33 1.58994 107.66 4.39994 117.46 9.20994C120.62 10.9599 123.89 12.5299 126.8 14.7099L129.04 16.2499C129.8 16.7399 130.53 17.2799 131.2 17.8899L135.34 21.3899C140.56 26.3499 145.42 31.7699 149.12 37.9599C149.51 38.5699 150.01 39.3399 150.2 39.7799C150.48 40.4399 150.66 41.0599 150.63 41.3499C150.62 41.4999 150.06 41.0699 149.78 40.6999C148.96 39.5499 148.13 38.3999 147.3 37.2399C146.46 36.0799 145.71 34.8699 144.76 33.7999C133.81 19.2499 117.5 9.09994 99.89 4.99994C88.27 2.34994 75.99 2.12994 64.39 4.86994C52 7.98994 40.46 13.4799 30.51 21.3299H30.48Z" fill="#EA0A8C"/>
<path d="M95.36 124.87C101.24 123.17 106.76 120.21 111.58 116.39C116.72 112.31 121.07 107.16 124.15 101.27C128.78 92.3799 130.09 81.7399 127.71 72.0399C126.59 67.5999 125.12 63.2899 123.01 59.1999C122.77 58.6899 122.54 58.1799 122.29 57.6799L121.41 56.2499C120.81 55.3099 120.26 54.3199 119.6 53.4099C118.21 51.6499 116.87 49.8299 115.21 48.3099C113.69 46.6499 111.85 45.3399 110.11 43.9299C108.21 42.7399 106.39 41.4299 104.35 40.5299C99.82 38.2999 94.97 36.7099 90.01 36.1199C85.06 35.4899 80.05 35.6399 75.21 36.5299C70.85 37.2399 66.63 38.7399 62.6 40.5499C58.28 42.5199 54.34 45.2499 50.87 48.4699C47.38 51.6799 44.44 55.4899 42.2 59.6799C39.39 64.8199 37.84 70.5799 37.3 76.3599C37.19 77.1499 37.2 77.9899 37.06 78.7199C36.98 79.1799 36.71 79.7099 36.53 79.7799C36.35 79.8499 36.06 79.5099 36.02 79.1099C35.87 77.8299 35.76 76.4399 35.89 75.0499C36.73 64.4099 41.56 53.7499 49.81 46.2999C53.25 43.1499 57.11 40.4199 61.37 38.4999C62.28 37.9899 63.26 37.6399 64.22 37.2599C65.18 36.8899 66.13 36.4499 67.11 36.1099C69.1 35.5499 71.03 34.7599 73.07 34.4099C77.09 33.3599 81.25 33.1199 85.43 33.1199C91.64 33.3199 97.86 34.5899 103.66 37.1599C107.73 39.0399 111.61 41.4299 115.02 44.4099C118.32 47.4799 121.39 50.8999 123.48 54.8999C126.89 60.9999 129.18 67.6599 130.08 74.5399C131.03 81.4099 130.44 88.4699 128.49 95.1299C127.99 96.7899 127.5 98.4599 126.75 100.04L125.71 102.42C125.28 103.17 124.85 103.92 124.42 104.66C123.31 106.71 121.83 108.52 120.48 110.4C118.94 112.14 117.5 113.95 115.76 115.49C114.16 117.16 112.26 118.5 110.47 119.96C109.53 120.62 108.54 121.22 107.57 121.86L106.11 122.8L104.57 123.59C96.45 128 87.04 130.01 77.78 129.29C71.91 128.84 66.24 127.11 61.39 124.24C56.16 121.16 51.4 117.46 47.22 112.92C46.5 112.19 45.91 111.35 45.26 110.56C44.64 109.75 43.94 109 43.43 108.1C42.34 106.37 41.18 104.68 40.31 102.83C38.49 99.1699 37.19 95.2799 36.38 91.2999C36.3 90.8999 36.2 90.3899 36.23 90.1099C36.28 89.6899 36.4 89.3199 36.56 89.1499C36.64 89.0699 36.94 89.3799 37.01 89.6299C37.42 91.1599 37.94 92.6699 38.42 94.1899C39.9 99.0399 42.3 103.57 45.26 107.67C48.29 111.71 51.95 115.26 56.09 118.12C61.54 121.87 67.81 124.58 74.37 125.61C81.4 126.66 88.47 126.51 95.38 124.87H95.36Z" fill="#EA0A8C"/>
<path d="M79.21 80.0299H87.61L86.94 66.5799L79.21 80.0299ZM54.18 99.5099L78.71 57.1799H99.04L102.39 99.5099H86.26V90.4399H73.83L69.46 99.5099H54.18Z" fill="#EA0A8C"/>
<path d="M61.99 142.62C63.36 143.29 64.74 143.96 66.15 144.55C66.44 144.68 66.76 144.83 66.97 145.05C67.09 145.18 67.07 145.47 67.03 145.67C67.01 145.76 66.76 145.89 66.66 145.86C65.96 145.63 65.24 145.41 64.59 145.09C61.57 143.54 58.51 142.3 55.34 141.16C51.35 139.7 47.44 137.89 43.63 135.79C39.57 133.56 35.98 130.47 33.25 126.68C32.5 125.67 31.75 124.64 31.05 123.59C30.31 122.57 29.65 121.49 28.99 120.41C27.87 118.53 26.94 116.56 25.96 114.63C24.6 111.95 23.33 109.23 22.25 106.43C20.51 102 19.2 97.3898 18.4 92.6698C17.27 86.2798 17.71 79.7298 18.67 73.3598C18.8 72.2798 19.01 71.2098 19.22 70.1498C19.26 69.9798 19.54 69.7498 19.69 69.7598C19.86 69.7698 20.12 70.0198 20.13 70.1798C20.17 70.8298 20.21 71.4998 20.1 72.1298C19.46 76.1898 19.16 80.3098 19.28 84.4098L19.42 87.3598L19.71 90.2898C20.19 93.8598 20.98 97.3798 22.08 100.79C23.17 104.2 24.58 107.5 26.2 110.67C27.08 112.4 28 114.11 28.95 115.8C31.82 120.77 35.22 125.5 39.43 129.45C41.34 131.31 43.67 132.72 45.95 134.05C51.3 137.07 56.57 139.75 62 142.61L61.99 142.62Z" fill="#EA0A8C"/>
<path d="M146.77 95.1699C146.14 95.2399 145.98 94.8899 146 94.5499C146.09 93.1599 146.08 91.7599 146.24 90.3899C146.72 86.4099 146.93 82.3699 146.68 78.3399C146.58 77.1599 146.54 75.9699 146.34 74.8099C145.87 71.6499 145.14 68.5199 144.2 65.4699C143.29 62.4799 142.22 59.5299 140.92 56.6799C139.22 53.0199 137.23 49.4599 134.77 46.2499C131.59 42.0899 127.74 38.5099 123.67 35.3199C118.35 31.1299 112.43 27.7199 106.11 25.3699C105.53 25.1699 104.91 25.0399 104.35 24.7899C104.15 24.7099 103.91 24.3799 103.92 24.1699C103.94 23.6799 104.37 23.6299 104.71 23.6999C105.4 23.8299 106.08 23.9899 106.75 24.1999C112.4 26.1299 117.83 28.8399 122.79 32.2899C126.12 34.5899 129.35 37.1199 132.18 40.0799C135.41 43.4499 138.26 47.2199 140.55 51.2999C142.24 54.2299 143.49 57.3999 144.57 60.5899C144.81 61.2699 144.98 61.9599 145.11 62.6699C145.55 64.6999 146.06 66.6799 146.54 68.6999C147.47 72.4299 147.89 76.2699 148.03 80.0899C148.22 84.8499 147.45 89.5299 147.05 94.2499C147.02 94.5799 146.86 94.8999 146.78 95.1699H146.77Z" fill="#EA0A8C"/>
<path d="M35.63 49.3099L34.36 51.1699L27.13 46.2399L25.51 48.6199L23.96 47.5699L28.48 40.9399L30.03 41.9999L28.41 44.3899L35.64 49.3199L35.63 49.3099Z" fill="#EA0A8C"/>
<path d="M38.96 39.1L41.76 42.06L40.12 43.61L32.81 35.89L35.06 33.76C36.11 32.77 37.06 32.22 37.93 32.13C38.79 32.03 39.6 32.38 40.33 33.15C40.76 33.6 41.02 34.13 41.1 34.72C41.18 35.31 41.1 35.92 40.83 36.56C43.63 37.19 45.45 37.6 46.28 37.77L44.46 39.49L39.81 38.27L38.94 39.09L38.96 39.1ZM37.7 37.78L38.23 37.28C38.75 36.79 39.05 36.34 39.13 35.94C39.21 35.54 39.08 35.15 38.73 34.78C38.38 34.41 38.01 34.27 37.61 34.36C37.21 34.44 36.75 34.74 36.22 35.23L35.72 35.7L37.69 37.78H37.7Z" fill="#EA0A8C"/>
<path d="M55.18 32.1799L53.24 30.3899L49.9 32.3499L50.52 34.9199L48.43 36.1499L46.26 25.0499L48.64 23.6499L57.29 30.9499L55.2 32.1799H55.18ZM51.82 29.0299C50.04 27.4099 49.04 26.4999 48.81 26.2799C48.58 26.0699 48.4 25.8899 48.28 25.7599C48.46 26.3799 48.84 27.9299 49.42 30.4199L51.81 29.0199L51.82 29.0299Z" fill="#EA0A8C"/>
<path d="M63.62 17.4998L65.79 16.8098L65.56 28.0298L63.22 28.7698L56.57 19.7298L58.74 19.0398L62.56 24.4598C62.78 24.7798 63.02 25.1598 63.28 25.5998C63.54 26.0398 63.72 26.3398 63.8 26.5198C63.72 26.0798 63.65 25.2798 63.61 24.1198V17.4798L63.62 17.4998Z" fill="#EA0A8C"/>
<path d="M79.15 25.7399L73.06 26.3299L72.04 15.7499L78.13 15.1599L78.31 16.9999L74.46 17.3699L74.69 19.6899L78.27 19.3399L78.45 21.1799L74.87 21.5299L75.13 24.2599L78.98 23.8899L79.16 25.7399H79.15Z" fill="#EA0A8C"/>
<path d="M84.19 25.8L85.29 15.23L87.53 15.46L86.62 24.18L90.91 24.63L90.72 26.48L84.19 25.8Z" fill="#EA0A8C"/>
<path d="M124.85 117.1L126.23 115.32L133.15 120.68L134.92 118.4L136.4 119.55L131.48 125.89L130 124.74L131.77 122.46L124.85 117.1Z" fill="#EA0A8C"/>
<path d="M115.97 132.72C114.86 131.35 114.35 130.03 114.44 128.74C114.52 127.46 115.2 126.3 116.47 125.28C117.74 124.26 119.01 123.84 120.28 124.02C121.55 124.21 122.74 124.99 123.86 126.36C124.97 127.74 125.48 129.06 125.39 130.34C125.3 131.61 124.61 132.77 123.35 133.79C122.08 134.82 120.81 135.24 119.55 135.05C118.29 134.86 117.1 134.08 115.99 132.71L115.97 132.72ZM122 127.84C121.25 126.92 120.52 126.36 119.79 126.18C119.06 126 118.35 126.18 117.65 126.75C116.25 127.88 116.3 129.37 117.81 131.23C119.31 133.09 120.76 133.46 122.15 132.34C122.85 131.78 123.18 131.12 123.16 130.36C123.14 129.6 122.75 128.77 122 127.84Z" fill="#EA0A8C"/>
<path d="M100.68 134.7L102.98 133.58L107.44 136.39L108 135.36L106.35 131.95L108.38 130.97L113.01 140.53L110.98 141.51L108.86 137.13L108.61 138.64L107.6 143.14L105.35 144.23L106.63 138.38L100.68 134.68V134.7Z" fill="#EA0A8C"/>
<path d="M94.95 142.61L93.75 147.37L91.38 147.91L93.39 140.8L92.48 136.77L94.66 136.28L95.56 140.24L100.44 145.86L98.06 146.4L94.95 142.62V142.61Z" fill="#EA0A8C"/>
<path d="M75.36 143.13C75.39 141.37 75.84 140.03 76.73 139.09C77.62 138.16 78.87 137.7 80.5 137.73C82.13 137.76 83.37 138.24 84.23 139.2C85.09 140.16 85.5 141.52 85.48 143.29C85.45 145.06 85 146.4 84.11 147.32C83.22 148.24 81.96 148.69 80.33 148.66C78.7 148.64 77.45 148.15 76.6 147.2C75.75 146.25 75.34 144.89 75.36 143.13ZM83.12 143.25C83.14 142.06 82.93 141.17 82.48 140.56C82.04 139.95 81.37 139.64 80.47 139.63C78.67 139.6 77.76 140.78 77.72 143.17C77.69 145.56 78.56 146.77 80.35 146.8C81.25 146.81 81.93 146.52 82.39 145.92C82.85 145.32 83.1 144.43 83.11 143.24L83.12 143.25Z" fill="#EA0A8C"/>
</g>
<defs>
<clipPath id="clip0_675_2514">
<rect width="162.55" height="163.68" fill="white"/>
</clipPath>
</defs>
</svg>
