<svg width="120" height="120" viewBox="0 0 120 120" fill="none" xmlns="http://www.w3.org/2000/svg">
<rect x="0.5" y="0.5" width="119" height="119" rx="59.5" fill="white"/>
<rect x="0.5" y="0.5" width="119" height="119" rx="59.5" stroke="#EC008C"/>
<rect x="7" y="7" width="106" height="106" rx="53" fill="white"/>
<rect x="7" y="7" width="106" height="106" rx="53" stroke="#EC008C" stroke-width="4"/>
<mask id="mask0_675_3798" style="mask-type:alpha" maskUnits="userSpaceOnUse" x="48" y="25" width="24" height="24">
<rect x="48" y="25" width="24" height="24" fill="#D9D9D9"/>
</mask>
<g mask="url(#mask0_675_3798)">
<path d="M51 46V44H69V46H51ZM52.75 41L49 34.75L51.4 34.1L54.2 36.45L57.7 35.525L52.525 28.625L55.425 27.85L62.9 34.125L67.15 32.975C67.6833 32.825 68.1875 32.8875 68.6625 33.1625C69.1375 33.4375 69.45 33.8416 69.6 34.375C69.75 34.9083 69.6875 35.4125 69.4125 35.8875C69.1375 36.3625 68.7333 36.675 68.2 36.825L52.75 41Z" fill="#EC008C"/>
</g>
<path d="M41.1284 61.9893C41.1284 62.7321 41.0396 63.4134 40.8618 64.0332C40.6887 64.6484 40.4198 65.1816 40.0552 65.6328C39.6906 66.084 39.228 66.4372 38.6675 66.6924L41.0737 69.3789H38.3599L36.5279 67.1367C36.496 67.1367 36.4686 67.1367 36.4458 67.1367C36.423 67.1367 36.398 67.1367 36.3706 67.1367C35.5549 67.1367 34.8485 67.016 34.2515 66.7744C33.6545 66.5283 33.16 66.1774 32.7681 65.7217C32.3807 65.266 32.0913 64.7214 31.8999 64.0879C31.7085 63.4544 31.6128 62.7503 31.6128 61.9756C31.6128 60.9411 31.7814 60.041 32.1187 59.2754C32.4605 58.5052 32.9846 57.9082 33.6909 57.4844C34.3973 57.0605 35.2951 56.8486 36.3843 56.8486C37.4689 56.8486 38.3599 57.0605 39.0571 57.4844C39.759 57.9082 40.2785 58.5052 40.6157 59.2754C40.9575 60.0456 41.1284 60.9502 41.1284 61.9893ZM33.8345 61.9893C33.8345 62.6865 33.9211 63.2881 34.0943 63.7939C34.272 64.2952 34.5477 64.6826 34.9214 64.9561C35.2951 65.2249 35.7782 65.3594 36.3706 65.3594C36.9722 65.3594 37.4598 65.2249 37.8335 64.9561C38.2072 64.6826 38.4784 64.2952 38.647 63.7939C38.8202 63.2881 38.9068 62.6865 38.9068 61.9893C38.9068 60.9411 38.7108 60.1162 38.3189 59.5146C37.9269 58.9131 37.2821 58.6123 36.3843 58.6123C35.7873 58.6123 35.2997 58.749 34.9214 59.0225C34.5477 59.2913 34.272 59.6787 34.0943 60.1846C33.9211 60.6859 33.8345 61.2874 33.8345 61.9893ZM51.0545 57.0059V63.4727C51.0545 64.1608 50.9018 64.7829 50.5965 65.3389C50.2957 65.8903 49.8377 66.3278 49.2225 66.6514C48.6118 66.9749 47.8416 67.1367 46.9119 67.1367C45.5903 67.1367 44.5831 66.7995 43.8904 66.125C43.1977 65.4505 42.8514 64.5573 42.8514 63.4453V57.0059H44.9637V63.124C44.9637 63.9489 45.1323 64.5277 45.4695 64.8604C45.8068 65.193 46.3058 65.3594 46.9666 65.3594C47.4314 65.3594 47.8074 65.2796 48.0945 65.1201C48.3862 64.9606 48.6004 64.7145 48.7371 64.3818C48.8738 64.0492 48.9422 63.6253 48.9422 63.1104V57.0059H51.0545ZM59.3399 67L58.6153 64.6211H54.9718L54.2471 67H51.9639L55.4913 56.9648H58.0821L61.6231 67H59.3399ZM58.1095 62.8438L57.3848 60.5195C57.3393 60.3646 57.2777 60.1663 57.2003 59.9248C57.1274 59.6787 57.0522 59.4303 56.9747 59.1797C56.9018 58.9245 56.8425 58.7035 56.797 58.5166C56.7514 58.7035 56.6876 58.9359 56.6055 59.2139C56.5281 59.4873 56.4529 59.7471 56.38 59.9932C56.307 60.2393 56.2546 60.4147 56.2227 60.5195L55.505 62.8438H58.1095ZM62.6078 67V57.0059H64.7269V65.25H68.7806V67H62.6078ZM70.2438 67V57.0059H72.3629V67H70.2438ZM76.6835 67H74.5986V57.0059H80.3271V58.7422H76.6835V61.3193H80.0741V63.0488H76.6835V67ZM85.1125 61.1211L87.1975 57.0059H89.4807L86.1652 63.1104V67H84.0598V63.1787L80.7443 57.0059H83.0412L85.1125 61.1211ZM29.979 81H24.2232V71.0059H29.979V72.7422H26.3423V74.9365H29.7261V76.6729H26.3423V79.25H29.979V81ZM36.0359 72.626C35.6303 72.626 35.2703 72.7057 34.9559 72.8652C34.646 73.0202 34.3839 73.2458 34.1697 73.542C33.9601 73.8382 33.8006 74.196 33.6912 74.6152C33.5818 75.0345 33.5271 75.5062 33.5271 76.0303C33.5271 76.7367 33.6137 77.3405 33.7869 77.8418C33.9646 78.3385 34.2381 78.7191 34.6072 78.9834C34.9764 79.2432 35.4526 79.373 36.0359 79.373C36.4415 79.373 36.8471 79.3275 37.2527 79.2363C37.6629 79.1452 38.1072 79.0153 38.5857 78.8467V80.624C38.1437 80.8063 37.7085 80.9362 37.2801 81.0137C36.8517 81.0957 36.3709 81.1367 35.8377 81.1367C34.8077 81.1367 33.9601 80.9248 33.2947 80.501C32.6339 80.0726 32.144 79.4756 31.825 78.71C31.506 77.9398 31.3465 77.042 31.3465 76.0166C31.3465 75.2601 31.449 74.5674 31.6541 73.9385C31.8592 73.3096 32.16 72.765 32.5564 72.3047C32.9529 71.8444 33.4428 71.4889 34.0262 71.2383C34.6095 70.9876 35.2794 70.8623 36.0359 70.8623C36.5327 70.8623 37.0294 70.9261 37.5262 71.0537C38.0275 71.1768 38.506 71.3477 38.9617 71.5664L38.2781 73.2891C37.9044 73.1113 37.5284 72.9564 37.1502 72.8242C36.7719 72.6921 36.4005 72.626 36.0359 72.626ZM49.5098 75.9893C49.5098 76.7594 49.4141 77.4613 49.2227 78.0947C49.0313 78.7236 48.7397 79.266 48.3477 79.7217C47.9604 80.1774 47.4682 80.5283 46.8712 80.7744C46.2742 81.016 45.5678 81.1367 44.752 81.1367C43.9363 81.1367 43.2299 81.016 42.6329 80.7744C42.0359 80.5283 41.5414 80.1774 41.1495 79.7217C40.7621 79.266 40.4727 78.7214 40.2813 78.0879C40.0899 77.4544 39.9942 76.7503 39.9942 75.9756C39.9942 74.9411 40.1628 74.041 40.5001 73.2754C40.8419 72.5052 41.366 71.9082 42.0723 71.4844C42.7787 71.0605 43.6765 70.8486 44.7657 70.8486C45.8503 70.8486 46.7413 71.0605 47.4386 71.4844C48.1404 71.9082 48.6599 72.5052 48.9971 73.2754C49.3389 74.0456 49.5098 74.9502 49.5098 75.9893ZM42.2159 75.9893C42.2159 76.6865 42.3025 77.2881 42.4757 77.7939C42.6534 78.2952 42.9291 78.6826 43.3028 78.9561C43.6765 79.2249 44.1596 79.3594 44.752 79.3594C45.3536 79.3594 45.8412 79.2249 46.2149 78.9561C46.5886 78.6826 46.8598 78.2952 47.0284 77.7939C47.2016 77.2881 47.2882 76.6865 47.2882 75.9893C47.2882 74.9411 47.0922 74.1162 46.7003 73.5146C46.3083 72.9131 45.6635 72.6123 44.7657 72.6123C44.1687 72.6123 43.6811 72.749 43.3028 73.0225C42.9291 73.2913 42.6534 73.6787 42.4757 74.1846C42.3025 74.6859 42.2159 75.2874 42.2159 75.9893ZM60.1673 81H57.474L53.1263 73.4395H53.0648C53.083 73.7539 53.099 74.0706 53.1127 74.3896C53.1263 74.7087 53.14 75.0277 53.1537 75.3467C53.1673 75.6611 53.181 75.9779 53.1947 76.2969V81H51.3011V71.0059H53.974L58.3148 78.4912H58.3627C58.3535 78.1813 58.3421 77.8737 58.3285 77.5684C58.3148 77.263 58.3011 76.9577 58.2875 76.6523C58.2783 76.347 58.2692 76.0417 58.2601 75.7363V71.0059H60.1673V81ZM71.4811 75.9893C71.4811 76.7594 71.3854 77.4613 71.194 78.0947C71.0026 78.7236 70.7109 79.266 70.319 79.7217C69.9316 80.1774 69.4394 80.5283 68.8424 80.7744C68.2454 81.016 67.539 81.1367 66.7233 81.1367C65.9075 81.1367 65.2011 81.016 64.6041 80.7744C64.0071 80.5283 63.5127 80.1774 63.1207 79.7217C62.7334 79.266 62.444 78.7214 62.2526 78.0879C62.0612 77.4544 61.9655 76.7503 61.9655 75.9756C61.9655 74.9411 62.1341 74.041 62.4713 73.2754C62.8131 72.5052 63.3372 71.9082 64.0436 71.4844C64.75 71.0605 65.6478 70.8486 66.737 70.8486C67.8216 70.8486 68.7125 71.0605 69.4098 71.4844C70.1116 71.9082 70.6312 72.5052 70.9684 73.2754C71.3102 74.0456 71.4811 74.9502 71.4811 75.9893ZM64.1871 75.9893C64.1871 76.6865 64.2737 77.2881 64.4469 77.7939C64.6246 78.2952 64.9004 78.6826 65.2741 78.9561C65.6478 79.2249 66.1308 79.3594 66.7233 79.3594C67.3248 79.3594 67.8125 79.2249 68.1862 78.9561C68.5599 78.6826 68.831 78.2952 68.9996 77.7939C69.1728 77.2881 69.2594 76.6865 69.2594 75.9893C69.2594 74.9411 69.0635 74.1162 68.6715 73.5146C68.2796 72.9131 67.6347 72.6123 66.737 72.6123C66.1399 72.6123 65.6523 72.749 65.2741 73.0225C64.9004 73.2913 64.6246 73.6787 64.4469 74.1846C64.2737 74.6859 64.1871 75.2874 64.1871 75.9893ZM77.5038 81L75.0976 73.1592H75.0361C75.0452 73.346 75.0588 73.6286 75.0771 74.0068C75.0999 74.3805 75.1204 74.7793 75.1386 75.2031C75.1568 75.627 75.1659 76.0098 75.1659 76.3516V81H73.2724V71.0059H76.1572L78.5224 78.6484H78.5634L81.0722 71.0059H83.957V81H81.9814V76.2695C81.9814 75.9551 81.9859 75.5928 81.995 75.1826C82.0087 74.7725 82.0247 74.3828 82.0429 74.0137C82.0611 73.64 82.0748 73.3597 82.0839 73.1729H82.0224L79.4452 81H77.5038ZM89.3098 75.1211L91.3947 71.0059H93.6779L90.3625 77.1104V81H88.257V77.1787L84.9416 71.0059H87.2385L89.3098 75.1211ZM45.0971 86.626C44.6915 86.626 44.3315 86.7057 44.017 86.8652C43.7071 87.0202 43.4451 87.2458 43.2309 87.542C43.0213 87.8382 42.8618 88.196 42.7524 88.6152C42.643 89.0345 42.5883 89.5062 42.5883 90.0303C42.5883 90.7367 42.6749 91.3405 42.8481 91.8418C43.0258 92.3385 43.2993 92.7191 43.6684 92.9834C44.0375 93.2432 44.5138 93.373 45.0971 93.373C45.5027 93.373 45.9083 93.3275 46.3139 93.2363C46.7241 93.1452 47.1684 93.0153 47.6469 92.8467V94.624C47.2049 94.8063 46.7696 94.9362 46.3412 95.0137C45.9129 95.0957 45.4321 95.1367 44.8989 95.1367C43.8689 95.1367 43.0213 94.9248 42.3559 94.501C41.6951 94.0726 41.2052 93.4756 40.8862 92.71C40.5672 91.9398 40.4077 91.042 40.4077 90.0166C40.4077 89.2601 40.5102 88.5674 40.7153 87.9385C40.9203 87.3096 41.2211 86.765 41.6176 86.3047C42.0141 85.8444 42.504 85.4889 43.0873 85.2383C43.6707 84.9876 44.3406 84.8623 45.0971 84.8623C45.5939 84.8623 46.0906 84.9261 46.5873 85.0537C47.0886 85.1768 47.5672 85.3477 48.0229 85.5664L47.3393 87.2891C46.9656 87.1113 46.5896 86.9564 46.2114 86.8242C45.8331 86.6921 45.4617 86.626 45.0971 86.626ZM49.4997 95V85.0059H51.6189V93.25H55.6726V95H49.4997ZM63.2539 95L62.5293 92.6211H58.8857L58.1611 95H55.8779L59.4053 84.9648H61.9961L65.5371 95H63.2539ZM62.0234 90.8438L61.2988 88.5195C61.2533 88.3646 61.1917 88.1663 61.1143 87.9248C61.0413 87.6787 60.9661 87.4303 60.8887 87.1797C60.8158 86.9245 60.7565 86.7035 60.7109 86.5166C60.6654 86.7035 60.6016 86.9359 60.5195 87.2139C60.4421 87.4873 60.3669 87.7471 60.2939 87.9932C60.221 88.2393 60.1686 88.4147 60.1367 88.5195L59.4189 90.8438H62.0234ZM72.4212 92.2246C72.4212 92.8171 72.2776 93.332 71.9905 93.7695C71.7034 94.207 71.2841 94.5443 70.7327 94.7812C70.1858 95.0182 69.5205 95.1367 68.7366 95.1367C68.3902 95.1367 68.0507 95.1139 67.718 95.0684C67.3899 95.0228 67.0732 94.9567 66.7678 94.8701C66.4671 94.779 66.18 94.6673 65.9065 94.5352V92.5664C66.3805 92.776 66.8727 92.9652 67.3831 93.1338C67.8935 93.3024 68.3994 93.3867 68.9007 93.3867C69.247 93.3867 69.525 93.3411 69.7346 93.25C69.9488 93.1589 70.1038 93.0335 70.1995 92.874C70.2952 92.7145 70.343 92.5322 70.343 92.3271C70.343 92.0765 70.2587 91.8623 70.0901 91.6846C69.9215 91.5068 69.6891 91.3405 69.3928 91.1855C69.1012 91.0306 68.7708 90.8643 68.4016 90.6865C68.1692 90.5771 67.9163 90.445 67.6428 90.29C67.3694 90.1305 67.1096 89.9368 66.8636 89.709C66.6175 89.4811 66.4147 89.2054 66.2552 88.8818C66.1002 88.5537 66.0227 88.1618 66.0227 87.7061C66.0227 87.109 66.1595 86.5986 66.4329 86.1748C66.7063 85.751 67.096 85.4274 67.6018 85.2041C68.1123 84.9762 68.7138 84.8623 69.4065 84.8623C69.9261 84.8623 70.4205 84.9238 70.8899 85.0469C71.3639 85.1654 71.8583 85.3385 72.3733 85.5664L71.6897 87.2139C71.2294 87.027 70.817 86.8835 70.4524 86.7832C70.0878 86.6784 69.7164 86.626 69.3382 86.626C69.0738 86.626 68.8483 86.6693 68.6614 86.7559C68.4746 86.8379 68.3333 86.9564 68.2376 87.1113C68.1419 87.2617 68.094 87.4372 68.094 87.6377C68.094 87.8747 68.1624 88.0752 68.2991 88.2393C68.4404 88.3988 68.65 88.5537 68.928 88.7041C69.2106 88.8545 69.5615 89.0299 69.9807 89.2305C70.4912 89.472 70.9264 89.7249 71.2864 89.9893C71.651 90.249 71.9313 90.5566 72.1272 90.9121C72.3232 91.263 72.4212 91.7005 72.4212 92.2246ZM79.8521 92.2246C79.8521 92.8171 79.7086 93.332 79.4214 93.7695C79.1343 94.207 78.7151 94.5443 78.1636 94.7812C77.6168 95.0182 76.9514 95.1367 76.1675 95.1367C75.8212 95.1367 75.4817 95.1139 75.149 95.0684C74.8209 95.0228 74.5041 94.9567 74.1988 94.8701C73.898 94.779 73.6109 94.6673 73.3375 94.5352V92.5664C73.8114 92.776 74.3036 92.9652 74.814 93.1338C75.3244 93.3024 75.8303 93.3867 76.3316 93.3867C76.678 93.3867 76.956 93.3411 77.1656 93.25C77.3798 93.1589 77.5347 93.0335 77.6304 92.874C77.7261 92.7145 77.774 92.5322 77.774 92.3271C77.774 92.0765 77.6897 91.8623 77.5211 91.6846C77.3524 91.5068 77.12 91.3405 76.8238 91.1855C76.5321 91.0306 76.2017 90.8643 75.8326 90.6865C75.6002 90.5771 75.3472 90.445 75.0738 90.29C74.8004 90.1305 74.5406 89.9368 74.2945 89.709C74.0484 89.4811 73.8456 89.2054 73.6861 88.8818C73.5311 88.5537 73.4537 88.1618 73.4537 87.7061C73.4537 87.109 73.5904 86.5986 73.8638 86.1748C74.1373 85.751 74.5269 85.4274 75.0328 85.2041C75.5432 84.9762 76.1448 84.8623 76.8375 84.8623C77.357 84.8623 77.8515 84.9238 78.3209 85.0469C78.7948 85.1654 79.2893 85.3385 79.8043 85.5664L79.1207 87.2139C78.6604 87.027 78.2479 86.8835 77.8834 86.7832C77.5188 86.6784 77.1474 86.626 76.7691 86.626C76.5048 86.626 76.2792 86.6693 76.0923 86.7559C75.9055 86.8379 75.7642 86.9564 75.6685 87.1113C75.5728 87.2617 75.525 87.4372 75.525 87.6377C75.525 87.8747 75.5933 88.0752 75.73 88.2393C75.8713 88.3988 76.081 88.5537 76.3589 88.7041C76.6415 88.8545 76.9924 89.0299 77.4117 89.2305C77.9221 89.472 78.3573 89.7249 78.7173 89.9893C79.0819 90.249 79.3622 90.5566 79.5582 90.9121C79.7541 91.263 79.8521 91.7005 79.8521 92.2246Z" fill="#EC008C"/>
</svg>
