<svg width="120" height="120" viewBox="0 0 120 120" fill="none" xmlns="http://www.w3.org/2000/svg">
<rect x="0.5" y="0.5" width="119" height="119" rx="59.5" fill="white"/>
<rect x="0.5" y="0.5" width="119" height="119" rx="59.5" stroke="#EC008C"/>
<rect x="7" y="7" width="106" height="106" rx="53" fill="white"/>
<rect x="7" y="7" width="106" height="106" rx="53" stroke="#EC008C" stroke-width="4"/>
<mask id="mask0_675_3812" style="mask-type:alpha" maskUnits="userSpaceOnUse" x="48" y="25" width="24" height="24">
<rect x="48" y="25" width="24" height="24" fill="#D9D9D9"/>
</mask>
<g mask="url(#mask0_675_3812)">
<path d="M56.5 31C55.95 31 55.4792 30.8042 55.0875 30.4125C54.6958 30.0208 54.5 29.55 54.5 29C54.5 28.45 54.6958 27.9792 55.0875 27.5875C55.4792 27.1958 55.95 27 56.5 27C57.05 27 57.5208 27.1958 57.9125 27.5875C58.3042 27.9792 58.5 28.45 58.5 29C58.5 29.55 58.3042 30.0208 57.9125 30.4125C57.5208 30.8042 57.05 31 56.5 31ZM62 45H55.55C55 45 54.4958 44.8042 54.0375 44.4125C53.5792 44.0208 53.2917 43.55 53.175 43L51 32H53.05L55.25 43H62V45ZM67.5 47L64.6 42H57.65C57.1667 42 56.7458 41.8542 56.3875 41.5625C56.0292 41.2708 55.8 40.8833 55.7 40.4L54.6 35.05C54.4167 34.25 54.6042 33.5417 55.1625 32.925C55.7208 32.3083 56.4 32 57.2 32C57.7833 32 58.3125 32.175 58.7875 32.525C59.2625 32.875 59.5667 33.35 59.7 33.95L60.8 39H64.05C64.4 39 64.725 39.0917 65.025 39.275C65.325 39.4583 65.5667 39.7 65.75 40L69.25 46L67.5 47Z" fill="#EC008C"/>
</g>
<path d="M41.1284 61.9893C41.1284 62.7321 41.0396 63.4134 40.8618 64.0332C40.6887 64.6484 40.4198 65.1816 40.0552 65.6328C39.6906 66.084 39.228 66.4372 38.6675 66.6924L41.0737 69.3789H38.3599L36.5279 67.1367C36.496 67.1367 36.4686 67.1367 36.4458 67.1367C36.423 67.1367 36.398 67.1367 36.3706 67.1367C35.5549 67.1367 34.8485 67.016 34.2515 66.7744C33.6545 66.5283 33.16 66.1774 32.7681 65.7217C32.3807 65.266 32.0913 64.7214 31.8999 64.0879C31.7085 63.4544 31.6128 62.7503 31.6128 61.9756C31.6128 60.9411 31.7814 60.041 32.1187 59.2754C32.4605 58.5052 32.9846 57.9082 33.6909 57.4844C34.3973 57.0605 35.2951 56.8486 36.3843 56.8486C37.4689 56.8486 38.3599 57.0605 39.0571 57.4844C39.759 57.9082 40.2785 58.5052 40.6157 59.2754C40.9575 60.0456 41.1284 60.9502 41.1284 61.9893ZM33.8345 61.9893C33.8345 62.6865 33.9211 63.2881 34.0943 63.7939C34.272 64.2952 34.5477 64.6826 34.9214 64.9561C35.2951 65.2249 35.7782 65.3594 36.3706 65.3594C36.9722 65.3594 37.4598 65.2249 37.8335 64.9561C38.2072 64.6826 38.4784 64.2952 38.647 63.7939C38.8202 63.2881 38.9068 62.6865 38.9068 61.9893C38.9068 60.9411 38.7108 60.1162 38.3189 59.5146C37.9269 58.9131 37.2821 58.6123 36.3843 58.6123C35.7873 58.6123 35.2997 58.749 34.9214 59.0225C34.5477 59.2913 34.272 59.6787 34.0943 60.1846C33.9211 60.6859 33.8345 61.2874 33.8345 61.9893ZM51.0545 57.0059V63.4727C51.0545 64.1608 50.9018 64.7829 50.5965 65.3389C50.2957 65.8903 49.8377 66.3278 49.2225 66.6514C48.6118 66.9749 47.8416 67.1367 46.9119 67.1367C45.5903 67.1367 44.5831 66.7995 43.8904 66.125C43.1977 65.4505 42.8514 64.5573 42.8514 63.4453V57.0059H44.9637V63.124C44.9637 63.9489 45.1323 64.5277 45.4695 64.8604C45.8068 65.193 46.3058 65.3594 46.9666 65.3594C47.4314 65.3594 47.8074 65.2796 48.0945 65.1201C48.3862 64.9606 48.6004 64.7145 48.7371 64.3818C48.8738 64.0492 48.9422 63.6253 48.9422 63.1104V57.0059H51.0545ZM59.3399 67L58.6153 64.6211H54.9718L54.2471 67H51.9639L55.4913 56.9648H58.0821L61.6231 67H59.3399ZM58.1095 62.8438L57.3848 60.5195C57.3393 60.3646 57.2777 60.1663 57.2003 59.9248C57.1274 59.6787 57.0522 59.4303 56.9747 59.1797C56.9018 58.9245 56.8425 58.7035 56.797 58.5166C56.7514 58.7035 56.6876 58.9359 56.6055 59.2139C56.5281 59.4873 56.4529 59.7471 56.38 59.9932C56.307 60.2393 56.2546 60.4147 56.2227 60.5195L55.505 62.8438H58.1095ZM62.6078 67V57.0059H64.7269V65.25H68.7806V67H62.6078ZM70.2438 67V57.0059H72.3629V67H70.2438ZM76.6835 67H74.5986V57.0059H80.3271V58.7422H76.6835V61.3193H80.0741V63.0488H76.6835V67ZM85.1125 61.1211L87.1975 57.0059H89.4807L86.1652 63.1104V67H84.0598V63.1787L80.7443 57.0059H83.0412L85.1125 61.1211ZM28.7417 71.0059H31.8521C33.1828 71.0059 34.19 71.1927 34.8736 71.5664C35.5571 71.9401 35.8989 72.5964 35.8989 73.5352C35.8989 73.9134 35.8374 74.2552 35.7144 74.5605C35.5959 74.8659 35.4227 75.1165 35.1948 75.3125C34.967 75.5085 34.689 75.6361 34.3609 75.6953V75.7637C34.6935 75.832 34.9943 75.9505 35.2632 76.1191C35.5321 76.2832 35.7463 76.5247 35.9058 76.8438C36.0698 77.1582 36.1519 77.5775 36.1519 78.1016C36.1519 78.7077 36.0038 79.2272 35.7075 79.6602C35.4113 80.0931 34.9875 80.4258 34.4361 80.6582C33.8892 80.8861 33.2375 81 32.481 81H28.7417V71.0059ZM30.8609 74.9639H32.0913C32.7066 74.9639 33.1327 74.8682 33.3696 74.6768C33.6066 74.4808 33.7251 74.1937 33.7251 73.8154C33.7251 73.4326 33.5838 73.1592 33.3013 72.9951C33.0233 72.8265 32.5812 72.7422 31.9751 72.7422H30.8609V74.9639ZM30.8609 76.6455V79.25H32.2417C32.8797 79.25 33.3241 79.127 33.5747 78.8809C33.8254 78.6348 33.9507 78.3044 33.9507 77.8896C33.9507 77.6436 33.896 77.4271 33.7866 77.2402C33.6773 77.0534 33.4927 76.9076 33.2329 76.8027C32.9777 76.6979 32.6245 76.6455 32.1734 76.6455H30.8609ZM46.0027 71.0059V77.4727C46.0027 78.1608 45.8501 78.7829 45.5447 79.3389C45.2439 79.8903 44.7859 80.3278 44.1707 80.6514C43.56 80.9749 42.7898 81.1367 41.8602 81.1367C40.5385 81.1367 39.5314 80.7995 38.8387 80.125C38.146 79.4505 37.7996 78.5573 37.7996 77.4453V71.0059H39.9119V77.124C39.9119 77.9489 40.0805 78.5277 40.4178 78.8604C40.755 79.193 41.254 79.3594 41.9148 79.3594C42.3797 79.3594 42.7557 79.2796 43.0428 79.1201C43.3344 78.9606 43.5486 78.7145 43.6854 78.3818C43.8221 78.0492 43.8904 77.6253 43.8904 77.1104V71.0059H46.0027ZM54.0694 78.2246C54.0694 78.8171 53.9259 79.332 53.6387 79.7695C53.3516 80.207 52.9324 80.5443 52.3809 80.7812C51.8341 81.0182 51.1687 81.1367 50.3848 81.1367C50.0385 81.1367 49.699 81.1139 49.3663 81.0684C49.0382 81.0228 48.7214 80.9567 48.4161 80.8701C48.1153 80.779 47.8282 80.6673 47.5548 80.5352V78.5664C48.0287 78.776 48.5209 78.9652 49.0313 79.1338C49.5417 79.3024 50.0476 79.3867 50.5489 79.3867C50.8953 79.3867 51.1733 79.3411 51.3829 79.25C51.5971 79.1589 51.752 79.0335 51.8477 78.874C51.9434 78.7145 51.9913 78.5322 51.9913 78.3271C51.9913 78.0765 51.907 77.8623 51.7384 77.6846C51.5697 77.5068 51.3373 77.3405 51.0411 77.1855C50.7494 77.0306 50.419 76.8643 50.0499 76.6865C49.8175 76.5771 49.5645 76.445 49.2911 76.29C49.0177 76.1305 48.7579 75.9368 48.5118 75.709C48.2657 75.4811 48.0629 75.2054 47.9034 74.8818C47.7484 74.5537 47.671 74.1618 47.671 73.7061C47.671 73.109 47.8077 72.5986 48.0811 72.1748C48.3546 71.751 48.7442 71.4274 49.2501 71.2041C49.7605 70.9762 50.3621 70.8623 51.0548 70.8623C51.5743 70.8623 52.0688 70.9238 52.5382 71.0469C53.0121 71.1654 53.5066 71.3385 54.0216 71.5664L53.338 73.2139C52.8777 73.027 52.4652 72.8835 52.1007 72.7832C51.7361 72.6784 51.3647 72.626 50.9864 72.626C50.7221 72.626 50.4965 72.6693 50.3096 72.7559C50.1228 72.8379 49.9815 72.9564 49.8858 73.1113C49.7901 73.2617 49.7423 73.4372 49.7423 73.6377C49.7423 73.8747 49.8106 74.0752 49.9473 74.2393C50.0886 74.3988 50.2983 74.5537 50.5762 74.7041C50.8588 74.8545 51.2097 75.0299 51.629 75.2305C52.1394 75.472 52.5746 75.7249 52.9346 75.9893C53.2992 76.249 53.5795 76.5566 53.7755 76.9121C53.9714 77.263 54.0694 77.7005 54.0694 78.2246ZM55.6009 81V71.0059H57.7201V81H55.6009ZM68.8219 81H66.1286L61.7809 73.4395H61.7194C61.7376 73.7539 61.7536 74.0706 61.7672 74.3896C61.7809 74.7087 61.7946 75.0277 61.8082 75.3467C61.8219 75.6611 61.8356 75.9779 61.8493 76.2969V81H59.9557V71.0059H62.6286L66.9694 78.4912H67.0172C67.0081 78.1813 66.9967 77.8737 66.983 77.5684C66.9694 77.263 66.9557 76.9577 66.942 76.6523C66.9329 76.347 66.9238 76.0417 66.9147 75.7363V71.0059H68.8219V81ZM76.8202 81H71.0644V71.0059H76.8202V72.7422H73.1835V74.9365H76.5673V76.6729H73.1835V79.25H76.8202V81ZM84.5314 78.2246C84.5314 78.8171 84.3879 79.332 84.1008 79.7695C83.8137 80.207 83.3944 80.5443 82.843 80.7812C82.2961 81.0182 81.6307 81.1367 80.8469 81.1367C80.5005 81.1367 80.161 81.1139 79.8283 81.0684C79.5002 81.0228 79.1835 80.9567 78.8781 80.8701C78.5773 80.779 78.2902 80.6673 78.0168 80.5352V78.5664C78.4908 78.776 78.9829 78.9652 79.4934 79.1338C80.0038 79.3024 80.5096 79.3867 81.0109 79.3867C81.3573 79.3867 81.6353 79.3411 81.8449 79.25C82.0591 79.1589 82.2141 79.0335 82.3098 78.874C82.4055 78.7145 82.4533 78.5322 82.4533 78.3271C82.4533 78.0765 82.369 77.8623 82.2004 77.6846C82.0318 77.5068 81.7994 77.3405 81.5031 77.1855C81.2115 77.0306 80.8811 76.8643 80.5119 76.6865C80.2795 76.5771 80.0266 76.445 79.7531 76.29C79.4797 76.1305 79.2199 75.9368 78.9738 75.709C78.7277 75.4811 78.5249 75.2054 78.3654 74.8818C78.2105 74.5537 78.133 74.1618 78.133 73.7061C78.133 73.109 78.2697 72.5986 78.5432 72.1748C78.8166 71.751 79.2063 71.4274 79.7121 71.2041C80.2225 70.9762 80.8241 70.8623 81.5168 70.8623C82.0363 70.8623 82.5308 70.9238 83.0002 71.0469C83.4742 71.1654 83.9686 71.3385 84.4836 71.5664L83.8 73.2139C83.3397 73.027 82.9273 72.8835 82.5627 72.7832C82.1981 72.6784 81.8267 72.626 81.4484 72.626C81.1841 72.626 80.9585 72.6693 80.7717 72.7559C80.5848 72.8379 80.4436 72.9564 80.3479 73.1113C80.2522 73.2617 80.2043 73.4372 80.2043 73.6377C80.2043 73.8747 80.2727 74.0752 80.4094 74.2393C80.5507 74.3988 80.7603 74.5537 81.0383 74.7041C81.3208 74.8545 81.6717 75.0299 82.091 75.2305C82.6014 75.472 83.0367 75.7249 83.3967 75.9893C83.7613 76.249 84.0415 76.5566 84.2375 76.9121C84.4335 77.263 84.5314 77.7005 84.5314 78.2246ZM91.9624 78.2246C91.9624 78.8171 91.8188 79.332 91.5317 79.7695C91.2446 80.207 90.8253 80.5443 90.2739 80.7812C89.727 81.0182 89.0617 81.1367 88.2778 81.1367C87.9315 81.1367 87.5919 81.1139 87.2593 81.0684C86.9311 81.0228 86.6144 80.9567 86.3091 80.8701C86.0083 80.779 85.7212 80.6673 85.4477 80.5352V78.5664C85.9217 78.776 86.4139 78.9652 86.9243 79.1338C87.4347 79.3024 87.9406 79.3867 88.4419 79.3867C88.7882 79.3867 89.0662 79.3411 89.2759 79.25C89.4901 79.1589 89.645 79.0335 89.7407 78.874C89.8364 78.7145 89.8843 78.5322 89.8843 78.3271C89.8843 78.0765 89.8 77.8623 89.6313 77.6846C89.4627 77.5068 89.2303 77.3405 88.9341 77.1855C88.6424 77.0306 88.312 76.8643 87.9429 76.6865C87.7104 76.5771 87.4575 76.445 87.1841 76.29C86.9106 76.1305 86.6509 75.9368 86.4048 75.709C86.1587 75.4811 85.9559 75.2054 85.7964 74.8818C85.6414 74.5537 85.5639 74.1618 85.5639 73.7061C85.5639 73.109 85.7007 72.5986 85.9741 72.1748C86.2475 71.751 86.6372 71.4274 87.1431 71.2041C87.6535 70.9762 88.255 70.8623 88.9477 70.8623C89.4673 70.8623 89.9617 70.9238 90.4311 71.0469C90.9051 71.1654 91.3996 71.3385 91.9145 71.5664L91.2309 73.2139C90.7707 73.027 90.3582 72.8835 89.9936 72.7832C89.6291 72.6784 89.2576 72.626 88.8794 72.626C88.6151 72.626 88.3895 72.6693 88.2026 72.7559C88.0158 72.8379 87.8745 72.9564 87.7788 73.1113C87.6831 73.2617 87.6352 73.4372 87.6352 73.6377C87.6352 73.8747 87.7036 74.0752 87.8403 74.2393C87.9816 74.3988 88.1912 74.5537 88.4692 74.7041C88.7518 74.8545 89.1027 75.0299 89.522 75.2305C90.0324 75.472 90.4676 75.7249 90.8276 75.9893C91.1922 76.249 91.4725 76.5566 91.6684 76.9121C91.8644 77.263 91.9624 77.7005 91.9624 78.2246ZM45.0971 86.626C44.6915 86.626 44.3315 86.7057 44.017 86.8652C43.7071 87.0202 43.4451 87.2458 43.2309 87.542C43.0213 87.8382 42.8618 88.196 42.7524 88.6152C42.643 89.0345 42.5883 89.5062 42.5883 90.0303C42.5883 90.7367 42.6749 91.3405 42.8481 91.8418C43.0258 92.3385 43.2993 92.7191 43.6684 92.9834C44.0375 93.2432 44.5138 93.373 45.0971 93.373C45.5027 93.373 45.9083 93.3275 46.3139 93.2363C46.7241 93.1452 47.1684 93.0153 47.6469 92.8467V94.624C47.2049 94.8063 46.7696 94.9362 46.3412 95.0137C45.9129 95.0957 45.4321 95.1367 44.8989 95.1367C43.8689 95.1367 43.0213 94.9248 42.3559 94.501C41.6951 94.0726 41.2052 93.4756 40.8862 92.71C40.5672 91.9398 40.4077 91.042 40.4077 90.0166C40.4077 89.2601 40.5102 88.5674 40.7153 87.9385C40.9203 87.3096 41.2211 86.765 41.6176 86.3047C42.0141 85.8444 42.504 85.4889 43.0873 85.2383C43.6707 84.9876 44.3406 84.8623 45.0971 84.8623C45.5939 84.8623 46.0906 84.9261 46.5873 85.0537C47.0886 85.1768 47.5672 85.3477 48.0229 85.5664L47.3393 87.2891C46.9656 87.1113 46.5896 86.9564 46.2114 86.8242C45.8331 86.6921 45.4617 86.626 45.0971 86.626ZM49.4997 95V85.0059H51.6189V93.25H55.6726V95H49.4997ZM63.2539 95L62.5293 92.6211H58.8857L58.1611 95H55.8779L59.4053 84.9648H61.9961L65.5371 95H63.2539ZM62.0234 90.8438L61.2988 88.5195C61.2533 88.3646 61.1917 88.1663 61.1143 87.9248C61.0413 87.6787 60.9661 87.4303 60.8887 87.1797C60.8158 86.9245 60.7565 86.7035 60.7109 86.5166C60.6654 86.7035 60.6016 86.9359 60.5195 87.2139C60.4421 87.4873 60.3669 87.7471 60.2939 87.9932C60.221 88.2393 60.1686 88.4147 60.1367 88.5195L59.4189 90.8438H62.0234ZM72.4212 92.2246C72.4212 92.8171 72.2776 93.332 71.9905 93.7695C71.7034 94.207 71.2841 94.5443 70.7327 94.7812C70.1858 95.0182 69.5205 95.1367 68.7366 95.1367C68.3902 95.1367 68.0507 95.1139 67.718 95.0684C67.3899 95.0228 67.0732 94.9567 66.7678 94.8701C66.4671 94.779 66.18 94.6673 65.9065 94.5352V92.5664C66.3805 92.776 66.8727 92.9652 67.3831 93.1338C67.8935 93.3024 68.3994 93.3867 68.9007 93.3867C69.247 93.3867 69.525 93.3411 69.7346 93.25C69.9488 93.1589 70.1038 93.0335 70.1995 92.874C70.2952 92.7145 70.343 92.5322 70.343 92.3271C70.343 92.0765 70.2587 91.8623 70.0901 91.6846C69.9215 91.5068 69.6891 91.3405 69.3928 91.1855C69.1012 91.0306 68.7708 90.8643 68.4016 90.6865C68.1692 90.5771 67.9163 90.445 67.6428 90.29C67.3694 90.1305 67.1096 89.9368 66.8636 89.709C66.6175 89.4811 66.4147 89.2054 66.2552 88.8818C66.1002 88.5537 66.0227 88.1618 66.0227 87.7061C66.0227 87.109 66.1595 86.5986 66.4329 86.1748C66.7063 85.751 67.096 85.4274 67.6018 85.2041C68.1123 84.9762 68.7138 84.8623 69.4065 84.8623C69.9261 84.8623 70.4205 84.9238 70.8899 85.0469C71.3639 85.1654 71.8583 85.3385 72.3733 85.5664L71.6897 87.2139C71.2294 87.027 70.817 86.8835 70.4524 86.7832C70.0878 86.6784 69.7164 86.626 69.3382 86.626C69.0738 86.626 68.8483 86.6693 68.6614 86.7559C68.4746 86.8379 68.3333 86.9564 68.2376 87.1113C68.1419 87.2617 68.094 87.4372 68.094 87.6377C68.094 87.8747 68.1624 88.0752 68.2991 88.2393C68.4404 88.3988 68.65 88.5537 68.928 88.7041C69.2106 88.8545 69.5615 89.0299 69.9807 89.2305C70.4912 89.472 70.9264 89.7249 71.2864 89.9893C71.651 90.249 71.9313 90.5566 72.1272 90.9121C72.3232 91.263 72.4212 91.7005 72.4212 92.2246ZM79.8521 92.2246C79.8521 92.8171 79.7086 93.332 79.4214 93.7695C79.1343 94.207 78.7151 94.5443 78.1636 94.7812C77.6168 95.0182 76.9514 95.1367 76.1675 95.1367C75.8212 95.1367 75.4817 95.1139 75.149 95.0684C74.8209 95.0228 74.5041 94.9567 74.1988 94.8701C73.898 94.779 73.6109 94.6673 73.3375 94.5352V92.5664C73.8114 92.776 74.3036 92.9652 74.814 93.1338C75.3244 93.3024 75.8303 93.3867 76.3316 93.3867C76.678 93.3867 76.956 93.3411 77.1656 93.25C77.3798 93.1589 77.5347 93.0335 77.6304 92.874C77.7261 92.7145 77.774 92.5322 77.774 92.3271C77.774 92.0765 77.6897 91.8623 77.5211 91.6846C77.3524 91.5068 77.12 91.3405 76.8238 91.1855C76.5321 91.0306 76.2017 90.8643 75.8326 90.6865C75.6002 90.5771 75.3472 90.445 75.0738 90.29C74.8004 90.1305 74.5406 89.9368 74.2945 89.709C74.0484 89.4811 73.8456 89.2054 73.6861 88.8818C73.5311 88.5537 73.4537 88.1618 73.4537 87.7061C73.4537 87.109 73.5904 86.5986 73.8638 86.1748C74.1373 85.751 74.5269 85.4274 75.0328 85.2041C75.5432 84.9762 76.1448 84.8623 76.8375 84.8623C77.357 84.8623 77.8515 84.9238 78.3209 85.0469C78.7948 85.1654 79.2893 85.3385 79.8043 85.5664L79.1207 87.2139C78.6604 87.027 78.2479 86.8835 77.8834 86.7832C77.5188 86.6784 77.1474 86.626 76.7691 86.626C76.5048 86.626 76.2792 86.6693 76.0923 86.7559C75.9055 86.8379 75.7642 86.9564 75.6685 87.1113C75.5728 87.2617 75.525 87.4372 75.525 87.6377C75.525 87.8747 75.5933 88.0752 75.73 88.2393C75.8713 88.3988 76.081 88.5537 76.3589 88.7041C76.6415 88.8545 76.9924 89.0299 77.4117 89.2305C77.9221 89.472 78.3573 89.7249 78.7173 89.9893C79.0819 90.249 79.3622 90.5566 79.5582 90.9121C79.7541 91.263 79.8521 91.7005 79.8521 92.2246Z" fill="#EC008C"/>
</svg>
