<svg width="110" height="110" viewBox="0 0 110 110" fill="none" xmlns="http://www.w3.org/2000/svg">
<rect x="2" y="2" width="106" height="106" rx="53" fill="white"/>
<rect x="2" y="2" width="106" height="106" rx="53" stroke="#EC008C" stroke-width="4"/>
<path d="M61.0938 63H53.8516V43.1719C53.8516 42.625 53.8594 41.9531 53.875 41.1562C53.8906 40.3438 53.9141 39.5156 53.9453 38.6719C53.9766 37.8125 54.0078 37.0391 54.0391 36.3516C53.8672 36.5547 53.5156 36.9062 52.9844 37.4062C52.4688 37.8906 51.9844 38.3281 51.5312 38.7188L47.5938 41.8828L44.1016 37.5234L55.1406 28.7344H61.0938V63Z" fill="#EC008C"/>
<path d="M36.9047 75.709H37.602C38.2537 75.709 38.7413 75.5814 39.0649 75.3262C39.3884 75.0664 39.5502 74.6904 39.5502 74.1982C39.5502 73.7015 39.4135 73.3346 39.1401 73.0977C38.8712 72.8607 38.4474 72.7422 37.8686 72.7422H36.9047V75.709ZM41.6899 74.123C41.6899 75.1986 41.3526 76.0212 40.6782 76.5908C40.0082 77.1605 39.0535 77.4453 37.8139 77.4453H36.9047V81H34.7856V71.0059H37.978C39.1902 71.0059 40.1108 71.2679 40.7397 71.792C41.3731 72.3115 41.6899 73.0885 41.6899 74.123ZM52.3679 75.9893C52.3679 77.6436 51.9577 78.915 51.1374 79.8037C50.3171 80.6924 49.1413 81.1367 47.6101 81.1367C46.0788 81.1367 44.903 80.6924 44.0827 79.8037C43.2624 78.915 42.8523 77.639 42.8523 75.9756C42.8523 74.3122 43.2624 73.043 44.0827 72.168C44.9076 71.2884 46.0879 70.8486 47.6237 70.8486C49.1596 70.8486 50.3331 71.2907 51.1443 72.1748C51.96 73.0589 52.3679 74.3304 52.3679 75.9893ZM45.0739 75.9893C45.0739 77.1058 45.2859 77.9466 45.7097 78.5117C46.1335 79.0768 46.767 79.3594 47.6101 79.3594C49.3008 79.3594 50.1462 78.236 50.1462 75.9893C50.1462 73.738 49.3054 72.6123 47.6237 72.6123C46.7806 72.6123 46.1449 72.8971 45.7165 73.4668C45.2881 74.0319 45.0739 74.8727 45.0739 75.9893ZM54.1592 81V71.0059H56.2783V81H54.1592ZM67.3802 81H64.6868L60.3391 73.4395H60.2776C60.3642 74.7747 60.4075 75.7272 60.4075 76.2969V81H58.5139V71.0059H61.1868L65.5276 78.4912H65.5755C65.5071 77.1924 65.4729 76.2741 65.4729 75.7363V71.0059H67.3802V81ZM73.4781 81H71.3589V72.7695H68.6451V71.0059H76.192V72.7695H73.4781V81Z" fill="#EC008C"/>
</svg>
