<svg width="120" height="120" viewBox="0 0 120 120" fill="none" xmlns="http://www.w3.org/2000/svg">
<rect x="0.5" y="0.5" width="119" height="119" rx="59.5" fill="white"/>
<rect x="0.5" y="0.5" width="119" height="119" rx="59.5" stroke="#EC008C"/>
<rect x="7" y="7" width="106" height="106" rx="53" fill="white"/>
<rect x="7" y="7" width="106" height="106" rx="53" stroke="#EC008C" stroke-width="4"/>
<path d="M66.0938 68H58.8516V48.1719C58.8516 47.625 58.8594 46.9531 58.875 46.1562C58.8906 45.3438 58.9141 44.5156 58.9453 43.6719C58.9766 42.8125 59.0078 42.0391 59.0391 41.3516C58.8672 41.5547 58.5156 41.9062 57.9844 42.4062C57.4688 42.8906 56.9844 43.3281 56.5312 43.7188L52.5938 46.8828L49.1016 42.5234L60.1406 33.7344H66.0938V68Z" fill="#EC008C"/>
<path d="M41.9047 80.709H42.602C43.2537 80.709 43.7413 80.5814 44.0649 80.3262C44.3884 80.0664 44.5502 79.6904 44.5502 79.1982C44.5502 78.7015 44.4135 78.3346 44.1401 78.0977C43.8712 77.8607 43.4474 77.7422 42.8686 77.7422H41.9047V80.709ZM46.6899 79.123C46.6899 80.1986 46.3526 81.0212 45.6782 81.5908C45.0082 82.1605 44.0535 82.4453 42.8139 82.4453H41.9047V86H39.7856V76.0059H42.978C44.1902 76.0059 45.1108 76.2679 45.7397 76.792C46.3731 77.3115 46.6899 78.0885 46.6899 79.123ZM57.3679 80.9893C57.3679 82.6436 56.9577 83.915 56.1374 84.8037C55.3171 85.6924 54.1413 86.1367 52.6101 86.1367C51.0788 86.1367 49.903 85.6924 49.0827 84.8037C48.2624 83.915 47.8523 82.639 47.8523 80.9756C47.8523 79.3122 48.2624 78.043 49.0827 77.168C49.9076 76.2884 51.0879 75.8486 52.6237 75.8486C54.1596 75.8486 55.3331 76.2907 56.1443 77.1748C56.96 78.0589 57.3679 79.3304 57.3679 80.9893ZM50.0739 80.9893C50.0739 82.1058 50.2859 82.9466 50.7097 83.5117C51.1335 84.0768 51.767 84.3594 52.6101 84.3594C54.3008 84.3594 55.1462 83.236 55.1462 80.9893C55.1462 78.738 54.3054 77.6123 52.6237 77.6123C51.7806 77.6123 51.1449 77.8971 50.7165 78.4668C50.2881 79.0319 50.0739 79.8727 50.0739 80.9893ZM59.1592 86V76.0059H61.2783V86H59.1592ZM72.3802 86H69.6868L65.3391 78.4395H65.2776C65.3642 79.7747 65.4075 80.7272 65.4075 81.2969V86H63.5139V76.0059H66.1868L70.5276 83.4912H70.5755C70.5071 82.1924 70.4729 81.2741 70.4729 80.7363V76.0059H72.3802V86ZM78.4781 86H76.3589V77.7695H73.6451V76.0059H81.192V77.7695H78.4781V86Z" fill="#EC008C"/>
</svg>
