<svg width="210" height="189" viewBox="0 0 210 189" fill="none" xmlns="http://www.w3.org/2000/svg">
<g clip-path="url(#clip0_675_2005)">
<path d="M174.108 56.4611C175.094 55.6509 176.343 54.8757 177.465 54.7706L178.501 54.6856L180.497 48.7828L174.554 46.773L173.861 47.5462C173.1 48.3772 171.727 48.8968 170.48 49.188C169.853 49.3323 169.22 49.4063 168.651 49.4147C168.145 49.4419 167.621 49.3757 167.106 49.2014C165.045 48.5045 163.91 46.3577 164.57 44.4042L164.876 43.5002L158.933 41.4904L158.627 42.3944C157.967 44.346 155.762 45.3651 153.701 44.6682C151.64 43.9713 150.505 41.8245 151.166 39.8709L151.471 38.9669L145.528 36.9571L145.223 37.8611C144.563 39.8127 142.357 40.8319 140.296 40.1349C138.235 39.438 137.1 37.2912 137.761 35.3377L138.067 34.4337L132.124 32.4239L131.818 33.3279C131.158 35.2795 128.952 36.2986 126.891 35.6017C124.83 34.9048 123.695 32.758 124.356 30.8044L124.662 29.9004L118.719 27.8906L118.413 28.7946C117.753 30.7463 115.547 31.7654 113.486 31.0684C111.426 30.3715 110.291 28.2247 110.951 26.2712L111.257 25.3672L105.314 23.3574L105.008 24.2614C104.348 26.213 102.143 27.2321 100.082 26.5352C98.0209 25.8383 96.8858 23.6915 97.5465 21.7379L97.8522 20.8339L91.9092 18.8241L91.6035 19.7281C90.9435 21.6798 88.7377 22.6989 86.6769 22.002C86.1617 21.8277 85.7051 21.5623 85.3191 21.2333C84.8718 20.8835 84.414 20.4385 84.0032 19.9431C83.1891 18.9549 82.4139 17.7067 82.3126 16.5861L82.2315 15.5513L76.2885 13.5415L74.2922 19.4443L75.0641 20.1407C75.8939 20.9058 76.4134 22.2788 76.7059 23.5217C76.8496 24.1509 76.9275 24.7726 76.932 25.3526C76.9605 25.8552 76.8949 26.3773 76.722 26.8887C76.0302 28.9341 73.8873 30.0577 71.9338 29.3971L71.0298 29.0914L69.0336 34.9941L69.9376 35.2999C71.8911 35.9605 72.9122 38.1541 72.2205 40.1996C71.5287 42.2451 69.3858 43.3687 67.4323 42.708L66.5283 42.4023L64.5321 48.3051L65.4361 48.6108C67.3896 49.2715 68.4107 51.4651 67.719 53.5105C67.0272 55.556 64.8843 56.6796 62.9308 56.019L62.0268 55.7132L60.0306 61.616L60.9346 61.9217C62.8881 62.5824 63.9092 64.776 63.2174 66.8215C62.5257 68.867 60.3828 69.9906 58.4293 69.3299L57.5253 69.0242L55.5291 74.927L56.433 75.2327C58.3866 75.8933 59.4077 78.0869 58.7159 80.1324C58.0242 82.1779 55.8813 83.3015 53.9277 82.6408L53.0238 82.3351L51.0275 88.2379L51.9315 88.5436C53.8851 89.2043 54.9062 91.3979 54.2144 93.4434C53.5227 95.4888 51.3798 96.6124 49.4262 95.9518L48.5222 95.6461L46.526 101.549L47.43 101.855C49.3836 102.515 50.4047 104.709 49.7129 106.754C49.0212 108.8 46.8783 109.923 44.9247 109.263L44.0207 108.957L42.0245 114.86L42.9285 115.166C44.8821 115.826 45.9032 118.02 45.2114 120.065C44.5197 122.111 42.3768 123.234 40.4232 122.574L39.5192 122.268L37.523 128.171L38.427 128.476C40.3806 129.137 41.4016 131.331 40.7099 133.376C40.537 133.888 40.2729 134.34 39.9445 134.724C39.5908 135.183 39.1496 135.63 38.6536 136.042C37.6668 136.853 36.4186 137.628 35.2967 137.733L34.2606 137.818L32.2644 143.721L38.2074 145.73L38.8999 144.957C39.6612 144.126 41.0342 143.607 42.281 143.315C42.9082 143.171 43.5415 143.097 44.1099 143.089C44.6164 143.062 45.1403 143.128 45.6555 143.302C47.7163 143.999 48.8508 146.148 48.1908 148.099L47.8851 149.003L53.8281 151.013L54.1338 150.109C54.7938 148.157 56.9995 147.138 59.0603 147.835C61.1211 148.532 62.2556 150.681 61.5956 152.632L61.2899 153.536L67.2329 155.546L67.5386 154.642C68.1986 152.691 70.4043 151.672 72.4651 152.368C74.5259 153.065 75.6604 155.214 75.0004 157.166L74.6946 158.07L80.6376 160.08L80.9434 159.176C81.6034 157.224 83.8091 156.205 85.8699 156.902C87.9307 157.599 89.0652 159.747 88.4052 161.699L88.0994 162.603L94.0424 164.613L94.3481 163.709C95.0082 161.757 97.2139 160.738 99.2747 161.435C101.335 162.132 102.47 164.281 101.81 166.232L101.504 167.136L107.447 169.146L107.753 168.242C108.413 166.29 110.619 165.271 112.679 165.968C114.74 166.665 115.875 168.814 115.215 170.765L114.909 171.669L120.852 173.679L121.158 172.775C121.818 170.824 124.023 169.805 126.084 170.501C126.599 170.676 127.056 170.941 127.442 171.27C127.889 171.62 128.347 172.065 128.758 172.56C129.572 173.548 130.347 174.797 130.449 175.917L130.53 176.952L136.473 178.962L138.469 173.059L137.697 172.363C136.867 171.598 136.348 170.225 136.055 168.982C135.912 168.353 135.834 167.731 135.829 167.151C135.801 166.648 135.866 166.126 136.039 165.615C136.731 163.569 138.874 162.446 140.827 163.106L141.731 163.412L143.728 157.509L142.824 157.204C140.87 156.543 139.849 154.349 140.541 152.304C141.232 150.258 143.375 149.135 145.329 149.795L146.233 150.101L148.229 144.198L147.325 143.893C145.372 143.232 144.351 141.038 145.042 138.993C145.734 136.947 147.877 135.824 149.83 136.484L150.734 136.79L152.731 130.887L151.827 130.582C149.873 129.921 148.852 127.727 149.544 125.682C150.235 123.636 152.378 122.513 154.332 123.173L155.236 123.479L157.232 117.576L156.328 117.271C154.375 116.61 153.354 114.416 154.045 112.371C154.737 110.326 156.88 109.202 158.833 109.863L159.737 110.168L161.734 104.265L160.83 103.96C158.876 103.299 157.855 101.106 158.547 99.06C159.239 97.0146 161.381 95.891 163.335 96.5516L164.239 96.8573L166.235 90.9546L165.331 90.6488C163.378 89.9882 162.357 87.7946 163.048 85.7491C163.74 83.7036 165.883 82.58 167.836 83.2407L168.74 83.5464L170.737 77.6436L169.833 77.3379C167.879 76.6772 166.858 74.4836 167.55 72.4382C168.242 70.3927 170.384 69.2691 172.338 69.9297L173.242 70.2354L175.238 64.3327L174.334 64.027C172.381 63.3663 171.36 61.1727 172.051 59.1272C172.224 58.6159 172.488 58.1631 172.817 57.779C173.17 57.3202 173.612 56.8739 174.108 56.4611Z" fill="#9ACAE2"/>
<mask id="mask0_675_2005" style="mask-type:luminance" maskUnits="userSpaceOnUse" x="38" y="17" width="135" height="152">
<path d="M172.421 48.9023L78.6024 17.1748L38.0889 136.973L131.907 168.701L172.421 48.9023Z" fill="white"/>
</mask>
<g mask="url(#mask0_675_2005)">
<path d="M184.683 51.9679L56.0759 8.47559L19.1033 117.803L147.71 161.296L184.683 51.9679Z" fill="#FFCCD7"/>
<path d="M94.6849 131.588C114.159 138.174 135.285 127.726 141.871 108.251C148.457 88.7771 138.009 67.651 118.534 61.0652C99.0601 54.4793 77.934 64.9275 71.3482 84.4019C64.7623 103.876 75.2105 125.002 94.6849 131.588Z" fill="#EF2946"/>
<path d="M142.965 89.7527C142.748 89.5382 142.5 89.3882 142.213 89.2891L142.146 89.2664C141.884 89.1777 141.613 89.1011 141.39 88.9275C141.099 88.7012 140.911 88.3666 140.868 88.002C140.717 86.7578 139.874 85.6467 138.608 85.2186C138.438 85.161 138.265 85.1174 138.093 85.0891C137.354 84.9632 136.737 84.4279 136.618 83.6876C136.326 81.8623 135.058 80.2552 133.183 79.6211C131.57 79.0757 129.879 79.3746 128.583 80.2788C127.859 80.7833 126.905 80.7657 126.159 80.2957C125.883 80.1212 125.582 79.9767 125.26 79.8679C123.617 79.3122 121.874 79.8199 120.769 81.0107C120.769 81.0107 120.762 81.0209 120.747 81.0374C120.724 81.0635 120.702 81.0948 120.675 81.1196C118.96 82.7188 115.505 81.9493 113.059 81.3313L142.067 91.1413C142.906 91.425 143.598 90.3744 142.969 89.7495L142.965 89.7527Z" fill="#FEF8E0"/>
<path opacity="0.71" d="M85.8972 91.9563C85.7533 91.8137 85.59 91.7158 85.4011 91.6498L85.357 91.6349C85.1827 91.5759 85.0052 91.5266 84.8587 91.4109C84.6675 91.263 84.5444 91.0399 84.5148 90.7994C84.4148 89.978 83.8579 89.2455 83.0229 88.9631C82.9099 88.9249 82.7956 88.8969 82.6825 88.8778C82.1963 88.7945 81.7867 88.4405 81.7083 87.9529C81.516 86.7482 80.6773 85.6877 79.44 85.2693C78.3752 84.9091 77.2586 85.1057 76.4031 85.7042C75.9253 86.0378 75.2956 86.0255 74.8028 85.7158C74.6198 85.6005 74.4213 85.5057 74.2088 85.4338C73.1247 85.0672 71.9743 85.4017 71.2433 86.1875C71.2433 86.1875 71.2388 86.1945 71.2286 86.2059C71.2119 86.2238 71.199 86.2429 71.1804 86.2601C70.0486 87.3158 67.7683 86.8072 66.1538 86.3999L85.3024 92.8756C85.8559 93.0628 86.3141 92.3705 85.8991 91.9569L85.8972 91.9563Z" fill="#FEF8E0"/>
<path d="M81.1769 48.9097C80.7752 48.9616 80.7343 49.5369 81.1193 49.6671L94.3938 54.1563C93.3332 53.7015 91.8624 53.0206 91.6842 51.9636C91.6811 51.9476 91.6824 51.931 91.6799 51.9131C91.6793 51.9022 91.6787 51.8977 91.6787 51.8977C91.6072 51.1564 91.1139 50.4881 90.3632 50.2342C90.2157 50.1843 90.0662 50.153 89.9173 50.1389C89.5153 50.1032 89.1635 49.8434 89.0392 49.4599C88.8197 48.771 88.2877 48.192 87.5485 47.942C86.6904 47.6518 85.7835 47.885 85.1703 48.4674C84.9219 48.7035 84.549 48.7268 84.2441 48.5682C84.1733 48.5315 84.0986 48.4998 84.0201 48.4732C83.4398 48.277 82.8253 48.4469 82.4239 48.8576C82.3064 48.9779 82.1462 49.0475 81.9768 49.05C81.8483 49.0513 81.7276 49.0041 81.607 48.9633L81.5763 48.953C81.4442 48.9083 81.3119 48.8956 81.1737 48.9129L81.1769 48.9097Z" fill="#FEF8E0"/>
<path d="M142.088 151.165L17.7177 109.105C31.2367 111.786 67.5776 116.493 95.5334 97.1338C98.7815 94.8942 101.908 92.3274 104.87 89.3999C106.097 91.5842 108.762 92.84 110.369 92.7217C110.85 96.8668 111.751 102.078 113.421 107.849C117.322 121.312 125.42 137.846 142.086 151.164L142.088 151.165Z" fill="#6FB9E8"/>
<path d="M113.423 107.849C112.662 107.24 112.004 106.498 111.493 105.66C110.952 104.773 110.349 103.653 109.306 103.652C108.885 103.653 108.467 103.849 108.064 103.734C106.837 103.394 107.514 101.012 106.312 100.576C105.662 100.348 105.14 100.914 104.685 101.285C104.25 101.639 103.692 101.76 103.15 101.547C102.234 101.193 101.806 100.087 101.867 99.1477C101.919 98.288 102.001 97.2206 101.294 96.5827C100.663 96.0083 99.6929 96.086 98.8579 96.2454C97.731 96.4725 96.6331 96.7906 95.5358 97.1324C98.7839 94.8928 101.91 92.326 104.872 89.3985C106.099 91.5828 108.765 92.8386 110.371 92.7202C110.852 96.8654 111.753 102.077 113.424 107.847L113.423 107.849Z" fill="#FEF8E0"/>
<path d="M23.8957 101.257C37.5799 96.4129 54.0658 101.523 62.8763 113.059C66.5445 117.863 69.4594 123.993 75.1841 125.935C83.0697 128.613 92.0953 121.753 99.7436 125.051C104.881 127.264 107.454 133.37 112.529 135.726C116.72 137.673 121.727 136.611 125.887 134.603C130.048 132.595 133.744 129.704 137.947 127.785C142.149 125.866 147.241 125.023 151.297 127.234C154.415 128.932 156.444 132.222 157.263 135.677C158.082 139.132 157.817 142.754 157.239 146.255L152.037 161.639L12.611 114.487L17.0607 101.33L23.8964 101.255L23.8957 101.257Z" fill="#0D69A4"/>
<path d="M10.15 102.776C13.4504 99.2462 19.7681 99.3466 24.5234 101.58C29.2788 103.814 32.9012 107.681 36.6021 111.272C40.3011 114.862 44.4785 118.413 49.5906 119.63C52.9802 120.437 56.5126 120.139 59.9139 120.886C72.137 123.568 78.9809 138.465 91.3713 139.857C98.2123 140.625 104.878 136.856 111.591 138.501C120.112 140.589 124.91 150.445 133.504 152.163C139.056 153.272 144.321 150.59 149.765 149.609C158.717 147.995 168.838 151.409 174.985 158.119L168.654 176.839L3.94116 121.136L10.1487 102.78L10.15 102.776Z" fill="#AB8ED0"/>
</g>
<path d="M36.4045 124.86L37.3085 125.166C39.2601 125.826 40.2831 128.02 39.5913 130.065C39.4184 130.577 39.1543 131.029 38.8259 131.414C38.4723 131.872 38.0311 132.319 37.5351 132.731C37.039 133.144 36.4837 133.53 35.9076 133.839C35.3321 134.146 34.7358 134.376 34.1762 134.421L33.1401 134.506L31.1439 140.409L45.0273 133.543L47.7742 125.42L37.3994 121.912L36.4012 124.863L36.4045 124.86Z" fill="white"/>
<path d="M40.9053 111.549L41.8093 111.854C43.761 112.514 44.784 114.709 44.0922 116.754C43.4005 118.799 41.2557 119.922 39.304 119.262L38.4 118.957L37.4019 121.908L47.7768 125.417L52.2783 112.106L41.9034 108.597L40.9053 111.549Z" fill="white"/>
<path d="M45.4073 98.2378L46.3113 98.5435C48.2629 99.2035 49.2859 101.398 48.5942 103.443C47.9025 105.489 45.7576 106.612 43.806 105.952L42.902 105.646L41.9039 108.597L52.2788 112.106L56.7803 98.795L46.4054 95.2864L45.4073 98.2378Z" fill="white"/>
<path d="M49.9075 84.9267L50.8115 85.2324C52.7631 85.8925 53.7861 88.0867 53.0944 90.1322C52.4026 92.1777 50.2578 93.3006 48.3062 92.6406L47.4022 92.3349L46.4041 95.2863L56.7789 98.7949L61.2805 85.4839L50.9056 81.9753L49.9075 84.9267Z" fill="white"/>
<path d="M54.4095 71.6157L55.3135 71.9214C57.2651 72.5814 58.2881 74.7757 57.5963 76.8211C56.9046 78.8666 54.7598 79.9896 52.8082 79.3296L51.9042 79.0239L50.9061 81.9752L61.2809 85.4838L65.7824 72.1729L55.4076 68.6643L54.4095 71.6157Z" fill="white"/>
<path d="M58.9096 58.3047L59.8136 58.6104C61.7652 59.2704 62.7882 61.4646 62.0965 63.5101C61.4048 65.5556 59.2599 66.6785 57.3083 66.0185L56.4043 65.7128L55.4062 68.6642L65.7811 72.1728L70.2826 58.8619L59.9077 55.3533L58.9096 58.3047Z" fill="white"/>
<path d="M63.4116 44.9939L64.3156 45.2996C66.2672 45.9596 67.2902 48.1538 66.5984 50.1993C65.9067 52.2448 63.7619 53.3678 61.8103 52.7077L60.9063 52.402L59.9082 55.3534L70.283 58.862L74.7845 45.5511L64.4097 42.0425L63.4116 44.9939Z" fill="white"/>
<path d="M67.9135 31.6831L68.8175 31.9888C70.7692 32.6488 71.7922 34.843 71.1004 36.8885C70.4087 38.934 68.2639 40.057 66.3122 39.397L65.4082 39.0912L64.4101 42.0426L74.785 45.5512L79.2865 32.2403L68.9117 28.7317L67.9135 31.6831Z" fill="white"/>
<path d="M73.1722 16.1352L73.944 16.8316C74.3612 17.2075 74.6957 17.7517 74.9668 18.345C75.2372 18.9401 75.4441 19.5842 75.5878 20.2133C75.7314 20.8424 75.8093 21.4642 75.8138 22.0441C75.8423 22.5468 75.7767 23.0688 75.6038 23.5802C74.9121 25.6257 72.7672 26.7487 70.8156 26.0886L69.9116 25.7829L68.9135 28.7343L79.2884 32.2429L82.0353 24.1204L75.1684 10.2324L73.1722 16.1352Z" fill="white"/>
<path d="M90.7869 15.5143L90.4811 16.4183C89.8205 18.3718 87.6154 19.389 85.5546 18.6921C85.0394 18.5179 84.5828 18.2525 84.1968 17.9234C83.7495 17.5737 83.2917 17.1286 82.8808 16.6332C82.4681 16.1372 82.0798 15.5812 81.771 15.0051C81.464 14.4296 81.2365 13.834 81.1909 13.2744L81.1098 12.2395L75.1668 10.2297L82.0331 24.1132L90.2475 26.8912L93.7555 16.5182L90.7849 15.5136L90.7869 15.5143Z" fill="white"/>
<path d="M104.19 20.0468L103.884 20.9508C103.223 22.9044 101.018 23.9216 98.9575 23.2246C96.8967 22.5277 95.7616 20.3809 96.4223 18.4274L96.728 17.5234L93.7574 16.5188L90.2489 26.8937L103.652 31.4263L107.16 21.0514L104.19 20.0468Z" fill="white"/>
<path d="M117.593 24.5795L117.287 25.4835C116.626 27.4371 114.421 28.4543 112.361 27.7573C110.3 27.0604 109.165 24.9136 109.825 22.9601L110.131 22.0561L107.161 21.0515L103.652 31.4264L117.055 35.959L120.563 25.5841L117.593 24.5795Z" fill="white"/>
<path d="M130.996 29.112L130.69 30.016C130.03 31.9695 127.825 32.9867 125.764 32.2898C123.703 31.5929 122.568 29.4461 123.228 27.4926L123.534 26.5886L120.564 25.584L117.055 35.9589L130.458 40.4915L133.967 30.1166L130.996 29.112Z" fill="white"/>
<path d="M144.399 33.6447L144.093 34.5487C143.433 36.5023 141.228 37.5195 139.167 36.8225C137.106 36.1256 135.971 33.9788 136.632 32.0253L136.937 31.1213L133.967 30.1167L130.458 40.4916L143.861 45.0242L147.37 34.6493L144.399 33.6447Z" fill="white"/>
<path d="M157.799 38.1765L157.493 39.0804C156.832 41.034 154.627 42.0512 152.566 41.3543C150.506 40.6573 149.37 38.5106 150.031 36.557L150.337 35.653L147.366 34.6484L143.858 45.0233L157.261 49.5559L160.769 39.181L157.799 38.1765Z" fill="white"/>
<path d="M173.419 43.459L172.727 44.2322C172.353 44.65 171.809 44.9846 171.215 45.2556C170.62 45.526 169.974 45.7323 169.345 45.876C168.718 46.0203 168.085 46.0942 167.516 46.1026C167.01 46.1298 166.486 46.0636 165.971 45.8894C163.91 45.1925 162.775 43.0457 163.435 41.0921L163.742 40.1862L160.771 39.1816L157.263 49.5565L165.477 52.3345L179.362 45.4689L173.419 43.459Z" fill="white"/>
<path d="M174.105 61.0171L173.201 60.7114C171.247 60.0507 170.226 57.8571 170.918 55.8116C171.091 55.3003 171.355 54.8475 171.684 54.4634C172.037 54.0046 172.478 53.5583 172.974 53.1455C173.47 52.7327 174.026 52.3464 174.602 52.0376C175.177 51.7306 175.774 51.5011 176.333 51.4556L177.369 51.3706L179.365 45.4698L165.481 52.3361L162.735 60.4586L173.109 63.9672L174.108 61.0158L174.105 61.0171Z" fill="white"/>
<path d="M169.603 74.3279L168.699 74.0221C166.745 73.3615 165.724 71.1679 166.416 69.1224C167.108 67.0769 169.251 65.9533 171.204 66.614L172.108 66.9197L173.106 63.9683L162.732 60.4597L158.23 73.7707L168.605 77.2792L169.603 74.3279Z" fill="white"/>
<path d="M165.101 87.6386L164.197 87.3329C162.244 86.6723 161.222 84.4787 161.914 82.4332C162.606 80.3877 164.749 79.2641 166.702 79.9248L167.606 80.2305L168.604 77.2791L158.23 73.7705L153.728 87.0815L164.103 90.59L165.101 87.6386Z" fill="white"/>
<path d="M160.599 100.95L159.695 100.644C157.742 99.9833 156.72 97.7897 157.412 95.7442C158.104 93.6988 160.247 92.5752 162.2 93.2358L163.104 93.5415L164.102 90.5901L153.728 87.0815L149.226 100.392L159.601 103.901L160.599 100.95Z" fill="white"/>
<path d="M156.099 114.261L155.195 113.955C153.241 113.294 152.22 111.101 152.912 109.055C153.604 107.01 155.747 105.886 157.7 106.547L158.604 106.853L159.602 103.901L149.227 100.393L144.726 113.704L155.101 117.212L156.099 114.261Z" fill="white"/>
<path d="M151.599 127.572L150.695 127.266C148.741 126.605 147.72 124.412 148.412 122.366C149.104 120.321 151.246 119.197 153.2 119.858L154.104 120.164L155.102 117.212L144.727 113.704L140.226 127.015L150.601 130.523L151.599 127.572Z" fill="white"/>
<path d="M147.097 140.883L146.193 140.577C144.239 139.916 143.218 137.723 143.91 135.677C144.602 133.632 146.745 132.508 148.698 133.169L149.602 133.474L150.6 130.523L140.225 127.014L135.724 140.325L146.099 143.834L147.097 140.883Z" fill="white"/>
<path d="M142.595 154.193L141.691 153.888C139.737 153.227 138.716 151.033 139.408 148.988C140.1 146.942 142.243 145.819 144.196 146.479L145.1 146.785L146.098 143.834L135.723 140.325L131.222 153.636L141.597 157.145L142.595 154.193Z" fill="white"/>
<path d="M137.336 169.741L136.564 169.045C136.147 168.669 135.812 168.125 135.541 167.531C135.271 166.936 135.064 166.292 134.92 165.663C134.777 165.034 134.699 164.412 134.694 163.832C134.666 163.33 134.731 162.808 134.904 162.296C135.596 160.251 137.739 159.127 139.693 159.788L140.597 160.094L141.595 157.142L131.22 153.634L128.473 161.756L135.339 175.64L137.335 169.737L137.336 169.741Z" fill="white"/>
<path d="M119.72 170.362L120.026 169.458C120.686 167.506 122.892 166.487 124.953 167.184C125.468 167.358 125.925 167.624 126.311 167.953C126.758 168.302 127.216 168.747 127.626 169.243C128.039 169.739 128.427 170.295 128.736 170.871C129.043 171.446 129.271 172.042 129.317 172.6L129.398 173.635L135.341 175.644L128.475 161.761L120.26 158.983L116.752 169.358L119.722 170.362L119.72 170.362Z" fill="white"/>
<path d="M106.317 165.829L106.623 164.925C107.283 162.974 109.489 161.955 111.55 162.652C113.611 163.349 114.745 165.497 114.085 167.449L113.779 168.353L116.75 169.357L120.258 158.983L106.856 154.45L103.347 164.825L106.317 165.829Z" fill="white"/>
<path d="M92.9144 161.297L93.2201 160.393C93.8801 158.441 96.0858 157.422 98.1466 158.119C100.207 158.816 101.342 160.965 100.682 162.916L100.376 163.82L103.347 164.825L106.855 154.45L93.4524 149.917L89.9438 160.292L92.9144 161.297Z" fill="white"/>
<path d="M79.5131 156.764L79.8188 155.86C80.4788 153.909 82.6845 152.89 84.7453 153.587C86.8061 154.284 87.9406 156.432 87.2806 158.384L86.9749 159.288L89.9454 160.292L93.454 149.918L80.0511 145.385L76.5425 155.76L79.5131 156.764Z" fill="white"/>
<path d="M66.1099 152.232L66.4156 151.328C67.0757 149.376 69.2814 148.357 71.3422 149.054C73.403 149.751 74.5374 151.9 73.8774 153.851L73.5717 154.755L76.5423 155.76L80.0508 145.385L66.648 140.853L63.1394 151.227L66.1099 152.232Z" fill="white"/>
<path d="M52.7068 147.699L53.0125 146.795C53.6725 144.844 55.8783 143.825 57.9391 144.521C59.9999 145.218 61.1343 147.367 60.4743 149.319L60.1686 150.223L63.1392 151.227L66.6477 140.852L53.2449 136.32L49.7363 146.695L52.7068 147.699Z" fill="white"/>
<path d="M37.0884 142.417L37.7809 141.644C38.1549 141.226 38.6991 140.892 39.2917 140.623C39.8869 140.352 40.5329 140.146 41.162 140.002C41.7892 139.858 42.4225 139.784 42.9909 139.776C43.4974 139.748 44.0214 139.815 44.5366 139.989C46.5974 140.686 47.7318 142.834 47.0718 144.786L46.7661 145.69L49.7366 146.695L53.2452 136.32L45.0307 133.542L31.1473 140.408L37.0903 142.418L37.0884 142.417Z" fill="white"/>
</g>
<defs>
<clipPath id="clip0_675_2005">
<rect width="173.875" height="140.194" fill="white" transform="translate(44.9121) rotate(18.6846)"/>
</clipPath>
</defs>
</svg>
