<svg width="126" height="158" viewBox="0 0 126 158" fill="none" xmlns="http://www.w3.org/2000/svg">
<g clip-path="url(#clip0_675_2059)">
<path fill-rule="evenodd" clip-rule="evenodd" d="M104.049 11.2464C104.529 10.2018 105.236 9.06803 106.111 8.48081L106.922 7.95053L106.192 2.69635L100.938 3.42629L100.649 4.35161C100.324 5.35244 99.4243 6.34221 98.55 7.08904C98.1049 7.4645 97.6532 7.77963 97.1927 8.01804C96.7012 8.26075 96.3557 8.40525 95.8787 8.47152C94.0582 8.72444 92.3687 7.40963 92.1084 5.53626L91.9878 4.66785L86.7336 5.39779L86.8542 6.2662C87.1145 8.13957 85.8492 9.86488 84.0286 10.1178C82.208 10.3707 80.5185 9.05592 80.2583 7.18255L80.1376 6.31413L74.8835 7.04407L75.0041 7.91249C75.2644 9.78586 73.9991 11.5112 72.1767 11.7643C70.3543 12.0175 68.6684 10.7022 68.4082 8.82884L68.2875 7.96042L63.0333 8.69036L63.154 9.55877C63.4142 11.4321 62.1489 13.1575 60.3265 13.4106C58.5041 13.6638 56.8183 12.3485 56.558 10.4751L56.4374 9.60671L51.1832 10.3366L51.3039 11.2051C51.5641 13.0784 50.2988 14.8037 48.4764 15.0569C46.654 15.3101 44.9682 13.9948 44.7079 12.1214L44.5873 11.253L39.3331 11.9829L39.4537 12.8513C39.714 14.7247 38.4487 16.45 36.6281 16.7029C34.8075 16.9559 33.118 15.6411 32.8578 13.7677L32.7371 12.8993L27.483 13.6292L27.6036 14.4976C27.8639 16.371 26.5986 18.0963 24.7762 18.3495C22.9538 18.6027 21.2679 17.2874 21.0077 15.414L20.887 14.5456L15.6328 15.2755L15.7535 16.1439C16.0137 18.0173 14.7484 19.7426 12.926 19.9958C12.4491 20.062 12.0772 20.0172 11.5383 19.9176C11.032 19.8135 10.5095 19.6319 9.97905 19.3938C8.93437 18.9136 7.80063 18.2063 7.21341 17.3322L6.68313 16.5207L1.42895 17.2506L2.15889 22.5048L3.08422 22.7938C4.08504 23.1187 5.07482 24.0185 5.82164 24.8927C6.1971 25.3379 6.51223 25.7896 6.75064 26.2501C6.99336 26.7416 7.13785 27.0871 7.20412 27.564C7.4573 29.3864 6.14406 31.0739 4.26887 31.3344L3.40045 31.455L4.13039 36.7092L4.99881 36.5886C6.87218 36.3283 8.59748 37.5936 8.85066 39.416C9.10384 41.2384 7.7906 42.9258 5.9154 43.1863L5.04699 43.307L5.77693 48.5612L6.64534 48.4405C8.51872 48.1802 10.244 49.4455 10.4972 51.2679C10.7504 53.0903 9.43714 54.7778 7.56194 55.0383L6.69353 55.1589L7.42347 60.4131L8.29188 60.2925C10.1653 60.0322 11.8906 61.2975 12.1437 63.1199C12.3969 64.9423 11.0837 66.6297 9.20848 66.8902L8.34007 67.0109L9.07001 72.265L9.93842 72.1444C11.8118 71.8841 13.5371 73.1494 13.7903 74.9718C14.0435 76.7942 12.7302 78.4817 10.855 78.7422L9.98661 78.8628L10.7165 84.117L11.585 83.9963C13.4583 83.7361 15.1836 85.0014 15.4368 86.8238C15.69 88.6462 14.3768 90.3336 12.5016 90.5941L11.6331 90.7148L12.3631 95.9689L13.2315 95.8483C15.1049 95.588 16.8302 96.8533 17.0834 98.6757C17.3365 100.498 16.0233 102.186 14.1481 102.446L13.2797 102.567L14.0096 107.821L14.878 107.7C16.7514 107.44 18.4767 108.705 18.7299 110.528C18.9831 112.35 17.6698 114.037 15.7946 114.298L14.9262 114.419L15.6562 119.673L16.5246 119.552C18.398 119.292 20.1233 120.557 20.3764 122.38C20.6296 124.202 19.3164 125.889 17.4412 126.15L16.5728 126.271L17.3027 131.525L18.1711 131.404C20.0445 131.144 21.7698 132.409 22.023 134.232C22.2762 136.054 20.9629 137.741 19.0877 138.002L18.2193 138.123L18.9492 143.377L19.8177 143.256C21.691 142.996 23.4163 144.261 23.6695 146.084C23.7358 146.561 23.6909 146.932 23.5914 147.471C23.4873 147.978 23.3056 148.5 23.0676 149.031C22.5873 150.075 21.8801 151.209 21.006 151.796L20.1944 152.326L20.9244 157.581L26.1786 156.851L26.4676 155.925C26.7924 154.925 27.6923 153.935 28.5665 153.188C29.0117 152.812 29.4633 152.497 29.9238 152.259C30.4153 152.016 30.7608 151.872 31.2378 151.805C33.0584 151.553 34.7476 152.865 35.0081 154.741L35.1288 155.609L40.3829 154.879L40.2623 154.011C40.002 152.137 41.2673 150.412 43.0879 150.159C44.9085 149.906 46.5977 151.219 46.8582 153.094L46.9789 153.963L52.2331 153.233L52.1124 152.364C51.8522 150.491 53.1175 148.766 54.9399 148.513C56.7623 148.259 58.4479 149.573 58.7084 151.448L58.829 152.317L64.0832 151.587L63.9626 150.718C63.7023 148.845 64.9676 147.12 66.7882 146.867C68.6087 146.614 70.298 147.927 70.5585 149.802L70.6791 150.67L75.9333 149.94L75.8127 149.072C75.5524 147.199 76.8177 145.473 78.6383 145.22C80.4589 144.967 82.1481 146.28 82.4086 148.156L82.5293 149.024L87.7834 148.294L87.6628 147.426C87.4025 145.552 88.6678 143.827 90.4884 143.574C92.309 143.321 93.9982 144.634 94.2588 146.509L94.3794 147.378L99.6336 146.648L99.5129 145.779C99.2527 143.906 100.518 142.181 102.34 141.927C104.163 141.674 105.848 142.988 106.109 144.863L106.23 145.731L111.484 145.001L111.363 144.133C111.103 142.26 112.368 140.534 114.19 140.281C114.667 140.215 115.039 140.26 115.578 140.359C116.086 140.463 116.607 140.645 117.137 140.883C118.182 141.363 119.316 142.071 119.903 142.945L120.433 143.756L125.688 143.026L124.958 137.772L124.032 137.483C123.031 137.158 122.042 136.258 121.295 135.384C120.919 134.939 120.604 134.487 120.366 134.027C120.123 133.535 119.977 133.19 119.911 132.713C119.657 130.891 120.972 129.203 122.846 128.943L123.714 128.822L122.984 123.568L122.116 123.689C120.243 123.949 118.517 122.684 118.264 120.861C118.011 119.039 119.326 117.351 121.199 117.091L122.068 116.97L121.338 111.716L120.469 111.837C118.596 112.097 116.871 110.832 116.618 109.009C116.364 107.187 117.679 105.499 119.553 105.239L120.421 105.118L119.691 99.8641L118.823 99.9848C116.949 100.245 115.224 98.9797 114.971 97.1573C114.718 95.3349 116.033 93.6472 117.906 93.387L118.775 93.2663L118.045 88.0122L117.176 88.1328C115.303 88.3931 113.578 87.1278 113.324 85.3054C113.071 83.483 114.386 81.7953 116.26 81.535L117.128 81.4144L116.398 76.1602L115.53 76.2809C113.656 76.5411 111.931 75.2758 111.678 73.4534C111.425 71.631 112.74 69.9433 114.613 69.6831L115.482 69.5624L114.752 64.3083L113.883 64.4289C112.01 64.6892 110.285 63.4239 110.031 61.6015C109.778 59.7791 111.093 58.0914 112.967 57.8311L113.835 57.7105L113.105 52.4563L112.237 52.577C110.363 52.8372 108.638 51.5719 108.385 49.7495C108.132 47.9271 109.447 46.2395 111.32 45.9792L112.188 45.8586L111.459 40.6044L110.59 40.725C108.717 40.9853 106.991 39.72 106.738 37.8976C106.485 36.0752 107.8 34.3875 109.674 34.1272L110.542 34.0066L109.812 28.7524L108.944 28.8731C107.07 29.1333 105.345 27.868 105.092 26.0456C104.839 24.2232 106.154 22.5356 108.027 22.2753L108.895 22.1547L108.165 16.9005L107.297 17.0211C105.424 17.2814 103.698 16.0161 103.445 14.1937C103.379 13.7167 103.424 13.3449 103.525 12.8056C103.629 12.2976 103.811 11.7769 104.049 11.2464Z" fill="#9ACAE2"/>
<path d="M100.474 5.81779L5.67133 18.9883L23.7822 149.352L118.585 136.182L100.474 5.81779Z" fill="#EF2946"/>
<path d="M51.3518 75.4711L52.1221 74.4177L51.6498 73.4219L51.3518 75.4711Z" fill="#2C1E11"/>
<path d="M59.9438 100.703L59.0268 101.957L59.6521 103.492L59.9438 100.703Z" fill="#2C1E11"/>
<path d="M51.3517 75.4713L51.6497 73.422L52.1221 74.4178L67.3422 53.6034L48.375 72.9454L47.5753 73.7616L48.077 74.9947L59.0266 101.957L59.9435 100.703L59.6518 103.492L59.0266 101.957L24.6901 143.791L37.3721 147.919L65.503 102.638L52.1221 74.4178L51.3517 75.4713Z" fill="#2C1E11"/>
<path d="M52.6263 71.2153C52.6263 71.2153 53.9231 56.4659 54.1026 54.472L56.9324 68.1489L54.3539 66.3119L85.4041 52.8644L52.6282 71.215L52.6263 71.2153Z" fill="#2C1E11"/>
<path d="M47.7337 118.616L76.0495 110.531L75.5818 110.811L97.7759 92.3629L77.4223 112.825L77.279 112.97L76.9528 113.106L49.7844 124.468L47.7337 118.616Z" fill="#2C1E11"/>
<path d="M79.6462 94.9336L81.2782 108.671L78.5501 108.723L79.6462 94.9336Z" fill="#2C1E11"/>
<path d="M87.1084 101.758L103.663 99.8754L84.7189 104.768L87.1084 101.758Z" fill="#2C1E11"/>
<path d="M54.8903 90.7087L34.5167 77.233L57.2976 86.0504L54.8903 90.7087Z" fill="#2C1E11"/>
<path d="M65.1653 62.4105L76.3804 63.1795L62.7268 64.8277L65.1653 62.4105Z" fill="#2C1E11"/>
<path d="M58.9544 97.5426L64.198 78.129L61.6298 98.0728L58.9544 97.5426Z" fill="#2C1E11"/>
<path d="M46.6671 61.9107L45.6339 62.314C45.4579 62.383 45.2909 62.1965 45.3789 62.0284L45.8933 61.0421C45.8933 61.0421 44.1026 59.7469 42.5106 61.178C42.2203 61.4391 41.8938 61.8408 41.5861 62.3104C41.5037 61.7707 41.375 61.2856 41.2207 60.9359C40.4048 59.0971 38.2496 59.3594 38.1257 59.4156L38.1906 60.5237C38.2018 60.7114 37.9729 60.8137 37.8409 60.678L37.0605 59.8827C37.0605 59.8827 35.2761 61.1847 36.1438 63.1425C36.3031 63.5008 36.5821 63.9334 36.9342 64.3707C36.3968 64.282 35.8957 64.2551 35.5152 64.295C33.5139 64.5025 33.0992 66.633 33.1124 66.7685L34.1851 67.05C34.368 67.0969 34.3933 67.3458 34.225 67.4304L33.2286 67.9251C33.2286 67.9251 33.9156 70.025 36.0448 69.8034C36.4344 69.7623 36.9337 69.6298 37.4572 69.4309C37.2074 69.9166 37.0254 70.3835 36.9455 70.7565C36.5249 72.7244 38.4231 73.7783 38.5568 73.8061L39.1546 72.8731C39.2569 72.7142 39.5018 72.7674 39.5276 72.9531L39.6918 74.0548C39.6918 74.0548 41.9013 74.0503 42.349 71.9561C42.4313 71.5736 42.458 71.0577 42.4321 70.4971C42.8163 70.8854 43.2035 71.2009 43.5344 71.3925C45.276 72.4013 46.8632 70.9226 46.9321 70.8035L46.2283 69.9456C46.1077 69.7991 46.2336 69.583 46.4199 69.6147L47.5182 69.7998C47.5182 69.7998 48.1967 67.6977 46.3441 66.6245C46.0051 66.4285 45.5226 66.2413 44.9827 66.0955C45.47 65.8496 45.8927 65.5794 46.1762 65.3229C47.6745 63.979 46.7572 62.0113 46.6651 61.9091L46.6671 61.9107Z" fill="#FF92A5"/>
<path d="M44.1219 67.1004L40.6872 66.5142L44.1138 68.5248" stroke="white" stroke-width="0.102931" stroke-linecap="round" stroke-linejoin="round"/>
<path d="M42.8746 69.2222L40.6872 66.5142" stroke="white" stroke-width="0.102931" stroke-linecap="round" stroke-linejoin="round"/>
<path d="M42.8418 69.503C42.743 69.4462 42.7084 69.3174 42.7651 69.2186C42.8219 69.1198 42.9507 69.0852 43.0496 69.142C43.1484 69.1988 43.183 69.3276 43.1262 69.4264C43.0694 69.5252 42.9406 69.5598 42.8418 69.503Z" fill="white"/>
<path d="M44.1188 67.2992C44.02 67.2424 43.9854 67.1136 44.0422 67.0148C44.0989 66.9159 44.2277 66.8813 44.3266 66.9381C44.4254 66.9949 44.46 67.1237 44.4032 67.2225C44.3464 67.3214 44.2176 67.356 44.1188 67.2992Z" fill="white"/>
<path d="M44.1052 68.7672C44.0064 68.7104 43.9718 68.5816 44.0286 68.4828C44.0854 68.384 44.2142 68.3494 44.313 68.4061C44.4118 68.4629 44.4464 68.5917 44.3896 68.6906C44.3329 68.7894 44.204 68.824 44.1052 68.7672Z" fill="white"/>
<path d="M41.2137 69.9892L40.7102 66.5389L39.8577 70.4207" stroke="white" stroke-width="0.102931" stroke-linecap="round" stroke-linejoin="round"/>
<path d="M38.8104 69.4565L40.7099 66.5389" stroke="white" stroke-width="0.102931" stroke-linecap="round" stroke-linejoin="round"/>
<path d="M38.5305 69.5123C38.5538 69.3995 38.6645 69.3285 38.7772 69.3518C38.89 69.3751 38.961 69.4859 38.9377 69.5986C38.9144 69.7113 38.8037 69.7824 38.6909 69.7591C38.5782 69.7357 38.5072 69.625 38.5305 69.5123Z" fill="white"/>
<path d="M41.0242 70.0455C41.0475 69.9328 41.1583 69.8617 41.271 69.885C41.3837 69.9083 41.4548 70.0191 41.4315 70.1318C41.4082 70.2445 41.2974 70.3156 41.1847 70.2923C41.072 70.269 41.0009 70.1582 41.0242 70.0455Z" fill="white"/>
<path d="M39.6242 70.4866C39.6475 70.3739 39.7582 70.3029 39.8709 70.3262C39.9837 70.3495 40.0547 70.4602 40.0314 70.5729C40.0081 70.6857 39.8973 70.7567 39.7846 70.7334C39.6719 70.7101 39.6008 70.5994 39.6242 70.4866Z" fill="white"/>
<path d="M37.5648 68.1134L40.6906 66.5694L36.7343 66.9576" stroke="white" stroke-width="0.102931" stroke-linecap="round" stroke-linejoin="round"/>
<path d="M37.3286 65.6631L40.6909 66.5693" stroke="white" stroke-width="0.102931" stroke-linecap="round" stroke-linejoin="round"/>
<path d="M37.191 65.4151C37.3044 65.4031 37.407 65.4872 37.419 65.6006C37.4311 65.714 37.347 65.8166 37.2336 65.8286C37.1202 65.8407 37.0176 65.7566 37.0056 65.6432C36.9935 65.5298 37.0776 65.4272 37.191 65.4151Z" fill="white"/>
<path d="M37.4534 67.9508C37.5667 67.9387 37.6694 68.0228 37.6814 68.1362C37.6934 68.2496 37.6093 68.3522 37.496 68.3643C37.3826 68.3763 37.28 68.2922 37.2679 68.1788C37.2559 68.0654 37.34 67.9628 37.4534 67.9508Z" fill="white"/>
<path d="M36.6015 66.7552C36.7149 66.7432 36.8175 66.8273 36.8296 66.9407C36.8416 67.054 36.7575 67.1567 36.6441 67.1687C36.5307 67.1807 36.4281 67.0966 36.4161 66.9833C36.404 66.8699 36.4881 66.7673 36.6015 66.7552Z" fill="white"/>
<path d="M38.2211 64.0659L40.6554 66.5614L39.0638 62.9189" stroke="white" stroke-width="0.102931" stroke-linecap="round" stroke-linejoin="round"/>
<path d="M40.4785 63.0841L40.6554 66.5612" stroke="white" stroke-width="0.102931" stroke-linecap="round" stroke-linejoin="round"/>
<path d="M40.6705 62.8755C40.7167 62.9804 40.6707 63.1037 40.564 63.1501C40.459 63.1962 40.3357 63.1503 40.2893 63.0435C40.2432 62.9386 40.2892 62.8153 40.3959 62.7689C40.5009 62.7228 40.6242 62.7688 40.6705 62.8755Z" fill="white"/>
<path d="M38.3407 63.9082C38.3868 64.0132 38.3409 64.1365 38.2341 64.1828C38.1292 64.229 38.0056 64.1812 37.9595 64.0762C37.9134 63.9713 37.9593 63.848 38.0661 63.8016C38.1729 63.7552 38.2943 63.8015 38.3407 63.9082Z" fill="white"/>
<path d="M39.2148 62.729C39.2609 62.834 39.2149 62.9573 39.1082 63.0036C39.0014 63.05 38.88 63.0038 38.8336 62.8971C38.7875 62.7921 38.8352 62.6686 38.9402 62.6224C39.0451 62.5763 39.1684 62.6223 39.2148 62.729Z" fill="white"/>
<path d="M42.2756 63.4396L40.6557 66.5261L43.6256 63.8867" stroke="white" stroke-width="0.102931" stroke-linecap="round" stroke-linejoin="round"/>
<path d="M43.9067 65.2822L40.6557 66.5262" stroke="white" stroke-width="0.102931" stroke-linecap="round" stroke-linejoin="round"/>
<path d="M44.1641 65.4022C44.0783 65.4791 43.9473 65.4713 43.8704 65.3855C43.7936 65.2996 43.8013 65.1687 43.8872 65.0918C43.973 65.0149 44.104 65.0227 44.1808 65.1085C44.2577 65.1943 44.2499 65.3253 44.1641 65.4022Z" fill="white"/>
<path d="M42.4609 63.5047C42.375 63.5816 42.2441 63.5738 42.1672 63.488C42.0903 63.4022 42.0981 63.2712 42.1839 63.1943C42.2697 63.1174 42.4007 63.1252 42.4776 63.211C42.5545 63.2969 42.5467 63.4278 42.4609 63.5047Z" fill="white"/>
<path d="M43.8552 63.9718C43.7694 64.0486 43.6384 64.0409 43.5615 63.955C43.4846 63.8692 43.4924 63.7382 43.5782 63.6614C43.6641 63.5845 43.795 63.5923 43.8719 63.6781C43.9488 63.7639 43.941 63.8949 43.8552 63.9718Z" fill="white"/>
<path d="M82.3667 42.6233L81.3334 43.0267C81.1574 43.0956 80.9905 42.9091 81.0785 42.741L81.5928 41.7547C81.5928 41.7547 79.8021 40.4595 78.2102 41.8906C77.9199 42.1518 77.5934 42.5534 77.2856 43.023C77.2032 42.4833 77.0746 41.9983 76.9202 41.6486C76.1043 39.8097 73.9492 40.072 73.8252 40.1282L73.8901 41.2363C73.9013 41.424 73.6725 41.5264 73.5404 41.3907L72.76 40.5954C72.76 40.5954 70.9757 41.8973 71.8434 43.8552C72.0026 44.2135 72.2817 44.646 72.6338 45.0833C72.0963 44.9947 71.5952 44.9678 71.2148 45.0077C69.2135 45.2152 68.7987 47.3456 68.812 47.4811L69.8847 47.7626C70.0675 47.8096 70.0928 48.0584 69.9246 48.1431L68.9281 48.6378C68.9281 48.6378 69.6151 50.7377 71.7444 50.5161C72.1339 50.4749 72.6333 50.3425 73.1568 50.1436C72.9069 50.6292 72.725 51.0961 72.645 51.4691C72.2244 53.4371 74.1226 54.4909 74.2564 54.5187L74.8542 53.5858C74.9564 53.4268 75.2014 53.48 75.2272 53.6657L75.3914 54.7675C75.3914 54.7675 77.6009 54.763 78.0485 52.6688C78.1308 52.2862 78.1575 51.7703 78.1316 51.2098C78.5159 51.5981 78.903 51.9136 79.234 52.1051C80.9756 53.1139 82.5628 51.6352 82.6316 51.5162L81.9279 50.6583C81.8073 50.5117 81.9332 50.2957 82.1194 50.3273L83.2178 50.5125C83.2178 50.5125 83.8962 48.4103 82.0436 47.3372C81.7046 47.1412 81.2224 46.9558 80.6822 46.8081C81.1695 46.5623 81.5922 46.292 81.8758 46.0355C83.3741 44.6917 82.4568 42.724 82.3646 42.6217L82.3667 42.6233Z" fill="#FF92A5"/>
<path d="M79.8207 47.8129L76.3857 47.2249L79.8126 49.2373" stroke="white" stroke-width="0.102931" stroke-linecap="round" stroke-linejoin="round"/>
<path d="M78.5733 49.9347L76.3857 47.2249" stroke="white" stroke-width="0.102931" stroke-linecap="round" stroke-linejoin="round"/>
<path d="M78.5405 50.2159C78.4417 50.1591 78.4071 50.0303 78.4639 49.9315C78.5207 49.8327 78.6495 49.7981 78.7483 49.8549C78.8471 49.9117 78.8817 50.0405 78.8249 50.1393C78.7682 50.2381 78.6394 50.2727 78.5405 50.2159Z" fill="white"/>
<path d="M79.8173 48.0101C79.7184 47.9533 79.6839 47.8245 79.7406 47.7257C79.7974 47.6269 79.9262 47.5923 80.0251 47.6491C80.1239 47.7059 80.1585 47.8347 80.1017 47.9335C80.0449 48.0323 79.9161 48.0669 79.8173 48.0101Z" fill="white"/>
<path d="M79.8037 49.4781C79.7049 49.4213 79.6703 49.2925 79.7271 49.1937C79.7839 49.0949 79.9127 49.0603 80.0115 49.1171C80.1103 49.1739 80.1449 49.3027 80.0881 49.4015C80.0313 49.5003 79.9025 49.5349 79.8037 49.4781Z" fill="white"/>
<path d="M76.9124 50.7021L76.409 47.2518L75.5565 51.1336" stroke="white" stroke-width="0.102931" stroke-linecap="round" stroke-linejoin="round"/>
<path d="M74.5092 50.1692L76.4086 47.2516" stroke="white" stroke-width="0.102931" stroke-linecap="round" stroke-linejoin="round"/>
<path d="M74.2292 50.2249C74.2525 50.1122 74.3633 50.0411 74.476 50.0644C74.5887 50.0878 74.6598 50.1985 74.6365 50.3112C74.6132 50.424 74.5024 50.495 74.3897 50.4717C74.277 50.4484 74.2059 50.3376 74.2292 50.2249Z" fill="white"/>
<path d="M76.7215 50.7584C76.7448 50.6456 76.8556 50.5746 76.9683 50.5979C77.081 50.6212 77.1521 50.732 77.1288 50.8447C77.1055 50.9574 76.9947 51.0285 76.882 51.0052C76.7693 50.9818 76.6982 50.8711 76.7215 50.7584Z" fill="white"/>
<path d="M75.3229 51.1995C75.3462 51.0868 75.457 51.0157 75.5697 51.0391C75.6824 51.0624 75.7535 51.1731 75.7302 51.2858C75.7069 51.3986 75.5961 51.4696 75.4834 51.4463C75.3707 51.423 75.2996 51.3123 75.3229 51.1995Z" fill="white"/>
<path d="M73.2655 48.826L76.3913 47.282L72.435 47.6702" stroke="white" stroke-width="0.102931" stroke-linecap="round" stroke-linejoin="round"/>
<path d="M73.0294 46.3758L76.3916 47.2819" stroke="white" stroke-width="0.102931" stroke-linecap="round" stroke-linejoin="round"/>
<path d="M72.8917 46.1278C73.0051 46.1157 73.1077 46.1998 73.1198 46.3132C73.1318 46.4266 73.0477 46.5292 72.9343 46.5413C72.8209 46.5533 72.7183 46.4692 72.7063 46.3558C72.6942 46.2424 72.7783 46.1398 72.8917 46.1278Z" fill="white"/>
<path d="M73.1541 48.6634C73.2675 48.6514 73.3701 48.7355 73.3821 48.8489C73.3942 48.9622 73.3101 49.0649 73.1967 49.0769C73.0833 49.0889 72.9807 49.0048 72.9687 48.8915C72.9566 48.7781 73.0407 48.6755 73.1541 48.6634Z" fill="white"/>
<path d="M72.3023 47.4679C72.4157 47.4558 72.5183 47.5399 72.5303 47.6533C72.5423 47.7667 72.4582 47.8693 72.3449 47.8813C72.2315 47.8934 72.1289 47.8093 72.1168 47.6959C72.1048 47.5825 72.1889 47.4799 72.3023 47.4679Z" fill="white"/>
<path d="M73.9232 44.7778L76.3575 47.2733L74.7659 43.6308" stroke="white" stroke-width="0.102931" stroke-linecap="round" stroke-linejoin="round"/>
<path d="M76.1807 43.7962L76.3575 47.2734" stroke="white" stroke-width="0.102931" stroke-linecap="round" stroke-linejoin="round"/>
<path d="M76.3726 43.5877C76.4187 43.6926 76.3727 43.8159 76.266 43.8623C76.161 43.9084 76.0377 43.8625 75.9914 43.7557C75.9452 43.6508 75.993 43.5272 76.0979 43.4811C76.2029 43.435 76.3262 43.4809 76.3726 43.5877Z" fill="white"/>
<path d="M74.0413 44.6204C74.0874 44.7253 74.0414 44.8486 73.9347 44.895C73.8298 44.9411 73.7065 44.8952 73.6601 44.7884C73.614 44.6835 73.6617 44.5599 73.7667 44.5138C73.8716 44.4677 73.9949 44.5136 74.0413 44.6204Z" fill="white"/>
<path d="M74.9156 43.4412C74.9618 43.5461 74.9158 43.6694 74.809 43.7158C74.7023 43.7622 74.5806 43.7141 74.5344 43.6092C74.4883 43.5043 74.5343 43.381 74.641 43.3346C74.7478 43.2882 74.8693 43.3344 74.9156 43.4412Z" fill="white"/>
<path d="M77.9743 44.1522L76.3544 47.2388L79.3243 44.5993" stroke="white" stroke-width="0.102931" stroke-linecap="round" stroke-linejoin="round"/>
<path d="M79.6054 45.9948L76.3545 47.2389" stroke="white" stroke-width="0.102931" stroke-linecap="round" stroke-linejoin="round"/>
<path d="M79.8628 46.1148C79.777 46.1917 79.646 46.1839 79.5692 46.0981C79.4923 46.0123 79.5001 45.8813 79.5859 45.8044C79.6717 45.7276 79.8027 45.7353 79.8796 45.8212C79.9564 45.907 79.9487 46.038 79.8628 46.1148Z" fill="white"/>
<path d="M78.1596 44.2174C78.0738 44.2942 77.9428 44.2865 77.8659 44.2006C77.7891 44.1148 77.7969 43.9838 77.8827 43.907C77.9685 43.8301 78.0995 43.8379 78.1763 43.9237C78.2532 44.0095 78.2454 44.1405 78.1596 44.2174Z" fill="white"/>
<path d="M79.5539 44.6844C79.4681 44.7613 79.3371 44.7535 79.2602 44.6677C79.1834 44.5819 79.1911 44.4509 79.277 44.374C79.3628 44.2971 79.4938 44.3049 79.5706 44.3907C79.6475 44.4766 79.6397 44.6075 79.5539 44.6844Z" fill="white"/>
<path d="M90.8194 85.8599L90.0734 86.3811C89.9465 86.4692 89.7783 86.3534 89.815 86.2036L90.0352 85.3175C90.0352 85.3175 88.3586 84.63 87.3626 86.0766C87.1804 86.3413 86.9978 86.723 86.8427 87.1565C86.6738 86.742 86.4769 86.3797 86.2865 86.1315C85.2825 84.8217 83.6154 85.4448 83.5249 85.5149L83.7888 86.3857C83.8335 86.5335 83.6708 86.6582 83.5406 86.5761L82.7663 86.0917C82.7663 86.0917 81.5943 87.4737 82.662 88.8675C82.857 89.1224 83.1647 89.4137 83.5286 89.6953C83.0824 89.7295 82.6787 89.8023 82.3814 89.9067C80.8248 90.4569 80.903 92.235 80.9418 92.3409L81.8518 92.3593C82.0062 92.3619 82.0759 92.5564 81.9559 92.6547L81.2563 93.2418C81.2563 93.2418 82.209 94.7833 83.8629 94.1991C84.1654 94.0921 84.5381 93.89 84.9179 93.6313C84.8112 94.0655 84.7566 94.4739 84.765 94.7882C84.8067 96.4377 86.5226 96.9138 86.6354 96.9111L86.9335 96.0513C86.9837 95.9052 87.1891 95.9008 87.2478 96.0429L87.59 96.8898C87.59 96.8898 89.3509 96.4615 89.3055 94.7049C89.2981 94.3849 89.2197 93.9671 89.0916 93.5265C89.4713 93.7614 89.8431 93.9398 90.143 94.0281C91.7263 94.4984 92.7076 93.013 92.739 92.9047L92.0132 92.3561C91.8888 92.262 91.9489 92.0662 92.1033 92.0559L93.0149 91.9924C93.0149 91.9924 93.1516 90.1845 91.4678 89.6854C91.1601 89.5945 90.7403 89.5378 90.2802 89.5256C90.6224 89.2368 90.9055 88.9377 91.083 88.6792C92.0186 87.3189 90.9101 85.9252 90.8178 85.862L90.8194 85.8599Z" fill="#FF92A5"/>
<path d="M89.7884 90.4884L86.935 90.6807L90.0541 91.6262" stroke="white" stroke-width="0.0845508" stroke-linecap="round" stroke-linejoin="round"/>
<path d="M89.1994 92.4204L86.935 90.6807" stroke="white" stroke-width="0.0845508" stroke-linecap="round" stroke-linejoin="round"/>
<path d="M89.2278 92.6522C89.1369 92.6258 89.0866 92.5307 89.1129 92.4399C89.1393 92.349 89.2343 92.2987 89.3252 92.325C89.4161 92.3513 89.4664 92.4464 89.4401 92.5373C89.4137 92.6282 89.3187 92.6785 89.2278 92.6522Z" fill="white"/>
<path d="M89.8206 90.6473C89.7297 90.6209 89.6794 90.5259 89.7057 90.435C89.732 90.3441 89.8271 90.2938 89.918 90.3201C90.0089 90.3465 90.0592 90.4415 90.0329 90.5324C90.0065 90.6233 89.9114 90.6736 89.8206 90.6473Z" fill="white"/>
<path d="M90.0938 91.8211C90.0029 91.7948 89.9526 91.6997 89.979 91.6088C90.0053 91.5179 90.1004 91.4676 90.1913 91.4939C90.2821 91.5203 90.3325 91.6154 90.3061 91.7062C90.2798 91.7971 90.1847 91.8474 90.0938 91.8211Z" fill="white"/>
<path d="M88.0219 93.3524L86.9573 90.6982L87.0222 93.9571" stroke="white" stroke-width="0.0845508" stroke-linecap="round" stroke-linejoin="round"/>
<path d="M86.0025 93.3898L86.9572 90.6981" stroke="white" stroke-width="0.0845508" stroke-linecap="round" stroke-linejoin="round"/>
<path d="M85.7925 93.4875C85.7906 93.3931 85.865 93.3141 85.9593 93.3122C86.0537 93.3102 86.1327 93.3846 86.1347 93.4789C86.1366 93.5733 86.0622 93.6523 85.9679 93.6543C85.8735 93.6563 85.7945 93.5819 85.7925 93.4875Z" fill="white"/>
<path d="M87.8813 93.4331C87.8794 93.3387 87.9538 93.2597 88.0481 93.2577C88.1425 93.2557 88.2215 93.3301 88.2235 93.4245C88.2254 93.5189 88.1511 93.5979 88.0567 93.5998C87.9623 93.6018 87.8833 93.5274 87.8813 93.4331Z" fill="white"/>
<path d="M86.85 94.0551C86.848 93.9608 86.9224 93.8818 87.0168 93.8798C87.1112 93.8778 87.1901 93.9522 87.1921 94.0466C87.1941 94.1409 87.1197 94.2199 87.0253 94.2219C86.931 94.2239 86.852 94.1495 86.85 94.0551Z" fill="white"/>
<path d="M84.7547 92.5572L86.9498 90.725L83.8695 91.795" stroke="white" stroke-width="0.0845508" stroke-linecap="round" stroke-linejoin="round"/>
<path d="M84.0944 90.6485L86.9498 90.725" stroke="white" stroke-width="0.0845508" stroke-linecap="round" stroke-linejoin="round"/>
<path d="M83.9365 90.4774C84.025 90.4465 84.1223 90.4924 84.155 90.5806C84.1877 90.6689 84.14 90.7664 84.0517 90.7991C83.9632 90.83 83.8659 90.7841 83.8332 90.6959C83.8024 90.6074 83.8483 90.5101 83.9365 90.4774Z" fill="white"/>
<path d="M84.6329 92.4497C84.7214 92.4189 84.8187 92.4647 84.8514 92.553C84.8823 92.6415 84.8364 92.7388 84.7481 92.7715C84.6596 92.8023 84.5623 92.7564 84.5297 92.6682C84.497 92.58 84.5447 92.4824 84.6329 92.4497Z" fill="white"/>
<path d="M83.7238 91.6593C83.8123 91.6284 83.9096 91.6743 83.9422 91.7625C83.9749 91.8508 83.9272 91.9483 83.839 91.981C83.7505 92.0119 83.6532 91.966 83.6205 91.8777C83.5897 91.7892 83.6355 91.6919 83.7238 91.6593Z" fill="white"/>
<path d="M84.5002 89.2021L86.922 90.7251L84.952 88.1261" stroke="white" stroke-width="0.0845508" stroke-linecap="round" stroke-linejoin="round"/>
<path d="M86.1115 87.9856L86.9226 90.7252" stroke="white" stroke-width="0.0845508" stroke-linecap="round" stroke-linejoin="round"/>
<path d="M86.2236 87.7824C86.2805 87.858 86.2674 87.9638 86.192 88.0225C86.1164 88.0794 86.0107 88.0662 85.952 87.9909C85.8951 87.9153 85.9082 87.8095 85.9836 87.7508C86.0592 87.6939 86.1649 87.7071 86.2236 87.7824Z" fill="white"/>
<path d="M84.5648 89.0541C84.6217 89.1297 84.6086 89.2355 84.5332 89.2942C84.4576 89.3511 84.3519 89.3379 84.2932 89.2626C84.2363 89.187 84.2494 89.0812 84.3248 89.0225C84.4004 88.9656 84.5061 88.9788 84.5648 89.0541Z" fill="white"/>
<path d="M85.0343 87.946C85.0912 88.0216 85.0781 88.1273 85.0027 88.186C84.9271 88.2429 84.8214 88.2298 84.7627 88.1544C84.7058 88.0788 84.7189 87.9731 84.7943 87.9144C84.8699 87.8575 84.9756 87.8706 85.0343 87.946Z" fill="white"/>
<path d="M87.6112 87.9241L86.9127 90.6971L88.7754 88.0222" stroke="white" stroke-width="0.0845508" stroke-linecap="round" stroke-linejoin="round"/>
<path d="M89.2675 89.0801L86.9127 90.697" stroke="white" stroke-width="0.0845508" stroke-linecap="round" stroke-linejoin="round"/>
<path d="M89.4943 89.1264C89.4402 89.2045 89.3351 89.2228 89.2573 89.1705C89.1796 89.1182 89.161 89.0113 89.2133 88.9335C89.2674 88.8555 89.3725 88.8372 89.4503 88.8894C89.5283 88.9436 89.5466 89.0486 89.4943 89.1264Z" fill="white"/>
<path d="M87.7725 87.9406C87.7184 88.0187 87.6133 88.037 87.5355 87.9847C87.4575 87.9306 87.4392 87.8255 87.4915 87.7477C87.5456 87.6697 87.6507 87.6514 87.7284 87.7037C87.8065 87.7578 87.8248 87.8628 87.7725 87.9406Z" fill="white"/>
<path d="M88.9729 88.0446C88.9188 88.1227 88.8137 88.141 88.7359 88.0887C88.6579 88.0346 88.6396 87.9295 88.6919 87.8517C88.746 87.7737 88.8511 87.7554 88.9288 87.8077C89.0066 87.8599 89.0252 87.9669 88.9729 88.0446Z" fill="white"/>
<path d="M99.1576 78.4089L98.626 78.6164C98.5362 78.6511 98.4505 78.5554 98.4942 78.4695L98.7595 77.9613C98.7595 77.9613 97.8393 77.2949 97.021 78.0303C96.8708 78.1643 96.7046 78.3711 96.5451 78.6123C96.5028 78.3342 96.4367 78.0855 96.3579 77.9053C95.9388 76.9596 94.8312 77.0949 94.7666 77.1243L94.7993 77.6931C94.8054 77.7906 94.6882 77.8422 94.6191 77.772L94.219 77.3636C94.219 77.3636 93.3025 78.0328 93.7486 79.0398C93.8298 79.2233 93.974 79.4464 94.1556 79.6717C93.8784 79.6267 93.6221 79.6122 93.4263 79.632C92.3981 79.7377 92.1849 80.8343 92.1908 80.904L92.7416 81.0483C92.8359 81.0724 92.8481 81.2006 92.7614 81.2442L92.2494 81.499C92.2494 81.499 92.6034 82.5781 93.6974 82.4651C93.8969 82.4448 94.1545 82.3756 94.4242 82.2732C94.2956 82.523 94.2027 82.7623 94.1608 82.9556C93.9451 83.9672 94.9204 84.509 94.9892 84.5236L95.2973 84.0429C95.3491 83.9614 95.4753 83.9884 95.4887 84.0849L95.5728 84.6504C95.5728 84.6504 96.7083 84.6485 96.9391 83.5717C96.9804 83.3748 96.9954 83.1092 96.9815 82.8216C97.178 83.0207 97.3788 83.184 97.5485 83.2829C98.4443 83.8005 99.2593 83.0415 99.2954 82.9808L98.9334 82.5393C98.8711 82.4645 98.9373 82.3532 99.0323 82.3697L99.5966 82.4639C99.5966 82.4639 99.9457 81.3836 98.993 80.8312C98.8195 80.731 98.5704 80.6339 98.2928 80.5592C98.5444 80.4333 98.7606 80.2938 98.9057 80.1623C99.6762 79.4707 99.2036 78.4601 99.1573 78.4071L99.1576 78.4089Z" fill="#FF92A5"/>
<path d="M97.8481 81.0773L96.0822 80.7752L97.844 81.809" stroke="white" stroke-width="0.0533037" stroke-linecap="round" stroke-linejoin="round"/>
<path d="M97.2053 82.1668L96.0822 80.7752" stroke="white" stroke-width="0.0533037" stroke-linecap="round" stroke-linejoin="round"/>
<path d="M97.1882 82.3123C97.1376 82.2822 97.1194 82.2179 97.1493 82.1655C97.1794 82.115 97.2436 82.0968 97.296 82.1266C97.3466 82.1567 97.3648 82.221 97.335 82.2733C97.3051 82.3257 97.2406 82.3421 97.1882 82.3123Z" fill="white"/>
<path d="M97.8454 81.1781C97.7949 81.148 97.7767 81.0837 97.8065 81.0313C97.8363 80.9789 97.9008 80.9625 97.9532 80.9924C98.0038 81.0225 98.022 81.0868 97.9922 81.1391C97.9624 81.1915 97.8978 81.2079 97.8454 81.1781Z" fill="white"/>
<path d="M97.8386 81.9322C97.788 81.9022 97.7698 81.8379 97.7996 81.7855C97.8295 81.7331 97.894 81.7167 97.9464 81.7465C97.9988 81.7764 98.0152 81.8409 97.9853 81.8933C97.9553 81.9439 97.891 81.9621 97.8386 81.9322Z" fill="white"/>
<path d="M96.3514 82.562L96.0939 80.7884L95.6547 82.7831" stroke="white" stroke-width="0.0533037" stroke-linecap="round" stroke-linejoin="round"/>
<path d="M95.1162 82.2881L96.0937 80.7884" stroke="white" stroke-width="0.0533037" stroke-linecap="round" stroke-linejoin="round"/>
<path d="M94.9731 82.3175C94.9855 82.2601 95.0415 82.2226 95.1008 82.2348C95.1582 82.2473 95.1956 82.3033 95.1835 82.3625C95.171 82.4199 95.115 82.4574 95.0558 82.4452C94.9984 82.4328 94.9609 82.3767 94.9731 82.3175Z" fill="white"/>
<path d="M96.2551 82.5902C96.2675 82.5328 96.3236 82.4953 96.3828 82.5075C96.4402 82.5199 96.4777 82.576 96.4655 82.6352C96.453 82.6926 96.397 82.7301 96.3378 82.7179C96.2786 82.7057 96.2429 82.6494 96.2551 82.5902Z" fill="white"/>
<path d="M95.5339 82.8168C95.5464 82.7594 95.6024 82.7219 95.6616 82.7341C95.719 82.7465 95.7565 82.8026 95.7443 82.8618C95.7319 82.9192 95.6758 82.9567 95.6166 82.9445C95.5592 82.932 95.5217 82.876 95.5339 82.8168Z" fill="white"/>
<path d="M94.4772 81.598L96.0833 80.8033L94.0514 81.004" stroke="white" stroke-width="0.0533037" stroke-linecap="round" stroke-linejoin="round"/>
<path d="M94.3561 80.3379L96.0834 80.8031" stroke="white" stroke-width="0.0533037" stroke-linecap="round" stroke-linejoin="round"/>
<path d="M94.2845 80.2105C94.343 80.2042 94.3953 80.2471 94.4016 80.3056C94.4079 80.3641 94.3651 80.4164 94.3066 80.4227C94.248 80.429 94.1957 80.3861 94.1894 80.3276C94.1832 80.2691 94.226 80.2168 94.2845 80.2105Z" fill="white"/>
<path d="M94.4193 81.515C94.4778 81.5087 94.5302 81.5515 94.5364 81.61C94.5427 81.6685 94.4999 81.7209 94.4414 81.7272C94.3829 81.7334 94.3305 81.6906 94.3243 81.6321C94.318 81.5736 94.3608 81.5212 94.4193 81.515Z" fill="white"/>
<path d="M93.9816 80.9005C94.0402 80.8942 94.0925 80.937 94.0988 80.9955C94.105 81.054 94.0622 81.1064 94.0037 81.1127C93.9452 81.1189 93.8928 81.0761 93.8866 81.0176C93.8803 80.9591 93.9231 80.9067 93.9816 80.9005Z" fill="white"/>
<path d="M94.8144 79.517L96.0652 80.7999L95.2484 78.9278" stroke="white" stroke-width="0.0533037" stroke-linecap="round" stroke-linejoin="round"/>
<path d="M95.9749 79.0125L96.0655 80.7999" stroke="white" stroke-width="0.0533037" stroke-linecap="round" stroke-linejoin="round"/>
<path d="M96.0737 78.9041C96.0979 78.9583 96.0732 79.0211 96.0191 79.0453C95.9649 79.0696 95.9021 79.0449 95.8779 78.9907C95.8537 78.9366 95.8783 78.8738 95.9325 78.8495C95.9867 78.8253 96.0495 78.85 96.0737 78.9041Z" fill="white"/>
<path d="M94.8761 79.4361C94.9003 79.4903 94.8757 79.5531 94.8215 79.5773C94.7673 79.6015 94.7045 79.5769 94.6803 79.5227C94.6561 79.4685 94.6808 79.4057 94.7349 79.3815C94.7891 79.3573 94.8519 79.382 94.8761 79.4361Z" fill="white"/>
<path d="M95.3269 78.8297C95.3511 78.8838 95.3264 78.9467 95.2723 78.9709C95.2181 78.9951 95.1553 78.9704 95.1311 78.9163C95.1068 78.8621 95.1315 78.7993 95.1857 78.7751C95.2398 78.7508 95.3026 78.7755 95.3269 78.8297Z" fill="white"/>
<path d="M96.8966 79.1943L96.0631 80.7817L97.5911 79.4244" stroke="white" stroke-width="0.0533037" stroke-linecap="round" stroke-linejoin="round"/>
<path d="M97.7355 80.1431L96.0631 80.7818" stroke="white" stroke-width="0.0533037" stroke-linecap="round" stroke-linejoin="round"/>
<path d="M97.8683 80.2043C97.8237 80.2439 97.7564 80.2402 97.7168 80.1956C97.6772 80.151 97.6808 80.0837 97.7254 80.0441C97.77 80.0045 97.8373 80.0081 97.8769 80.0527C97.9165 80.0973 97.9129 80.1647 97.8683 80.2043Z" fill="white"/>
<path d="M96.9934 79.2292C96.9488 79.2688 96.8815 79.2651 96.8419 79.2205C96.8023 79.1759 96.8059 79.1086 96.8505 79.069C96.8951 79.0294 96.9624 79.033 97.002 79.0776C97.0416 79.1223 97.038 79.1896 96.9934 79.2292Z" fill="white"/>
<path d="M97.7096 79.4692C97.665 79.5088 97.5977 79.5051 97.5581 79.4605C97.5185 79.4159 97.5221 79.3486 97.5667 79.309C97.6113 79.2694 97.6786 79.273 97.7182 79.3176C97.7578 79.3622 97.7542 79.4296 97.7096 79.4692Z" fill="white"/>
<path d="M66.8464 43.3247L66.3148 43.5322C66.225 43.5669 66.1393 43.4712 66.1831 43.3853L66.4483 42.8771C66.4483 42.8771 65.5281 42.2107 64.7098 42.946C64.5596 43.0801 64.3935 43.2869 64.234 43.528C64.1916 43.25 64.1255 43.0012 64.0467 42.8211C63.6277 41.8753 62.52 42.0106 62.4555 42.04L62.4881 42.6089C62.4942 42.7064 62.3771 42.7579 62.3079 42.6878L61.9079 42.2794C61.9079 42.2794 60.9914 42.9486 61.4374 43.9555C61.5186 44.1391 61.6628 44.3622 61.8444 44.5875C61.5672 44.5425 61.311 44.5279 61.1152 44.5477C60.0869 44.6535 59.8737 45.7501 59.8797 45.8198L60.4305 45.9641C60.5247 45.9881 60.537 46.1163 60.4502 46.1599L59.9382 46.4148C59.9382 46.4148 60.2923 47.4939 61.3863 47.3809C61.5857 47.3606 61.8433 47.2914 62.113 47.189C61.9844 47.4388 61.8915 47.6781 61.8497 47.8713C61.6339 48.883 62.6092 49.4248 62.6781 49.4394L62.9861 48.9586C63.0379 48.8772 63.1641 48.9042 63.1775 49.0007L63.2617 49.5661C63.2617 49.5661 64.3971 49.5643 64.6279 48.4874C64.6692 48.2906 64.6843 48.025 64.6703 47.7374C64.8668 47.9365 65.0677 48.0998 65.2373 48.1987C66.1331 48.7163 66.9481 47.9573 66.9842 47.8966L66.6223 47.4551C66.5599 47.3803 66.6261 47.269 66.7212 47.2855L67.2854 47.3797C67.2854 47.3797 67.6345 46.2994 66.6819 45.747C66.5084 45.6468 66.2592 45.5496 65.9816 45.475C66.2332 45.3491 66.4495 45.2096 66.5945 45.0781C67.3651 44.3865 66.8925 43.3758 66.8462 43.3229L66.8464 43.3247Z" fill="#FF92A5"/>
<path d="M65.5366 45.9931L63.7706 45.691L65.5324 46.7248" stroke="white" stroke-width="0.0533037" stroke-linecap="round" stroke-linejoin="round"/>
<path d="M64.8939 47.0844L63.7706 45.691" stroke="white" stroke-width="0.0533037" stroke-linecap="round" stroke-linejoin="round"/>
<path d="M64.8766 47.2279C64.826 47.1978 64.8078 47.1335 64.8377 47.0811C64.8675 47.0287 64.932 47.0124 64.9844 47.0422C65.035 47.0723 65.0532 47.1366 65.0234 47.1889C64.9933 47.2395 64.929 47.2577 64.8766 47.2279Z" fill="white"/>
<path d="M65.5341 46.0957C65.4835 46.0657 65.4653 46.0014 65.4952 45.949C65.5252 45.8984 65.5895 45.8802 65.6419 45.91C65.6943 45.9399 65.7107 46.0044 65.6809 46.0568C65.651 46.1092 65.5865 46.1256 65.5341 46.0957Z" fill="white"/>
<path d="M65.5287 46.8496C65.4781 46.8196 65.4599 46.7553 65.4897 46.7029C65.5198 46.6523 65.5841 46.6341 65.6365 46.6639C65.6889 46.6938 65.7053 46.7583 65.6754 46.8107C65.6453 46.8613 65.5811 46.8795 65.5287 46.8496Z" fill="white"/>
<path d="M64.0399 47.4777L63.7823 45.7042L63.3434 47.7007" stroke="white" stroke-width="0.0533037" stroke-linecap="round" stroke-linejoin="round"/>
<path d="M62.8046 47.2041L63.7821 45.7044" stroke="white" stroke-width="0.0533037" stroke-linecap="round" stroke-linejoin="round"/>
<path d="M62.6617 47.2333C62.6742 47.1759 62.7302 47.1384 62.7894 47.1506C62.8468 47.163 62.8843 47.219 62.8721 47.2783C62.8597 47.3357 62.8036 47.3731 62.7444 47.361C62.6852 47.3488 62.6495 47.2925 62.6617 47.2333Z" fill="white"/>
<path d="M63.9433 47.506C63.9558 47.4486 64.0118 47.4111 64.071 47.4233C64.1284 47.4357 64.1659 47.4918 64.1537 47.551C64.1415 47.6102 64.0852 47.6459 64.026 47.6337C63.9686 47.6212 63.9311 47.5652 63.9433 47.506Z" fill="white"/>
<path d="M63.2228 47.7342C63.2352 47.6768 63.2913 47.6394 63.3505 47.6516C63.4079 47.664 63.4454 47.72 63.4332 47.7792C63.421 47.8385 63.3647 47.8741 63.3055 47.8619C63.2463 47.8497 63.2106 47.7935 63.2228 47.7342Z" fill="white"/>
<path d="M62.1656 46.5133L63.7738 45.7202L61.7397 45.9192" stroke="white" stroke-width="0.0533037" stroke-linecap="round" stroke-linejoin="round"/>
<path d="M62.0445 45.2535L63.7739 45.7202" stroke="white" stroke-width="0.0533037" stroke-linecap="round" stroke-linejoin="round"/>
<path d="M61.9729 45.126C62.0315 45.1198 62.0838 45.1626 62.0901 45.2211C62.0963 45.2796 62.0535 45.332 61.995 45.3382C61.9365 45.3445 61.8841 45.3017 61.8779 45.2432C61.8716 45.1847 61.9144 45.1323 61.9729 45.126Z" fill="white"/>
<path d="M62.1077 46.4305C62.1663 46.4242 62.2186 46.467 62.2249 46.5256C62.2311 46.5841 62.1883 46.6364 62.1298 46.6427C62.0713 46.649 62.0189 46.6061 62.0127 46.5476C62.0064 46.4891 62.0492 46.4368 62.1077 46.4305Z" fill="white"/>
<path d="M61.6701 45.8157C61.7286 45.8095 61.7809 45.8523 61.7872 45.9108C61.7935 45.9693 61.7506 46.0217 61.6921 46.0279C61.6336 46.0342 61.5813 45.9914 61.575 45.9329C61.5687 45.8744 61.6115 45.822 61.6701 45.8157Z" fill="white"/>
<path d="M62.5042 44.4327L63.7551 45.7157L62.9383 43.8436" stroke="white" stroke-width="0.0533037" stroke-linecap="round" stroke-linejoin="round"/>
<path d="M63.6633 43.9283L63.7539 45.7157" stroke="white" stroke-width="0.0533037" stroke-linecap="round" stroke-linejoin="round"/>
<path d="M63.7638 43.8214C63.788 43.8755 63.7633 43.9384 63.7091 43.9626C63.655 43.9868 63.5922 43.9621 63.5679 43.908C63.5437 43.8538 63.5684 43.791 63.6226 43.7668C63.6767 43.7425 63.7395 43.7672 63.7638 43.8214Z" fill="white"/>
<path d="M62.5645 44.3519C62.5888 44.4061 62.5641 44.4689 62.5099 44.4931C62.4558 44.5173 62.3929 44.4926 62.3687 44.4385C62.3445 44.3843 62.3692 44.3215 62.4233 44.2973C62.4775 44.2731 62.5403 44.2977 62.5645 44.3519Z" fill="white"/>
<path d="M63.0153 43.7455C63.0395 43.7996 63.0148 43.8624 62.9607 43.8867C62.9065 43.9109 62.8437 43.8862 62.8195 43.832C62.7952 43.7779 62.8199 43.7151 62.8741 43.6908C62.9282 43.6666 62.9911 43.6913 63.0153 43.7455Z" fill="white"/>
<path d="M64.5882 44.1113L63.7544 45.6968L65.2826 44.3414" stroke="white" stroke-width="0.0533037" stroke-linecap="round" stroke-linejoin="round"/>
<path d="M65.4267 45.0581L63.7544 45.6969" stroke="white" stroke-width="0.0533037" stroke-linecap="round" stroke-linejoin="round"/>
<path d="M65.5595 45.1193C65.5149 45.1589 65.4476 45.1553 65.408 45.1107C65.3684 45.0661 65.372 44.9987 65.4166 44.9591C65.4613 44.9195 65.5286 44.9232 65.5682 44.9678C65.6078 45.0124 65.6041 45.0797 65.5595 45.1193Z" fill="white"/>
<path d="M64.6832 44.1444C64.6386 44.184 64.5713 44.1804 64.5317 44.1358C64.4921 44.0912 64.4958 44.0239 64.5404 43.9843C64.585 43.9447 64.6523 43.9483 64.6919 43.9929C64.7315 44.0375 64.7278 44.1048 64.6832 44.1444Z" fill="white"/>
<path d="M65.3994 44.3844C65.3548 44.424 65.2875 44.4204 65.2479 44.3758C65.2083 44.3312 65.2119 44.2639 65.2566 44.2243C65.3012 44.1847 65.3685 44.1883 65.4081 44.2329C65.4477 44.2775 65.444 44.3448 65.3994 44.3844Z" fill="white"/>
<path d="M93.5514 61.1946L92.5462 61.0652C92.3742 61.0427 92.323 60.8216 92.4674 60.7254L93.3131 60.1607C93.3131 60.1607 92.4454 58.3365 90.5407 58.7848C90.192 58.8666 89.7546 59.0443 89.3022 59.2872C89.4727 58.8181 89.5836 58.374 89.6112 58.025C89.7648 56.1925 87.9221 55.4576 87.7963 55.4472L87.3613 56.3631C87.2882 56.518 87.0592 56.4997 87.0138 56.3335L86.7387 55.3548C86.7387 55.3548 84.7356 55.6163 84.5739 57.565C84.5437 57.9218 84.5793 58.3919 84.6681 58.8973C84.2747 58.5901 83.8868 58.349 83.5636 58.2138C81.8687 57.501 80.6 59.0283 80.551 59.1427L81.2878 59.8383C81.4137 59.9563 81.3242 60.1673 81.1527 60.1614L80.1357 60.1208C80.1357 60.1208 79.7657 62.1059 81.5689 62.863C81.8979 63.001 82.3571 63.1135 82.8642 63.1841C82.4501 63.4625 82.0996 63.758 81.8729 64.0233C80.6711 65.4169 81.7298 67.094 81.8265 67.1752L82.7166 66.6897C82.8684 66.6073 83.0412 66.7559 82.9803 66.9184L82.6286 67.8728C82.6286 67.8728 84.4013 68.8383 85.6802 67.358C85.9136 67.088 86.1621 66.686 86.3859 66.2263C86.5231 66.7064 86.6951 67.1297 86.8777 67.4291C87.8311 69.0021 89.7543 68.5122 89.8603 68.4474L89.6736 67.4508C89.6426 67.2807 89.8377 67.1627 89.9732 67.27L90.7714 67.8996C90.7714 67.8996 92.2377 66.5119 91.2238 64.8379C91.0384 64.5315 90.7341 64.171 90.3637 63.8161C90.8617 63.8341 91.3191 63.8003 91.6607 63.7213C93.4505 63.3001 93.58 61.3206 93.5519 61.1983L93.5514 61.1946Z" fill="#FF92A5"/>
<path d="M89.2325 64.2386L86.7361 62.2584L88.6017 65.3747" stroke="white" stroke-width="0.0955791" stroke-linecap="round" stroke-linejoin="round"/>
<path d="M87.3011 65.3902L86.7361 62.2584" stroke="white" stroke-width="0.0955791" stroke-linecap="round" stroke-linejoin="round"/>
<path d="M87.1513 65.6022C87.0963 65.5133 87.1264 65.3959 87.2153 65.3409C87.3041 65.2859 87.4215 65.316 87.4765 65.4048C87.5315 65.4937 87.5015 65.6111 87.4126 65.6661C87.3237 65.7211 87.2064 65.691 87.1513 65.6022Z" fill="white"/>
<path d="M89.1436 64.3939C89.0886 64.3051 89.1187 64.1877 89.2076 64.1327C89.2964 64.0776 89.4138 64.1077 89.4688 64.1966C89.5238 64.2854 89.4938 64.4028 89.4049 64.4578C89.316 64.5129 89.1987 64.4828 89.1436 64.3939Z" fill="white"/>
<path d="M88.4872 65.5651C88.4322 65.4762 88.4623 65.3588 88.5511 65.3038C88.64 65.2488 88.7574 65.2789 88.8124 65.3677C88.8674 65.4566 88.8373 65.5739 88.7485 65.629C88.6596 65.684 88.5422 65.6539 88.4872 65.5651Z" fill="white"/>
<path d="M85.6316 65.2751L86.7422 62.289L84.3558 65.0274" stroke="white" stroke-width="0.0955791" stroke-linecap="round" stroke-linejoin="round"/>
<path d="M83.9396 63.7955L86.7421 62.289" stroke="white" stroke-width="0.0955791" stroke-linecap="round" stroke-linejoin="round"/>
<path d="M83.6916 63.7166C83.7602 63.6365 83.8798 63.6292 83.9596 63.696C84.0394 63.7629 84.0489 63.8841 83.9802 63.9641C83.9115 64.0442 83.7922 64.0533 83.7121 63.9847C83.632 63.916 83.6247 63.7964 83.6916 63.7166Z" fill="white"/>
<path d="M85.4563 65.2381C85.5249 65.1581 85.6443 65.1489 85.7244 65.2176C85.8044 65.2862 85.8117 65.4058 85.7449 65.4856C85.678 65.5655 85.5569 65.5749 85.4768 65.5062C85.3968 65.4375 85.3876 65.3182 85.4563 65.2381Z" fill="white"/>
<path d="M84.1385 64.9777C84.2071 64.8977 84.3267 64.8903 84.4065 64.9572C84.4864 65.024 84.4939 65.1455 84.4271 65.2253C84.3602 65.3051 84.2391 65.3145 84.159 65.2458C84.079 65.1771 84.0698 65.0578 84.1385 64.9777Z" fill="white"/>
<path d="M83.533 62.1707L86.7158 62.3057L83.3742 60.8808" stroke="white" stroke-width="0.0955791" stroke-linecap="round" stroke-linejoin="round"/>
<path d="M84.4172 60.1031L86.7144 62.3059" stroke="white" stroke-width="0.0955791" stroke-linecap="round" stroke-linejoin="round"/>
<path d="M84.4149 59.8437C84.5114 59.8841 84.5567 59.9966 84.5163 60.0931C84.4759 60.1897 84.3635 60.235 84.2669 60.1946C84.1704 60.1542 84.1251 60.0417 84.1655 59.9452C84.2059 59.8486 84.3183 59.8033 84.4149 59.8437Z" fill="white"/>
<path d="M83.5129 61.9917C83.6094 62.0321 83.6547 62.1445 83.6143 62.2411C83.5739 62.3376 83.4615 62.3829 83.3649 62.3425C83.2684 62.3021 83.2231 62.1897 83.2635 62.0931C83.3039 61.9966 83.4163 61.9513 83.5129 61.9917Z" fill="white"/>
<path d="M83.3538 60.6591C83.4504 60.6996 83.4957 60.812 83.4553 60.9086C83.4149 61.0051 83.3024 61.0504 83.2059 61.01C83.1093 60.9696 83.064 60.8572 83.1044 60.7606C83.1448 60.6641 83.2573 60.6187 83.3538 60.6591Z" fill="white"/>
<path d="M85.8341 59.2161L86.6907 62.2834L87.014 58.6662" stroke="white" stroke-width="0.0955791" stroke-linecap="round" stroke-linejoin="round"/>
<path d="M88.0744 59.4189L86.6908 62.2833" stroke="white" stroke-width="0.0955791" stroke-linecap="round" stroke-linejoin="round"/>
<path d="M88.3213 59.3364C88.3118 59.4417 88.2205 59.5193 88.1153 59.5098C88.01 59.5003 87.9324 59.409 87.9419 59.3038C87.9514 59.1985 88.0427 59.1209 88.1479 59.1304C88.2532 59.1399 88.3308 59.2312 88.3213 59.3364Z" fill="white"/>
<path d="M86.0006 59.1411C85.9911 59.2464 85.8998 59.324 85.7946 59.3145C85.6893 59.305 85.6117 59.2137 85.6212 59.1085C85.6307 59.0032 85.722 58.9256 85.8272 58.9351C85.9325 58.9446 86.0101 59.0359 86.0006 59.1411Z" fill="white"/>
<path d="M87.2171 58.5786C87.2076 58.6839 87.1163 58.7615 87.0111 58.752C86.9059 58.7425 86.8282 58.6512 86.8377 58.546C86.8472 58.4407 86.9385 58.3631 87.0438 58.3726C87.149 58.3821 87.2266 58.4734 87.2171 58.5786Z" fill="white"/>
<path d="M89.3592 60.4929L86.7036 62.2555L90.2448 61.4443" stroke="white" stroke-width="0.0955791" stroke-linecap="round" stroke-linejoin="round"/>
<path d="M89.8569 62.6861L86.7036 62.2557" stroke="white" stroke-width="0.0955791" stroke-linecap="round" stroke-linejoin="round"/>
<path d="M90.0126 62.8945C89.9101 62.918 89.8084 62.8542 89.7833 62.7538C89.7598 62.6513 89.8236 62.5496 89.9241 62.5245C90.0266 62.501 90.1282 62.5648 90.1533 62.6653C90.1768 62.7678 90.113 62.8694 90.0126 62.8945Z" fill="white"/>
<path d="M89.48 60.6264C89.3775 60.65 89.2759 60.5861 89.2508 60.4857C89.2273 60.3832 89.2911 60.2815 89.3915 60.2565C89.494 60.2329 89.5957 60.2968 89.6208 60.3972C89.6443 60.4997 89.5805 60.6014 89.48 60.6264Z" fill="white"/>
<path d="M90.3911 61.6115C90.2885 61.6351 90.1869 61.5713 90.1618 61.4708C90.1383 61.3683 90.2021 61.2667 90.3025 61.2416C90.405 61.2181 90.5067 61.2819 90.5318 61.3823C90.5553 61.4848 90.4915 61.5865 90.3911 61.6115Z" fill="white"/>
<path d="M52.6085 97.2292L52.0769 97.4367C51.987 97.4714 51.9014 97.3757 51.9451 97.2898L52.2104 96.7816C52.2104 96.7816 51.2902 96.1152 50.4719 96.8506C50.3217 96.9847 50.1555 97.1915 49.996 97.4326C49.9537 97.1545 49.8876 96.9058 49.8087 96.7256C49.3897 95.7799 48.2821 95.9152 48.2175 95.9446L48.2502 96.5135C48.2563 96.611 48.1391 96.6625 48.07 96.5923L47.6699 96.1839C47.6699 96.1839 46.7534 96.8531 47.1995 97.8601C47.2807 98.0436 47.4248 98.2667 47.6065 98.492C47.3293 98.447 47.073 98.4325 46.8772 98.4523C45.849 98.558 45.6358 99.6547 45.6417 99.7243L46.1925 99.8687C46.2868 99.8927 46.299 100.021 46.2123 100.064L45.7003 100.319C45.7003 100.319 46.0543 101.398 47.1483 101.285C47.3478 101.265 47.6054 101.196 47.8751 101.094C47.7465 101.343 47.6535 101.583 47.6117 101.776C47.396 102.788 48.3713 103.329 48.4401 103.344L48.7482 102.863C48.8 102.782 48.9262 102.809 48.9396 102.905L49.0237 103.471C49.0237 103.471 50.1591 103.469 50.39 102.392C50.4313 102.195 50.4463 101.93 50.4324 101.642C50.6289 101.841 50.8297 102.004 50.9993 102.103C51.8952 102.621 52.7102 101.862 52.7463 101.801L52.3843 101.36C52.322 101.285 52.3882 101.174 52.4832 101.19L53.0475 101.284C53.0475 101.284 53.3966 100.204 52.4439 99.6515C52.2704 99.5513 52.0213 99.4542 51.7437 99.3795C51.9953 99.2536 52.2115 99.1141 52.3566 98.9826C53.1271 98.291 52.6545 97.2804 52.6082 97.2274L52.6085 97.2292Z" fill="#FF92A5"/>
<path d="M51.2987 99.8979L49.5327 99.5958L51.2946 100.63" stroke="white" stroke-width="0.0533037" stroke-linecap="round" stroke-linejoin="round"/>
<path d="M50.6579 100.989L49.5327 99.5958" stroke="white" stroke-width="0.0533037" stroke-linecap="round" stroke-linejoin="round"/>
<path d="M50.6402 101.132C50.5896 101.102 50.5714 101.038 50.6012 100.986C50.6313 100.935 50.6956 100.917 50.748 100.947C50.8004 100.976 50.8167 101.041 50.7869 101.093C50.7568 101.144 50.6925 101.162 50.6402 101.132Z" fill="white"/>
<path d="M51.2962 100C51.2456 99.9702 51.2274 99.9059 51.2573 99.8535C51.2874 99.8029 51.3516 99.7847 51.404 99.8146C51.4546 99.8447 51.4728 99.9089 51.443 99.9613C51.4131 100.014 51.3486 100.03 51.2962 100Z" fill="white"/>
<path d="M51.2894 100.755C51.2388 100.724 51.2206 100.66 51.2504 100.608C51.2803 100.555 51.3448 100.539 51.3972 100.569C51.4496 100.599 51.466 100.663 51.4361 100.716C51.4063 100.768 51.3418 100.784 51.2894 100.755Z" fill="white"/>
<path d="M49.8034 101.382L49.5441 99.609L49.1069 101.605" stroke="white" stroke-width="0.0533037" stroke-linecap="round" stroke-linejoin="round"/>
<path d="M48.5682 101.108L49.5439 99.609" stroke="white" stroke-width="0.0533037" stroke-linecap="round" stroke-linejoin="round"/>
<path d="M48.4236 101.138C48.436 101.08 48.4921 101.043 48.5513 101.055C48.6087 101.068 48.6462 101.124 48.634 101.183C48.6215 101.24 48.5655 101.278 48.5063 101.266C48.4489 101.253 48.4114 101.197 48.4236 101.138Z" fill="white"/>
<path d="M49.7055 101.411C49.7179 101.353 49.7739 101.316 49.8332 101.328C49.8924 101.34 49.928 101.397 49.9158 101.456C49.9034 101.513 49.8474 101.551 49.7882 101.538C49.7308 101.526 49.6933 101.47 49.7055 101.411Z" fill="white"/>
<path d="M48.9847 101.639C48.9971 101.581 49.0532 101.544 49.1124 101.556C49.1698 101.569 49.2073 101.625 49.1951 101.684C49.1826 101.741 49.1266 101.779 49.0674 101.767C49.01 101.754 48.9725 101.698 48.9847 101.639Z" fill="white"/>
<path d="M47.929 100.418L49.5352 99.6231L47.5014 99.824" stroke="white" stroke-width="0.0533037" stroke-linecap="round" stroke-linejoin="round"/>
<path d="M47.8061 99.1583L49.5353 99.6232" stroke="white" stroke-width="0.0533037" stroke-linecap="round" stroke-linejoin="round"/>
<path d="M47.7359 99.0306C47.7945 99.0243 47.8468 99.0671 47.8531 99.1256C47.8593 99.1842 47.8165 99.2365 47.758 99.2428C47.6995 99.249 47.6471 99.2062 47.6409 99.1477C47.6346 99.0892 47.6774 99.0369 47.7359 99.0306Z" fill="white"/>
<path d="M47.8708 100.335C47.9293 100.329 47.9816 100.372 47.9879 100.43C47.9942 100.489 47.9513 100.541 47.8928 100.547C47.8343 100.553 47.782 100.511 47.7757 100.452C47.7694 100.394 47.8123 100.341 47.8708 100.335Z" fill="white"/>
<path d="M47.4331 99.7203C47.4916 99.714 47.5439 99.7568 47.5502 99.8153C47.5565 99.8739 47.5137 99.9262 47.4551 99.9325C47.3966 99.9387 47.3443 99.8959 47.338 99.8374C47.3317 99.7789 47.3746 99.7265 47.4331 99.7203Z" fill="white"/>
<path d="M48.2644 98.3375L49.5171 99.6202L48.6984 97.7483" stroke="white" stroke-width="0.0533037" stroke-linecap="round" stroke-linejoin="round"/>
<path d="M49.4245 97.8331L49.5169 99.6203" stroke="white" stroke-width="0.0533037" stroke-linecap="round" stroke-linejoin="round"/>
<path d="M49.5254 97.7262C49.5496 97.7803 49.5249 97.8431 49.4708 97.8674C49.4166 97.8916 49.3538 97.8669 49.3296 97.8128C49.3053 97.7586 49.33 97.6958 49.3842 97.6716C49.4383 97.6473 49.5012 97.672 49.5254 97.7262Z" fill="white"/>
<path d="M48.3276 98.2564C48.3518 98.3106 48.3271 98.3734 48.273 98.3976C48.2188 98.4219 48.156 98.3972 48.1318 98.343C48.1075 98.2889 48.1322 98.2261 48.1864 98.2018C48.2405 98.1776 48.3033 98.2023 48.3276 98.2564Z" fill="white"/>
<path d="M48.7754 97.6505C48.7997 97.7046 48.775 97.7675 48.7208 97.7917C48.6667 97.8159 48.6039 97.7912 48.5796 97.7371C48.5554 97.6829 48.5801 97.6201 48.6342 97.5959C48.6884 97.5716 48.7512 97.5963 48.7754 97.6505Z" fill="white"/>
<path d="M50.3494 98.0161L49.5174 99.6014L51.0438 98.2462" stroke="white" stroke-width="0.0533037" stroke-linecap="round" stroke-linejoin="round"/>
<path d="M51.1879 98.9632L49.5174 99.6016" stroke="white" stroke-width="0.0533037" stroke-linecap="round" stroke-linejoin="round"/>
<path d="M51.3197 99.0246C51.2751 99.0642 51.2078 99.0605 51.1682 99.0159C51.1286 98.9713 51.1322 98.904 51.1768 98.8644C51.2214 98.8248 51.2888 98.8285 51.3284 98.8731C51.368 98.9177 51.3643 98.985 51.3197 99.0246Z" fill="white"/>
<path d="M50.4449 98.0495C50.4003 98.0891 50.3329 98.0854 50.2934 98.0408C50.2538 97.9962 50.2574 97.9289 50.302 97.8893C50.3466 97.8497 50.4139 97.8534 50.4535 97.898C50.4931 97.9426 50.4895 98.0099 50.4449 98.0495Z" fill="white"/>
<path d="M51.161 98.2895C51.1164 98.3291 51.0491 98.3254 51.0095 98.2808C50.9699 98.2362 50.9736 98.1689 51.0182 98.1293C51.0628 98.0897 51.1301 98.0933 51.1697 98.138C51.2093 98.1826 51.2057 98.2499 51.161 98.2895Z" fill="white"/>
<path d="M70.9648 67.5802L70.3491 68.0109C70.2443 68.0849 70.1049 67.9892 70.1358 67.8643L70.3179 67.1319C70.3179 67.1319 68.9328 66.5654 68.1117 67.7613C67.9622 67.9807 67.8112 68.2967 67.6827 68.6541C67.5424 68.3118 67.3803 68.0132 67.2218 67.807C66.3905 66.7256 65.0131 67.2435 64.9393 67.3002L65.158 68.0195C65.1955 68.1423 65.0612 68.2445 64.9518 68.178L64.3118 67.7789C64.3118 67.7789 63.344 68.921 64.2276 70.0713C64.3885 70.2809 64.6428 70.5221 64.9442 70.7548C64.5752 70.7838 64.2423 70.8449 63.9981 70.9308C62.7125 71.3878 62.7791 72.8557 62.81 72.9442L63.5617 72.9585C63.6901 72.9611 63.7456 73.1204 63.6475 73.2027L63.0691 73.6876C63.0691 73.6876 63.8565 74.9607 65.2236 74.4757C65.473 74.3872 65.7819 74.22 66.0954 74.0057C66.008 74.3649 65.9638 74.7013 65.9701 74.9602C66.0072 76.3227 67.4255 76.714 67.5181 76.7122L67.7626 76.0009C67.8051 75.88 67.9733 75.8752 68.0215 75.9947L68.3042 76.694C68.3042 76.694 69.7579 76.338 69.7198 74.8884C69.7128 74.624 69.6481 74.2786 69.5419 73.9147C69.8564 74.1086 70.1626 74.2553 70.4121 74.3283C71.7202 74.7144 72.5295 73.4867 72.5561 73.3976L71.955 72.9448C71.8534 72.868 71.9013 72.7055 72.0282 72.6971L72.7817 72.6444C72.7817 72.6444 72.8936 71.1517 71.5021 70.7401C71.2484 70.664 70.9008 70.6195 70.5208 70.6092C70.803 70.3696 71.0379 70.1235 71.1845 69.9102C71.9562 68.786 71.0392 67.6348 70.9614 67.5825L70.9648 67.5802Z" fill="#FF92A5"/>
<path d="M70.1178 71.4056L67.7592 71.5662L70.339 72.3435" stroke="white" stroke-width="0.0698463" stroke-linecap="round" stroke-linejoin="round"/>
<path d="M69.6326 73.0021L67.7592 71.5662" stroke="white" stroke-width="0.0698463" stroke-linecap="round" stroke-linejoin="round"/>
<path d="M69.655 73.1919C69.5797 73.1708 69.5371 73.0914 69.56 73.0158C69.5811 72.9405 69.6606 72.8979 69.7361 72.9208C69.8114 72.9419 69.854 73.0213 69.8311 73.0969C69.81 73.1722 69.7306 73.2148 69.655 73.1919Z" fill="white"/>
<path d="M70.1454 71.5351C70.0701 71.5141 70.0275 71.4346 70.0504 71.3591C70.0715 71.2838 70.1509 71.2412 70.2265 71.2641C70.3018 71.2852 70.3444 71.3646 70.3215 71.4402C70.3004 71.5155 70.2209 71.5581 70.1454 71.5351Z" fill="white"/>
<path d="M70.3699 72.5044C70.2946 72.4833 70.252 72.4039 70.2749 72.3283C70.296 72.253 70.3755 72.2104 70.451 72.2333C70.5263 72.2544 70.5689 72.3339 70.546 72.4094C70.5249 72.4847 70.4455 72.5273 70.3699 72.5044Z" fill="white"/>
<path d="M68.6612 73.7719L67.7778 71.5806L67.8363 74.2725" stroke="white" stroke-width="0.0698463" stroke-linecap="round" stroke-linejoin="round"/>
<path d="M66.9915 73.8052L67.7773 71.5806" stroke="white" stroke-width="0.0698463" stroke-linecap="round" stroke-linejoin="round"/>
<path d="M66.8176 73.8849C66.8161 73.8072 66.8777 73.743 66.9552 73.7396C67.0326 73.7363 67.0971 73.7997 67.1005 73.8772C67.1038 73.9546 67.0404 74.0191 66.9629 74.0225C66.8854 74.0258 66.821 73.9624 66.8176 73.8849Z" fill="white"/>
<path d="M68.5439 73.8402C68.5424 73.7625 68.604 73.6983 68.6814 73.6949C68.7589 73.6916 68.8234 73.755 68.8267 73.8325C68.8301 73.91 68.7667 73.9744 68.6892 73.9778C68.6117 73.9811 68.5472 73.9177 68.5439 73.8402Z" fill="white"/>
<path d="M67.6931 74.3537C67.6916 74.2759 67.7532 74.2117 67.8307 74.2084C67.9082 74.205 67.9726 74.2684 67.976 74.3459C67.9793 74.4234 67.9159 74.4879 67.8384 74.4912C67.7607 74.4927 67.6965 74.4311 67.6931 74.3537Z" fill="white"/>
<path d="M65.9597 73.119L67.7717 71.6017L65.2283 72.4895" stroke="white" stroke-width="0.0698463" stroke-linecap="round" stroke-linejoin="round"/>
<path d="M65.4113 71.5418L67.7708 71.6018" stroke="white" stroke-width="0.0698463" stroke-linecap="round" stroke-linejoin="round"/>
<path d="M65.2803 71.4021C65.3526 71.3754 65.4341 71.4142 65.4611 71.4884C65.4881 71.5625 65.4491 71.6422 65.3749 71.6692C65.3025 71.696 65.2211 71.6572 65.1941 71.583C65.167 71.5088 65.2061 71.4292 65.2803 71.4021Z" fill="white"/>
<path d="M65.86 73.0289C65.9342 73.0018 66.0139 73.0409 66.0409 73.1151C66.0679 73.1893 66.0288 73.2689 65.9546 73.2959C65.8805 73.3229 65.8008 73.2839 65.7738 73.2097C65.7468 73.1355 65.7858 73.0559 65.86 73.0289Z" fill="white"/>
<path d="M65.1071 72.3782C65.1813 72.3512 65.2609 72.3902 65.2879 72.4644C65.3147 72.5368 65.2759 72.6183 65.2017 72.6453C65.1275 72.6723 65.0479 72.6333 65.0209 72.5591C64.9941 72.4867 65.0329 72.4052 65.1071 72.3782Z" fill="white"/>
<path d="M65.7439 70.3468L67.7461 71.6014L66.1159 69.4582" stroke="white" stroke-width="0.0698463" stroke-linecap="round" stroke-linejoin="round"/>
<path d="M67.0741 69.3399L67.7464 71.6014" stroke="white" stroke-width="0.0698463" stroke-linecap="round" stroke-linejoin="round"/>
<path d="M67.1674 69.1731C67.215 69.2352 67.2033 69.324 67.1412 69.3716C67.0792 69.4192 66.9903 69.4074 66.9427 69.3454C66.8951 69.2833 66.9069 69.1945 66.9689 69.1469C67.031 69.0993 67.1199 69.1111 67.1674 69.1731Z" fill="white"/>
<path d="M65.7985 70.2242C65.846 70.2862 65.8343 70.3751 65.7722 70.4227C65.7102 70.4702 65.6213 70.4585 65.5737 70.3964C65.5261 70.3344 65.5379 70.2455 65.6 70.1979C65.662 70.1503 65.7509 70.1621 65.7985 70.2242Z" fill="white"/>
<path d="M66.1858 69.3074C66.2333 69.3695 66.2216 69.4583 66.1595 69.5059C66.0975 69.5535 66.0086 69.5417 65.961 69.4797C65.9134 69.4176 65.9252 69.3288 65.9873 69.2812C66.0493 69.2336 66.1382 69.2454 66.1858 69.3074Z" fill="white"/>
<path d="M68.3145 69.2881L67.7403 71.5799L69.2757 69.3679" stroke="white" stroke-width="0.0698463" stroke-linecap="round" stroke-linejoin="round"/>
<path d="M69.6846 70.2409L67.7403 71.58" stroke="white" stroke-width="0.0698463" stroke-linecap="round" stroke-linejoin="round"/>
<path d="M69.8709 70.278C69.8259 70.3417 69.7393 70.3594 69.6755 70.3144C69.6117 70.2694 69.5941 70.1828 69.6391 70.119C69.6841 70.0553 69.7707 70.0377 69.8345 70.0826C69.8982 70.1276 69.9158 70.2142 69.8709 70.278Z" fill="white"/>
<path d="M68.4478 69.3012C68.4028 69.3649 68.3162 69.3825 68.2524 69.3376C68.1886 69.2926 68.171 69.206 68.216 69.1422C68.2609 69.0785 68.3476 69.0609 68.4113 69.1058C68.4751 69.1508 68.4927 69.2374 68.4478 69.3012Z" fill="white"/>
<path d="M69.4396 69.3861C69.3946 69.4499 69.308 69.4675 69.2442 69.4225C69.1805 69.3776 69.1629 69.291 69.2078 69.2272C69.2528 69.1634 69.3394 69.1458 69.4032 69.1908C69.467 69.2357 69.4846 69.3224 69.4396 69.3861Z" fill="white"/>
<path d="M43.2652 86.6377L42.5007 87.1726C42.3704 87.2631 42.198 87.1441 42.236 86.9904L42.4623 86.0812C42.4623 86.0812 40.7426 85.3774 39.7241 86.8624C39.5372 87.1334 39.3506 87.5267 39.1932 87.9698C39.0191 87.5449 38.8173 87.174 38.6223 86.919C37.5916 85.5776 35.8826 86.2196 35.7903 86.29L36.0627 87.1818C36.1096 87.333 35.942 87.4621 35.8077 87.3768L35.0134 86.8822C35.0134 86.8822 33.813 88.2997 34.9094 89.7266C35.1108 89.9881 35.425 90.2859 35.799 90.5736C35.3419 90.6093 34.9275 90.6854 34.625 90.7924C33.0299 91.3591 33.1123 93.1811 33.1517 93.2907L34.0837 93.3078C34.2418 93.31 34.312 93.5081 34.1907 93.6103L33.4746 94.2127C33.4746 94.2127 34.4529 95.7914 36.149 95.1902C36.4585 95.0804 36.8417 94.8732 37.2295 94.6059C37.1207 95.0515 37.0655 95.4693 37.075 95.7909C37.1207 97.4825 38.8805 97.9673 38.9951 97.9644L39.2995 97.0833C39.351 96.9333 39.5619 96.9281 39.6211 97.0739L39.9736 97.9416C39.9736 97.9416 41.7791 97.4997 41.7296 95.701C41.721 95.3718 41.6413 94.945 41.5078 94.4921C41.8976 94.733 42.279 94.9139 42.587 95.0066C44.2105 95.4862 45.2143 93.9624 45.2472 93.852L44.5031 93.2911C44.3766 93.1954 44.4359 92.9942 44.594 92.9834L45.5274 92.9168C45.5274 92.9168 45.6653 91.0642 43.9392 90.5543C43.6237 90.4608 43.1927 90.4038 42.7215 90.3913C43.0717 90.094 43.3614 89.7883 43.5436 89.5236C44.5004 88.1288 43.3632 86.702 43.267 86.6375L43.2652 86.6377Z" fill="#FF92A5"/>
<path d="M42.2151 91.3837L39.2905 91.584L42.4901 92.548" stroke="white" stroke-width="0.0863888" stroke-linecap="round" stroke-linejoin="round"/>
<path d="M41.6143 93.3637L39.2905 91.584" stroke="white" stroke-width="0.0863888" stroke-linecap="round" stroke-linejoin="round"/>
<path d="M41.6429 93.601C41.55 93.5731 41.4976 93.4764 41.5255 93.3835C41.5534 93.2905 41.65 93.2381 41.743 93.2661C41.8359 93.294 41.8883 93.3906 41.8604 93.4836C41.8325 93.5765 41.7359 93.6289 41.6429 93.601Z" fill="white"/>
<path d="M42.2505 91.5458C42.1575 91.5179 42.1051 91.4213 42.133 91.3283C42.1609 91.2354 42.2576 91.183 42.3505 91.2109C42.4435 91.2388 42.4959 91.3354 42.468 91.4284C42.44 91.5213 42.3434 91.5737 42.2505 91.5458Z" fill="white"/>
<path d="M42.5306 92.7485C42.4377 92.7205 42.3853 92.6239 42.4132 92.5309C42.4411 92.438 42.5377 92.3856 42.6307 92.4135C42.7236 92.4414 42.776 92.5381 42.7481 92.631C42.7202 92.724 42.6236 92.7764 42.5306 92.7485Z" fill="white"/>
<path d="M40.4086 94.3199L39.3125 91.5995L39.3852 94.9408" stroke="white" stroke-width="0.0863888" stroke-linecap="round" stroke-linejoin="round"/>
<path d="M38.3376 94.3608L39.3124 91.5996" stroke="white" stroke-width="0.0863888" stroke-linecap="round" stroke-linejoin="round"/>
<path d="M38.1208 94.4616C38.1186 94.3654 38.1945 94.2843 38.2907 94.2821C38.3869 94.2799 38.468 94.3558 38.4702 94.452C38.4724 94.5482 38.3965 94.6293 38.3003 94.6315C38.2041 94.6337 38.123 94.5578 38.1208 94.4616Z" fill="white"/>
<path d="M40.2641 94.403C40.2619 94.3068 40.3379 94.2257 40.4341 94.2235C40.5302 94.2213 40.6113 94.2972 40.6135 94.3934C40.6158 94.4896 40.5398 94.5707 40.4436 94.5729C40.3474 94.5751 40.2664 94.4992 40.2641 94.403Z" fill="white"/>
<path d="M39.2075 95.0417C39.2053 94.9455 39.2813 94.8644 39.3774 94.8622C39.4736 94.8599 39.5547 94.9359 39.5569 95.0321C39.5592 95.1283 39.4832 95.2093 39.387 95.2116C39.2908 95.2138 39.2098 95.1378 39.2075 95.0417Z" fill="white"/>
<path d="M37.0555 93.5093L39.3032 91.6289L36.149 92.7278" stroke="white" stroke-width="0.0863888" stroke-linecap="round" stroke-linejoin="round"/>
<path d="M36.3772 91.553L39.3031 91.629" stroke="white" stroke-width="0.0863888" stroke-linecap="round" stroke-linejoin="round"/>
<path d="M36.2139 91.3789C36.3039 91.346 36.4054 91.395 36.4365 91.4853C36.4694 91.5754 36.4204 91.6769 36.3301 91.708C36.2382 91.7411 36.1386 91.6919 36.1075 91.6016C36.0764 91.5112 36.1236 91.41 36.2139 91.3789Z" fill="white"/>
<path d="M36.9299 93.3986C37.0218 93.3655 37.1215 93.4147 37.1526 93.505C37.1837 93.5954 37.1365 93.6966 37.0462 93.7277C36.9561 93.7606 36.8547 93.7116 36.8235 93.6213C36.7906 93.5312 36.8396 93.4298 36.9299 93.3986Z" fill="white"/>
<path d="M35.9972 92.591C36.0872 92.5581 36.1887 92.6071 36.2198 92.6974C36.2509 92.7877 36.2037 92.8889 36.1134 92.92C36.0233 92.953 35.9219 92.904 35.8908 92.8136C35.8579 92.7236 35.9069 92.6221 35.9972 92.591Z" fill="white"/>
<path d="M36.7901 90.0704L39.2741 91.6274L37.2511 88.9671" stroke="white" stroke-width="0.0863888" stroke-linecap="round" stroke-linejoin="round"/>
<path d="M38.4389 88.8206L39.2742 91.6273" stroke="white" stroke-width="0.0863888" stroke-linecap="round" stroke-linejoin="round"/>
<path d="M38.5571 88.613C38.616 88.6901 38.6016 88.7998 38.5244 88.8587C38.4472 88.9177 38.3376 88.9032 38.2786 88.8261C38.2196 88.7489 38.2341 88.6393 38.3113 88.5803C38.3884 88.5213 38.4981 88.5358 38.5571 88.613Z" fill="white"/>
<path d="M36.8566 89.9181C36.9155 89.9953 36.9011 90.1049 36.8239 90.1639C36.7467 90.2229 36.6371 90.2084 36.5781 90.1312C36.5191 90.0541 36.5336 89.9444 36.6108 89.8855C36.6879 89.8265 36.7976 89.841 36.8566 89.9181Z" fill="white"/>
<path d="M37.3367 88.7826C37.3957 88.8598 37.3812 88.9694 37.3041 89.0284C37.2269 89.0874 37.1172 89.0729 37.0583 88.9958C36.9993 88.9186 37.0138 88.8089 37.0909 88.75C37.1681 88.691 37.2777 88.7055 37.3367 88.7826Z" fill="white"/>
<path d="M39.979 88.757L39.2662 91.6006L41.1728 88.8547" stroke="white" stroke-width="0.0863888" stroke-linecap="round" stroke-linejoin="round"/>
<path d="M41.6779 89.9387L39.2662 91.6006" stroke="white" stroke-width="0.0863888" stroke-linecap="round" stroke-linejoin="round"/>
<path d="M41.9117 89.9859C41.8579 90.0658 41.7476 90.0867 41.6693 90.0308C41.5894 89.9769 41.5685 89.8666 41.6245 89.7883C41.6783 89.7085 41.7886 89.6876 41.8669 89.7435C41.9468 89.7974 41.9677 89.9077 41.9117 89.9859Z" fill="white"/>
<path d="M40.1441 88.7728C40.0902 88.8527 39.9799 88.8735 39.9016 88.8176C39.8218 88.7638 39.8009 88.6535 39.8568 88.5752C39.9107 88.4953 40.021 88.4744 40.0993 88.5304C40.1791 88.5842 40.2 88.6945 40.1441 88.7728Z" fill="white"/>
<path d="M41.3737 88.8785C41.3198 88.9584 41.2095 88.9793 41.1313 88.9233C41.0514 88.8695 41.0305 88.7592 41.0864 88.6809C41.1403 88.601 41.2506 88.5801 41.3289 88.6361C41.4072 88.692 41.4296 88.8002 41.3737 88.8785Z" fill="white"/>
<path d="M30.8103 69.4154L30.1947 69.8461C30.0899 69.9201 29.9504 69.8244 29.9813 69.6995L30.1635 68.9671C30.1635 68.9671 28.7784 68.4006 27.9573 69.5965C27.8078 69.8159 27.6568 70.1319 27.5283 70.4893C27.388 70.147 27.2259 69.8484 27.0673 69.6422C26.236 68.5608 24.8587 69.0787 24.7849 69.1354L25.0036 69.8547C25.0411 69.9775 24.9068 70.0797 24.7974 70.0133L24.1574 69.6141C24.1574 69.6141 23.1896 70.7562 24.0732 71.9065C24.234 72.1161 24.4884 72.3573 24.7898 72.59C24.4208 72.619 24.0879 72.6801 23.8437 72.766C22.5581 73.223 22.6247 74.6909 22.6555 74.7794L23.4072 74.7937C23.5356 74.7963 23.5912 74.9556 23.4931 75.0379L22.9147 75.5228C22.9147 75.5228 23.7021 76.7959 25.0692 76.3109C25.3185 76.2224 25.6275 76.0552 25.941 75.8409C25.8536 76.2001 25.8094 76.5365 25.8157 76.7954C25.8528 78.158 27.2711 78.5492 27.3637 78.5475L27.6081 77.8362C27.6507 77.7152 27.8189 77.7104 27.8671 77.8299L28.1498 78.5292C28.1498 78.5292 29.6035 78.1732 29.5654 76.7236C29.5583 76.4592 29.4936 76.1138 29.3874 75.75C29.702 75.9438 30.0082 76.0905 30.2577 76.1635C31.5658 76.5496 32.375 75.3219 32.4016 75.2328L31.8006 74.78C31.699 74.7032 31.7469 74.5407 31.8738 74.5323L32.6273 74.4796C32.6273 74.4796 32.7391 72.9869 31.3477 72.5753C31.094 72.4992 30.7464 72.4547 30.3664 72.4444C30.6486 72.2048 30.8835 71.9587 31.0301 71.7454C31.8018 70.6212 30.8847 69.47 30.807 69.4178L30.8103 69.4154Z" fill="#FF92A5"/>
<path d="M29.9626 73.2412L27.6061 73.4034L30.1841 74.1809" stroke="white" stroke-width="0.0698463" stroke-linecap="round" stroke-linejoin="round"/>
<path d="M29.4792 74.8374L27.6061 73.4034" stroke="white" stroke-width="0.0698463" stroke-linecap="round" stroke-linejoin="round"/>
<path d="M29.502 75.029C29.4267 75.008 29.3841 74.9285 29.407 74.853C29.4281 74.7777 29.5075 74.7351 29.5831 74.758C29.6584 74.7791 29.701 74.8585 29.678 74.9341C29.657 75.0094 29.5775 75.0519 29.502 75.029Z" fill="white"/>
<path d="M29.9923 73.3723C29.917 73.3512 29.8745 73.2718 29.8974 73.1962C29.9185 73.1209 29.9979 73.0783 30.0735 73.1012C30.1488 73.1223 30.1913 73.2018 30.1684 73.2773C30.1473 73.3526 30.0679 73.3952 29.9923 73.3723Z" fill="white"/>
<path d="M30.2155 74.3415C30.1402 74.3205 30.0976 74.241 30.1205 74.1655C30.1416 74.0902 30.221 74.0476 30.2966 74.0705C30.3719 74.0916 30.4145 74.171 30.3915 74.2466C30.3705 74.3219 30.291 74.3645 30.2155 74.3415Z" fill="white"/>
<path d="M28.5054 75.6091L27.6238 73.4175L27.6804 76.1097" stroke="white" stroke-width="0.0698463" stroke-linecap="round" stroke-linejoin="round"/>
<path d="M26.8384 75.6422L27.6242 73.4175" stroke="white" stroke-width="0.0698463" stroke-linecap="round" stroke-linejoin="round"/>
<path d="M26.6645 75.7218C26.663 75.6441 26.7246 75.5799 26.8021 75.5765C26.8796 75.5732 26.9441 75.6366 26.9474 75.7141C26.9507 75.7916 26.8873 75.856 26.8098 75.8594C26.7324 75.8627 26.6679 75.7993 26.6645 75.7218Z" fill="white"/>
<path d="M28.3905 75.6749C28.389 75.5972 28.4506 75.533 28.5281 75.5297C28.6058 75.5281 28.67 75.5897 28.6734 75.6672C28.6767 75.7447 28.6133 75.8092 28.5358 75.8125C28.4584 75.8158 28.3939 75.7524 28.3905 75.6749Z" fill="white"/>
<path d="M27.5387 76.1906C27.5371 76.1128 27.5987 76.0486 27.6762 76.0453C27.7537 76.0419 27.8182 76.1054 27.8215 76.1828C27.8248 76.2603 27.7614 76.3248 27.684 76.3281C27.6065 76.3315 27.542 76.2681 27.5387 76.1906Z" fill="white"/>
<path d="M25.8036 74.9543L27.6157 73.4388L25.0724 74.3266" stroke="white" stroke-width="0.0698463" stroke-linecap="round" stroke-linejoin="round"/>
<path d="M25.2568 73.3787L27.6163 73.4388" stroke="white" stroke-width="0.0698463" stroke-linecap="round" stroke-linejoin="round"/>
<path d="M25.127 73.2373C25.1994 73.2106 25.2808 73.2494 25.3078 73.3236C25.3348 73.3978 25.2958 73.4774 25.2216 73.5044C25.1474 73.5314 25.0678 73.4924 25.0408 73.4182C25.0138 73.344 25.0528 73.2644 25.127 73.2373Z" fill="white"/>
<path d="M25.7041 74.8663C25.7783 74.8392 25.858 74.8783 25.885 74.9525C25.912 75.0267 25.8729 75.1063 25.7988 75.1333C25.7246 75.1603 25.6449 75.1213 25.6179 75.0471C25.5909 74.9729 25.6299 74.8933 25.7041 74.8663Z" fill="white"/>
<path d="M24.9538 74.2134C25.0261 74.1867 25.1076 74.2255 25.1346 74.2996C25.1616 74.3738 25.1226 74.4535 25.0484 74.4805C24.9742 74.5075 24.8946 74.4685 24.8675 74.3943C24.8405 74.3201 24.8796 74.2404 24.9538 74.2134Z" fill="white"/>
<path d="M25.5909 72.1838L27.5912 73.4387L25.9626 71.2934" stroke="white" stroke-width="0.0698463" stroke-linecap="round" stroke-linejoin="round"/>
<path d="M26.9211 71.1771L27.5916 73.4388" stroke="white" stroke-width="0.0698463" stroke-linecap="round" stroke-linejoin="round"/>
<path d="M27.0141 71.0081C27.0617 71.0701 27.0499 71.159 26.9879 71.2066C26.9258 71.2542 26.837 71.2424 26.7894 71.1804C26.7418 71.1183 26.7536 71.0294 26.8156 70.9819C26.8777 70.9343 26.9665 70.946 27.0141 71.0081Z" fill="white"/>
<path d="M25.6454 72.0613C25.693 72.1234 25.6812 72.2122 25.6192 72.2598C25.5571 72.3074 25.4683 72.2956 25.4207 72.2336C25.3731 72.1715 25.3849 72.0827 25.4469 72.0351C25.509 71.9875 25.5978 71.9993 25.6454 72.0613Z" fill="white"/>
<path d="M26.0313 71.1448C26.0789 71.2069 26.0671 71.2957 26.0051 71.3433C25.943 71.3909 25.8542 71.3791 25.8066 71.3171C25.759 71.255 25.7708 71.1662 25.8328 71.1186C25.8949 71.071 25.9837 71.0828 26.0313 71.1448Z" fill="white"/>
<path d="M28.1615 71.1252L27.5854 73.4172L29.1224 71.2033" stroke="white" stroke-width="0.0698463" stroke-linecap="round" stroke-linejoin="round"/>
<path d="M29.5297 72.0783L27.5854 73.4174" stroke="white" stroke-width="0.0698463" stroke-linecap="round" stroke-linejoin="round"/>
<path d="M29.7189 72.1149C29.6739 72.1787 29.5873 72.1963 29.5235 72.1513C29.4597 72.1064 29.4421 72.0197 29.4871 71.9559C29.5321 71.8922 29.6187 71.8746 29.6825 71.9195C29.7462 71.9645 29.7638 72.0511 29.7189 72.1149Z" fill="white"/>
<path d="M28.2957 71.1381C28.2508 71.2019 28.1642 71.2195 28.1004 71.1745C28.0366 71.1295 28.019 71.0429 28.064 70.9791C28.1089 70.9154 28.1956 70.8978 28.2593 70.9427C28.3231 70.9877 28.3407 71.0743 28.2957 71.1381Z" fill="white"/>
<path d="M29.2848 71.2233C29.2398 71.2871 29.1532 71.3047 29.0894 71.2597C29.0256 71.2147 29.008 71.1281 29.053 71.0644C29.0979 71.0006 29.1846 70.983 29.2483 71.0279C29.3121 71.0729 29.3297 71.1595 29.2848 71.2233Z" fill="white"/>
<path d="M95.2893 106.104L94.4164 106.714C94.2676 106.818 94.0706 106.682 94.1147 106.505L94.3716 105.469C94.3716 105.469 92.4098 104.665 91.246 106.36C91.0329 106.67 90.8204 107.117 90.6385 107.625C90.4395 107.14 90.21 106.717 89.9876 106.425C88.8118 104.894 86.861 105.626 86.7572 105.707L87.0675 106.725C87.1212 106.898 86.9301 107.045 86.7758 106.949L85.8697 106.385C85.8697 106.385 84.5004 108.002 85.7512 109.632C85.9801 109.931 86.339 110.271 86.7651 110.599C86.2435 110.638 85.7695 110.726 85.4247 110.849C83.6049 111.495 83.699 113.575 83.7422 113.699L84.8064 113.718C84.9868 113.721 85.0683 113.947 84.9288 114.065L84.1112 114.752C84.1112 114.752 85.2264 116.555 87.163 115.868C87.5168 115.743 87.9534 115.506 88.3972 115.201C88.2731 115.71 88.2094 116.187 88.2197 116.554C88.2707 118.485 90.2795 119.039 90.4108 119.035L90.7573 118.03C90.8169 117.858 91.0556 117.853 91.1233 118.02L91.5245 119.011C91.5245 119.011 93.5849 118.507 93.5296 116.453C93.5202 116.078 93.4285 115.591 93.2768 115.074C93.7231 115.348 94.1567 115.557 94.5088 115.66C96.3608 116.208 97.5071 114.468 97.5453 114.342L96.6954 113.701C96.5503 113.591 96.6188 113.363 96.7987 113.349L97.8645 113.273C97.8645 113.273 98.0216 111.158 96.0516 110.577C95.6918 110.471 95.2002 110.405 94.6619 110.391C95.062 110.052 95.3922 109.703 95.6008 109.401C96.6935 107.81 95.3946 106.181 95.2859 106.107L95.2893 106.104Z" fill="#FF92A5"/>
<path d="M94.0863 111.521L90.7501 111.751L94.4009 112.851" stroke="white" stroke-width="0.0992553" stroke-linecap="round" stroke-linejoin="round"/>
<path d="M93.402 113.782L90.7501 111.751" stroke="white" stroke-width="0.0992553" stroke-linecap="round" stroke-linejoin="round"/>
<path d="M93.4338 114.052C93.3274 114.02 93.2675 113.91 93.2991 113.804C93.3307 113.697 93.4411 113.637 93.5476 113.669C93.654 113.7 93.7139 113.811 93.6823 113.917C93.6507 114.024 93.5403 114.084 93.4338 114.052Z" fill="white"/>
<path d="M94.1272 111.706C94.0207 111.675 93.9608 111.564 93.9924 111.458C94.024 111.351 94.1345 111.292 94.2409 111.323C94.3474 111.355 94.4073 111.465 94.3757 111.572C94.3441 111.678 94.2336 111.738 94.1272 111.706Z" fill="white"/>
<path d="M94.4482 113.078C94.3417 113.046 94.2819 112.936 94.3135 112.829C94.3451 112.723 94.4555 112.663 94.562 112.695C94.6684 112.726 94.7283 112.837 94.6967 112.943C94.6651 113.05 94.5546 113.11 94.4482 113.078Z" fill="white"/>
<path d="M92.025 114.873L90.7773 111.769L90.858 115.583" stroke="white" stroke-width="0.0992553" stroke-linecap="round" stroke-linejoin="round"/>
<path d="M89.664 114.919L90.7777 111.769" stroke="white" stroke-width="0.0992553" stroke-linecap="round" stroke-linejoin="round"/>
<path d="M89.4159 115.033C89.4135 114.922 89.4991 114.831 89.6101 114.828C89.7211 114.826 89.8128 114.911 89.8152 115.022C89.8177 115.133 89.732 115.225 89.621 115.228C89.51 115.23 89.4183 115.144 89.4159 115.033Z" fill="white"/>
<path d="M91.8628 114.968C91.8603 114.857 91.946 114.766 92.057 114.763C92.168 114.761 92.2597 114.846 92.2621 114.957C92.2645 115.068 92.1789 115.16 92.0679 115.162C91.9569 115.165 91.8652 115.079 91.8628 114.968Z" fill="white"/>
<path d="M90.6548 115.696C90.6524 115.585 90.738 115.494 90.849 115.491C90.96 115.489 91.0517 115.574 91.0541 115.685C91.0565 115.796 90.9709 115.888 90.8599 115.89C90.7489 115.893 90.6572 115.807 90.6548 115.696Z" fill="white"/>
<path d="M88.2003 113.948L90.7672 111.801L87.1653 113.056" stroke="white" stroke-width="0.0992553" stroke-linecap="round" stroke-linejoin="round"/>
<path d="M87.427 111.715L90.768 111.801" stroke="white" stroke-width="0.0992553" stroke-linecap="round" stroke-linejoin="round"/>
<path d="M87.2408 111.517C87.3452 111.48 87.4586 111.535 87.4953 111.639C87.5321 111.743 87.4773 111.857 87.3729 111.894C87.2686 111.93 87.1552 111.876 87.1184 111.771C87.0816 111.667 87.1364 111.553 87.239 111.517L87.2408 111.517Z" fill="white"/>
<path d="M88.0578 113.821C88.1622 113.784 88.2756 113.839 88.3123 113.944C88.3491 114.048 88.2944 114.161 88.1918 114.198C88.0874 114.235 87.974 114.18 87.9375 114.077C87.9007 113.973 87.9555 113.859 88.0599 113.823L88.0578 113.821Z" fill="white"/>
<path d="M86.9945 112.898C87.0988 112.861 87.2122 112.916 87.2487 113.019C87.2855 113.123 87.2307 113.236 87.1282 113.273C87.0238 113.31 86.9104 113.255 86.8739 113.152C86.8371 113.048 86.8919 112.935 86.9963 112.898L86.9945 112.898Z" fill="white"/>
<path d="M87.8988 110.024L90.7345 111.801L88.427 108.763" stroke="white" stroke-width="0.0992553" stroke-linecap="round" stroke-linejoin="round"/>
<path d="M89.7811 108.597L90.7347 111.801" stroke="white" stroke-width="0.0992553" stroke-linecap="round" stroke-linejoin="round"/>
<path d="M89.9151 108.36C89.9828 108.447 89.9649 108.572 89.8778 108.639C89.7908 108.707 89.6658 108.689 89.598 108.602C89.5303 108.515 89.5482 108.39 89.6352 108.322C89.7223 108.255 89.8473 108.272 89.9151 108.36Z" fill="white"/>
<path d="M87.975 109.85C88.0428 109.937 88.0249 110.062 87.9378 110.13C87.8507 110.198 87.7258 110.18 87.658 110.093C87.5902 110.006 87.6081 109.881 87.6952 109.813C87.7823 109.745 87.9073 109.763 87.975 109.85Z" fill="white"/>
<path d="M88.524 108.553C88.5918 108.64 88.5739 108.765 88.4868 108.833C88.3997 108.901 88.2748 108.883 88.207 108.796C88.1392 108.708 88.1571 108.583 88.2442 108.516C88.3313 108.448 88.4562 108.466 88.524 108.553Z" fill="white"/>
<path d="M91.5369 108.524L90.724 111.769L92.8978 108.635" stroke="white" stroke-width="0.0992553" stroke-linecap="round" stroke-linejoin="round"/>
<path d="M93.4763 109.874L90.724 111.769" stroke="white" stroke-width="0.0992553" stroke-linecap="round" stroke-linejoin="round"/>
<path d="M93.7427 109.926C93.681 110.017 93.5562 110.04 93.466 109.978C93.3757 109.916 93.3528 109.791 93.4145 109.701C93.4762 109.611 93.6011 109.588 93.6913 109.65C93.7815 109.711 93.8044 109.836 93.7427 109.926Z" fill="white"/>
<path d="M91.7266 108.542C91.6649 108.632 91.54 108.655 91.4498 108.593C91.3596 108.532 91.3367 108.407 91.3984 108.317C91.4601 108.226 91.5849 108.203 91.6752 108.265C91.7654 108.327 91.7883 108.452 91.7266 108.542Z" fill="white"/>
<path d="M93.1293 108.663C93.0676 108.753 92.9428 108.776 92.8526 108.714C92.7623 108.652 92.7394 108.527 92.8011 108.437C92.8628 108.347 92.9877 108.324 93.0779 108.386C93.1681 108.447 93.191 108.572 93.1293 108.663Z" fill="white"/>
<path d="M111.967 89.582L111.09 89.9246C110.941 89.9825 110.8 89.8257 110.873 89.6838L111.31 88.8474C111.31 88.8474 109.792 87.7501 108.44 88.9622C108.193 89.184 107.917 89.5248 107.655 89.923C107.584 89.4653 107.477 89.0534 107.345 88.7581C106.653 87.197 104.825 87.4213 104.72 87.4675L104.774 88.4063C104.783 88.5665 104.589 88.651 104.477 88.5385L103.815 87.864C103.815 87.864 102.302 88.9687 103.038 90.6276C103.173 90.9318 103.409 91.2997 103.708 91.6702C103.252 91.5962 102.827 91.5717 102.504 91.6055C100.806 91.782 100.454 93.5883 100.466 93.7035L101.377 93.9407C101.531 93.9805 101.553 94.1927 101.41 94.2626L100.565 94.6826C100.565 94.6826 101.148 96.4628 102.954 96.2769C103.283 96.2423 103.707 96.1295 104.154 95.9618C103.942 96.3735 103.787 96.7698 103.72 97.0872C103.363 98.7568 104.972 99.6504 105.085 99.6737L105.593 98.8813C105.68 98.7467 105.886 98.7904 105.91 98.9486L106.049 99.8831C106.049 99.8831 107.923 99.8788 108.304 98.1039C108.374 97.7787 108.396 97.3431 108.373 96.8676C108.699 97.1971 109.028 97.4651 109.308 97.6284C110.786 98.4846 112.133 97.2286 112.191 97.1277L111.595 96.3996C111.494 96.2763 111.6 96.0926 111.758 96.119L112.689 96.2754C112.689 96.2754 113.263 94.4921 111.693 93.582C111.406 93.4158 110.997 93.2575 110.538 93.132C110.95 92.9243 111.308 92.6928 111.551 92.4772C112.821 91.3375 112.044 89.6678 111.967 89.582Z" fill="#FF92A5"/>
<path d="M109.807 93.9832L106.893 93.4861L109.801 95.1904" stroke="white" stroke-width="0.0882269" stroke-linecap="round" stroke-linejoin="round"/>
<path d="M108.749 95.7836L106.893 93.4861" stroke="white" stroke-width="0.0882269" stroke-linecap="round" stroke-linejoin="round"/>
<path d="M108.722 96.0213C108.637 95.9719 108.609 95.8644 108.657 95.7798C108.705 95.6953 108.814 95.6671 108.898 95.7148C108.983 95.7642 109.011 95.8717 108.964 95.9562C108.916 96.0408 108.807 96.069 108.722 96.0213Z" fill="white"/>
<path d="M109.805 94.1505C109.72 94.101 109.692 93.9936 109.74 93.909C109.789 93.8242 109.897 93.7963 109.981 93.8439C110.066 93.8934 110.094 94.0008 110.046 94.0854C109.997 94.1702 109.889 94.1981 109.805 94.1505Z" fill="white"/>
<path d="M109.795 95.3953C109.71 95.3459 109.682 95.2384 109.73 95.1539C109.779 95.0691 109.887 95.0411 109.971 95.0888C110.056 95.1382 110.084 95.2457 110.036 95.3303C109.987 95.4151 109.88 95.443 109.795 95.3953Z" fill="white"/>
<path d="M107.342 96.4319L106.915 93.5072L106.192 96.7994" stroke="white" stroke-width="0.0882269" stroke-linecap="round" stroke-linejoin="round"/>
<path d="M105.303 95.9821L106.915 93.5072" stroke="white" stroke-width="0.0882269" stroke-linecap="round" stroke-linejoin="round"/>
<path d="M105.066 96.0281C105.086 95.9326 105.18 95.8713 105.275 95.8933C105.371 95.9152 105.432 96.0069 105.41 96.1028C105.388 96.1986 105.297 96.2596 105.201 96.2377C105.105 96.2175 105.044 96.124 105.066 96.0281Z" fill="white"/>
<path d="M107.182 96.4803C107.202 96.3847 107.295 96.3235 107.391 96.3454C107.487 96.3655 107.548 96.4591 107.526 96.5549C107.506 96.6505 107.412 96.7118 107.317 96.6898C107.221 96.6679 107.16 96.5761 107.182 96.4803Z" fill="white"/>
<path d="M105.994 96.8548C106.014 96.7592 106.108 96.698 106.204 96.7199C106.299 96.7419 106.36 96.8336 106.339 96.9294C106.318 97.025 106.225 97.0863 106.129 97.0643C106.033 97.0442 105.972 96.9506 105.994 96.8548Z" fill="white"/>
<path d="M104.248 94.843L106.899 93.5319L103.544 93.8626" stroke="white" stroke-width="0.0882269" stroke-linecap="round" stroke-linejoin="round"/>
<path d="M104.046 92.7647L106.899 93.5319" stroke="white" stroke-width="0.0882269" stroke-linecap="round" stroke-linejoin="round"/>
<path d="M103.93 92.5544C104.027 92.5446 104.113 92.6144 104.124 92.7111C104.134 92.8081 104.064 92.8939 103.967 92.9055C103.871 92.917 103.785 92.8455 103.773 92.7487C103.762 92.652 103.833 92.566 103.93 92.5544Z" fill="white"/>
<path d="M104.152 94.704C104.249 94.6943 104.334 94.764 104.346 94.8608C104.356 94.9578 104.286 95.0435 104.189 95.0551C104.093 95.0667 104.007 94.9951 103.995 94.8984C103.983 94.8017 104.055 94.7156 104.152 94.704Z" fill="white"/>
<path d="M103.431 93.6906C103.528 93.6809 103.614 93.7506 103.625 93.8473C103.635 93.9443 103.565 94.0301 103.469 94.0417C103.372 94.0515 103.286 93.9817 103.274 93.885C103.264 93.788 103.334 93.7022 103.431 93.6906Z" fill="white"/>
<path d="M104.803 91.4089L106.869 93.525L105.52 90.4372" stroke="white" stroke-width="0.0882269" stroke-linecap="round" stroke-linejoin="round"/>
<path d="M106.718 90.5767L106.87 93.5248" stroke="white" stroke-width="0.0882269" stroke-linecap="round" stroke-linejoin="round"/>
<path d="M106.883 90.3998C106.924 90.4889 106.882 90.5929 106.793 90.6331C106.704 90.6733 106.6 90.6321 106.56 90.5431C106.52 90.454 106.561 90.3499 106.65 90.3097C106.739 90.2695 106.843 90.3107 106.883 90.3998Z" fill="white"/>
<path d="M104.906 91.2755C104.946 91.3646 104.905 91.4687 104.816 91.5089C104.727 91.5491 104.623 91.5079 104.582 91.4188C104.542 91.3298 104.583 91.2257 104.672 91.1855C104.761 91.1453 104.866 91.1865 104.906 91.2755Z" fill="white"/>
<path d="M105.647 90.2765C105.687 90.3656 105.646 90.4696 105.557 90.5099C105.468 90.5501 105.364 90.5088 105.324 90.4198C105.283 90.3307 105.325 90.2267 105.414 90.1864C105.503 90.1462 105.607 90.1875 105.647 90.2765Z" fill="white"/>
<path d="M108.243 90.879L106.867 93.4955L109.388 91.258" stroke="white" stroke-width="0.0882269" stroke-linecap="round" stroke-linejoin="round"/>
<path d="M109.625 92.4404L106.867 93.4953" stroke="white" stroke-width="0.0882269" stroke-linecap="round" stroke-linejoin="round"/>
<path d="M109.844 92.5418C109.771 92.6075 109.659 92.6009 109.595 92.5281C109.529 92.4556 109.536 92.3433 109.609 92.2794C109.682 92.2155 109.794 92.2203 109.858 92.2931C109.923 92.3656 109.917 92.4779 109.844 92.5418Z" fill="white"/>
<path d="M108.401 90.9329C108.329 90.9987 108.216 90.992 108.152 90.9192C108.087 90.8467 108.093 90.7344 108.166 90.6705C108.239 90.6066 108.351 90.6114 108.415 90.6842C108.479 90.757 108.474 90.869 108.401 90.9329Z" fill="white"/>
<path d="M109.58 91.3299C109.507 91.3956 109.395 91.3889 109.331 91.3162C109.265 91.2437 109.272 91.1314 109.345 91.0675C109.418 91.0035 109.53 91.0084 109.593 91.0812C109.659 91.1537 109.653 91.2659 109.58 91.3299Z" fill="white"/>
<path d="M17.5214 140.821L18.3898 140.701C20.2632 140.44 21.9885 141.706 22.2416 143.528C22.2733 143.756 22.2804 143.981 22.2648 144.202C22.2581 144.314 22.2426 144.417 22.2258 144.536C22.21 144.663 22.1884 144.788 22.1617 144.916C22.0578 145.424 21.8759 145.945 21.6379 146.475C21.3977 147.004 21.1009 147.539 20.7551 148.029C20.4088 148.515 20.0151 148.954 19.5781 149.241L18.7666 149.771L19.4965 155.025L28.0716 143.683L27.1168 136.81L17.1564 138.194L17.5214 140.821Z" fill="white"/>
<path d="M15.8749 128.969L16.7433 128.849C18.6166 128.589 20.3419 129.854 20.5951 131.676C20.8483 133.499 19.5332 135.186 17.6599 135.447L16.7915 135.567L17.1564 138.194L27.115 136.811L25.4684 124.959L15.5099 126.342L15.8749 128.969Z" fill="white"/>
<path d="M14.2283 117.117L15.0967 116.997C16.9701 116.736 18.6954 118.002 18.9485 119.824C19.2017 121.647 17.8867 123.334 16.0133 123.594L15.1449 123.715L15.5099 126.342L25.4684 124.959L23.8219 113.107L13.8633 114.49L14.2283 117.117Z" fill="white"/>
<path d="M12.582 105.267L13.4504 105.147C15.3238 104.886 17.0491 106.152 17.3023 107.974C17.5555 109.796 16.2404 111.484 14.367 111.744L13.4986 111.865L13.8636 114.492L23.8221 113.109L22.1756 101.257L12.217 102.64L12.582 105.267Z" fill="white"/>
<path d="M10.9355 93.4155L11.8039 93.2948C13.6773 93.0346 15.4026 94.2999 15.6558 96.1223C15.9089 97.9447 14.5939 99.6323 12.7205 99.8926L11.8521 100.013L12.2171 102.64L22.1756 101.257L20.5291 89.4049L10.5705 90.7884L10.9355 93.4155Z" fill="white"/>
<path d="M9.28895 81.5637L10.1574 81.443C12.0307 81.1828 13.756 82.4481 14.0092 84.2705C14.2624 86.0929 12.9473 87.7805 11.074 88.0408L10.2056 88.1614L10.5705 90.7885L20.5291 89.405L18.8825 77.5531L8.92398 78.9366L9.28895 81.5637Z" fill="white"/>
<path d="M7.64265 69.7133L8.51106 69.5927C10.3844 69.3324 12.1097 70.5977 12.3629 72.4201C12.6161 74.2425 11.301 75.9302 9.42766 76.1904L8.55925 76.3111L8.92422 78.9382L18.8828 77.5547L17.2362 65.7027L7.27768 67.0862L7.64265 69.7133Z" fill="white"/>
<path d="M5.9961 57.8613L6.86452 57.7406C8.73789 57.4804 10.4632 58.7457 10.7164 60.5681C10.9695 62.3905 9.65449 64.0781 7.78112 64.3384L6.9127 64.459L7.27767 67.0861L17.2362 65.7026L15.5897 53.8507L5.63113 55.2342L5.9961 57.8613Z" fill="white"/>
<path d="M4.34959 46.0095L5.218 45.8888C7.09138 45.6286 8.81668 46.8939 9.06986 48.7163C9.32303 50.5387 8.00798 52.2263 6.1346 52.4866L5.26619 52.6072L5.63116 55.2343L15.5897 53.8508L13.9432 41.9989L3.98462 43.3824L4.34959 46.0095Z" fill="white"/>
<path d="M2.70329 34.1591L3.5717 34.0385C5.44507 33.7782 7.17038 35.0435 7.42355 36.8659C7.67673 38.6883 6.36167 40.376 4.4883 40.6362L3.61989 40.7569L3.98486 43.384L13.9434 42.0005L12.2969 30.1485L2.33832 31.532L2.70329 34.1591Z" fill="white"/>
<path d="M0.730002 19.9554L1.65532 20.2444C2.15407 20.4015 2.65221 20.7146 3.11814 21.0896C3.58408 21.4647 4.01754 21.9 4.39093 22.3436C4.76639 22.7887 5.08152 23.2404 5.31993 23.7009C5.38032 23.815 5.4355 23.9317 5.48521 24.0491C5.53392 24.1593 5.57645 24.2517 5.61373 24.3597C5.68909 24.5682 5.74361 24.7871 5.77523 25.0146C6.0284 26.837 4.71335 28.5247 2.83997 28.785L1.97338 28.9054L2.33835 31.5324L12.2969 30.1489L11.3421 23.2763L6.10352e-05 14.7012L0.730002 19.9554Z" fill="white"/>
<path d="M14.2024 12.7282L14.323 13.5966C14.5833 15.4699 13.318 17.1952 11.4974 17.4482C11.2698 17.4798 11.0444 17.487 10.8233 17.4713C10.711 17.4646 10.6087 17.4492 10.4894 17.4323C10.3629 17.4165 10.2374 17.395 10.1094 17.3682C9.60313 17.2641 9.08057 17.0825 8.55016 16.8444C8.02132 16.6043 7.48646 16.3074 6.99676 15.9616C6.51071 15.6153 6.07188 15.2216 5.78477 14.7846L5.25449 13.9731L0.00031396 14.703L11.3424 23.2781L18.2132 22.3236L16.8295 12.3632L14.2024 12.7282Z" fill="white"/>
<path d="M26.052 11.0818L26.1727 11.9502C26.4329 13.8236 25.1676 15.5489 23.3452 15.802C21.5228 16.0552 19.8372 14.7417 19.5767 12.8665L19.4561 11.9981L16.829 12.3631L18.2125 22.3216L30.0626 20.6754L28.6791 10.7168L26.052 11.0818Z" fill="white"/>
<path d="M37.9032 9.43528L38.0239 10.3037C38.2841 12.1771 37.0188 13.9024 35.1964 14.1555C33.374 14.4087 31.6866 13.0955 31.4261 11.2203L31.3055 10.3519L28.6784 10.7169L30.0619 20.6754L41.912 19.0291L40.5285 9.07056L37.9014 9.43554L37.9032 9.43528Z" fill="white"/>
<path d="M49.754 7.78904L49.8747 8.65746C50.1349 10.5308 48.8696 12.2561 47.0472 12.5093C45.2248 12.7625 43.5374 11.4492 43.2769 9.57405L43.1563 8.70564L40.5292 9.07061L41.9127 19.0292L53.7628 17.3829L52.3793 7.42432L49.7522 7.78929L49.754 7.78904Z" fill="white"/>
<path d="M61.6044 6.14257L61.7251 7.01098C61.9853 8.88435 60.7201 10.6097 58.8995 10.8626C57.0789 11.1155 55.3897 9.80252 55.1291 7.92733L55.0085 7.05891L52.3814 7.42388L53.7649 17.3824L65.615 15.7361L64.2315 5.7776L61.6044 6.14257Z" fill="white"/>
<path d="M73.4552 4.49633L73.5759 5.36474C73.8361 7.23811 72.5709 8.96341 70.7485 9.21659C68.9261 9.46977 67.2405 8.15628 66.9799 6.28109L66.8593 5.41267L64.2322 5.77764L65.6157 15.7362L77.4658 14.0899L76.0823 4.13136L73.4552 4.49633Z" fill="white"/>
<path d="M85.305 2.85008L85.4257 3.71849C85.6859 5.59186 84.4206 7.31717 82.5982 7.57034C80.7758 7.82352 79.0884 6.51028 78.8279 4.63509L78.7073 3.76668L76.0802 4.13165L77.4637 14.0902L89.3138 12.4439L87.9303 2.48536L85.3032 2.85033L85.305 2.85008Z" fill="white"/>
<path d="M99.508 0.876814L99.2191 1.80214C99.0619 2.30088 98.7489 2.79903 98.3738 3.26496C97.9987 3.73089 97.5635 4.16435 97.1199 4.53774C96.6747 4.9132 96.223 5.22833 95.7625 5.46674C95.6466 5.52738 95.5315 5.58049 95.4143 5.63203C95.3042 5.68073 95.2117 5.72326 95.1037 5.76054C94.8952 5.8359 94.6764 5.89042 94.4488 5.92204C92.6282 6.17496 90.939 4.86198 90.6785 2.98679L90.5581 2.12019L87.931 2.48516L89.3145 12.4437L96.1853 11.4892L104.762 0.146874L99.508 0.876814Z" fill="white"/>
<path d="M106.735 14.3491L105.867 14.4698C103.994 14.73 102.268 13.4647 102.015 11.6424C101.983 11.4148 101.976 11.1894 101.992 10.9682C101.999 10.856 102.014 10.7536 102.031 10.6344C102.047 10.5078 102.068 10.3824 102.095 10.2543C102.199 9.74808 102.381 9.22551 102.619 8.69511C102.859 8.16627 103.156 7.63141 103.502 7.14171C103.848 6.65565 104.242 6.21683 104.68 5.92947L105.492 5.39919L104.762 0.14683L96.1872 11.4889L97.142 18.3615L107.101 16.978L106.736 14.351L106.735 14.3491Z" fill="white"/>
<path d="M108.382 26.201L107.513 26.3217C105.64 26.5819 103.915 25.3166 103.662 23.4942C103.408 21.6718 104.723 19.9842 106.597 19.7239L107.465 19.6033L107.1 16.9762L97.1417 18.3597L98.7882 30.2116L108.747 28.8281L108.382 26.201Z" fill="white"/>
<path d="M110.028 38.0531L109.16 38.1737C107.287 38.434 105.561 37.1687 105.308 35.3463C105.055 33.5239 106.37 31.8362 108.243 31.576L109.112 31.4553L108.747 28.8282L98.7882 30.2117L100.435 42.0637L110.393 40.6802L110.028 38.0531Z" fill="white"/>
<path d="M111.675 49.9032L110.806 50.0238C108.933 50.2841 107.208 49.0188 106.954 47.1964C106.701 45.374 108.016 43.6863 109.89 43.4261L110.758 43.3054L110.393 40.6783L100.435 42.0618L102.081 53.9138L112.04 52.5303L111.675 49.9032Z" fill="white"/>
<path d="M113.321 61.755L112.453 61.8756C110.579 62.1359 108.854 60.8706 108.601 59.0482C108.348 57.2258 109.663 55.5381 111.536 55.2779L112.405 55.1572L112.04 52.5301L102.081 53.9136L103.728 65.7656L113.686 64.3821L113.321 61.755Z" fill="white"/>
<path d="M114.968 73.6073L114.099 73.7279C112.226 73.9882 110.501 72.7229 110.247 70.9005C109.994 69.0781 111.309 67.3904 113.183 67.1302L114.051 67.0095L113.686 64.3824L103.728 65.7659L105.374 77.6179L115.333 76.2344L114.968 73.6073Z" fill="white"/>
<path d="M116.614 85.4574L115.746 85.578C113.872 85.8383 112.147 84.573 111.894 82.7506C111.641 80.9282 112.956 79.2405 114.829 78.9803L115.697 78.8596L115.332 76.2325L105.374 77.616L107.02 89.468L116.979 88.0845L116.614 85.4574Z" fill="white"/>
<path d="M118.261 97.3092L117.392 97.4298C115.519 97.6901 113.793 96.4248 113.54 94.6024C113.287 92.78 114.602 91.0923 116.476 90.8321L117.344 90.7114L116.979 88.0843L107.02 89.4678L108.667 101.32L118.626 99.9363L118.261 97.3092Z" fill="white"/>
<path d="M119.907 109.161L119.039 109.282C117.165 109.542 115.44 108.277 115.187 106.454C114.934 104.632 116.249 102.944 118.122 102.684L118.99 102.563L118.626 99.9361L108.667 101.32L110.314 113.172L120.272 111.788L119.907 109.161Z" fill="white"/>
<path d="M121.553 121.011L120.685 121.132C118.812 121.392 117.086 120.127 116.833 118.305C116.58 116.482 117.895 114.794 119.768 114.534L120.637 114.414L120.272 111.786L110.313 113.17L111.96 125.022L121.918 123.638L121.553 121.011Z" fill="white"/>
<path d="M123.527 135.215L122.601 134.926C122.103 134.769 121.602 134.455 121.137 134.081C120.671 133.706 120.237 133.271 119.864 132.827C119.488 132.382 119.173 131.931 118.935 131.47C118.875 131.356 118.819 131.239 118.77 131.122C118.721 131.012 118.68 130.917 118.641 130.811C118.566 130.603 118.511 130.384 118.48 130.156C118.226 128.334 119.542 126.646 121.415 126.386L122.283 126.265L121.918 123.638L111.96 125.022L112.915 131.894L124.257 140.47L123.527 135.215Z" fill="white"/>
<path d="M110.054 142.443L109.933 141.574C109.673 139.701 110.938 137.976 112.76 137.722C112.988 137.691 113.213 137.684 113.434 137.699C113.547 137.706 113.649 137.722 113.768 137.738C113.895 137.754 114.02 137.776 114.148 137.802C114.655 137.907 115.177 138.088 115.708 138.326C116.236 138.566 116.771 138.863 117.261 139.209C117.747 139.555 118.186 139.949 118.473 140.388L119.003 141.199L124.258 140.469L112.916 131.894L106.045 132.849L107.428 142.807L110.055 142.443L110.054 142.443Z" fill="white"/>
<path d="M98.2041 144.089L98.0835 143.22C97.8232 141.347 99.0885 139.622 100.911 139.368C102.733 139.115 104.421 140.43 104.681 142.304L104.802 143.172L107.429 142.807L106.045 132.849L94.1954 134.495L95.5789 144.453L98.206 144.089L98.2041 144.089Z" fill="white"/>
<path d="M86.3537 145.735L86.2331 144.867C85.9728 142.993 87.2381 141.268 89.0587 141.015C90.8793 140.762 92.5688 142.077 92.829 143.95L92.9497 144.819L95.5768 144.454L94.1933 134.495L82.3431 136.142L83.7266 146.1L86.3537 145.735Z" fill="white"/>
<path d="M74.5029 147.381L74.3823 146.513C74.122 144.64 75.3873 142.914 77.2097 142.661C79.0321 142.408 80.7179 143.723 80.9782 145.597L81.0988 146.465L83.7259 146.1L82.3424 136.142L70.4923 137.788L71.8758 147.746L74.5029 147.381Z" fill="white"/>
<path d="M62.6531 149.028L62.5325 148.159C62.2722 146.286 63.5375 144.561 65.3599 144.307C67.1823 144.054 68.87 145.369 69.1302 147.243L69.2509 148.111L71.878 147.746L70.4945 137.788L58.6443 139.434L60.0278 149.392L62.6549 149.027L62.6531 149.028Z" fill="white"/>
<path d="M50.8009 150.674L50.6802 149.806C50.42 147.933 51.6853 146.207 53.5077 145.954C55.3301 145.701 57.0177 147.016 57.278 148.889L57.3986 149.758L60.0257 149.393L58.6422 139.434L46.7921 141.081L48.1756 151.039L50.8027 150.674L50.8009 150.674Z" fill="white"/>
<path d="M38.9505 152.321L38.8299 151.452C38.5696 149.579 39.8349 147.854 41.6555 147.601C43.476 147.348 45.1655 148.663 45.4258 150.536L45.5464 151.404L48.1735 151.039L46.79 141.081L34.9399 142.727L36.3234 152.686L38.9505 152.321Z" fill="white"/>
<path d="M24.7486 154.294L25.0376 153.369C25.1947 152.87 25.5094 152.37 25.8826 151.904C26.2577 151.438 26.693 151.004 27.1366 150.631C27.5817 150.256 28.0334 149.941 28.4939 149.702C28.608 149.642 28.7247 149.587 28.8421 149.537C28.9522 149.488 29.0465 149.445 29.1527 149.408C29.3612 149.333 29.58 149.278 29.8076 149.247C31.6282 148.994 33.3159 150.309 33.5761 152.182L33.6968 153.051L36.3239 152.686L34.9404 142.727L28.0695 143.682L19.4945 155.024L24.7486 154.294Z" fill="white"/>
<path d="M16.9866 31.7184L17.2624 30.7652C17.8151 31.0967 18.6465 31.2707 19.4093 31.1647C20.3779 31.0301 20.7376 30.6276 20.6734 30.1651C20.487 28.8234 16.9134 30.2162 16.5927 27.9077C16.4533 26.9045 17.1339 25.9396 18.8398 25.7026C19.5862 25.599 20.3943 25.6852 20.9864 25.9667L20.747 26.9148C20.1423 26.663 19.5068 26.5898 18.9642 26.6652C18.0048 26.7985 17.6652 27.2261 17.7307 27.6976C17.9146 29.0212 21.4816 27.6478 21.7988 29.9309C21.9371 30.9267 21.2472 31.891 19.5413 32.128C18.5728 32.2626 17.5622 32.0949 16.9853 31.7223L16.9866 31.7184Z" fill="#FEF8E0"/>
<path d="M27.9056 29.4033L24.7961 29.8353L24.3826 31.3606L23.192 31.526L25.1262 24.9182L26.2641 24.7601L29.9354 30.5892L28.7265 30.7571L27.9038 29.4036L27.9056 29.4033ZM27.3976 28.5516L25.8475 25.9964L25.0618 28.8761L27.3976 28.5516Z" fill="#FEF8E0"/>
<path d="M33.3857 27.4563L32.5396 28.6057L32.7604 30.195L31.6062 30.3554L30.7422 24.1363L31.8964 23.9759L32.3396 27.1656L34.9696 23.549L36.2658 23.3689L34.0395 26.5119L37.2879 29.5642L35.9371 29.7518L33.3816 27.4532L33.3857 27.4563Z" fill="#FEF8E0"/>
<path d="M38.4441 26.6459L37.9565 23.1358L39.1107 22.9754L39.592 26.44C39.7699 27.7199 40.4234 28.1895 41.4283 28.0499C42.4333 27.9103 42.9247 27.2797 42.7471 26.0017L42.2658 22.5371L43.4036 22.379L43.8913 25.8891C44.1429 27.7006 43.2587 28.8292 41.5619 29.065C39.8651 29.3007 38.6976 28.4571 38.4459 26.6456L38.4441 26.6459Z" fill="#FEF8E0"/>
<path d="M50.8317 27.6862L49.3081 26.0422C49.2292 26.0624 49.1491 26.0735 49.069 26.0847L47.6653 26.2797L47.9173 28.093L46.763 28.2533L45.899 22.0342L48.4569 21.6789C50.0918 21.4517 51.2201 22.1468 51.4113 23.5231C51.5421 24.4644 51.1597 25.2245 50.3604 25.6696L52.0752 27.5135L50.8317 27.6862ZM48.5415 22.6618L47.1906 22.8495L47.5351 25.3291L48.886 25.1414C49.8982 25.0008 50.3583 24.4655 50.2498 23.6845C50.1413 22.9035 49.554 22.523 48.5418 22.6636L48.5415 22.6618Z" fill="#FEF8E0"/>
<path d="M57.9722 25.2263L54.8626 25.6583L54.4491 27.1836L53.2585 27.349L55.1927 20.7412L56.3306 20.5831L60.0019 26.4122L58.793 26.5801L57.9703 25.2266L57.9722 25.2263ZM57.4641 24.3746L55.9141 21.8194L55.1283 24.6991L57.4641 24.3746Z" fill="#FEF8E0"/>
<path d="M24.2509 39.6203C24.3991 40.6871 23.6497 41.4241 22.0513 41.6461L18.9599 42.0756L18.0959 35.8565L21.0107 35.4516C22.5036 35.2442 23.3903 35.7631 23.5274 36.7498C23.6162 37.3888 23.3613 37.9049 22.9181 38.2281C23.614 38.3485 24.1402 38.8099 24.2525 39.6182L24.2509 39.6203ZM19.378 36.6025L19.6162 38.3175L21.2511 38.0904C22.0503 37.9794 22.4642 37.6324 22.3853 37.0644C22.3064 36.4963 21.8123 36.2662 21.0131 36.3772L19.3782 36.6044L19.378 36.6025ZM23.0716 39.6672C22.9851 39.0446 22.4754 38.8352 21.6052 38.9561L19.7391 39.2153L19.9885 41.0104L21.8546 40.7512C22.7248 40.6303 23.1581 40.2898 23.0716 39.6672Z" fill="#FEF8E0"/>
<path d="M25.7369 34.7967L26.8912 34.6363L27.6194 39.8778L30.8709 39.426L31.0067 40.4037L26.6009 41.0158L25.7369 34.7967Z" fill="#FEF8E0"/>
<path d="M31.8113 37.1224C31.5558 35.2836 32.7888 33.7261 34.7167 33.4583C36.6447 33.1904 38.2543 34.3437 38.511 36.1916C38.7677 38.0395 37.5335 39.5879 35.6055 39.8558C33.6775 40.1236 32.0667 38.9612 31.8113 37.1224ZM37.3476 36.3532C37.1711 35.0825 36.112 34.2981 34.8594 34.4721C33.6069 34.6461 32.802 35.6913 32.9783 36.9603C33.1545 38.2292 34.2139 39.0155 35.4665 38.8414C36.719 38.6674 37.5239 37.6222 37.3476 36.3532Z" fill="#FEF8E0"/>
<path d="M40.4329 38.4225L40.7087 37.4693C41.2614 37.8008 42.0928 37.9748 42.8556 37.8688C43.8242 37.7342 44.1839 37.3317 44.1197 36.8692C43.9333 35.5275 40.3597 36.9203 40.0389 34.6118C39.8996 33.6086 40.5802 32.6437 42.2861 32.4068C43.0325 32.3031 43.8406 32.3893 44.4327 32.6708L44.1933 33.6189C43.5886 33.3671 42.953 33.2939 42.4105 33.3693C41.4511 33.5026 41.1115 33.9302 41.177 34.4017C41.3609 35.7253 44.9279 34.352 45.2451 36.635C45.3834 37.6308 44.6935 38.5951 42.9876 38.8321C42.019 38.9667 41.0085 38.799 40.4316 38.4264L40.4329 38.4225Z" fill="#FEF8E0"/>
<path d="M46.6419 35.0621C46.3864 33.2233 47.6193 31.6658 49.5473 31.398C51.4753 31.1301 53.0849 32.2834 53.3416 34.1313C53.5983 35.9792 52.3641 37.5276 50.4361 37.7955C48.5081 38.0633 46.8973 36.9009 46.6419 35.0621ZM52.1764 34.2932C51.9999 33.0224 50.9408 32.238 49.6882 32.412C48.4357 32.586 47.6307 33.6313 47.807 34.9002C47.9833 36.1692 49.0427 36.9554 50.2952 36.7814C51.5478 36.6074 52.3527 35.5621 52.1764 34.2932Z" fill="#FEF8E0"/>
<path d="M61.5904 36.1533L61.0086 32.0327L59.4399 35.7283L58.9247 35.7999L56.4154 32.7247L56.9807 36.7937L55.8792 36.9467L55.0152 30.7276L55.9656 30.5956L59.0087 34.3741L60.8611 29.9155L61.8114 29.7834L62.6845 36.0012L61.5922 36.153L61.5904 36.1533Z" fill="#FEF8E0"/>
</g>
<defs>
<clipPath id="clip0_675_2059">
<rect width="106.834" height="144.393" fill="white" transform="translate(0 14.7007) rotate(-7.90923)"/>
</clipPath>
</defs>
</svg>
