<svg width="100" height="100" viewBox="0 0 100 100" fill="none" xmlns="http://www.w3.org/2000/svg">
<mask id="mask0_789_9230" style="mask-type:luminance" maskUnits="userSpaceOnUse" x="25" y="23" width="52" height="64">
<path d="M25 23.8461H76.6233V86.0683H25V23.8461Z" fill="white"/>
</mask>
<g mask="url(#mask0_789_9230)">
<path fill-rule="evenodd" clip-rule="evenodd" d="M63.9758 85.6602H36.8924C30.5035 85.6602 25.3126 80.4605 25.3126 74.0716V37.4657C25.3126 31.0768 30.5035 25.8859 36.8924 25.8859H63.9758C70.3646 25.8859 75.5556 31.0768 75.5556 37.4657V74.0716C75.5556 80.4605 70.3646 85.6602 63.9758 85.6602ZM36.8924 27.8303C31.5799 27.8303 27.257 32.1532 27.257 37.4657V74.0716C27.257 79.3841 31.5799 83.707 36.8924 83.707H63.9758C69.2883 83.707 73.6112 79.3841 73.6112 74.0716V37.4657C73.6112 32.1532 69.2883 27.8303 63.9758 27.8303H36.8924Z" fill="#989AA5"/>
</g>
<path fill-rule="evenodd" clip-rule="evenodd" d="M64.4684 27.8304H36.3954C34.2253 27.8304 35.7444 22.4658 39.8156 22.4658H61.0482C65.1194 22.4658 66.6385 27.8304 64.4684 27.8304ZM37.576 25.886H63.2878C62.9145 25.0179 62.0465 24.4103 61.0482 24.4103H39.8156C38.8173 24.4103 37.9493 25.0179 37.576 25.886Z" fill="#989AA5"/>
<mask id="mask1_789_9230" style="mask-type:luminance" maskUnits="userSpaceOnUse" x="35" y="8" width="14" height="19">
<path d="M35.5097 8.33337H48.843V26.0677H35.5097V8.33337Z" fill="white"/>
</mask>
<g mask="url(#mask1_789_9230)">
<path fill-rule="evenodd" clip-rule="evenodd" d="M45.8811 24.4098H39.8741C39.3359 24.4098 38.9019 23.9757 38.9019 23.4375V14.5834C35.4036 13.5591 36.1415 8.33337 39.8047 8.33337H45.8811C46.4193 8.33337 46.8533 8.7674 46.8533 9.3056V23.4375C46.8533 23.9757 46.4193 24.4098 45.8811 24.4098ZM40.8463 22.4653H44.9088V10.2778H39.8047C38.1988 10.2778 38.0859 12.7691 39.8741 12.7691C40.4123 12.7691 40.8463 13.2032 40.8463 13.7414V22.4653Z" fill="#989AA5"/>
</g>
<mask id="mask2_789_9230" style="mask-type:luminance" maskUnits="userSpaceOnUse" x="53" y="8" width="12" height="19">
<path d="M53.2891 8.33337H64.4002V26.0677H53.2891V8.33337Z" fill="white"/>
</mask>
<g mask="url(#mask2_789_9230)">
<path fill-rule="evenodd" clip-rule="evenodd" d="M60.9863 24.4098H54.9794C54.4412 24.4098 54.0071 23.9757 54.0071 23.4375V9.3056C54.0071 8.7674 54.4412 8.33337 54.9794 8.33337H61.0644C64.7276 8.33337 65.4568 13.5591 61.9585 14.5834V23.4375C61.9585 23.9757 61.5245 24.4098 60.9863 24.4098ZM55.9516 22.4653H60.0141V13.7414C60.0141 12.1615 62.3058 13.3855 62.3058 11.5278C62.3058 10.8421 61.7415 10.2778 61.0558 10.2778H55.9516V22.4653Z" fill="#989AA5"/>
</g>
<mask id="mask3_789_9230" style="mask-type:luminance" maskUnits="userSpaceOnUse" x="44" y="8" width="14" height="5">
<path d="M44.4024 8.33337H57.7357V12.7344H44.4024V8.33337Z" fill="white"/>
</mask>
<g mask="url(#mask3_789_9230)">
<path fill-rule="evenodd" clip-rule="evenodd" d="M54.9831 12.2309H45.8858C44.6011 12.2309 44.6011 10.2865 45.8858 10.2865H54.9831C56.2678 10.2865 56.2678 12.2309 54.9831 12.2309Z" fill="#989AA5"/>
</g>
<path fill-rule="evenodd" clip-rule="evenodd" d="M50.6077 24.4108C50.0695 24.4108 49.6354 23.9768 49.6354 23.4386V17.9004C49.6354 16.6157 51.5799 16.6157 51.5799 17.9004V23.4386C51.5799 23.9768 51.1459 24.4108 50.6077 24.4108Z" fill="#989AA5"/>
<path fill-rule="evenodd" clip-rule="evenodd" d="M52.934 18.8716H48.2812C46.9965 18.8716 46.9965 16.9271 48.2812 16.9271H52.934C54.21 16.9271 54.21 18.8716 52.934 18.8716Z" fill="#989AA5"/>
<mask id="mask4_789_9230" style="mask-type:luminance" maskUnits="userSpaceOnUse" x="25" y="39" width="52" height="34">
<path d="M25 39.401H76.6233V72.7343H25V39.401Z" fill="white"/>
</mask>
<g mask="url(#mask4_789_9230)">
<path fill-rule="evenodd" clip-rule="evenodd" d="M74.5844 71.2933H26.2858C25.0011 71.2933 25.0011 69.3401 26.2858 69.3401H74.5844C75.8691 69.3401 75.8691 71.2933 74.5844 71.2933ZM74.5844 42.196H26.2858C25.0011 42.196 25.0011 40.2429 26.2858 40.2429H74.5844C75.8691 40.2429 75.8691 42.196 74.5844 42.196Z" fill="#989AA5"/>
</g>
<mask id="mask5_789_9230" style="mask-type:luminance" maskUnits="userSpaceOnUse" x="31" y="81" width="38" height="11">
<path d="M31.0663 81.6244H68.8441V91.5897H31.0663V81.6244Z" fill="white"/>
</mask>
<g mask="url(#mask5_789_9230)">
<path fill-rule="evenodd" clip-rule="evenodd" d="M66.7448 91.3899H34.1233C33.5851 91.3899 33.1511 90.9472 33.1511 90.4177V84.3152C33.1511 83.0305 35.0955 83.0305 35.0955 84.3152V89.4368H65.7726V84.3152C65.7726 83.0305 67.717 83.0305 67.717 84.3152V90.4177C67.717 90.9559 67.283 91.3899 66.7448 91.3899Z" fill="#989AA5"/>
</g>
<mask id="mask6_789_9230" style="mask-type:luminance" maskUnits="userSpaceOnUse" x="39" y="43" width="23" height="24">
<path d="M39.4708 43.4033H61.1201V66.7106H39.4708V43.4033Z" fill="white"/>
</mask>
<g mask="url(#mask6_789_9230)">
<path d="M59.8589 59.9052L57.6193 58.6118C58.4787 58.117 59.4683 57.5441 59.4683 57.5441C59.7027 57.4052 59.8589 57.2055 59.9283 56.9364C59.9978 56.6673 59.9718 56.4156 59.8329 56.1812C59.5551 55.7038 58.9388 55.5388 58.4613 55.8166L55.6228 57.4572L51.9162 55.3132L55.6228 53.1777L58.4613 54.8184C58.9388 55.0961 59.5551 54.9312 59.8329 54.4538C59.9718 54.2107 59.9978 53.959 59.9283 53.6899C59.8589 53.4295 59.7027 53.2211 59.4596 53.0909C59.4596 53.0909 58.4787 52.518 57.6193 52.0232L59.8589 50.7298C60.3363 50.452 60.5013 49.8444 60.2235 49.3583C59.9457 48.8809 59.3381 48.7159 58.8606 48.9937L56.6211 50.2871C56.6211 49.2975 56.6211 48.1604 56.6211 48.1604C56.6211 47.6048 56.1697 47.1621 55.6228 47.1621C55.0672 47.1621 54.6158 47.6048 54.6158 48.1604V51.4416L50.9179 53.5857V49.3062L53.7565 47.6656C54.2339 47.3878 54.3988 46.7715 54.1211 46.2941C53.852 45.8166 53.2356 45.6517 52.7582 45.9295C52.7582 45.9295 51.7686 46.5024 50.9179 46.9972V44.4104C50.9179 43.8548 50.4665 43.4121 49.911 43.4121C49.3641 43.4121 48.9127 43.8548 48.9127 44.4104V46.9972C48.0533 46.5024 47.0724 45.9295 47.0724 45.9295C46.595 45.6517 45.9787 45.8166 45.7009 46.2941C45.4231 46.7715 45.5881 47.3878 46.0655 47.6656L48.9127 49.3062V53.5857L45.2061 51.4416V48.1604C45.2061 47.6048 44.7634 47.1621 44.2079 47.1621C43.6523 47.1621 43.2096 47.6048 43.2096 48.1604C43.2096 48.1604 43.2096 49.2975 43.2096 50.2871L40.97 48.9937C40.4926 48.7159 39.8763 48.8809 39.5985 49.3583C39.3294 49.8357 39.4856 50.452 39.9718 50.7298L42.2113 52.0232C41.352 52.518 40.3624 53.0909 40.3624 53.0909C40.128 53.2211 39.9718 53.4295 39.8936 53.6899C39.8242 53.959 39.8589 54.2107 39.9978 54.4538C40.2756 54.9312 40.8832 55.0961 41.3606 54.8184L44.2079 53.1777L47.9145 55.3132L44.2079 57.4572L41.3606 55.8166C40.8832 55.5388 40.2756 55.7038 39.9978 56.1812C39.8589 56.4156 39.8242 56.6673 39.8936 56.9364C39.9718 57.2055 40.128 57.4052 40.3624 57.5441C40.3624 57.5441 41.352 58.117 42.2113 58.6118L39.9631 59.9052C39.4856 60.1829 39.3207 60.7906 39.5985 61.268C39.7374 61.5111 39.9457 61.6673 40.2061 61.7368C40.4752 61.8062 40.727 61.7715 40.97 61.6326L43.2096 60.3392V62.4746C43.2096 63.0215 43.6523 63.4729 44.2079 63.4729C44.7634 63.4729 45.2061 63.0215 45.2061 62.4746V59.1847L48.9127 57.0493V61.3288L46.0655 62.9694C45.5881 63.2472 45.4231 63.8548 45.7009 64.3322C45.9787 64.8097 46.595 64.9746 47.0724 64.6968C47.0724 64.6968 48.0533 64.1326 48.9127 63.6378V66.2246C48.9127 66.7715 49.3641 67.2229 49.911 67.2229C50.4665 67.2229 50.9179 66.7715 50.9179 66.2246V63.6378C51.7686 64.1326 52.7582 64.6968 52.7582 64.6968C53.2356 64.9746 53.852 64.8097 54.1211 64.3322C54.3988 63.8548 54.2339 63.2472 53.7565 62.9694L50.9179 61.3288V57.0493L54.6158 59.1847V62.4746C54.6158 63.0215 55.0672 63.4729 55.6228 63.4729C56.1697 63.4729 56.6211 63.0215 56.6211 62.4746C56.6211 62.4746 56.6211 61.3288 56.6211 60.3392L58.8606 61.6326C59.3381 61.9104 59.9457 61.7454 60.2235 61.268C60.5013 60.7906 60.3363 60.1829 59.8589 59.9052Z" fill="#989AA5"/>
</g>
</svg>
