<svg width="100" height="100" viewBox="0 0 100 100" fill="none" xmlns="http://www.w3.org/2000/svg">
<mask id="mask0_789_9231" style="mask-type:luminance" maskUnits="userSpaceOnUse" x="6" y="70" width="89" height="19">
<path d="M6.66785 70.686H94.9231V88.4638H6.66785V70.686Z" fill="white"/>
</mask>
<g mask="url(#mask0_789_9231)">
<path fill-rule="evenodd" clip-rule="evenodd" d="M90.5133 88.3162H11.5203C8.84667 88.3162 6.66785 86.1374 6.66785 83.4638V77.101C6.66785 74.4274 8.84667 72.2485 11.5203 72.2485H90.5133C93.1956 72.2485 95.3658 74.4274 95.3658 77.101V83.4638C95.3658 86.1374 93.1956 88.3162 90.5133 88.3162ZM11.5203 75.0263C10.3744 75.0263 9.44562 75.9551 9.44562 77.101V83.4638C9.44562 84.6096 10.3744 85.5385 11.5203 85.5385H90.5133C91.6678 85.5385 92.5967 84.6096 92.5967 83.4638V77.101C92.5967 75.9551 91.6678 75.0263 90.5133 75.0263H11.5203Z" fill="#989AA5"/>
</g>
<path fill-rule="evenodd" clip-rule="evenodd" d="M89.0885 75.026H12.9427C12.1788 75.026 11.5625 74.401 11.5625 73.6371V27.2916C11.5625 24.618 13.7326 22.4479 16.4062 22.4479H51.9184C52.3524 22.4479 52.7604 22.6562 53.0208 23.0034C53.2899 23.3507 53.3681 23.802 53.2465 24.2274C52.8733 25.4774 52.6823 26.7882 52.6823 28.1076C52.6823 35.6336 58.8108 41.7708 66.3455 41.7708C73.8802 41.7708 80.0087 35.6423 80.0087 28.1076C80.0087 26.7882 79.8264 25.4774 79.4531 24.2274C79.3316 23.802 79.4097 23.3507 79.6701 23.0034C79.9306 22.6562 80.3472 22.4479 80.7812 22.4479H85.625C88.3073 22.4479 90.4774 24.618 90.4774 27.2916V73.6371C90.4774 74.401 89.8611 75.026 89.0885 75.026ZM14.3316 72.2482H87.7083V27.2916C87.7083 26.1458 86.7708 25.217 85.625 25.217H82.526C82.6997 26.1632 82.7865 27.1354 82.7865 28.1076C82.7865 37.1701 75.408 44.5399 66.3455 44.5399C57.283 44.5399 49.9132 37.1701 49.9132 28.1076C49.9132 27.1354 50 26.1718 50.1649 25.217H16.4062C15.2604 25.217 14.3316 26.1545 14.3316 27.2916V72.2482Z" fill="#989AA5"/>
<path fill-rule="evenodd" clip-rule="evenodd" d="M62.5672 81.6669H39.4683C36.7947 81.6669 34.6158 79.4881 34.6158 76.8145V73.6374C34.6158 72.8735 35.2408 72.2485 36.0047 72.2485H66.0308C66.7947 72.2485 67.411 72.8735 67.411 73.6374V76.8145C67.411 79.4968 65.2408 81.6669 62.5672 81.6669ZM37.3849 75.0263V76.8145C37.3849 77.9603 38.3224 78.8978 39.4683 78.8978H62.5672C63.7131 78.8978 64.6419 77.9603 64.6419 76.8145V75.0263H37.3849Z" fill="#989AA5"/>
<path fill-rule="evenodd" clip-rule="evenodd" d="M45.9462 66.7019H23.9931C21.7448 66.7019 19.9219 64.879 19.9219 62.6394V57.7609C19.9219 54.037 22.9514 51.0074 26.6753 51.0074H43.2639C46.9878 51.0074 50.0087 54.037 50.0087 57.7609V62.6394C50.0087 64.879 48.1858 66.7019 45.9462 66.7019ZM26.6753 53.7765C24.4792 53.7765 22.691 55.5647 22.691 57.7609V62.6394C22.691 63.3512 23.2726 63.9328 23.9931 63.9328H45.9462C46.658 63.9328 47.2396 63.3512 47.2396 62.6394V57.7609C47.2396 55.5647 45.4514 53.7765 43.2639 53.7765H26.6753Z" fill="#989AA5"/>
<path fill-rule="evenodd" clip-rule="evenodd" d="M34.9652 47.3692C30.3906 47.3692 26.6666 43.6453 26.6666 39.0619C26.6666 34.4873 30.3906 30.7633 34.9652 30.7633C39.5486 30.7633 43.2725 34.4873 43.2725 39.0619C43.2725 43.6453 39.5486 47.3692 34.9652 47.3692ZM34.9652 33.5324C31.9184 33.5324 29.4357 36.015 29.4357 39.0619C29.4357 42.1175 31.9184 44.6001 34.9652 44.6001C38.0121 44.6001 40.4948 42.1175 40.4948 39.0619C40.4948 36.015 38.0121 33.5324 34.9652 33.5324Z" fill="#989AA5"/>
<path fill-rule="evenodd" clip-rule="evenodd" d="M80.7292 65.5816H56.8316C56.0677 65.5816 55.4427 64.9653 55.4427 64.2014C55.4427 63.4288 56.0677 62.8125 56.8316 62.8125H80.7292C81.4931 62.8125 82.1181 63.4288 82.1181 64.2014C82.1181 64.9653 81.4931 65.5816 80.7292 65.5816Z" fill="#989AA5"/>
<path fill-rule="evenodd" clip-rule="evenodd" d="M67.1702 51.3287H56.8316C56.0677 51.3287 55.4427 50.7123 55.4427 49.9485C55.4427 49.1759 56.0677 48.5596 56.8316 48.5596H67.1702C67.9341 48.5596 68.5591 49.1759 68.5591 49.9485C68.5591 50.7123 67.9341 51.3287 67.1702 51.3287Z" fill="#989AA5"/>
<path fill-rule="evenodd" clip-rule="evenodd" d="M76.7535 58.3686H56.8316C56.0677 58.3686 55.4427 57.7436 55.4427 56.9797C55.4427 56.2158 56.0677 55.5908 56.8316 55.5908H76.7535C77.5174 55.5908 78.1424 56.2158 78.1424 56.9797C78.1424 57.7436 77.5174 58.3686 76.7535 58.3686Z" fill="#989AA5"/>
<path fill-rule="evenodd" clip-rule="evenodd" d="M66.3444 44.5399C57.2819 44.5399 49.9121 37.1701 49.9121 28.0989C49.9121 19.0364 57.2819 11.6666 66.3444 11.6666C75.4069 11.6666 82.7854 19.0364 82.7854 28.0989C82.7854 37.1701 75.4069 44.5399 66.3444 44.5399ZM66.3444 14.4357C58.8097 14.4357 52.6812 20.5642 52.6812 28.0989C52.6812 35.6336 58.8097 41.7708 66.3444 41.7708C73.8791 41.7708 80.0076 35.6336 80.0076 28.0989C80.0076 20.5642 73.8791 14.4357 66.3444 14.4357Z" fill="#989AA5"/>
<path fill-rule="evenodd" clip-rule="evenodd" d="M66.3444 36.6921C65.5806 36.6921 64.9642 36.0671 64.9642 35.3032V20.9022C64.9642 20.1383 65.5806 19.5133 66.3444 19.5133C67.1083 19.5133 67.7333 20.1383 67.7333 20.9022V35.3032C67.7333 36.0671 67.1083 36.6921 66.3444 36.6921Z" fill="#989AA5"/>
<path fill-rule="evenodd" clip-rule="evenodd" d="M73.5503 29.4878H59.1493C58.3854 29.4878 57.7604 28.8715 57.7604 28.1076C57.7604 27.3351 58.3854 26.7188 59.1493 26.7188H73.5503C74.3142 26.7188 74.9305 27.3351 74.9305 28.1076C74.9305 28.8715 74.3142 29.4878 73.5503 29.4878Z" fill="#989AA5"/>
</svg>
