<svg width="100" height="100" viewBox="0 0 100 100" fill="none" xmlns="http://www.w3.org/2000/svg">
<mask id="mask0_789_9229" style="mask-type:luminance" maskUnits="userSpaceOnUse" x="6" y="8" width="89" height="84">
<path d="M6.66794 8.33337H94.9231V91.5886H6.66794V8.33337Z" fill="white"/>
</mask>
<g mask="url(#mask0_789_9229)">
<path d="M94.117 54.8004C92.3983 52.8039 90.0458 52.448 87.1205 53.7327C84.8549 54.7396 82.5372 56.5886 80.4799 58.2292C79.0476 59.375 77.6847 60.4601 76.6952 60.9549C74.0302 62.2917 71.4695 63.2466 69.4382 63.6632C69.3948 63.0209 69.2386 62.3872 68.9521 61.7709C67.9191 59.5313 65.6622 58.0903 63.2142 58.0903H54.716C51.3392 58.0903 48.4573 57.474 45.3757 56.0764C34.5424 51.198 28.4747 57.4566 23.5962 62.4914C21.9903 64.1407 20.4712 65.7118 18.9087 66.7969L18.6743 66.3976C17.6934 64.6875 15.4972 64.0973 13.7785 65.0868L8.47466 68.1511C7.64133 68.6285 7.05105 69.4011 6.808 70.3299C6.55626 71.25 6.67779 72.2223 7.1639 73.0469L16.7125 89.5921C17.3722 90.7379 18.5788 91.3803 19.8201 91.3803C20.4278 91.3803 21.0441 91.2327 21.6083 90.9028L26.9208 87.8386C27.7455 87.3612 28.3358 86.5886 28.5875 85.6598C28.8306 84.7309 28.709 83.7674 28.2316 82.9427L28.0146 82.5608C33.5875 79.948 39.1083 81.1632 44.9504 82.4393C48.4399 83.2119 51.9903 83.9931 55.6535 83.9931C59.2212 83.9931 62.8931 83.2553 66.7212 81.0417C67.6761 80.4862 68.8479 79.8612 70.0892 79.2014C73.8045 77.2049 78.4313 74.7309 81.5129 72.0139C82.3722 71.25 83.5354 70.2865 84.7594 69.2622C87.9104 66.6146 91.8427 63.3247 94.1083 60.7987C95.6274 59.0973 95.6274 56.5712 94.1083 54.8004H94.117ZM26.4608 85.0955C26.3653 85.4514 26.1309 85.7466 25.8184 85.9289L20.5059 88.9931C19.8549 89.375 19.0042 89.1493 18.6222 88.4896L9.07362 71.9445C8.89133 71.632 8.83925 71.2587 8.93473 70.9028C9.03022 70.5382 9.26459 70.2431 9.57709 70.0608L14.8896 66.9966C15.5493 66.6146 16.3913 66.8403 16.7733 67.5L26.3219 84.0452C26.5042 84.3577 26.5563 84.7309 26.4608 85.0955ZM92.459 59.3316C90.3149 61.7362 86.4434 64.974 83.3445 67.5695C82.1031 68.6025 80.9399 69.5834 80.0545 70.3559C77.1639 72.908 72.6674 75.3212 69.0476 77.257C67.7976 77.9254 66.6083 78.5591 65.6188 79.132C58.5962 83.1858 52.1986 81.7796 45.4191 80.2952C39.4122 78.9671 33.2142 77.6129 26.9035 80.6424L20.0198 68.7066C21.808 67.5 23.4486 65.8073 25.1761 64.0191C30.0285 59.0191 35.0458 53.8368 44.4729 58.0903C47.8497 59.6181 51.0094 60.2952 54.716 60.2952H63.2142C64.8115 60.2952 66.2785 61.2414 66.9469 62.691C67.3896 63.6546 67.3201 64.6702 66.7559 65.5556C66.1917 66.441 65.2976 66.9271 64.2472 66.9271H51.3913C48.466 66.8664 45.6274 68.073 43.5962 70.2257C43.1708 70.6684 43.1969 71.3629 43.6396 71.7796C43.8479 71.9792 44.1257 72.0834 44.3948 72.0834C44.6813 72.0834 44.9764 71.9705 45.1934 71.7362C46.808 70.0348 49.0476 69.0799 51.3479 69.132C51.3566 69.132 51.3653 69.132 51.374 69.132H64.2386C66.0441 69.132 67.6413 68.2639 68.6136 66.7448C68.7698 66.4931 68.9 66.2414 69.0129 65.9809C71.4 65.625 74.4382 64.5573 77.6847 62.9254C78.874 62.3264 80.2542 61.224 81.8514 59.948C86.4868 56.2587 90.2021 53.6372 92.433 56.2414C93.2316 57.1615 93.2403 58.4636 92.459 59.3316ZM22.2594 83.8108C22.5719 84.3403 22.3896 85.0087 21.8601 85.3125C21.6865 85.4167 21.4955 85.4601 21.3132 85.4601C20.9313 85.4601 20.558 85.2605 20.3583 84.9132L19.0215 82.6042C18.7177 82.0747 18.9 81.3976 19.4208 81.0938C19.9504 80.79 20.6274 80.9723 20.9313 81.5018L22.2681 83.8108H22.2594ZM59.4556 30.9636C60.0892 31.7101 60.7663 32.4219 61.4955 33.0643C61.8688 33.3941 62.2767 33.6893 62.7021 33.9323V36.2934C62.7021 38.4462 61.4868 40.3907 59.6552 41.198H58.7872C58.1795 41.198 57.6847 41.6928 57.6847 42.3004V49.9653H56.7906C56.183 49.9653 55.6882 50.4601 55.6882 51.0678C55.6882 51.6841 56.183 52.1702 56.7906 52.1702H76.1656C76.7733 52.1702 77.2681 51.6841 77.2681 51.0678C77.2681 50.4601 76.7733 49.9653 76.1656 49.9653H75.2629V42.3004C75.2629 41.6928 74.7767 41.198 74.1604 41.198H73.3011C71.4695 40.3907 70.2455 38.4462 70.2455 36.2934V33.9323C70.6708 33.6893 71.0788 33.3941 71.4608 33.0643C72.1899 32.4219 72.867 31.7101 73.492 30.9636C81.0354 28.3681 85.8965 22.5955 85.8965 16.1546V12.3698C85.8965 11.7622 85.4017 11.2674 84.7941 11.2674H78.5875V9.4358C78.5875 8.82816 78.0927 8.33337 77.4851 8.33337H55.4625C54.8549 8.33337 54.3601 8.82816 54.3601 9.4358V11.2674H48.1535C47.5458 11.2674 47.0511 11.7622 47.0511 12.3698V16.1546C47.0511 22.5955 51.9122 28.3681 59.4556 30.9636ZM59.8896 49.974V43.4028H73.0667V49.974H59.8896ZM69.7767 41.198H63.1708C64.2646 39.8612 64.907 38.125 64.907 36.2934V34.783C65.4278 34.8872 65.9486 34.948 66.4781 34.948C66.999 34.948 67.5285 34.8872 68.0406 34.783V36.2934C68.0406 38.125 68.683 39.8612 69.7767 41.198ZM83.6917 13.4723V16.1546C83.6917 20.7553 80.6708 25 75.7663 27.5868C77.5806 24.2535 78.5875 20.3386 78.5875 16.3195V13.4723H83.6917ZM56.5649 10.5382H76.3827V16.3195C76.3827 22.2396 73.9955 27.882 70.0024 31.4063C67.9538 33.2118 64.9938 33.2118 62.9538 31.4063C58.9521 27.882 56.5649 22.2396 56.5649 16.3195V10.5382ZM49.2646 13.4723H54.3688V16.3195C54.3688 20.3386 55.3757 24.2535 57.1813 27.5868C52.2854 25 49.2646 20.7553 49.2646 16.1546V13.4723Z" fill="#989AA5"/>
</g>
</svg>
