<svg width="120" height="120" viewBox="0 0 120 120" fill="none" xmlns="http://www.w3.org/2000/svg">
<rect x="0.5" y="0.5" width="119" height="119" rx="59.5" fill="white"/>
<rect x="0.5" y="0.5" width="119" height="119" rx="59.5" stroke="#EC008C"/>
<rect x="7" y="7" width="106" height="106" rx="53" fill="white"/>
<rect x="7" y="7" width="106" height="106" rx="53" stroke="#EC008C" stroke-width="4"/>
<mask id="mask0_675_3819" style="mask-type:alpha" maskUnits="userSpaceOnUse" x="48" y="32" width="24" height="24">
<rect x="48" y="32" width="24" height="24" fill="#D9D9D9"/>
</mask>
<g mask="url(#mask0_675_3819)">
<path d="M56.25 38L60 33L63.75 38H56.25ZM54 42V40.85C53.1333 40.6333 52.4167 40.175 51.85 39.475C51.2833 38.775 51 37.9583 51 37.025H53C53 37.5583 53.1958 38.0208 53.5875 38.4125C53.9792 38.8042 54.4417 39 54.975 39H65.025C65.5583 39 66.0208 38.8042 66.4125 38.4125C66.8042 38.0208 67 37.5583 67 37.025H69C69 37.9583 68.7167 38.775 68.15 39.475C67.5833 40.175 66.8667 40.6333 66 40.85V42H54ZM52 54V44.85C51.1333 44.6333 50.4167 44.175 49.85 43.475C49.2833 42.775 49 41.9583 49 41.025H51C51 41.5583 51.1958 42.0208 51.5875 42.4125C51.9792 42.8042 52.4417 43 52.975 43H67.025C67.5583 43 68.0208 42.8042 68.4125 42.4125C68.8042 42.0208 69 41.5583 69 41.025H71C71 41.9583 70.7167 42.775 70.15 43.475C69.5833 44.175 68.8667 44.6333 68 44.85V54H61V50C61 49.7167 60.9042 49.4792 60.7125 49.2875C60.5208 49.0958 60.2833 49 60 49C59.7167 49 59.4792 49.0958 59.2875 49.2875C59.0958 49.4792 59 49.7167 59 50V54H52Z" fill="#EC008C"/>
</g>
<path d="M38.2915 67.6152C38.9022 67.6152 39.4445 67.7314 39.9185 67.9639C40.397 68.1963 40.773 68.5381 41.0464 68.9893C41.3198 69.4404 41.4566 69.9964 41.4566 70.6572C41.4566 71.3773 41.3062 71.9993 41.0054 72.5234C40.7092 73.043 40.2648 73.4417 39.6724 73.7197C39.0845 73.9977 38.3508 74.1367 37.4712 74.1367C36.9471 74.1367 36.4527 74.0911 35.9878 74C35.5275 73.9134 35.1242 73.779 34.7779 73.5967V71.7715C35.1242 71.9538 35.5389 72.1087 36.022 72.2363C36.5096 72.3594 36.9676 72.4209 37.396 72.4209C37.8153 72.4209 38.1685 72.3662 38.4556 72.2568C38.7427 72.1429 38.9592 71.9697 39.105 71.7373C39.2554 71.5003 39.3306 71.1995 39.3306 70.835C39.3306 70.3473 39.1665 69.9736 38.8384 69.7139C38.5103 69.4541 38.0067 69.3242 37.3277 69.3242C37.0679 69.3242 36.7967 69.3493 36.5142 69.3994C36.2362 69.4495 36.0038 69.4997 35.8169 69.5498L34.9761 69.0986L35.3521 64.0059H40.773V65.7969H37.2046L37.02 67.7588C37.175 67.7269 37.3436 67.695 37.5259 67.6631C37.7082 67.6312 37.9634 67.6152 38.2915 67.6152ZM50.296 74H48.1768V65.7695H45.463V64.0059H53.0098V65.7695H50.296V74ZM57.18 64.0059C58.0869 64.0059 58.8343 64.1152 59.4222 64.334C60.0147 64.5527 60.4545 64.8831 60.7416 65.3252C61.0287 65.7673 61.1722 66.3255 61.1722 67C61.1722 67.4557 61.0856 67.8545 60.9125 68.1963C60.7393 68.5381 60.5114 68.8275 60.2289 69.0645C59.9463 69.3014 59.641 69.4951 59.3129 69.6455L62.2523 74H59.9007L57.515 70.165H56.3871V74H54.2679V64.0059H57.18ZM57.0296 65.7422H56.3871V68.4424H57.0707C57.7725 68.4424 58.2738 68.3262 58.5746 68.0938C58.8799 67.8568 59.0326 67.5104 59.0326 67.0547C59.0326 66.5807 58.8685 66.2435 58.5404 66.043C58.2168 65.8424 57.7132 65.7422 57.0296 65.7422ZM63.2301 74V64.0059H65.3493V74H63.2301ZM70.7773 64.0059C72.067 64.0059 73.0081 64.2839 73.6005 64.8398C74.193 65.3913 74.4892 66.1523 74.4892 67.123C74.4892 67.5605 74.4231 67.9798 74.2909 68.3809C74.1588 68.7773 73.9423 69.1305 73.6415 69.4404C73.3453 69.7503 72.9488 69.9964 72.4521 70.1787C71.9553 70.3564 71.3424 70.4453 70.6132 70.4453H69.704V74H67.5849V64.0059H70.7773ZM70.6679 65.7422H69.704V68.709H70.4013C70.7978 68.709 71.1418 68.6566 71.4335 68.5518C71.7252 68.4469 71.9508 68.2829 72.1103 68.0596C72.2698 67.8363 72.3495 67.5492 72.3495 67.1982C72.3495 66.7061 72.2128 66.3415 71.9394 66.1045C71.6659 65.863 71.2421 65.7422 70.6679 65.7422ZM81.9953 71.2246C81.9953 71.8171 81.8518 72.332 81.5647 72.7695C81.2775 73.207 80.8583 73.5443 80.3068 73.7812C79.76 74.0182 79.0946 74.1367 78.3107 74.1367C77.9644 74.1367 77.6249 74.1139 77.2922 74.0684C76.9641 74.0228 76.6473 73.9567 76.342 73.8701C76.0412 73.779 75.7541 73.6673 75.4807 73.5352V71.5664C75.9546 71.776 76.4468 71.9652 76.9572 72.1338C77.4676 72.3024 77.9735 72.3867 78.4748 72.3867C78.8212 72.3867 79.0992 72.3411 79.3088 72.25C79.523 72.1589 79.6779 72.0335 79.7736 71.874C79.8693 71.7145 79.9172 71.5322 79.9172 71.3271C79.9172 71.0765 79.8329 70.8623 79.6643 70.6846C79.4956 70.5068 79.2632 70.3405 78.967 70.1855C78.6753 70.0306 78.3449 69.8643 77.9758 69.6865C77.7434 69.5771 77.4904 69.445 77.217 69.29C76.9436 69.1305 76.6838 68.9368 76.4377 68.709C76.1916 68.4811 75.9888 68.2054 75.8293 67.8818C75.6744 67.5537 75.5969 67.1618 75.5969 66.7061C75.5969 66.109 75.7336 65.5986 76.007 65.1748C76.2805 64.751 76.6701 64.4274 77.176 64.2041C77.6864 63.9762 78.288 63.8623 78.9807 63.8623C79.5002 63.8623 79.9947 63.9238 80.4641 64.0469C80.938 64.1654 81.4325 64.3385 81.9475 64.5664L81.2639 66.2139C80.8036 66.027 80.3911 65.8835 80.0266 65.7832C79.662 65.6784 79.2906 65.626 78.9123 65.626C78.648 65.626 78.4224 65.6693 78.2355 65.7559C78.0487 65.8379 77.9074 65.9564 77.8117 66.1113C77.716 66.2617 77.6682 66.4372 77.6682 66.6377C77.6682 66.8747 77.7365 67.0752 77.8732 67.2393C78.0145 67.3988 78.2242 67.5537 78.5022 67.7041C78.7847 67.8545 79.1356 68.0299 79.5549 68.2305C80.0653 68.472 80.5005 68.7249 80.8605 68.9893C81.2251 69.249 81.5054 69.5566 81.7014 69.9121C81.8973 70.263 81.9953 70.7005 81.9953 71.2246ZM30.5839 88L29.8593 85.6211H26.2157L25.4911 88H23.2079L26.7352 77.9648H29.3261L32.8671 88H30.5839ZM29.3534 83.8438L28.6288 81.5195C28.5832 81.3646 28.5217 81.1663 28.4442 80.9248C28.3713 80.6787 28.2961 80.4303 28.2186 80.1797C28.1457 79.9245 28.0865 79.7035 28.0409 79.5166C27.9953 79.7035 27.9315 79.9359 27.8495 80.2139C27.772 80.4873 27.6968 80.7471 27.6239 80.9932C27.551 81.2393 27.4986 81.4147 27.4667 81.5195L26.7489 83.8438H29.3534ZM41.6925 78.0059L38.2951 88H35.9845L32.5939 78.0059H34.7336L36.6134 83.9531C36.6453 84.0534 36.6977 84.2425 36.7707 84.5205C36.8436 84.7939 36.9165 85.0856 36.9894 85.3955C37.0669 85.7008 37.1193 85.9538 37.1466 86.1543C37.174 85.9538 37.2218 85.7008 37.2902 85.3955C37.3631 85.0902 37.4338 84.8008 37.5021 84.5273C37.575 84.2493 37.6274 84.0579 37.6593 83.9531L39.5529 78.0059H41.6925ZM48.7953 88L48.0707 85.6211H44.4272L43.7026 88H41.4194L44.9467 77.9648H47.5375L51.0786 88H48.7953ZM47.5649 83.8438L46.8403 81.5195C46.7947 81.3646 46.7332 81.1663 46.6557 80.9248C46.5828 80.6787 46.5076 80.4303 46.4301 80.1797C46.3572 79.9245 46.298 79.7035 46.2524 79.5166C46.2068 79.7035 46.143 79.9359 46.061 80.2139C45.9835 80.4873 45.9083 80.7471 45.8354 80.9932C45.7625 81.2393 45.7101 81.4147 45.6782 81.5195L44.9604 83.8438H47.5649ZM52.0632 88V78.0059H54.1823V88H52.0632ZM56.418 88V78.0059H58.5371V86.25H62.5908V88H56.418ZM70.1721 88L69.4475 85.6211H65.804L65.0794 88H62.7962L66.3235 77.9648H68.9143L72.4553 88H70.1721ZM68.9417 83.8438L68.2171 81.5195C68.1715 81.3646 68.11 81.1663 68.0325 80.9248C67.9596 80.6787 67.8844 80.4303 67.8069 80.1797C67.734 79.9245 67.6748 79.7035 67.6292 79.5166C67.5836 79.7035 67.5198 79.9359 67.4378 80.2139C67.3603 80.4873 67.2851 80.7471 67.2122 80.9932C67.1393 81.2393 67.0869 81.4147 67.055 81.5195L66.3372 83.8438H68.9417ZM73.44 78.0059H76.5504C77.8811 78.0059 78.8882 78.1927 79.5718 78.5664C80.2554 78.9401 80.5972 79.5964 80.5972 80.5352C80.5972 80.9134 80.5357 81.2552 80.4127 81.5605C80.2942 81.8659 80.121 82.1165 79.8931 82.3125C79.6653 82.5085 79.3873 82.6361 79.0591 82.6953V82.7637C79.3918 82.832 79.6926 82.9505 79.9615 83.1191C80.2304 83.2832 80.4446 83.5247 80.6041 83.8438C80.7681 84.1582 80.8502 84.5775 80.8502 85.1016C80.8502 85.7077 80.702 86.2272 80.4058 86.6602C80.1096 87.0931 79.6858 87.4258 79.1343 87.6582C78.5875 87.8861 77.9358 88 77.1793 88H73.44V78.0059ZM75.5591 81.9639H76.7896C77.4048 81.9639 77.831 81.8682 78.0679 81.6768C78.3049 81.4808 78.4234 81.1937 78.4234 80.8154C78.4234 80.4326 78.2821 80.1592 77.9996 79.9951C77.7216 79.8265 77.2795 79.7422 76.6734 79.7422H75.5591V81.9639ZM75.5591 83.6455V86.25H76.94C77.578 86.25 78.0224 86.127 78.273 85.8809C78.5237 85.6348 78.649 85.3044 78.649 84.8896C78.649 84.6436 78.5943 84.4271 78.4849 84.2402C78.3755 84.0534 78.191 83.9076 77.9312 83.8027C77.676 83.6979 77.3228 83.6455 76.8716 83.6455H75.5591ZM82.5663 88V78.0059H84.6854V86.25H88.7391V88H82.5663ZM95.9581 88H90.2023V78.0059H95.9581V79.7422H92.3214V81.9365H95.7052V83.6729H92.3214V86.25H95.9581V88Z" fill="#EC008C"/>
</svg>
