<svg preserveAspectRatio="none" width="100%" height="100%" overflow="visible" style="display: block;" viewBox="0 0 15.9375 15.8333" fill="none" xmlns="http://www.w3.org/2000/svg">
<path id="Vector" d="M6.77083 11.6667H10.1042V10H6.77083V11.6667ZM6.77083 8.33333H12.6042V6.66667H6.77083V8.33333ZM4.27083 5H12.6042V3.33333H4.27083V5ZM3.95833 15.8333C2.86111 15.8333 1.92708 15.4479 1.15625 14.6771C0.385417 13.9063 0 12.9722 0 11.875C0 11.0833 0.204861 10.375 0.614583 9.75C1.02431 9.125 1.5625 8.65278 2.22917 8.33333H0.104167V6.66667H5.10417V11.6667H3.4375V9.64583C2.92361 9.75694 2.5 10.0208 2.16667 10.4375C1.83333 10.8542 1.66667 11.3333 1.66667 11.875C1.66667 12.5139 1.89236 13.0556 2.34375 13.5C2.79514 13.9444 3.33333 14.1667 3.95833 14.1667V15.8333ZM6.77083 15V13.3333H14.2708V1.66667H2.60417V5H0.9375V1.66667C0.9375 1.20833 1.10069 0.815972 1.42708 0.489583C1.75347 0.163194 2.14583 0 2.60417 0H14.2708C14.7292 0 15.1215 0.163194 15.4479 0.489583C15.7743 0.815972 15.9375 1.20833 15.9375 1.66667V13.3333C15.9375 13.7917 15.7743 14.184 15.4479 14.5104C15.1215 14.8368 14.7292 15 14.2708 15H6.77083Z" fill="currentColor"/>
</svg>
