<svg preserveAspectRatio="none" width="100%" height="100%" overflow="visible" style="display: block;" viewBox="0 0 15 16.6667" fill="none" xmlns="http://www.w3.org/2000/svg">
<path id="Vector" d="M1.66667 16.6667C1.20833 16.6667 0.815972 16.5035 0.489583 16.1771C0.163194 15.8507 0 15.4583 0 15V3.33333C0 2.875 0.163194 2.48264 0.489583 2.15625C0.815972 1.82986 1.20833 1.66667 1.66667 1.66667H5.16667C5.36111 1.16667 5.66667 0.763889 6.08333 0.458333C6.5 0.152778 6.97222 0 7.5 0C8.02778 0 8.5 0.152778 8.91667 0.458333C9.33333 0.763889 9.63889 1.16667 9.83333 1.66667H13.3333C13.7917 1.66667 14.184 1.82986 14.5104 2.15625C14.8368 2.48264 15 2.875 15 3.33333V15C15 15.4583 14.8368 15.8507 14.5104 16.1771C14.184 16.5035 13.7917 16.6667 13.3333 16.6667H1.66667ZM7.94792 2.53125C8.06597 2.41319 8.125 2.26389 8.125 2.08333C8.125 1.90278 8.06597 1.75347 7.94792 1.63542C7.82986 1.51736 7.68056 1.45833 7.5 1.45833C7.31944 1.45833 7.17014 1.51736 7.05208 1.63542C6.93403 1.75347 6.875 1.90278 6.875 2.08333C6.875 2.26389 6.93403 2.41319 7.05208 2.53125C7.17014 2.64931 7.31944 2.70833 7.5 2.70833C7.68056 2.70833 7.82986 2.64931 7.94792 2.53125ZM1.66667 14.0417C2.41667 13.3056 3.28819 12.7257 4.28125 12.3021C5.27431 11.8785 6.34722 11.6667 7.5 11.6667C8.65278 11.6667 9.72569 11.8785 10.7187 12.3021C11.7118 12.7257 12.5833 13.3056 13.3333 14.0417V3.33333H1.66667V14.0417ZM9.5625 9.14583C10.1319 8.57639 10.4167 7.88889 10.4167 7.08333C10.4167 6.27778 10.1319 5.59028 9.5625 5.02083C8.99306 4.45139 8.30556 4.16667 7.5 4.16667C6.69444 4.16667 6.00694 4.45139 5.4375 5.02083C4.86806 5.59028 4.58333 6.27778 4.58333 7.08333C4.58333 7.88889 4.86806 8.57639 5.4375 9.14583C6.00694 9.71528 6.69444 10 7.5 10C8.30556 10 8.99306 9.71528 9.5625 9.14583ZM3.33333 15H11.6667V14.7917C11.0833 14.3056 10.4375 13.941 9.72917 13.6979C9.02083 13.4549 8.27778 13.3333 7.5 13.3333C6.72222 13.3333 5.97917 13.4549 5.27083 13.6979C4.5625 13.941 3.91667 14.3056 3.33333 14.7917V15ZM6.61458 7.96875C6.37153 7.72569 6.25 7.43056 6.25 7.08333C6.25 6.73611 6.37153 6.44097 6.61458 6.19792C6.85764 5.95486 7.15278 5.83333 7.5 5.83333C7.84722 5.83333 8.14236 5.95486 8.38542 6.19792C8.62847 6.44097 8.75 6.73611 8.75 7.08333C8.75 7.43056 8.62847 7.72569 8.38542 7.96875C8.14236 8.21181 7.84722 8.33333 7.5 8.33333C7.15278 8.33333 6.85764 8.21181 6.61458 7.96875Z" fill="currentColor"/>
</svg>
