<svg preserveAspectRatio="none" width="100%" height="100%" overflow="visible" style="display: block;" viewBox="0 0 14.1629 14.1603" fill="none" xmlns="http://www.w3.org/2000/svg">
<path id="Vector" d="M2 12.1603C1.375 11.5353 0.885417 10.813 0.53125 9.99359C0.177083 9.17415 0 8.32692 0 7.45192C0 6.57692 0.166667 5.71234 0.5 4.85817C0.833333 4.00401 1.375 3.20192 2.125 2.45192C2.61111 1.96581 3.21181 1.54915 3.92708 1.20192C4.64236 0.854701 5.48958 0.580395 6.46875 0.379006C7.44792 0.177618 8.56597 0.0560897 9.82292 0.0144231C11.0799 -0.0272436 12.4861 0.0213675 14.0417 0.160256C14.1528 1.63248 14.1875 2.98665 14.1458 4.22276C14.1042 5.45887 13.9896 6.57345 13.8021 7.56651C13.6146 8.55956 13.3507 9.42762 13.0104 10.1707C12.6701 10.9137 12.25 11.5353 11.75 12.0353C11.0139 12.7714 10.2326 13.3096 9.40625 13.6498C8.57986 13.9901 7.73611 14.1603 6.875 14.1603C5.97222 14.1603 5.09028 13.9832 4.22917 13.629C3.36806 13.2748 2.625 12.7853 2 12.1603ZM4.33333 11.8269C4.73611 12.063 5.14931 12.2332 5.57292 12.3373C5.99653 12.4415 6.43056 12.4936 6.875 12.4936C7.51389 12.4936 8.14583 12.3651 8.77083 12.1082C9.39583 11.8512 9.99306 11.438 10.5625 10.8686C10.8125 10.6186 11.066 10.2679 11.3229 9.81651C11.5799 9.36512 11.8021 8.77484 11.9896 8.04567C12.1771 7.31651 12.3194 6.43456 12.4167 5.39984C12.5139 4.36512 12.5278 3.13248 12.4583 1.70192C11.7778 1.67415 11.0104 1.66373 10.1562 1.67067C9.30208 1.67762 8.45139 1.74359 7.60417 1.86859C6.75694 1.99359 5.95139 2.19498 5.1875 2.47276C4.42361 2.75053 3.79861 3.13248 3.3125 3.61859C2.6875 4.24359 2.25694 4.86165 2.02083 5.47276C1.78472 6.08387 1.66667 6.67414 1.66667 7.24359C1.66667 8.06303 1.82292 8.78178 2.13542 9.39984C2.44792 10.0179 2.72222 10.4519 2.95833 10.7019C3.54167 9.59081 4.3125 8.52484 5.27083 7.50401C6.22917 6.48317 7.34722 5.64637 8.625 4.99359C7.625 5.86859 6.75347 6.85817 6.01042 7.96234C5.26736 9.06651 4.70833 10.3547 4.33333 11.8269Z" fill="currentColor"/>
</svg>
