<svg preserveAspectRatio="none" width="100%" height="100%" overflow="visible" style="display: block;" viewBox="0 0 15.8333 16.6667" fill="none" xmlns="http://www.w3.org/2000/svg">
<path id="Vector" d="M8.33333 16.6667V14.1042L12.9375 9.52083C13.0625 9.39583 13.2014 9.30556 13.3542 9.25C13.5069 9.19444 13.6597 9.16667 13.8125 9.16667C13.9792 9.16667 14.1389 9.19792 14.2917 9.26042C14.4444 9.32292 14.5833 9.41667 14.7083 9.54167L15.4792 10.3125C15.5903 10.4375 15.6771 10.5764 15.7396 10.7292C15.8021 10.8819 15.8333 11.0347 15.8333 11.1875C15.8333 11.3403 15.8056 11.4965 15.75 11.6562C15.6944 11.816 15.6042 11.9583 15.4792 12.0833L10.8958 16.6667H8.33333ZM9.58333 15.4167H10.375L12.8958 12.875L12.5208 12.4792L12.125 12.1042L9.58333 14.625V15.4167ZM1.66667 16.6667C1.20833 16.6667 0.815972 16.5035 0.489583 16.1771C0.163194 15.8507 0 15.4583 0 15V1.66667C0 1.20833 0.163194 0.815972 0.489583 0.489583C0.815972 0.163194 1.20833 0 1.66667 0H8.33333L13.3333 5V7.5H11.6667V5.83333H7.5V1.66667H1.66667V15H6.66667V16.6667H1.66667ZM12.5208 12.4792L12.125 12.1042L12.8958 12.875L12.5208 12.4792Z" fill="currentColor"/>
</svg>
