<svg preserveAspectRatio="none" width="100%" height="100%" overflow="visible" style="display: block;" viewBox="0 0 16.6667 17.5" fill="none" xmlns="http://www.w3.org/2000/svg">
<path id="Vector" d="M1.66667 17.5V8.33333H0V3.33333H4.33333C4.26389 3.20833 4.21875 3.07639 4.19792 2.9375C4.17708 2.79861 4.16667 2.65278 4.16667 2.5C4.16667 1.80556 4.40972 1.21528 4.89583 0.729167C5.38194 0.243056 5.97222 0 6.66667 0C6.98611 0 7.28472 0.0590278 7.5625 0.177083C7.84028 0.295139 8.09722 0.458333 8.33333 0.666667C8.56944 0.444444 8.82639 0.277778 9.10417 0.166667C9.38194 0.0555556 9.68056 0 10 0C10.6944 0 11.2847 0.243056 11.7708 0.729167C12.2569 1.21528 12.5 1.80556 12.5 2.5C12.5 2.65278 12.4861 2.79514 12.4583 2.92708C12.4306 3.05903 12.3889 3.19444 12.3333 3.33333H16.6667V8.33333H15V17.5H1.66667ZM9.40625 1.90625C9.24653 2.06597 9.16667 2.26389 9.16667 2.5C9.16667 2.73611 9.24653 2.93403 9.40625 3.09375C9.56597 3.25347 9.76389 3.33333 10 3.33333C10.2361 3.33333 10.434 3.25347 10.5938 3.09375C10.7535 2.93403 10.8333 2.73611 10.8333 2.5C10.8333 2.26389 10.7535 2.06597 10.5938 1.90625C10.434 1.74653 10.2361 1.66667 10 1.66667C9.76389 1.66667 9.56597 1.74653 9.40625 1.90625ZM5.83333 2.5C5.83333 2.73611 5.91319 2.93403 6.07292 3.09375C6.23264 3.25347 6.43056 3.33333 6.66667 3.33333C6.90278 3.33333 7.10069 3.25347 7.26042 3.09375C7.42014 2.93403 7.5 2.73611 7.5 2.5C7.5 2.26389 7.42014 2.06597 7.26042 1.90625C7.10069 1.74653 6.90278 1.66667 6.66667 1.66667C6.43056 1.66667 6.23264 1.74653 6.07292 1.90625C5.91319 2.06597 5.83333 2.26389 5.83333 2.5ZM1.66667 5V6.66667H7.5V5H1.66667ZM7.5 15.8333V8.33333H3.33333V15.8333H7.5ZM9.16667 15.8333H13.3333V8.33333H9.16667V15.8333ZM15 6.66667V5H9.16667V6.66667H15Z" fill="currentColor"/>
</svg>
