<svg preserveAspectRatio="none" width="100%" height="100%" overflow="visible" style="display: block;" viewBox="0 0 10.8333 16.7083" fill="none" xmlns="http://www.w3.org/2000/svg">
<path id="Vector" d="M1.64583 13.375V8.35417L1.85417 7.54167H9.77083L9.97917 8.35417V13.375H1.64583ZM3.33333 9.20833V11.7083H8.33333V9.20833H3.33333ZM6.40625 3.11458C6.56597 2.95486 6.64583 2.75694 6.64583 2.52083C6.64583 2.28472 6.56597 2.08681 6.40625 1.92708C6.24653 1.76736 6.04861 1.6875 5.8125 1.6875C5.57639 1.6875 5.37847 1.76736 5.21875 1.92708C5.05903 2.08681 4.97917 2.28472 4.97917 2.52083C4.97917 2.75694 5.05903 2.95486 5.21875 3.11458C5.37847 3.27431 5.57639 3.35417 5.8125 3.35417C6.04861 3.35417 6.24653 3.27431 6.40625 3.11458ZM9.16667 3V2.04167L8.29167 2.20833C8.30556 2.26389 8.3125 2.31597 8.3125 2.36458V2.67708C8.3125 2.72569 8.30556 2.77778 8.29167 2.83333L9.16667 3ZM1.64583 8.35417C1.64583 7.47917 1.88889 6.69444 2.375 6C2.86111 5.30556 3.49306 4.80556 4.27083 4.5C4.11806 4.38889 3.98264 4.26042 3.86458 4.11458C3.74653 3.96875 3.64583 3.80556 3.5625 3.625L0 2.9375V2.10417L3.5625 1.41667C3.77083 1 4.07292 0.659722 4.46875 0.395833C4.86458 0.131944 5.3125 0 5.8125 0C6.13194 0 6.4375 0.0625 6.72917 0.1875C7.02083 0.3125 7.27778 0.472222 7.5 0.666667L10.8333 0.0208333V5.02083L7.5 4.375C7.47222 4.40278 7.44792 4.42361 7.42708 4.4375C7.40625 4.45139 7.38194 4.47222 7.35417 4.5C8.13194 4.80556 8.76389 5.30556 9.25 6C9.73611 6.69444 9.97917 7.47917 9.97917 8.35417H8.33333C8.33333 7.65972 8.09028 7.07292 7.60417 6.59375C7.11806 6.11458 6.52778 5.875 5.83333 5.875C5.13889 5.875 4.54861 6.11458 4.0625 6.59375C3.57639 7.07292 3.33333 7.65972 3.33333 8.35417H1.64583ZM3.3125 16.7083C2.85417 16.7083 2.46181 16.5451 2.13542 16.2188C1.80903 15.8924 1.64583 15.5 1.64583 15.0417V13.375H3.33333V15.0417H8.33333V13.375H9.97917V15.0417C9.97917 15.5 9.81597 15.8924 9.48958 16.2188C9.16319 16.5451 8.77083 16.7083 8.3125 16.7083H3.3125Z" fill="currentColor"/>
</svg>
