<svg preserveAspectRatio="none" width="100%" height="100%" overflow="visible" style="display: block;" viewBox="0 0 13.3333 16.6667" fill="none" xmlns="http://www.w3.org/2000/svg">
<path id="Vector" d="M3.33333 16.6667C2.41667 16.6667 1.63194 16.3403 0.979167 15.6875C0.326389 15.0347 0 14.25 0 13.3333V6.66667C0 5.875 0.236111 5.1875 0.708333 4.60417C1.18056 4.02083 1.77778 3.63194 2.5 3.4375V1.66667C2.5 1.20833 2.66319 0.815972 2.98958 0.489583C3.31597 0.163194 3.70833 0 4.16667 0H9.16667C9.625 0 10.0174 0.163194 10.3438 0.489583C10.6701 0.815972 10.8333 1.20833 10.8333 1.66667V3.4375C11.5556 3.63194 12.1528 4.02083 12.625 4.60417C13.0972 5.1875 13.3333 5.875 13.3333 6.66667V13.3333C13.3333 14.25 13.0069 15.0347 12.3542 15.6875C11.7014 16.3403 10.9167 16.6667 10 16.6667H3.33333ZM1.66667 9.16667H11.6667V6.66667C11.6667 6.20833 11.5035 5.81597 11.1771 5.48958C10.8507 5.16319 10.4583 5 10 5H3.33333C2.875 5 2.48264 5.16319 2.15625 5.48958C1.82986 5.81597 1.66667 6.20833 1.66667 6.66667V9.16667ZM3.33333 15H10C10.4583 15 10.8507 14.8368 11.1771 14.5104C11.5035 14.184 11.6667 13.7917 11.6667 13.3333V10.8333H1.66667V13.3333C1.66667 13.7917 1.82986 14.184 2.15625 14.5104C2.48264 14.8368 2.875 15 3.33333 15ZM7.5 3.33333H9.16667V1.66667H4.16667V3.33333H5.83333C5.83333 3.09722 5.91319 2.89931 6.07292 2.73958C6.23264 2.57986 6.43056 2.5 6.66667 2.5C6.90278 2.5 7.1007 2.57986 7.26042 2.73958C7.42014 2.89931 7.5 3.09722 7.5 3.33333Z" fill="currentColor"/>
</svg>
